<svg width="95" height="90" viewBox="0 0 95 90" fill="none" xmlns="http://www.w3.org/2000/svg">
<g filter="url(#filter0_d_1403_1695)">
<rect x="14" y="14" width="67" height="62" rx="13" fill="white"/>
</g>
<path d="M30.6592 56.3886L44.7152 64.5038C45.1145 64.7335 45.5671 64.8544 46.0277 64.8544C46.4884 64.8544 46.941 64.7335 47.3402 64.5038L61.3965 56.3885C61.795 56.1575 62.1259 55.826 62.3563 55.4271C62.5866 55.0282 62.7082 54.5758 62.709 54.1152V37.8847C62.7082 37.4241 62.5866 36.9717 62.3563 36.5728C62.126 36.1739 61.795 35.8424 61.3965 35.6114L47.3403 27.4961C46.941 27.2664 46.4885 27.1455 46.0278 27.1455C45.5672 27.1455 45.1146 27.2664 44.7153 27.4961L30.6592 35.6114C30.2606 35.8423 29.9297 36.1738 29.6993 36.5728C29.469 36.9717 29.3474 37.4241 29.3467 37.8847V54.1153C29.3474 54.5759 29.469 55.0283 29.6993 55.4272C29.9297 55.8261 30.2606 56.1576 30.6592 56.3886V56.3886ZM47.3402 30.5272L60.0839 37.8847V52.4353L47.3402 45.2323V30.5272ZM46.0236 47.5034L58.9152 54.79L46.0281 62.2303L33.1362 54.7876L46.0236 47.5034ZM31.9717 37.8847L44.7152 30.5272V45.2272L31.9717 52.4304V37.8847Z" fill="#E84025"/>
<defs>
<filter id="filter0_d_1403_1695" x="0" y="0" width="95" height="90" filterUnits="userSpaceOnUse" color-interpolation-filters="sRGB">
<feFlood flood-opacity="0" result="BackgroundImageFix"/>
<feColorMatrix in="SourceAlpha" type="matrix" values="0 0 0 0 0 0 0 0 0 0 0 0 0 0 0 0 0 0 127 0" result="hardAlpha"/>
<feOffset/>
<feGaussianBlur stdDeviation="7"/>
<feComposite in2="hardAlpha" operator="out"/>
<feColorMatrix type="matrix" values="0 0 0 0 0 0 0 0 0 0 0 0 0 0 0 0 0 0 0.09 0"/>
<feBlend mode="normal" in2="BackgroundImageFix" result="effect1_dropShadow_1403_1695"/>
<feBlend mode="normal" in="SourceGraphic" in2="effect1_dropShadow_1403_1695" result="shape"/>
</filter>
</defs>
</svg>
