<svg width="43" height="43" viewBox="0 0 43 43" fill="none" xmlns="http://www.w3.org/2000/svg">
<rect width="43" height="43" fill="#D097F9"/>
<rect x="1.53516" y="1.53564" width="39.9286" height="39.9286" fill="#1F063E"/>
<path d="M12.2611 26.1885L10.8176 32.0259C10.7878 32.186 10.7281 32.2477 10.5468 32.2477H7.87098C7.68975 32.2477 7.6599 32.1837 7.68975 31.9573L12.8624 12.5449C12.9519 12.1905 13.0138 11.9115 13.0436 10.9444C13.0436 10.8163 13.1033 10.75 13.195 10.75H17.0137C17.1331 10.75 17.1928 10.782 17.2248 10.9444L23.0285 31.9893C23.0584 32.1517 23.0285 32.2477 22.8771 32.2477H19.8708C19.7215 32.2477 19.6298 32.186 19.6 32.0579L18.0968 26.1885H12.2611ZM15.1779 13.8276L13.018 23.0148L17.3762 23.0171L15.1779 13.8276ZM27.1436 25.0155C27.1734 27.6587 28.3461 29.433 31.1137 29.433C32.1968 29.433 33.1243 29.2798 34.0859 28.8271C34.2053 28.7631 34.297 28.7951 34.297 28.9551V31.4063C34.297 31.6006 34.2373 31.6967 34.1157 31.7927C33.1541 32.3094 31.4833 32.2477 30.7154 32.2477C25.9053 32.2477 23.8366 28.7288 23.8366 24.4713C23.8366 19.8594 26.0626 16.0867 29.9708 16.0867C33.9388 16.0867 35.3225 19.6651 35.3225 22.5689C35.3225 23.5041 35.2628 24.277 35.1733 24.6337C35.1434 24.7937 35.0837 24.8509 34.9324 24.8829C34.572 24.9469 33.4889 25.0109 31.8962 25.0109L27.1436 25.0155ZM30.8429 22.3289C31.7746 22.3289 32.1051 22.3289 32.1968 22.2968C32.1968 20.792 31.7176 18.9425 29.8514 18.9425C28.1073 18.9425 27.3547 20.5865 27.1756 22.3289H30.8429Z" fill="#D097F9"/>
</svg>
