<svg width="21" height="24" viewBox="0 0 21 24" fill="none" xmlns="http://www.w3.org/2000/svg">
<path fill-rule="evenodd" clip-rule="evenodd" d="M10.4842 1.9838C8.86047 1.9838 7.54886 3.32784 7.54886 4.99177H13.4198C13.4198 3.32784 12.1082 1.9838 10.4842 1.9838H10.4842ZM13.4199 7.0078V7.99973C13.4199 8.54373 13.857 8.99166 14.3879 8.99166C14.9188 8.99166 15.3559 8.54375 15.3559 7.99973V7.0078H16.5425C17.0422 7.0078 17.4482 7.39184 17.5105 7.90391L19.0094 20.8957C19.0717 21.5035 18.6346 22.0156 18.0414 22.0156H2.8956C2.3024 22.0156 1.86503 21.5035 1.9276 20.8957L3.42642 7.90391C3.48875 7.39186 3.89496 7.0078 4.39442 7.0078H5.58108V7.99973C5.58108 8.54373 6.01819 8.99166 6.54907 8.99166C7.07996 8.99166 7.51708 8.54375 7.51708 7.99973V7.0078H13.4199ZM5.6126 4.99204H4.42594C2.92712 4.99204 1.67782 6.14418 1.52174 7.64816L0.0229281 20.6399C-0.195755 22.4319 1.1784 24 2.92712 24H18.0729C19.8216 24 21.1957 22.4319 20.9771 20.6399L19.4783 7.64816C19.291 6.14418 18.0418 4.99204 16.5741 4.99204H15.3874C15.3874 2.2401 13.2014 0 10.5158 0C7.7989 0 5.61286 2.23983 5.61286 4.99204H5.6126Z" fill="#242424"/>
</svg>
