<svg width="19" height="19" viewBox="0 0 19 19" fill="none" xmlns="http://www.w3.org/2000/svg">
<path d="M8.47374 15.2043C10.2212 15.2144 11.9156 14.6041 13.2553 13.482L17.9779 18.1997L18.9324 17.2452L14.2488 12.5226C15.3493 11.2136 15.9706 9.56852 16.01 7.85884C16.0494 6.14917 15.5046 4.47718 14.4655 3.11895C13.4264 1.76072 11.9551 0.797479 10.2947 0.388268C8.63422 -0.0209421 6.88387 0.148353 5.33262 0.868199C3.78138 1.58804 2.52201 2.81539 1.76246 4.34759C1.00292 5.87978 0.78861 7.6252 1.15493 9.29563C1.52125 10.9661 2.4463 12.4616 3.77732 13.5354C5.10835 14.6091 6.76575 15.1968 8.47587 15.2014L8.47374 15.2043ZM8.47374 1.61756C9.68485 1.61756 10.8688 1.9767 11.8758 2.64955C12.8828 3.3224 13.6676 4.27876 14.1311 5.39767C14.5946 6.51659 14.7158 7.74781 14.4795 8.93565C14.2433 10.1235 13.6601 11.2146 12.8037 12.071C11.9473 12.9273 10.8562 13.5105 9.66837 13.7468C8.48054 13.9831 7.24931 13.8618 6.1304 13.3984C5.01148 12.9349 4.05513 12.15 3.38227 11.143C2.70942 10.136 2.35028 8.95213 2.35028 7.74102C2.35085 6.11715 2.99618 4.55995 4.14443 3.4117C5.29268 2.26345 6.84987 1.61813 8.47374 1.61756Z" fill="white"/>
</svg>
