<svg width="25" height="23" viewBox="0 0 25 23" fill="none" xmlns="http://www.w3.org/2000/svg">
<path d="M23.9934 20.3178C23.8398 18.6465 23.1904 17.0591 22.1285 15.7594C21.0666 14.4597 19.6406 13.5068 18.0334 13.0231C17.9214 12.9839 17.8004 12.9777 17.6849 13.0051C17.5694 13.0325 17.4642 13.0925 17.3818 13.1779C16.0196 14.3914 14.238 15.0261 12.4154 14.9473C10.5928 15.0261 8.81125 14.3914 7.44904 13.1779C7.36658 13.0925 7.26137 13.0325 7.14588 13.0051C7.03039 12.9777 6.90946 12.9839 6.79741 13.0231C5.20045 13.5148 3.78634 14.4714 2.73578 15.7708C1.68521 17.0702 1.0459 18.6533 0.899515 20.3178C0.859851 20.6164 0.883597 20.92 0.969203 21.2087C1.05481 21.4975 1.20035 21.765 1.39633 21.9937C1.60107 22.2286 1.85397 22.4168 2.13785 22.5453C2.42172 22.6739 2.72994 22.7399 3.04158 22.7389H21.8513C22.163 22.7399 22.4712 22.6739 22.7551 22.5453C23.039 22.4168 23.2918 22.2286 23.4966 21.9937C23.6926 21.765 23.8381 21.4975 23.9237 21.2087C24.0093 20.92 24.0331 20.6164 23.9934 20.3178ZM22.5345 21.1872C22.4449 21.2874 22.3348 21.367 22.2116 21.4206C22.0884 21.4742 21.955 21.5005 21.8207 21.4977H3.0407C2.90638 21.5005 2.77305 21.4742 2.64985 21.4206C2.52666 21.367 2.41651 21.2874 2.32697 21.1872C2.24012 21.0918 2.1756 20.9783 2.13808 20.8548C2.10056 20.7314 2.09099 20.6011 2.11006 20.4735C2.23952 19.1004 2.75803 17.7927 3.60474 16.704C4.45144 15.6153 5.59117 14.7908 6.89012 14.3272C8.46321 15.5868 10.4325 16.2467 12.4469 16.1894C14.4605 16.2415 16.4281 15.5821 18.0037 14.3272C19.3068 14.7933 20.4493 15.6226 21.2963 16.7172C22.1433 17.8117 22.6595 19.1257 22.7837 20.5041C22.7982 20.6269 22.7864 20.7513 22.7489 20.8691C22.7115 20.9869 22.6495 21.0953 22.5668 21.1872H22.5345Z" fill="#333333"/>
<path d="M12.447 12.7434C15.3649 12.7434 17.7554 10.0118 17.7554 6.69064C17.7554 3.36953 15.3606 0.606445 12.447 0.606445C9.53352 0.606445 7.13867 3.33804 7.13867 6.65916C7.13867 9.98027 9.52914 12.7434 12.447 12.7434ZM12.447 1.87909C14.6818 1.87909 16.5134 4.05177 16.5134 6.68977C16.5134 9.32777 14.6818 11.5004 12.447 11.5004C10.2123 11.5004 8.3807 9.32777 8.3807 6.68977C8.3807 4.05177 10.2123 1.8476 12.447 1.8476V1.87909Z" fill="#333333"/>
</svg>
