<svg width="43" height="43" viewBox="0 0 43 43" fill="none" xmlns="http://www.w3.org/2000/svg">
<rect width="43" height="43" fill="#FB7C33"/>
<rect x="1.53711" y="1.53564" width="39.9286" height="39.9286" fill="#261302"/>
<path d="M15.3102 26.3538L13.8724 32.0564C13.8427 32.2122 13.7832 32.25 13.6027 32.25H10.9375C10.7591 32.25 10.7293 32.1877 10.7591 31.9674L15.9112 13.0551C16.0004 12.7102 16.062 12.4121 16.0917 11.4709C16.0917 11.3463 16.1512 11.2818 16.2425 11.2818H20.0461C20.165 11.2818 20.2266 11.3129 20.2564 11.4709L26.0371 31.9986C26.0669 32.1543 26.0371 32.25 25.8863 32.25H22.8919C22.7432 32.25 22.6519 32.2122 22.6222 32.0876L21.125 26.3538H15.3102ZM20.371 23.2633L18.2155 14.3255L16.0896 23.2633H20.371ZM28.5368 12.6946C28.5368 11.4709 29.3459 10.75 30.3929 10.75C31.5015 10.75 32.249 11.5354 32.249 12.6946C32.249 13.9495 31.4696 14.6393 30.3632 14.6393C29.2843 14.6393 28.5368 13.9495 28.5368 12.6946ZM28.7406 17.0178C28.7406 16.8598 28.8001 16.7975 28.9509 16.7975H31.7988C31.9496 16.7975 32.009 16.8598 32.009 17.0178V32.0297C32.009 32.1877 31.9793 32.25 31.7988 32.25H28.9806C28.8001 32.25 28.7406 32.1566 28.7406 31.9986V17.0178Z" fill="#FB7C33"/>
</svg>
