<svg width="15" height="14" viewBox="0 0 15 14" fill="none" xmlns="http://www.w3.org/2000/svg">
<path d="M13.5386 3.19716H3.31993L2.76481 1.23925C2.7182 1.07576 2.56953 0.962891 2.39948 0.962891H0.144897V1.72198H2.11242L4.45956 10.0035H4.26067C3.3644 10.0035 2.63469 10.7327 2.63469 11.6295C2.63469 12.5262 3.36385 13.255 4.26067 13.255H13.1095V12.4959L4.26067 12.496C3.78301 12.496 3.39377 12.1069 3.39377 11.6297C3.39377 11.152 3.78287 10.7628 4.26067 10.7628H11.38C12.3303 10.7628 13.3197 10.0153 13.5803 9.10286L14.7918 4.85761C15.0515 3.94465 14.4882 3.19716 13.5388 3.19716L13.5386 3.19716ZM10.685 7.35966H9.09401V8.95077H8.33493V7.35966H6.74434V6.60058H8.33493V5.01053H9.09401V6.60112H10.6855V7.35969L10.685 7.35966Z" fill="#333333"/>
</svg>
