<svg width="40" height="34" viewBox="0 0 40 34" fill="none" xmlns="http://www.w3.org/2000/svg">
<path d="M30.4161 10.663C29.9878 10.8314 29.7771 11.3151 29.9455 11.7434C30.6159 13.4483 30.9559 15.253 30.9559 17.1072C30.9559 25.1816 24.385 31.7504 16.3083 31.7504C8.235 31.7504 1.66682 25.1815 1.66682 17.1072C1.66682 9.03431 8.235 2.46645 16.3083 2.46645C20.3815 2.46645 24.1648 4.09635 26.9611 7.05574C27.2773 7.39032 27.8047 7.40524 28.1391 7.08916C28.4737 6.77308 28.4886 6.24567 28.1725 5.91109C26.6636 4.3141 24.8826 3.05736 22.8789 2.17562C20.804 1.26272 18.5934 0.799805 16.3082 0.799805C7.31576 0.799805 0 8.11523 0 17.1072C0 26.1005 7.31576 33.4171 16.3082 33.4171C20.6662 33.4171 24.7631 31.721 27.844 28.6412C30.9254 25.5611 32.6224 21.4648 32.6224 17.1072C32.6224 15.0433 32.2436 13.0335 31.4966 11.1335C31.3281 10.7053 30.8446 10.4945 30.4161 10.663Z" fill="#E84025"/>
<path d="M24.3013 9.93971C24.6186 9.60638 24.6056 9.07889 24.2723 8.76156C22.1146 6.70749 19.2862 5.57617 16.3079 5.57617C9.95259 5.57617 4.78223 10.7491 4.78223 17.1075C4.78223 23.4662 9.95259 28.6394 16.3079 28.6394C22.67 28.6394 27.8461 23.4662 27.8461 17.1075C27.8461 15.9183 27.6648 14.7473 27.3072 13.627C27.1673 13.1886 26.6984 12.9467 26.26 13.0864C25.8215 13.2263 25.5796 13.6953 25.7194 14.1337C26.0247 15.0901 26.1794 16.0906 26.1794 17.1075C26.1794 22.5472 21.7511 26.9728 16.3079 26.9728C10.8716 26.9728 6.44888 22.5472 6.44888 17.1075C6.44888 11.6681 10.8716 7.24282 16.3079 7.24282C18.8563 7.24282 21.2767 8.2109 23.1231 9.96863C23.4565 10.286 23.9839 10.273 24.3013 9.93971Z" fill="#E84025"/>
<path d="M16.3083 11.7344C17.3166 11.7344 18.2968 12.0132 19.1445 12.5413C19.2783 12.6243 19.4051 12.7119 19.5215 12.8016C19.8862 13.0823 20.4094 13.0144 20.6902 12.6498C20.971 12.2852 20.903 11.7619 20.5384 11.4812C20.3777 11.3574 20.2042 11.2376 20.0244 11.126C18.9135 10.4338 17.6286 10.0679 16.3082 10.0679C12.4304 10.0679 9.27539 13.2257 9.27539 17.1071C9.27539 20.9899 12.4303 24.1488 16.3082 24.1488C20.1924 24.1488 23.3525 20.9899 23.3525 17.1071C23.3525 16.7902 23.3313 16.4802 23.2877 16.1594C23.2257 15.7034 22.8058 15.3843 22.3496 15.446C21.8936 15.5081 21.5742 15.928 21.6362 16.3841C21.6696 16.6296 21.6858 16.8661 21.6858 17.1071C21.6858 20.0709 19.2735 22.4822 16.3082 22.4822C13.3493 22.4822 10.942 20.0709 10.942 17.1071C10.9422 14.1446 13.3494 11.7344 16.3083 11.7344Z" fill="#E84025"/>
<path d="M39.594 6.68086L36.1927 4.64705L35.7854 0.746758C35.7554 0.458844 35.5781 0.207264 35.3172 0.0820148C35.0563 -0.0431506 34.749 -0.0240672 34.5057 0.132515L31.2321 2.23916C30.9972 2.39032 30.8536 2.64924 30.8499 2.92857L30.7912 7.25719L17.5921 15.2735C17.2127 14.9989 16.7473 14.8364 16.2445 14.8364C14.9691 14.8364 13.9316 15.8732 13.9316 17.1476C13.9316 18.422 14.9692 19.4588 16.2445 19.4588C17.5164 19.4588 18.5513 18.422 18.5513 17.1476C18.5513 16.9843 18.534 16.8249 18.5017 16.6711L31.7561 8.62118L35.5542 10.2637C35.6602 10.3096 35.7728 10.3322 35.8849 10.3322C36.0421 10.3322 36.1984 10.2877 36.3346 10.2004L39.616 8.09752C39.859 7.94185 40.004 7.67152 39.9996 7.38302C39.995 7.09461 39.8416 6.82895 39.594 6.68086ZM35.8087 8.55801L32.46 7.10986L32.5103 3.39865L34.2685 2.26716L34.5784 5.2348C34.6057 5.49579 34.7543 5.72879 34.9796 5.86346L37.5836 7.42052L35.8087 8.55801Z" fill="#E84025"/>
</svg>
