<svg width="43" height="43" viewBox="0 0 43 43" fill="none" xmlns="http://www.w3.org/2000/svg">
<path d="M4 34.4871C4 36.9798 6.0205 39 8.51292 39H34.4871C36.9798 39 39 36.9795 39 34.4871V8.51292C39 6.02023 36.9795 4 34.4871 4H8.51292C6.02023 4 4 6.0205 4 8.51292V34.4871Z" fill="#563D7C"/>
<path d="M18.5142 19.4818V14.5252H22.8772C23.2927 14.5252 23.6934 14.5599 24.0792 14.6291C24.465 14.6984 24.8064 14.822 25.1032 15.0001C25.4 15.1782 25.6374 15.4255 25.8155 15.7421C25.9936 16.0587 26.0826 16.4643 26.0826 16.959C26.0826 17.8494 25.8155 18.4924 25.2812 18.8882C24.747 19.2839 24.0644 19.4818 23.2333 19.4818H18.5142ZM13.8545 10.9043V32.0957H24.1237C25.0735 32.0957 25.9985 31.977 26.8988 31.7395C27.7991 31.5021 28.6004 31.1361 29.3029 30.6414C30.0053 30.1467 30.5642 29.5086 30.9798 28.727C31.3953 27.9455 31.603 27.0205 31.603 25.952C31.603 24.6263 31.2815 23.4935 30.6385 22.5536C29.9954 21.6138 29.0209 20.9559 27.715 20.5799C28.6647 20.1248 29.382 19.5411 29.8668 18.8288C30.3515 18.1165 30.5939 17.2261 30.5939 16.1576C30.5939 15.1683 30.4307 14.3373 30.1042 13.6645C29.7777 12.9918 29.3177 12.4526 28.7241 12.047C28.1305 11.6413 27.4182 11.3495 26.5871 11.1714C25.7561 10.9933 24.836 10.9043 23.8269 10.9043H13.8545ZM18.5142 28.4748V22.6575H23.5895C24.5986 22.6575 25.4098 22.89 26.0232 23.355C26.6366 23.82 26.9433 24.5966 26.9433 25.6849C26.9433 26.2389 26.8493 26.694 26.6613 27.0501C26.4734 27.4063 26.2211 27.6882 25.9045 27.896C25.5879 28.1038 25.2219 28.2522 24.8064 28.3412C24.3908 28.4302 23.9555 28.4748 23.5004 28.4748H18.5142Z" fill="white"/>
</svg>
