<svg width="193" height="218" viewBox="0 0 193 218" fill="none" xmlns="http://www.w3.org/2000/svg">
<g opacity="0.6">
<path d="M122.303 124.837V125.184C122.398 132.508 128.557 138.016 140.78 141.708C126.052 152.419 111.324 160.988 96.5959 160.988C81.868 160.988 67.1394 152.419 52.4116 141.708C64.5513 138.012 70.7103 132.496 70.8887 125.159C70.8887 123.851 70.879 121.993 70.8702 118.506C70.8702 117.952 70.8688 117.385 70.8662 116.805C69.9881 116.928 70.0628 116.85 70.8662 116.626C70.8421 107.453 70.8027 95.1173 70.7481 82.5811C59.2345 67.6572 63.4641 50.1611 67.0719 50.5973C71.4944 51.1363 109.817 14.7703 117.167 12.9057C124.518 11.0411 143.19 17.0607 146.404 33.8306C149.617 50.6005 150.96 92.8712 138.772 109.747C135.303 114.55 129.841 116.428 122.383 115.383C122.373 118.892 122.352 120.862 122.303 124.837Z" fill="#BBBBBB"/>
<path d="M122.303 115.371C104.629 113.362 93.3821 105.73 93.3821 105.73C93.3821 105.73 105.545 121.891 122.303 125.011V115.371Z" fill="#828282"/>
<path d="M64.8635 82.8351C59.3285 69.5236 37.148 42.413 56.2677 25.5426C62.6945 -5.78803 98.2026 -2.31996 121.901 4.91018C137.829 9.76965 149.858 19.3705 152.429 12.1403C168.496 25.5426 160.449 38.6509 149.858 42.413C140.245 45.8272 123.99 49.2414 96.3501 46.028C91.4127 45.4536 92.4466 60.5751 89.8084 62.2099C85.8503 64.6626 82.7783 49.2414 71.9266 53.872C61.075 58.5025 67.5146 79.9728 79.1632 79.9728C83.1799 79.9728 85.1883 91.0164 74.3431 96.2382C66.4703 100.107 68.4601 91.4848 64.8635 82.8351Z" fill="#585858"/>
<path d="M12.2463 166.229C4.59837 181.78 0.196014 217.644 0.196014 217.644H193C193 217.644 188.596 181.776 180.95 166.229C173.303 150.683 128.652 136.263 128.652 136.263C120.045 153.932 72.8124 153.932 64.5676 136.258C64.5676 136.258 19.8942 150.679 12.2463 166.229Z" fill="#717171"/>
</g>
</svg>
