<svg width="162" height="180" viewBox="0 0 162 180" fill="none" xmlns="http://www.w3.org/2000/svg">
<path d="M28 96H42V110H28V96Z" fill="#858585"/>
<path d="M144 0H72C67.2261 0 62.6477 1.89642 59.2721 5.27208C55.8964 8.64773 54 13.2261 54 18V72H18C8.073 72 0 80.073 0 90V171C0 173.387 0.948211 175.676 2.63604 177.364C4.32387 179.052 6.61305 180 9 180H153C155.387 180 157.676 179.052 159.364 177.364C161.052 175.676 162 173.387 162 171V18C162 13.2261 160.104 8.64773 156.728 5.27208C153.352 1.89642 148.774 0 144 0ZM18 162V90H72V162H18ZM99 54H81V36H99V54ZM135 126H117V108H135V126ZM135 90H117V72H135V90ZM135 54H117V36H135V54Z" fill="#C0C0C0"/>
</svg>
