<svg width="27" height="27" viewBox="0 0 27 27" fill="none" xmlns="http://www.w3.org/2000/svg">
<path fill-rule="evenodd" clip-rule="evenodd" d="M13.4842 2.9838C11.8605 2.9838 10.5489 4.32784 10.5489 5.99177H16.4198C16.4198 4.32784 15.1082 2.9838 13.4842 2.9838H13.4842ZM16.4199 8.0078V8.99973C16.4199 9.54373 16.857 9.99166 17.3879 9.99166C17.9188 9.99166 18.3559 9.54375 18.3559 8.99973V8.0078H19.5425C20.0422 8.0078 20.4482 8.39184 20.5105 8.90391L22.0094 21.8957C22.0717 22.5035 21.6346 23.0156 21.0414 23.0156H5.8956C5.3024 23.0156 4.86503 22.5035 4.9276 21.8957L6.42642 8.90391C6.48875 8.39186 6.89496 8.0078 7.39442 8.0078H8.58108V8.99973C8.58108 9.54373 9.01819 9.99166 9.54907 9.99166C10.08 9.99166 10.5171 9.54375 10.5171 8.99973V8.0078H16.4199ZM8.6126 5.99204H7.42594C5.92712 5.99204 4.67782 7.14418 4.52174 8.64816L3.02293 21.6399C2.80424 23.4319 4.1784 25 5.92712 25H21.0729C22.8216 25 24.1957 23.4319 23.9771 21.6399L22.4783 8.64816C22.291 7.14418 21.0418 5.99204 19.5741 5.99204H18.3874C18.3874 3.2401 16.2014 1 13.5158 1C10.7989 1 8.61286 3.23983 8.61286 5.99204H8.6126Z" fill="white"/>
</svg>
