<svg width="10" height="13" viewBox="0 0 10 13" fill="none" xmlns="http://www.w3.org/2000/svg">
<path d="M9.2518 5.82683L9.25165 5.82673L1.66545 0.999146L1.66525 0.999022C1.42216 0.845115 1.11439 0.834885 0.861133 0.972955L0.861132 0.972953L0.860691 0.973197C0.608873 1.11213 0.451758 1.37735 0.451758 1.66558V11.3208C0.451758 11.609 0.608917 11.8743 0.861496 12.0132L0.861721 12.0133C0.980106 12.078 1.11112 12.1104 1.24141 12.1104C1.38919 12.1104 1.53669 12.0686 1.66518 11.9874L1.66545 11.9872L9.25165 7.1596L9.2518 7.15951C9.47906 7.01432 9.61728 6.76331 9.61728 6.49317C9.61728 6.22303 9.47906 5.97202 9.2518 5.82683ZM2.03107 9.88273V3.10432L7.35654 6.49385L2.03107 9.88273Z" fill="#E84025" stroke="#E84025" stroke-width="0.2"/>
</svg>
