<svg width="33" height="33" viewBox="0 0 33 33" fill="none" xmlns="http://www.w3.org/2000/svg">
<path d="M21.875 2.16667H4.85417C3.3699 2.16667 2.16667 3.3699 2.16667 4.85417V28.1458C2.16667 29.6301 3.3699 30.8333 4.85417 30.8333H21.875V2.16667ZM23.6667 2.16667V30.8333H28.1458C29.6301 30.8333 30.8333 29.6301 30.8333 28.1458V4.85417C30.8333 3.3699 29.6301 2.16667 28.1458 2.16667H23.6667ZM0.375 4.85417C0.375 2.38039 2.38039 0.375 4.85417 0.375H28.1458C30.6196 0.375 32.625 2.38039 32.625 4.85417V28.1458C32.625 30.6196 30.6196 32.625 28.1458 32.625H4.85417C2.38039 32.625 0.375 30.6196 0.375 28.1458V4.85417ZM6.64583 9.33333C6.15108 9.33333 5.75 8.93225 5.75 8.4375C5.75 7.94274 6.15108 7.54167 6.64583 7.54167H17.3958C17.8906 7.54167 18.2917 7.94274 18.2917 8.4375C18.2917 8.93225 17.8906 9.33333 17.3958 9.33333H6.64583ZM6.64583 12.9167C6.15108 12.9167 5.75 12.5156 5.75 12.0208C5.75 11.5261 6.15108 11.125 6.64583 11.125H17.3958C17.8906 11.125 18.2917 11.5261 18.2917 12.0208C18.2917 12.5156 17.8906 12.9167 17.3958 12.9167H6.64583ZM6.64583 16.5C6.15108 16.5 5.75 16.0989 5.75 15.6042C5.75 15.1094 6.15108 14.7083 6.64583 14.7083H13.8125C14.3073 14.7083 14.7083 15.1094 14.7083 15.6042C14.7083 16.0989 14.3073 16.5 13.8125 16.5H6.64583ZM6.64583 21.875C6.15108 21.875 5.75 21.4739 5.75 20.9792C5.75 20.4844 6.15108 20.0833 6.64583 20.0833H17.3958C17.8906 20.0833 18.2917 20.4844 18.2917 20.9792C18.2917 21.4739 17.8906 21.875 17.3958 21.875H6.64583ZM6.64583 25.4583C6.15108 25.4583 5.75 25.0573 5.75 24.5625C5.75 24.0677 6.15108 23.6667 6.64583 23.6667H13.8125C14.3073 23.6667 14.7083 24.0677 14.7083 24.5625C14.7083 25.0573 14.3073 25.4583 13.8125 25.4583H6.64583Z" fill="#E84025"/>
</svg>
