<svg width="43" height="43" viewBox="0 0 43 43" fill="none" xmlns="http://www.w3.org/2000/svg">
<path fill-rule="evenodd" clip-rule="evenodd" d="M10.5091 7.1006L21.5 6L32.4908 7.1006L40.9999 17.9201L21.5 39.4285L2 17.9201L10.5091 7.1006Z" fill="#FDB300"/>
<path d="M9.89837 17.9199L21.4999 39.4284L2 17.9199H9.89837ZM33.1016 17.9199L21.5001 39.4284L41 17.9199" fill="#EA6C00"/>
<path fill-rule="evenodd" clip-rule="evenodd" d="M9.89941 17.9199H33.1024L21.5009 39.4284" fill="#FDAD00"/>
<path d="M21.5009 6L10.51 7.10042L9.89941 17.92L21.5009 6ZM21.5011 6L32.492 7.10042L33.1026 17.92" fill="#FDD231"/>
<path d="M41 17.9196L32.491 7.1001L33.1016 17.9196H41ZM2 17.9196L10.509 7.1001L9.89837 17.9196" fill="#FDAD00"/>
<path fill-rule="evenodd" clip-rule="evenodd" d="M21.5009 6L9.89941 17.92H33.1024" fill="#FEEEB7"/>
</svg>
