<svg width="193" height="57" viewBox="0 0 193 57" fill="none" xmlns="http://www.w3.org/2000/svg">
<path d="M191.928 50.4363C191.928 53.4206 189.471 55.838 186.432 55.838H6.57537C3.53784 55.838 1.07227 53.4206 1.07227 50.4363V7.35988C1.07227 4.37698 3.53784 1.95117 6.57537 1.95117H186.43C189.471 1.95117 191.926 4.37698 191.926 7.35988L191.928 50.4363Z" fill="black"/>
<path d="M185.852 2.01628C189.161 2.01628 191.854 4.65354 191.854 7.89454V49.8945C191.854 53.1355 189.161 55.7728 185.852 55.7728H7.14815C3.83856 55.7728 1.14549 53.1355 1.14549 49.8945V7.89454C1.14549 4.65354 3.83856 2.01628 7.14815 2.01628H185.852ZM185.852 0.894539H7.14815C3.21845 0.894539 0 4.04629 0 7.89454V49.8945C0 53.7428 3.21845 56.8945 7.14815 56.8945H185.852C189.782 56.8945 193 53.7428 193 49.8945V7.89454C193 4.04629 189.782 0.894539 185.852 0.894539Z" fill="#A6A6A6"/>
<path d="M43.0718 28.5924C43.0303 24.0802 46.8446 21.885 47.019 21.7828C44.8588 18.6986 41.5106 18.2772 40.3341 18.2436C37.522 17.9538 34.7942 19.8914 33.3618 19.8914C31.9007 19.8914 29.6948 18.2716 27.3173 18.3192C24.2579 18.3654 21.3957 20.1 19.826 22.7936C16.5865 28.2858 19.0025 36.3568 22.1063 40.7962C23.6589 42.9704 25.4731 45.398 27.8477 45.3126C30.1708 45.2188 31.0386 43.8622 33.8421 43.8622C36.6199 43.8622 37.4348 45.3126 39.8566 45.258C42.3498 45.2188 43.9196 43.074 45.4178 40.8802C47.212 38.3882 47.9325 35.934 47.9611 35.808C47.9025 35.7884 43.119 34.0006 43.0718 28.5924Z" fill="white"/>
<path d="M38.497 15.3232C39.7465 13.793 40.6014 11.7112 40.3641 9.59863C38.5556 9.67703 36.2939 10.8236 34.9915 12.3202C33.8392 13.639 32.8099 15.8006 33.0758 17.8334C35.1073 17.9818 37.1932 16.8296 38.497 15.3232Z" fill="white"/>
<path d="M70.1233 14.9077C70.1233 16.5555 69.6186 17.7959 68.6107 18.6289C67.6772 19.3975 66.3505 19.7825 64.6321 19.7825C63.78 19.7825 63.0509 19.7461 62.4404 19.6733V10.6699C63.2367 10.5439 64.0945 10.4795 65.0209 10.4795C66.6578 10.4795 67.8916 10.8281 68.7237 11.5253C69.6558 12.3135 70.1233 13.4405 70.1233 14.9077ZM68.5435 14.9483C68.5435 13.8801 68.2547 13.0611 67.6772 12.4899C67.0996 11.9201 66.2561 11.6345 65.1453 11.6345C64.6735 11.6345 64.2718 11.6653 63.9387 11.7297V18.5743C64.1231 18.6023 64.4605 18.6149 64.9509 18.6149C66.0974 18.6149 66.9824 18.3027 67.6057 17.6783C68.229 17.0539 68.5435 16.1439 68.5435 14.9483Z" fill="white"/>
<path d="M78.4995 16.3464C78.4995 17.3614 78.2036 18.193 77.6117 18.8454C76.9913 19.516 76.1692 19.8506 75.1428 19.8506C74.1535 19.8506 73.3657 19.53 72.7782 18.886C72.192 18.2434 71.8989 17.4328 71.8989 16.4556C71.8989 15.4336 72.2006 14.595 72.8067 13.944C73.4129 13.293 74.2278 12.9668 75.2543 12.9668C76.2436 12.9668 77.0384 13.2874 77.6403 13.93C78.2122 14.5544 78.4995 15.3608 78.4995 16.3464ZM76.9455 16.394C76.9455 15.785 76.8111 15.2628 76.5438 14.8274C76.2293 14.301 75.7818 14.0378 75.1999 14.0378C74.5981 14.0378 74.1406 14.301 73.8261 14.8274C73.5573 15.2628 73.4243 15.7934 73.4243 16.4206C73.4243 17.0296 73.5587 17.5518 73.8261 17.9872C74.1506 18.5136 74.6024 18.7768 75.1856 18.7768C75.7575 18.7768 76.2064 18.5094 76.5295 17.9732C76.8068 17.5294 76.9455 17.003 76.9455 16.394Z" fill="white"/>
<path d="M89.7307 13.1016L87.622 19.7012H86.2495L85.376 16.8354C85.1544 16.12 84.9743 15.4088 84.8342 14.7032H84.807C84.6769 15.4284 84.4968 16.1382 84.2652 16.8354L83.3374 19.7012H81.9492L79.9663 13.1016H81.506L82.268 16.239C82.4524 16.981 82.604 17.688 82.7255 18.3572H82.7527C82.8642 17.8056 83.0486 17.1028 83.3088 16.253L84.2652 13.103H85.4861L86.4025 16.1858C86.6241 16.9376 86.8042 17.6614 86.9429 18.3586H86.9844C87.0859 17.6796 87.2388 16.9558 87.4418 16.1858L88.2596 13.103H89.7307V13.1016Z" fill="white"/>
<path d="M97.4978 19.7011H95.9995V15.9211C95.9995 14.7563 95.5478 14.1739 94.6414 14.1739C94.1968 14.1739 93.8379 14.3335 93.5592 14.6541C93.2833 14.9747 93.1431 15.3527 93.1431 15.7853V19.6997H91.6449V14.9873C91.6449 14.4077 91.6263 13.7791 91.5906 13.0987H92.9073L92.9773 14.1305H93.0188C93.1932 13.8099 93.4534 13.5453 93.7951 13.3339C94.2011 13.0875 94.6557 12.9629 95.1532 12.9629C95.7822 12.9629 96.3055 13.1617 96.7215 13.5607C97.239 14.0493 97.4978 14.7787 97.4978 15.7475V19.7011Z" fill="white"/>
<path d="M101.629 19.701H100.133V10.0732H101.629V19.701Z" fill="white"/>
<path d="M110.45 16.3464C110.45 17.3614 110.154 18.193 109.562 18.8454C108.942 19.516 108.118 19.8506 107.093 19.8506C106.103 19.8506 105.315 19.53 104.729 18.886C104.143 18.2434 103.85 17.4328 103.85 16.4556C103.85 15.4336 104.151 14.595 104.757 13.944C105.364 13.293 106.178 12.9668 107.204 12.9668C108.194 12.9668 108.988 13.2874 109.591 13.93C110.163 14.5544 110.45 15.3608 110.45 16.3464ZM108.895 16.394C108.895 15.785 108.76 15.2628 108.493 14.8274C108.18 14.301 107.731 14.0378 107.151 14.0378C106.547 14.0378 106.09 14.301 105.777 14.8274C105.508 15.2628 105.375 15.7934 105.375 16.4206C105.375 17.0296 105.509 17.5518 105.777 17.9872C106.101 18.5136 106.553 18.7768 107.136 18.7768C107.708 18.7768 108.156 18.5094 108.479 17.9732C108.758 17.5294 108.895 17.003 108.895 16.394Z" fill="white"/>
<path d="M117.701 19.7008H116.356L116.245 18.9406H116.203C115.743 19.5468 115.087 19.8506 114.235 19.8506C113.598 19.8506 113.084 19.6504 112.696 19.2528C112.345 18.8916 112.169 18.4422 112.169 17.9088C112.169 17.1024 112.512 16.4878 113.202 16.0622C113.891 15.6366 114.861 15.428 116.109 15.4378V15.3146C116.109 14.4452 115.643 14.0112 114.709 14.0112C114.044 14.0112 113.458 14.175 112.952 14.4998L112.648 13.5366C113.274 13.1572 114.047 12.9668 114.959 12.9668C116.721 12.9668 117.604 13.8768 117.604 15.6968V18.1272C117.604 18.7866 117.637 19.3116 117.701 19.7008ZM116.146 17.4328V16.415C114.493 16.387 113.667 16.8308 113.667 17.745C113.667 18.0894 113.761 18.347 113.954 18.5192C114.147 18.6914 114.393 18.7768 114.686 18.7768C115.015 18.7768 115.322 18.6746 115.603 18.4716C115.884 18.2672 116.057 18.0082 116.122 17.6904C116.137 17.619 116.146 17.5322 116.146 17.4328Z" fill="white"/>
<path d="M126.215 19.701H124.885L124.815 18.6412H124.774C124.349 19.4476 123.626 19.8508 122.609 19.8508C121.797 19.8508 121.121 19.5386 120.585 18.9142C120.049 18.2898 119.781 17.4792 119.781 16.4838C119.781 15.4156 120.072 14.5504 120.655 13.8896C121.22 13.2736 121.912 12.9656 122.735 12.9656C123.64 12.9656 124.273 13.2638 124.634 13.8616H124.662V10.0732H126.162V17.923C126.162 18.5656 126.179 19.1578 126.215 19.701ZM124.662 16.9178V15.8174C124.662 15.627 124.648 15.473 124.621 15.3554C124.536 15.0026 124.355 14.7058 124.079 14.4664C123.8 14.227 123.464 14.1066 123.077 14.1066C122.518 14.1066 122.08 14.3236 121.759 14.759C121.44 15.1944 121.278 15.7502 121.278 16.4292C121.278 17.0816 121.431 17.6108 121.739 18.0182C122.063 18.4522 122.501 18.6692 123.048 18.6692C123.54 18.6692 123.933 18.4886 124.232 18.126C124.521 17.7914 124.662 17.3882 124.662 16.9178Z" fill="white"/>
<path d="M139.029 16.3464C139.029 17.3614 138.733 18.193 138.141 18.8454C137.52 19.516 136.7 19.8506 135.672 19.8506C134.684 19.8506 133.896 19.53 133.307 18.886C132.721 18.2434 132.428 17.4328 132.428 16.4556C132.428 15.4336 132.73 14.595 133.336 13.944C133.942 13.293 134.757 12.9668 135.785 12.9668C136.773 12.9668 137.569 13.2874 138.169 13.93C138.741 14.5544 139.029 15.3608 139.029 16.3464ZM137.476 16.394C137.476 15.785 137.342 15.2628 137.074 14.8274C136.758 14.301 136.312 14.0378 135.729 14.0378C135.129 14.0378 134.671 14.301 134.355 14.8274C134.086 15.2628 133.953 15.7934 133.953 16.4206C133.953 17.0296 134.088 17.5518 134.355 17.9872C134.68 18.5136 135.131 18.7768 135.715 18.7768C136.287 18.7768 136.737 18.5094 137.06 17.9732C137.336 17.5294 137.476 17.003 137.476 16.394Z" fill="white"/>
<path d="M147.085 19.7011H145.588V15.9211C145.588 14.7563 145.136 14.1739 144.228 14.1739C143.783 14.1739 143.425 14.3335 143.147 14.6541C142.87 14.9747 142.731 15.3527 142.731 15.7853V19.6997H141.232V14.9873C141.232 14.4077 141.214 13.7791 141.179 13.0987H142.494L142.564 14.1305H142.605C142.781 13.8099 143.042 13.5453 143.382 13.3339C143.789 13.0875 144.242 12.9629 144.741 12.9629C145.369 12.9629 145.892 13.1617 146.308 13.5607C146.827 14.0493 147.085 14.7787 147.085 15.7475V19.7011Z" fill="white"/>
<path d="M157.168 14.2006H155.518V17.4066C155.518 18.2214 155.811 18.6288 156.391 18.6288C156.66 18.6288 156.883 18.6064 157.059 18.5602L157.098 19.6732C156.802 19.7824 156.413 19.837 155.934 19.837C155.342 19.837 154.882 19.6606 154.549 19.3078C154.214 18.955 154.048 18.3614 154.048 17.5284V14.2006H153.063V13.1016H154.048V11.892L155.516 11.458V13.1002H157.166V14.2006H157.168Z" fill="white"/>
<path d="M165.099 19.701H163.6V15.949C163.6 14.766 163.148 14.1738 162.243 14.1738C161.548 14.1738 161.073 14.5168 160.813 15.2028C160.769 15.347 160.743 15.5234 160.743 15.7306V19.6996H159.246V10.0732H160.743V14.0506H160.772C161.244 13.3268 161.92 12.9656 162.796 12.9656C163.417 12.9656 163.93 13.1644 164.337 13.5634C164.845 14.0604 165.099 14.7996 165.099 15.7768V19.701Z" fill="white"/>
<path d="M173.281 16.0887C173.281 16.3519 173.261 16.5731 173.225 16.7537H168.732C168.752 17.4061 168.967 17.9031 169.383 18.2475C169.763 18.5555 170.253 18.7095 170.854 18.7095C171.518 18.7095 172.125 18.6059 172.671 18.3973L172.905 19.4165C172.266 19.6881 171.514 19.8239 170.643 19.8239C169.6 19.8239 168.778 19.5229 168.183 18.9209C167.585 18.3189 167.29 17.5111 167.29 16.4975C167.29 15.5021 167.565 14.6733 168.122 14.0125C168.702 13.3069 169.487 12.9541 170.478 12.9541C171.447 12.9541 172.183 13.3069 172.681 14.0125C173.082 14.5725 173.281 15.2655 173.281 16.0887ZM171.851 15.7093C171.863 15.2739 171.764 14.8987 171.561 14.5823C171.301 14.1749 170.905 13.9705 170.369 13.9705C169.88 13.9705 169.481 14.1693 169.177 14.5683C168.928 14.8861 168.781 15.2655 168.732 15.7093H171.851Z" fill="white"/>
<path d="M76.6925 45.0003H73.4458L71.6673 39.5277H65.4856L63.7915 45.0003H60.6306L66.7551 26.3691H70.5379L76.6925 45.0003ZM71.1312 37.2317L69.5229 32.3667C69.3528 31.8697 69.034 30.6993 68.5636 28.8569H68.5064C68.3192 29.6493 68.0175 30.8197 67.6029 32.3667L66.0232 37.2317H71.1312Z" fill="white"/>
<path d="M92.4426 38.1178C92.4426 40.4026 91.8122 42.2086 90.5512 43.5344C89.4218 44.7146 88.0194 45.304 86.3453 45.304C84.5382 45.304 83.2401 44.6684 82.4495 43.3972H82.3924V50.4742H79.3444V35.9884C79.3444 34.552 79.3058 33.0778 79.2314 31.5658H81.912L82.0821 33.6952H82.1393C83.1558 32.0908 84.6983 31.29 86.7684 31.29C88.3868 31.29 89.7378 31.9158 90.8186 33.1688C91.9022 34.4232 92.4426 36.0724 92.4426 38.1178ZM89.3375 38.227C89.3375 36.9194 89.0373 35.8414 88.434 34.993C87.7749 34.1082 86.89 33.6658 85.7806 33.6658C85.0286 33.6658 84.3452 33.9122 83.7348 34.398C83.1229 34.888 82.7226 35.5278 82.5353 36.3202C82.441 36.6898 82.3938 36.9922 82.3938 37.2302V39.4702C82.3938 40.4474 82.6997 41.272 83.3116 41.9454C83.9235 42.6188 84.7184 42.9548 85.6962 42.9548C86.8442 42.9548 87.7377 42.5208 88.3768 41.6556C89.0173 40.789 89.3375 39.6466 89.3375 38.227Z" fill="white"/>
<path d="M108.221 38.1178C108.221 40.4026 107.591 42.2086 106.329 43.5344C105.201 44.7146 103.798 45.304 102.124 45.304C100.317 45.304 99.019 44.6684 98.2298 43.3972H98.1726V50.4742H95.1247V35.9884C95.1247 34.552 95.0861 33.0778 95.0117 31.5658H97.6923L97.8624 33.6952H97.9196C98.9346 32.0908 100.477 31.29 102.549 31.29C104.166 31.29 105.517 31.9158 106.6 33.1688C107.68 34.4232 108.221 36.0724 108.221 38.1178ZM105.116 38.227C105.116 36.9194 104.815 35.8414 104.211 34.993C103.552 34.1082 102.67 33.6658 101.559 33.6658C100.806 33.6658 100.124 33.9122 99.5122 34.398C98.9003 34.888 98.5014 35.5278 98.3142 36.3202C98.2212 36.6898 98.1726 36.9922 98.1726 37.2302V39.4702C98.1726 40.4474 98.4786 41.272 99.0876 41.9454C99.6995 42.6174 100.494 42.9548 101.475 42.9548C102.623 42.9548 103.517 42.5208 104.156 41.6556C104.796 40.789 105.116 39.6466 105.116 38.227Z" fill="white"/>
<path d="M125.863 39.7751C125.863 41.3599 125.301 42.6493 124.173 43.6447C122.934 44.7325 121.208 45.2757 118.991 45.2757C116.944 45.2757 115.302 44.8893 114.06 44.1151L114.766 41.6273C116.104 42.4197 117.573 42.8173 119.172 42.8173C120.32 42.8173 121.214 42.5625 121.856 42.0557C122.495 41.5489 122.814 40.8685 122.814 40.0201C122.814 39.2641 122.551 38.6271 122.023 38.1105C121.498 37.5939 120.622 37.1137 119.398 36.6699C116.067 35.4533 114.403 33.6711 114.403 31.3275C114.403 29.7959 114.986 28.5401 116.154 27.5629C117.318 26.5843 118.871 26.0957 120.812 26.0957C122.543 26.0957 123.982 26.3911 125.13 26.9805L124.368 29.4137C123.295 28.8425 122.083 28.5569 120.726 28.5569C119.654 28.5569 118.816 28.8159 118.216 29.3311C117.708 29.7917 117.454 30.3531 117.454 31.0181C117.454 31.7545 117.744 32.3635 118.327 32.8423C118.835 33.2847 119.757 33.7635 121.095 34.2801C122.732 34.9255 123.935 35.6801 124.708 36.5453C125.479 37.4077 125.863 38.4871 125.863 39.7751Z" fill="white"/>
<path d="M135.941 33.8052H132.581V40.3278C132.581 41.9868 133.173 42.8156 134.36 42.8156C134.904 42.8156 135.356 42.7694 135.713 42.677L135.798 44.9436C135.197 45.1634 134.407 45.274 133.427 45.274C132.224 45.274 131.283 44.9142 130.604 44.196C129.928 43.4764 129.587 42.2696 129.587 40.5742V33.8024H127.586V31.5624H129.587V29.1026L132.581 28.2178V31.5624H135.941V33.8052Z" fill="white"/>
<path d="M151.099 38.172C151.099 40.237 150.496 41.9324 149.292 43.2582C148.03 44.6232 146.354 45.3036 144.265 45.3036C142.252 45.3036 140.65 44.6498 139.455 43.3422C138.259 42.0346 137.662 40.384 137.662 38.3946C137.662 36.3128 138.277 34.6076 139.51 33.2818C140.741 31.9546 142.403 31.291 144.491 31.291C146.504 31.291 148.124 31.9448 149.346 33.2538C150.516 34.5236 151.099 36.163 151.099 38.172ZM147.937 38.2686C147.937 37.0296 147.666 35.967 147.119 35.0808C146.48 34.0084 145.566 33.4736 144.383 33.4736C143.157 33.4736 142.227 34.0098 141.588 35.0808C141.04 35.9684 140.77 37.0478 140.77 38.3246C140.77 39.5636 141.04 40.6262 141.588 41.511C142.247 42.5834 143.167 43.1182 144.355 43.1182C145.519 43.1182 146.433 42.5722 147.092 41.483C147.654 40.58 147.937 39.5062 147.937 38.2686Z" fill="white"/>
<path d="M161.006 34.1908C160.705 34.1362 160.383 34.1082 160.046 34.1082C158.973 34.1082 158.144 34.5044 157.561 35.2982C157.053 35.9982 156.799 36.883 156.799 37.9512V45.0002H153.752L153.781 35.7966C153.781 34.2482 153.742 32.8384 153.667 31.5672H156.321L156.433 34.1376H156.517C156.839 33.2542 157.346 32.543 158.041 32.0096C158.72 31.5294 159.454 31.29 160.244 31.29C160.526 31.29 160.78 31.3096 161.006 31.3446V34.1908Z" fill="white"/>
<path d="M174.638 37.6472C174.638 38.182 174.602 38.6328 174.526 39.001H165.383C165.418 40.3282 165.86 41.3432 166.709 42.0432C167.48 42.669 168.476 42.9826 169.7 42.9826C171.054 42.9826 172.289 42.7712 173.4 42.347L173.877 44.419C172.579 44.9734 171.047 45.2492 169.278 45.2492C167.151 45.2492 165.481 44.636 164.266 43.411C163.054 42.186 162.446 40.541 162.446 38.4774C162.446 36.4516 163.011 34.7646 164.142 33.4192C165.325 31.9828 166.925 31.2646 168.938 31.2646C170.915 31.2646 172.412 31.9828 173.428 33.4192C174.233 34.5602 174.638 35.9714 174.638 37.6472ZM171.731 36.873C171.752 35.9882 171.553 35.2238 171.14 34.5784C170.612 33.7482 169.801 33.3338 168.711 33.3338C167.714 33.3338 166.904 33.7384 166.285 34.5504C165.777 35.1958 165.475 35.97 165.383 36.8716H171.731V36.873Z" fill="white"/>
</svg>
