<svg width="24" height="16" viewBox="0 0 24 16" fill="none" xmlns="http://www.w3.org/2000/svg">
<rect y="0.609375" width="23.8636" height="15" rx="2" fill="white"/>
<mask id="mask0_968_810" style="mask-type:alpha" maskUnits="userSpaceOnUse" x="0" y="0" width="24" height="16">
<rect y="0.609375" width="23.8636" height="15" rx="2" fill="white"/>
</mask>
<g mask="url(#mask0_968_810)">
<path fill-rule="evenodd" clip-rule="evenodd" d="M23.8636 0.609375H0V1.60938H23.8636V0.609375ZM23.8636 2.60938H0V3.60938H23.8636V2.60938ZM0 4.60938H23.8636V5.60938H0V4.60938ZM23.8636 6.60938H0V7.60938H23.8636V6.60938ZM0 8.60938H23.8636V9.60938H0V8.60938ZM23.8636 10.6094H0V11.6094H23.8636V10.6094ZM0 12.6094H23.8636V13.6094H0V12.6094ZM23.8636 14.6094H0V15.6094H23.8636V14.6094Z" fill="#D02F44"/>
<rect y="0.609375" width="10.2273" height="7" fill="#46467F"/>
<g filter="url(#filter0_d_968_810)">
<path fill-rule="evenodd" clip-rule="evenodd" d="M2.27284 2.10938C2.27284 2.38552 2.01845 2.60938 1.70466 2.60938C1.39086 2.60938 1.13647 2.38552 1.13647 2.10938C1.13647 1.83323 1.39086 1.60938 1.70466 1.60938C2.01845 1.60938 2.27284 1.83323 2.27284 2.10938ZM4.54557 2.10938C4.54557 2.38552 4.29118 2.60938 3.97738 2.60938C3.66359 2.60938 3.4092 2.38552 3.4092 2.10938C3.4092 1.83323 3.66359 1.60938 3.97738 1.60938C4.29118 1.60938 4.54557 1.83323 4.54557 2.10938ZM6.25011 2.60938C6.56391 2.60938 6.8183 2.38552 6.8183 2.10938C6.8183 1.83323 6.56391 1.60938 6.25011 1.60938C5.93631 1.60938 5.68193 1.83323 5.68193 2.10938C5.68193 2.38552 5.93631 2.60938 6.25011 2.60938ZM9.09091 2.10938C9.09091 2.38552 8.83653 2.60938 8.52273 2.60938C8.20893 2.60938 7.95455 2.38552 7.95455 2.10938C7.95455 1.83323 8.20893 1.60938 8.52273 1.60938C8.83653 1.60938 9.09091 1.83323 9.09091 2.10938ZM2.84113 3.60938C3.15493 3.60938 3.40931 3.38552 3.40931 3.10938C3.40931 2.83323 3.15493 2.60938 2.84113 2.60938C2.52733 2.60938 2.27295 2.83323 2.27295 3.10938C2.27295 3.38552 2.52733 3.60938 2.84113 3.60938ZM5.68193 3.10938C5.68193 3.38552 5.42755 3.60938 5.11375 3.60938C4.79995 3.60938 4.54557 3.38552 4.54557 3.10938C4.54557 2.83323 4.79995 2.60938 5.11375 2.60938C5.42755 2.60938 5.68193 2.83323 5.68193 3.10938ZM7.38648 3.60938C7.70027 3.60938 7.95466 3.38552 7.95466 3.10938C7.95466 2.83323 7.70027 2.60938 7.38648 2.60938C7.07268 2.60938 6.81829 2.83323 6.81829 3.10938C6.81829 3.38552 7.07268 3.60938 7.38648 3.60938ZM9.09091 4.10938C9.09091 4.38552 8.83653 4.60938 8.52273 4.60938C8.20893 4.60938 7.95455 4.38552 7.95455 4.10938C7.95455 3.83323 8.20893 3.60938 8.52273 3.60938C8.83653 3.60938 9.09091 3.83323 9.09091 4.10938ZM6.25011 4.60938C6.56391 4.60938 6.8183 4.38552 6.8183 4.10938C6.8183 3.83323 6.56391 3.60938 6.25011 3.60938C5.93631 3.60938 5.68193 3.83323 5.68193 4.10938C5.68193 4.38552 5.93631 4.60938 6.25011 4.60938ZM4.54557 4.10938C4.54557 4.38552 4.29118 4.60938 3.97738 4.60938C3.66359 4.60938 3.4092 4.38552 3.4092 4.10938C3.4092 3.83323 3.66359 3.60938 3.97738 3.60938C4.29118 3.60938 4.54557 3.83323 4.54557 4.10938ZM1.70466 4.60938C2.01845 4.60938 2.27284 4.38552 2.27284 4.10938C2.27284 3.83323 2.01845 3.60938 1.70466 3.60938C1.39086 3.60938 1.13647 3.83323 1.13647 4.10938C1.13647 4.38552 1.39086 4.60938 1.70466 4.60938ZM3.40931 5.10937C3.40931 5.38552 3.15493 5.60937 2.84113 5.60937C2.52733 5.60937 2.27295 5.38552 2.27295 5.10937C2.27295 4.83323 2.52733 4.60938 2.84113 4.60938C3.15493 4.60938 3.40931 4.83323 3.40931 5.10937ZM5.11375 5.60937C5.42755 5.60937 5.68193 5.38552 5.68193 5.10937C5.68193 4.83323 5.42755 4.60938 5.11375 4.60938C4.79995 4.60938 4.54557 4.83323 4.54557 5.10937C4.54557 5.38552 4.79995 5.60937 5.11375 5.60937ZM7.95466 5.10937C7.95466 5.38552 7.70027 5.60937 7.38648 5.60937C7.07268 5.60937 6.81829 5.38552 6.81829 5.10937C6.81829 4.83323 7.07268 4.60938 7.38648 4.60938C7.70027 4.60938 7.95466 4.83323 7.95466 5.10937ZM8.52273 6.60938C8.83653 6.60938 9.09091 6.38552 9.09091 6.10938C9.09091 5.83323 8.83653 5.60938 8.52273 5.60938C8.20893 5.60938 7.95455 5.83323 7.95455 6.10938C7.95455 6.38552 8.20893 6.60938 8.52273 6.60938ZM6.8183 6.10938C6.8183 6.38552 6.56391 6.60938 6.25011 6.60938C5.93631 6.60938 5.68193 6.38552 5.68193 6.10938C5.68193 5.83323 5.93631 5.60937 6.25011 5.60937C6.56391 5.60937 6.8183 5.83323 6.8183 6.10938ZM3.97738 6.60938C4.29118 6.60938 4.54557 6.38552 4.54557 6.10938C4.54557 5.83323 4.29118 5.60937 3.97738 5.60937C3.66359 5.60937 3.4092 5.83323 3.4092 6.10938C3.4092 6.38552 3.66359 6.60938 3.97738 6.60938ZM2.27284 6.10938C2.27284 6.38552 2.01845 6.60938 1.70466 6.60938C1.39086 6.60938 1.13647 6.38552 1.13647 6.10938C1.13647 5.83323 1.39086 5.60937 1.70466 5.60937C2.01845 5.60937 2.27284 5.83323 2.27284 6.10938Z" fill="url(#paint0_linear_968_810)"/>
</g>
</g>
<defs>
<filter id="filter0_d_968_810" x="1.13647" y="1.60938" width="7.95435" height="6" filterUnits="userSpaceOnUse" color-interpolation-filters="sRGB">
<feFlood flood-opacity="0" result="BackgroundImageFix"/>
<feColorMatrix in="SourceAlpha" type="matrix" values="0 0 0 0 0 0 0 0 0 0 0 0 0 0 0 0 0 0 127 0" result="hardAlpha"/>
<feOffset dy="1"/>
<feColorMatrix type="matrix" values="0 0 0 0 0 0 0 0 0 0 0 0 0 0 0 0 0 0 0.06 0"/>
<feBlend mode="normal" in2="BackgroundImageFix" result="effect1_dropShadow_968_810"/>
<feBlend mode="normal" in="SourceGraphic" in2="effect1_dropShadow_968_810" result="shape"/>
</filter>
<linearGradient id="paint0_linear_968_810" x1="1.13647" y1="1.60938" x2="1.13647" y2="6.60938" gradientUnits="userSpaceOnUse">
<stop stop-color="white"/>
<stop offset="1" stop-color="#F0F0F0"/>
</linearGradient>
</defs>
</svg>
