<svg width="44" height="45" viewBox="0 0 44 45" fill="none" xmlns="http://www.w3.org/2000/svg">
<circle cx="21.9428" cy="22.5969" r="20.8976" stroke="#242424" stroke-width="1.5"/>
<g clip-path="url(#clip0_975_1172)">
<path d="M32.4426 22.5977C32.4426 16.7987 27.7416 12.0977 21.9426 12.0977C16.1436 12.0977 11.4426 16.7987 11.4426 22.5977C11.4426 27.8384 15.2823 32.1824 20.302 32.9701V25.6328H17.636V22.5977H20.302V20.2844C20.302 17.6528 21.8696 16.1992 24.268 16.1992C25.4164 16.1992 26.6184 16.4043 26.6184 16.4043V18.9883H25.2944C23.9901 18.9883 23.5833 19.7977 23.5833 20.6289V22.5977H26.4954L26.0298 25.6328H23.5833V32.9701C28.6029 32.1824 32.4426 27.8384 32.4426 22.5977Z" fill="#242424"/>
</g>
<defs>
<clipPath id="clip0_975_1172">
<rect width="21" height="21" fill="white" transform="translate(11.4426 12.0977)"/>
</clipPath>
</defs>
</svg>
