<svg width="22" height="21" viewBox="0 0 22 21" fill="none" xmlns="http://www.w3.org/2000/svg">
<path d="M19.6035 9.21289H2.63664C1.60807 9.21289 0.774414 9.63146 0.774414 10.1479C0.774414 10.6643 1.60807 11.0829 2.63664 11.0829H19.6035C20.6321 11.0829 21.4658 10.6643 21.4658 10.1479C21.4658 9.63146 20.6321 9.21289 19.6035 9.21289Z" fill="#363636"/>
<path d="M10.1514 1.96107L10.1514 18.3347C10.1514 19.3273 10.5851 20.1318 11.1202 20.1318C11.6554 20.1318 12.0891 19.3273 12.0891 18.3347L12.0891 1.96107C12.0891 0.968466 11.6554 0.163961 11.1202 0.163961C10.5851 0.163961 10.1514 0.968466 10.1514 1.96107Z" fill="#363636"/>
</svg>
