<svg width="43" height="43" viewBox="0 0 43 43" fill="none" xmlns="http://www.w3.org/2000/svg">
<path fill-rule="evenodd" clip-rule="evenodd" d="M22.001 21.9992C22.001 18.6857 24.6871 15.9995 28.0007 15.9995C31.3142 15.9995 34.0004 18.6857 34.0004 21.9992C34.0004 25.3128 31.3142 27.9989 28.0007 27.9989C24.6871 27.9989 22.001 25.3128 22.001 21.9992Z" fill="#1ABCFE"/>
<path fill-rule="evenodd" clip-rule="evenodd" d="M10 33.9987C10 30.6852 12.6862 27.999 15.9997 27.999H21.9994V33.9987C21.9994 37.3123 19.3132 39.9984 15.9997 39.9984C12.6862 39.9984 10 37.3123 10 33.9987Z" fill="#0ACF83"/>
<path fill-rule="evenodd" clip-rule="evenodd" d="M22.001 4V15.9994H28.0007C31.3142 15.9994 34.0004 13.3132 34.0004 9.9997C34.0004 6.68616 31.3142 4 28.0007 4H22.001Z" fill="#FF7262"/>
<path fill-rule="evenodd" clip-rule="evenodd" d="M10 9.9997C10 13.3132 12.6862 15.9994 15.9997 15.9994H21.9994V4H15.9997C12.6862 4 10 6.68616 10 9.9997Z" fill="#F24E1E"/>
<path fill-rule="evenodd" clip-rule="evenodd" d="M10 21.9992C10 25.3128 12.6862 27.9989 15.9997 27.9989H21.9994V15.9995H15.9997C12.6862 15.9995 10 18.6857 10 21.9992Z" fill="#A259FF"/>
</svg>
