<svg width="16" height="16" viewBox="0 0 16 16" fill="none" xmlns="http://www.w3.org/2000/svg">
<path d="M10.9999 3.20827C10.9999 3.01716 10.9053 2.85276 10.7162 2.71499C10.518 2.60833 10.3311 2.60393 10.1554 2.70169C9.88063 2.83947 9.63509 2.93943 9.41885 3.00166C9.14409 3.0772 8.79956 3.11492 8.38512 3.11492C7.93458 3.11492 7.55627 3.06379 7.24997 2.96163C7.05625 2.91721 6.79276 2.80383 6.45936 2.62163C6.10804 2.44393 5.78143 2.29945 5.4797 2.18837C5.02928 2.05058 4.53594 1.98845 3.99991 2.00176C3.43233 2.01507 2.79723 2.12844 2.09456 2.34165L1.72295 2.47503C1.25001 2.67495 1.01349 3.04387 1.01349 3.58149L1 13.4401C1 13.6045 1.05629 13.7355 1.16887 13.8333C1.27699 13.9445 1.41208 14 1.57426 14C1.72742 14 1.86261 13.9445 1.97966 13.8333C2.09235 13.7355 2.14864 13.6045 2.14864 13.4401V8.83408C2.47745 8.67409 2.72969 8.56742 2.90538 8.5141C3.23878 8.41634 3.6036 8.36741 3.99995 8.36741C4.40534 8.36741 4.77695 8.41634 5.11481 8.5141C5.31299 8.58524 5.58106 8.70521 5.91892 8.874C6.28373 9.07842 6.61257 9.22293 6.90537 9.30738C7.32882 9.43175 7.82205 9.49398 8.38515 9.49398C9.22291 9.49398 9.98422 9.31177 10.6689 8.94736C10.8896 8.8496 11 8.6874 11 8.46078L10.9999 3.20827Z" fill="#E84025"/>
</svg>
