<svg width="95" height="90" viewBox="0 0 95 90" fill="none" xmlns="http://www.w3.org/2000/svg">
<g filter="url(#filter0_d_1238_1611)">
<rect x="14" y="14" width="67" height="62" rx="13" fill="white"/>
</g>
<g clip-path="url(#clip0_1238_1611)">
<path d="M66.9777 39.5215L65.7428 34.7436C65.6842 34.517 65.5167 34.3346 65.296 34.2572C65.0754 34.1798 64.8305 34.2173 64.6431 34.3575L60.6916 37.3136C60.5801 37.397 60.4959 37.5117 60.4498 37.643L58.592 42.9327C58.1029 42.4819 57.5703 42.0776 57.0012 41.7271L57.6827 35.8598C59.4117 33.5457 60.1166 31.2222 59.7767 28.9508C59.2524 25.4482 56.4267 23.3987 56.3067 23.3131C56.055 23.1338 55.7155 23.1401 55.4707 23.3291C55.2259 23.5181 55.1337 23.8449 55.2435 24.1339L55.5724 24.9991C56.1065 26.4042 55.5721 28.0079 54.3022 28.8121C52.2866 30.0884 51.5882 32.6513 52.6776 34.7738L53.0282 35.4569L52.7512 40.266C52.3773 40.2248 51.9976 40.2029 51.6129 40.2029C50.8095 40.2029 50.0153 40.2973 49.2439 40.479L49.1192 39.9184C49.3083 39.7952 49.4714 39.6332 49.5962 39.4372C49.826 39.0759 49.9015 38.6467 49.8085 38.2287C49.7158 37.8107 49.4656 37.4538 49.1043 37.224C48.9195 37.1064 48.7169 37.0297 48.5073 36.9948L48.3395 36.2399C48.2692 35.9231 48.285 35.6035 48.3832 35.363C48.7728 34.4082 48.5481 33.1345 47.8486 32.3343L44.0693 28.0107C43.9005 27.8175 43.6392 27.7319 43.3889 27.7876C43.1383 27.8433 42.9382 28.0314 42.867 28.2781L41.275 33.7956C40.9805 34.8166 41.3163 36.0655 42.0737 36.7654C42.2644 36.9417 42.4142 37.2245 42.4846 37.5413L42.6524 38.2964C42.4773 38.4169 42.3262 38.5721 42.2087 38.7567C41.9787 39.118 41.9033 39.5472 41.9962 39.9652C42.0889 40.3832 42.3391 40.7401 42.7004 40.97C42.8967 41.0949 43.113 41.174 43.3366 41.2056L43.8886 43.6883C43.4077 44.2328 42.9836 44.8277 42.6256 45.4646C42.4349 45.4322 42.2432 45.4081 42.051 45.3901L38.9168 40.5464C38.8157 40.3902 38.6567 40.2804 38.4747 40.2415C38.2929 40.2024 38.1027 40.2375 37.9465 40.3386L30.406 45.219C30.0807 45.4295 29.9876 45.864 30.1981 46.1893L32.9908 50.5054C30.7032 51.064 29 53.1294 29 55.5862C29 58.4705 31.3465 60.817 34.2308 60.817H60.88C63.7643 60.817 66.1108 58.4705 66.1108 55.5862C66.1108 53.5209 64.8917 51.7091 63.1209 50.8636L66.9604 39.9296C67.0065 39.7983 67.0125 39.6563 66.9777 39.5215ZM64.6462 36.1081L64.8312 36.8238C64.6948 36.8071 64.5596 36.776 64.4278 36.7297C64.2959 36.6833 64.1709 36.6232 64.054 36.5511L64.6462 36.1081ZM61.4459 39.0416C61.8219 39.3036 62.2202 39.5297 62.6345 39.7193L60.6096 45.4862C60.3346 44.9956 60.0208 44.5295 59.672 44.0925L61.4459 39.0416ZM55.053 29.9977C56.372 29.1624 57.1405 27.729 57.1793 26.2353C57.7144 26.9974 58.2131 27.9847 58.3888 29.1587C58.6634 30.9945 58.0876 32.91 56.6782 34.8572L54.187 34.6411L53.9262 34.133C53.1703 32.6608 53.6548 30.8831 55.053 29.9977ZM54.3397 37.0916L54.3987 36.0681L56.2272 36.2267L56.1088 37.2452L54.3397 37.0916ZM55.9469 38.6396L55.6686 41.0351C55.1782 40.8243 54.6684 40.6504 54.1424 40.5172L54.259 38.4932L55.9469 38.6396ZM43.0256 35.7344C42.6558 35.3926 42.475 34.6972 42.623 34.1844L43.4526 31.3092L43.9502 33.548C44.0229 33.8751 44.3128 34.0976 44.6344 34.0976C44.6848 34.0976 44.736 34.0921 44.7873 34.0807C45.1657 33.9966 45.4042 33.6218 45.32 33.2435L44.8224 31.0048L46.7917 33.2578C47.143 33.6597 47.2739 34.3662 47.0835 34.8327C46.877 35.3387 46.8364 35.9466 46.9693 36.5442L47.1118 37.1855L43.9966 37.8779L43.854 37.2366C43.7212 36.6388 43.427 36.1053 43.0256 35.7344ZM43.739 39.7821C43.7368 39.7826 43.7346 39.7835 43.7322 39.784L43.6044 39.8124C43.5374 39.8271 43.4855 39.8063 43.4537 39.7859C43.4218 39.7656 43.3808 39.7274 43.366 39.6606C43.3511 39.5938 43.3721 39.5418 43.3925 39.51C43.4127 39.4781 43.4509 39.437 43.5177 39.4221L43.6164 39.4002C43.6164 39.4002 43.6164 39.4002 43.6164 39.4002L48.2002 38.3814C48.2159 38.3779 48.2308 38.3764 48.2448 38.3764C48.2904 38.3764 48.3265 38.3923 48.3509 38.4079C48.3828 38.4281 48.4238 38.4664 48.4386 38.5332C48.4534 38.6 48.4324 38.6521 48.4121 38.6838C48.3919 38.7158 48.3536 38.7568 48.2868 38.7717L43.739 39.7821ZM47.8987 40.8951C47.2746 41.1363 46.6726 41.4374 46.102 41.7993C45.7425 42.0273 45.3986 42.2766 45.0719 42.5452L44.7283 41.0001L47.7714 40.3236L47.8987 40.8951ZM31.7571 46.0159L38.1196 41.8977L40.3928 45.4108C39.042 45.5728 37.77 46.0855 36.6708 46.9174C35.6377 47.6992 34.812 48.742 34.281 49.9167L31.7571 46.0159ZM64.7075 55.5862C64.7075 57.6967 62.9904 59.4137 60.8801 59.4137H34.2308C32.1204 59.4137 30.4033 57.6967 30.4033 55.5862C30.4033 53.4757 32.1205 51.7588 34.2308 51.7588C34.3235 51.7588 34.4244 51.7632 34.5396 51.7724C34.871 51.7988 35.1731 51.5907 35.2676 51.2737C36.0612 48.6151 38.5544 46.7583 41.3307 46.7583C41.8347 46.7583 42.3404 46.8193 42.8336 46.9394C43.1527 47.017 43.4829 46.8632 43.6286 46.5689C45.1428 43.5078 48.2022 41.6064 51.6129 41.6064C56.5224 41.6064 60.5166 45.6006 60.5166 50.5101C60.5166 50.6678 60.5113 50.8379 60.5004 51.0297C60.4785 51.4131 60.7687 51.7429 61.1518 51.7697C63.1456 51.9092 64.7075 53.5857 64.7075 55.5862ZM61.9101 50.076C61.871 49.1391 61.7068 48.234 61.4328 47.3772L63.9587 40.184C64.4003 40.2949 64.8522 40.3662 65.309 40.3968L61.9101 50.076ZM62.257 37.8953L62.8842 37.4262C63.1984 37.6998 63.5626 37.9131 63.9629 38.0538C64.3197 38.1791 64.6905 38.242 65.0621 38.242C65.1069 38.242 65.1518 38.2396 65.1966 38.2377L65.3927 38.9966C64.269 38.9197 63.1817 38.5379 62.257 37.8953Z" fill="#E84025"/>
<path d="M50.7884 51.2683C50.7864 51.2683 50.7845 51.2683 50.7825 51.2683C49.6751 49.6914 47.899 48.7625 45.9512 48.7625C42.6929 48.7625 40.042 51.4133 40.042 54.6716C40.042 55.0591 40.3561 55.3733 40.7437 55.3733C41.1312 55.3733 41.4453 55.0591 41.4453 54.6716C41.4453 52.1871 43.4666 50.1658 45.9512 50.1658C47.5454 50.1658 48.9893 50.9824 49.8134 52.3502C49.9525 52.581 50.2112 52.7117 50.48 52.6866C50.5862 52.6767 50.69 52.6716 50.7884 52.6716C52.5821 52.6716 54.0414 54.1309 54.0414 55.9246C54.0414 56.3121 54.3555 56.6262 54.743 56.6262C55.1306 56.6262 55.4447 56.3121 55.4447 55.9246C55.4447 53.3571 53.356 51.2683 50.7884 51.2683Z" fill="#E84025"/>
</g>
<defs>
<filter id="filter0_d_1238_1611" x="0" y="0" width="95" height="90" filterUnits="userSpaceOnUse" color-interpolation-filters="sRGB">
<feFlood flood-opacity="0" result="BackgroundImageFix"/>
<feColorMatrix in="SourceAlpha" type="matrix" values="0 0 0 0 0 0 0 0 0 0 0 0 0 0 0 0 0 0 127 0" result="hardAlpha"/>
<feOffset/>
<feGaussianBlur stdDeviation="7"/>
<feComposite in2="hardAlpha" operator="out"/>
<feColorMatrix type="matrix" values="0 0 0 0 0 0 0 0 0 0 0 0 0 0 0 0 0 0 0.09 0"/>
<feBlend mode="normal" in2="BackgroundImageFix" result="effect1_dropShadow_1238_1611"/>
<feBlend mode="normal" in="SourceGraphic" in2="effect1_dropShadow_1238_1611" result="shape"/>
</filter>
<clipPath id="clip0_1238_1611">
<rect width="38" height="38" fill="white" transform="translate(29 23)"/>
</clipPath>
</defs>
</svg>
