<svg width="38" height="35" viewBox="0 0 38 35" fill="none" xmlns="http://www.w3.org/2000/svg">
<g clip-path="url(#clip0_1207_1272)">
<path d="M37.3667 33.6561H36.8333V24.8895V24.7895H36.7333H29.1333H29.0333V24.8895V33.6561H27.3333V19.1895V19.0895H27.2333H19.6333H19.5333V19.1895V33.6561H17.8333V14.1228V14.0228H17.7333H10.1333H10.0333V14.1228V33.6561H8.33333V9.05615V8.95615H8.23333H0.633333H0.533333V9.05615V33.6629C0.175811 33.7116 -0.1 34.0179 -0.1 34.3895C-0.1 34.795 0.22857 35.1228 0.633333 35.1228H8.23333H10.1333H17.7333H19.6333H27.2333H29.1333H36.7333H37.3667C37.7714 35.1228 38.1 34.795 38.1 34.3895C38.1 33.984 37.7714 33.6561 37.3667 33.6561ZM2 33.6561V10.4228H6.86667V33.6561H2ZM11.5 33.6561V15.4895H16.3667V33.6561H11.5ZM21 33.6561V20.5562H25.8667V33.6561H21ZM30.5 33.6561V26.2561H35.3667V33.6561H30.5Z" fill="#E84025" stroke="#E84025" stroke-width="0.2"/>
<path d="M7.41121 2.24645L7.41121 2.24645C7.06059 2.044 6.94046 1.59526 7.14277 1.24416L7.14286 1.244L7.14286 1.244C7.34523 0.894239 7.79255 0.773284 8.14439 0.97559L8.14454 0.975676L8.14454 0.975676L30.8453 14.0804L29.5369 11.2041C29.5369 11.2041 29.5369 11.2041 29.5369 11.2041C29.369 10.8353 29.5317 10.4012 29.9003 10.2333C30.2693 10.0629 30.7039 10.2287 30.8716 10.5968L30.8716 10.5969L33.1281 15.5559L33.1292 15.5583L33.1292 15.5583C33.1378 15.5786 33.1407 15.5974 33.142 15.6062L33.1421 15.6068C33.1429 15.6116 33.1433 15.614 33.1434 15.615C33.1575 15.653 33.1674 15.6907 33.1744 15.7294C33.1747 15.7303 33.1756 15.7326 33.1775 15.7376C33.1805 15.7455 33.1875 15.7632 33.1901 15.7853C33.1902 15.786 33.1903 15.7867 33.1904 15.7874L33.0909 15.798C33.0916 15.8021 33.0909 15.8058 33.0901 15.8095C33.0894 15.8127 33.0887 15.816 33.089 15.8196L7.41121 2.24645ZM7.41121 2.24645L30.1113 15.3524L26.9659 15.6573M7.41121 2.24645L26.9659 15.6573M32.5494 16.4827C32.5995 16.4757 32.6476 16.4624 32.6951 16.4434M32.5494 16.4827C32.5453 16.4835 32.5415 16.4852 32.5376 16.4868C32.5325 16.489 32.5273 16.4912 32.5216 16.4915M32.5494 16.4827L32.5632 16.5817C32.5666 16.5812 32.57 16.5807 32.5734 16.5802C32.5736 16.5801 32.5739 16.58 32.574 16.58L32.5746 16.5798L32.5767 16.5788L32.578 16.5783C32.5787 16.578 32.5787 16.578 32.5784 16.5781C32.5777 16.5784 32.5743 16.5797 32.5691 16.5807L32.5494 16.4827ZM32.6951 16.4434L26.9755 15.7569C26.6278 15.7904 26.3725 16.1001 26.4067 16.4485C26.4384 16.7759 26.7139 17.0204 27.0363 17.0204C27.0565 17.0204 27.0768 17.0191 27.0983 17.0172L32.5216 16.4915M32.6951 16.4434C32.6995 16.4415 32.7041 16.441 32.7087 16.4406C32.7133 16.4401 32.7179 16.4396 32.7223 16.4377L32.6951 16.4434ZM32.5216 16.4915L32.5312 16.5911L32.5302 16.5912L27.108 17.1167L27.1071 17.1168C27.0841 17.1189 27.0606 17.1204 27.0363 17.1204C26.663 17.1204 26.344 16.8375 26.3072 16.4582M32.5216 16.4915L26.3072 16.4582M26.9659 15.6573C26.9659 15.6573 26.9658 15.6573 26.9658 15.6573C26.5632 15.6962 26.2676 16.0549 26.3072 16.4582M26.9659 15.6573L26.3072 16.4582M33.0119 16.3392L33.0102 16.3413C33.0044 16.3482 32.9974 16.3565 32.9899 16.3647L32.9888 16.3658C32.9382 16.4194 32.8801 16.4659 32.815 16.5018L32.8146 16.5021C32.8077 16.5058 32.8015 16.5084 32.797 16.5101C32.7941 16.5112 32.7914 16.5122 32.7894 16.5128L33.0119 16.3392ZM33.0119 16.3392C33.0217 16.3282 33.0291 16.3175 33.0344 16.3098C33.0368 16.3061 33.0386 16.3034 33.0401 16.3012C33.0425 16.2975 33.0441 16.2951 33.0464 16.292L32.9655 16.2331C32.9709 16.2258 32.9769 16.2189 32.9828 16.2119C32.9923 16.2008 33.0019 16.1896 33.0092 16.1768M33.0119 16.3392L33.1894 15.8229C33.1902 15.8459 33.1883 15.8697 33.1871 15.8846C33.1868 15.8889 33.1865 15.8925 33.1864 15.8951L33.1864 15.8953C33.1841 15.9377 33.1772 15.9764 33.169 16.0138L33.1688 16.015C33.168 16.0182 33.1675 16.0211 33.1669 16.0245C33.1661 16.0295 33.1652 16.0354 33.1638 16.0446C33.1617 16.0579 33.1583 16.0772 33.1511 16.0978C33.1447 16.1166 33.1366 16.1325 33.1305 16.144C33.128 16.1488 33.1259 16.1527 33.1241 16.1559C33.1211 16.1614 33.1191 16.1653 33.1169 16.1698C33.1166 16.1708 33.116 16.1731 33.1149 16.1774L33.1147 16.1782C33.1126 16.1867 33.1076 16.2064 33.0959 16.2267C33.0958 16.2268 33.0957 16.227 33.0956 16.2272L33.0092 16.1768M33.0092 16.1768C33.014 16.1686 33.0162 16.1598 33.0185 16.1509C33.0203 16.1434 33.0222 16.1359 33.0257 16.1286L33.0092 16.1768Z" fill="#E84025" stroke="#E84025" stroke-width="0.2"/>
</g>
<defs>
<clipPath id="clip0_1207_1272">
<rect width="38" height="35" fill="white"/>
</clipPath>
</defs>
</svg>
