<svg width="50" height="51" viewBox="0 0 50 51" fill="none" xmlns="http://www.w3.org/2000/svg">
<path d="M15.5296 0.868168C14.888 0.849175 14.2498 0.968598 13.6585 1.21831C13.0671 1.46803 12.5365 1.84218 12.1027 2.31531C11.3791 3.17333 10.9904 4.26418 11.0083 5.38645V11.6005H4.79728C3.52631 11.6814 2.33869 12.2608 1.4926 13.2127C0.646516 14.1646 0.210376 15.412 0.279 16.6837V30.2395C0.260179 30.8806 0.379695 31.5183 0.629413 32.1091C0.879132 32.6999 1.25319 33.23 1.72614 33.6633C2.58489 34.3857 3.67525 34.7742 4.79728 34.7578H11.0113V41.5357C11.02 42.1166 11.167 42.6871 11.4403 43.1998C11.7136 43.7124 12.1053 44.1525 12.5827 44.4835C13.6195 45.1787 14.8478 45.5321 16.0955 45.4941V46.6239C16.1041 47.2036 16.2506 47.773 16.5228 48.2848C16.795 48.7967 17.1851 49.2365 17.6609 49.5677C18.6981 50.2619 19.9261 50.6152 21.1736 50.5783H34.7345C35.9993 50.6307 37.2353 50.1912 38.183 49.352C39.1308 48.5127 39.7166 47.3391 39.8177 46.0772C39.8177 46.0712 39.8177 46.0654 39.8177 46.06V40.4069H45.4658C46.7361 40.3241 47.9226 39.7442 48.7683 38.7927C49.6141 37.8413 50.0509 36.5949 49.9841 35.3237V21.7668C50.021 20.5193 49.6677 19.2913 48.9735 18.2541C48.6425 17.7766 48.2024 17.385 47.6897 17.1117C47.1771 16.8384 46.6066 16.6913 46.0257 16.6826H44.9009C44.9458 15.4319 44.6004 14.1983 43.9126 13.1527C43.577 12.6772 43.1331 12.2883 42.6175 12.0182C42.102 11.7481 41.5295 11.6046 40.9475 11.5995H34.1696V5.38645C34.1696 2.89538 31.7735 0.868168 28.8783 0.868168H15.5296ZM15.5296 3.12781H28.8783C30.6831 3.12781 31.91 4.51836 31.91 5.38746V12.7303C31.921 13.0264 32.0436 13.3074 32.2531 13.517C32.4626 13.7265 32.7437 13.8491 33.0398 13.8601H40.9475C41.174 13.852 41.3984 13.905 41.5973 14.0137C41.7961 14.1223 41.9619 14.2826 42.0774 14.4776C42.4819 15.14 42.6786 15.9084 42.6423 16.6837C42.5857 21.1565 42.6423 25.7071 42.6423 30.2395C42.7053 30.8859 42.5295 31.5329 42.1481 32.0585C41.9952 32.2192 41.8074 32.3426 41.5993 32.4192C41.3911 32.4958 41.1681 32.5235 40.9475 32.5002H33.0398C32.7438 32.5112 32.463 32.6336 32.2534 32.8429C32.0439 33.0522 31.9212 33.333 31.91 33.629V41.5367C31.9333 41.7573 31.9056 41.9803 31.829 42.1884C31.7525 42.3966 31.629 42.5844 31.4684 42.7373C30.9427 43.1187 30.2957 43.2945 29.6493 43.2314H16.0945C15.3174 43.2634 14.5486 43.0605 13.8884 42.6494C13.6942 42.5377 13.5341 42.3751 13.4253 42.1793C13.3165 41.9834 13.2632 41.7616 13.2709 41.5377V33.629C13.2599 33.3327 13.1372 33.0515 12.9274 32.8419C12.7177 32.6324 12.4364 32.5099 12.1401 32.4991H4.79728C4.22036 32.5086 3.65844 32.3151 3.20967 31.9524C2.97145 31.7396 2.78661 31.4738 2.67004 31.1765C2.55348 30.8791 2.50847 30.5585 2.53864 30.2405V16.6837C2.48187 16.013 2.68461 15.3462 3.10505 14.8206C3.52548 14.2951 4.13156 13.9509 4.79829 13.8591H12.1411C12.4373 13.8481 12.7183 13.7255 12.9278 13.516C13.1374 13.3064 13.2599 13.0254 13.2709 12.7293V5.38645C13.2551 4.81157 13.4422 4.24947 13.7995 3.79883C14.0161 3.56049 14.2851 3.37579 14.5854 3.25933C14.8857 3.14288 15.2089 3.09785 15.5296 3.12781ZM18.248 15.5579C18.0831 15.5547 17.9181 15.5605 17.7539 15.5751C16.3507 15.7566 15.0379 16.3668 13.9945 17.3223C13.4097 17.8126 12.9404 18.426 12.62 19.1187C12.2996 19.8113 12.1361 20.5661 12.1411 21.3293C12.1976 22.7309 12.7694 24.0623 13.7469 25.0684L20.8422 32.6002C21.0079 32.776 21.3636 33.1378 21.5132 33.2884C21.7297 33.4876 22.0133 33.5982 22.3075 33.5982C22.6017 33.5982 22.8853 33.4876 23.1018 33.2884C23.2514 33.1378 23.6071 32.775 23.7728 32.6002L30.8691 25.0633C31.8465 24.0572 32.4183 22.7258 32.4749 21.3242C32.4799 20.5611 32.3164 19.8062 31.996 19.1136C31.6757 18.421 31.2063 17.8076 30.6215 17.3173C29.5776 16.3654 28.2641 15.7609 26.8622 15.5872C26.1826 15.5073 25.4937 15.5869 24.8503 15.8197C24.2069 16.0525 23.6265 16.432 23.1554 16.9282L22.3095 17.8458C22.0316 17.5578 21.6961 17.1889 21.4627 16.9282C21.0537 16.4859 20.5559 16.1348 20.002 15.898C19.4481 15.6612 18.8504 15.5439 18.248 15.5538V15.5579ZM18.0004 17.8175C18.3256 17.7561 18.6612 17.7807 18.9739 17.8891C19.2866 17.9974 19.5656 18.1856 19.7831 18.435C20.3268 19.0555 20.9119 19.6628 21.4778 20.2712C21.6984 20.4903 21.9966 20.6132 22.3075 20.6132C22.6184 20.6132 22.9166 20.4903 23.1372 20.2712L24.8137 18.4704C25.0393 18.2204 25.3241 18.0312 25.642 17.9201C25.9599 17.809 26.3006 17.7796 26.6328 17.8347C27.5625 17.9694 28.43 18.3815 29.1218 19.0171C29.468 19.2821 29.7473 19.6245 29.9373 20.0169C30.1274 20.4093 30.2229 20.8408 30.2163 21.2767C30.1702 22.1192 29.8189 22.916 29.2279 23.5182L22.3095 30.8398L15.3881 23.5151C14.7971 22.913 14.4458 22.1161 14.3998 21.2737C14.3931 20.8377 14.4886 20.4063 14.6787 20.0139C14.8687 19.6215 15.148 19.2791 15.4942 19.014C16.1918 18.3738 17.0643 17.9558 18.0004 17.8135V17.8175ZM44.9009 18.9473H46.0307C46.2544 18.9406 46.4758 18.9945 46.6715 19.1032C46.8671 19.2118 47.0298 19.3713 47.1424 19.5648C47.5525 20.2255 47.7552 20.9939 47.7245 21.7709V35.3237C47.77 35.992 47.5631 36.653 47.1447 37.176C46.7263 37.6991 46.1268 38.046 45.4648 38.1483H38.6879C38.3918 38.1593 38.1107 38.2818 37.9012 38.4914C37.6917 38.7009 37.5691 38.9819 37.5581 39.2781V46.056C37.4511 46.7157 37.1029 47.3122 36.5809 47.7298C36.059 48.1473 35.4007 48.3561 34.7335 48.3156H21.1777C20.406 48.3469 19.643 48.144 18.9888 47.7336C18.7932 47.622 18.631 47.46 18.5192 47.2645C18.4074 47.069 18.3501 46.8471 18.3531 46.6219V45.4901H29.6503C30.8568 45.5564 32.0451 45.1729 32.9852 44.4138C33.3738 44.0446 33.68 43.5974 33.8838 43.1016C34.0875 42.6058 34.1843 42.0725 34.1676 41.5367V34.7588H40.9455C41.4825 34.7721 42.0163 34.6721 42.512 34.4652C43.0078 34.2583 43.4544 33.9493 43.8226 33.5582C44.582 32.6246 44.9658 31.4412 44.8989 30.2395L44.9009 18.9473Z" fill="#333333"/>
</svg>
