<svg width="46" height="46" viewBox="0 0 46 46" fill="none" xmlns="http://www.w3.org/2000/svg">
<g filter="url(#filter0_d_1014_3100)">
<path d="M22.5797 37.8207C31.6804 37.8207 39.0579 30.4451 39.0579 21.3469C39.0579 12.2486 31.6804 4.87305 22.5797 4.87305C13.4791 4.87305 6.10156 12.2486 6.10156 21.3469C6.10156 30.4451 13.4791 37.8207 22.5797 37.8207Z" fill="white"/>
</g>
<path d="M26.3463 20.2926L19.8488 14.1635C19.786 14.1006 19.7071 14.05 19.6178 14.0152C19.5286 13.9804 19.4311 13.9624 19.3324 13.9624C19.2336 13.9624 19.1362 13.9804 19.0469 14.0152C18.9576 14.05 18.8787 14.1006 18.816 14.1635C18.6778 14.2999 18.6021 14.4721 18.6021 14.6499C18.6021 14.8277 18.6778 14.9999 18.816 15.1363L24.7982 20.7789L18.8165 26.4216C18.6788 26.5583 18.6034 26.7304 18.6034 26.9082C18.6034 27.086 18.6788 27.2581 18.8165 27.3948C18.8793 27.4577 18.9581 27.5083 19.0474 27.5431C19.1367 27.5779 19.2342 27.5959 19.3329 27.5959C19.4316 27.5959 19.5291 27.5779 19.6184 27.5431C19.7077 27.5083 19.7865 27.4577 19.8493 27.3948L26.3469 21.2649C26.4829 21.1277 26.5571 20.9559 26.557 20.7786C26.5569 20.6014 26.4825 20.4296 26.3463 20.2926Z" fill="#858484"/>
<defs>
<filter id="filter0_d_1014_3100" x="0.101562" y="0.873047" width="44.9565" height="44.9478" filterUnits="userSpaceOnUse" color-interpolation-filters="sRGB">
<feFlood flood-opacity="0" result="BackgroundImageFix"/>
<feColorMatrix in="SourceAlpha" type="matrix" values="0 0 0 0 0 0 0 0 0 0 0 0 0 0 0 0 0 0 127 0" result="hardAlpha"/>
<feOffset dy="2"/>
<feGaussianBlur stdDeviation="3"/>
<feColorMatrix type="matrix" values="0 0 0 0 0 0 0 0 0 0 0 0 0 0 0 0 0 0 0.102 0"/>
<feBlend mode="normal" in2="BackgroundImageFix" result="effect1_dropShadow_1014_3100"/>
<feBlend mode="normal" in="SourceGraphic" in2="effect1_dropShadow_1014_3100" result="shape"/>
</filter>
</defs>
</svg>
