<svg width="46" height="46" viewBox="0 0 46 46" fill="none" xmlns="http://www.w3.org/2000/svg">
<g filter="url(#filter0_d_1014_3105)">
<path d="M23.3924 37.8207C14.2918 37.8207 6.91426 30.4451 6.91426 21.3469C6.91426 12.2486 14.2918 4.87305 23.3924 4.87305C32.4931 4.87305 39.8706 12.2486 39.8706 21.3469C39.8706 30.4451 32.4931 37.8207 23.3924 37.8207Z" fill="white"/>
</g>
<path d="M19.6259 20.2926L26.1234 14.1635C26.1862 14.1006 26.2651 14.05 26.3543 14.0152C26.4436 13.9804 26.5411 13.9624 26.6398 13.9624C26.7385 13.9624 26.836 13.9804 26.9253 14.0152C27.0146 14.05 27.0934 14.1006 27.1562 14.1635C27.2944 14.2999 27.3701 14.4721 27.3701 14.6499C27.3701 14.8277 27.2944 14.9999 27.1562 15.1363L21.174 20.7789L27.1557 26.4216C27.2934 26.5583 27.3688 26.7304 27.3688 26.9082C27.3688 27.086 27.2934 27.2581 27.1557 27.3948C27.0929 27.4577 27.014 27.5083 26.9248 27.5431C26.8355 27.5779 26.738 27.5959 26.6393 27.5959C26.5406 27.5959 26.4431 27.5779 26.3538 27.5431C26.2645 27.5083 26.1857 27.4577 26.1229 27.3948L19.6253 21.2649C19.4893 21.1277 19.415 20.9559 19.4151 20.7786C19.4152 20.6014 19.4897 20.4296 19.6259 20.2926Z" fill="#858484"/>
<defs>
<filter id="filter0_d_1014_3105" x="0.914062" y="0.873047" width="44.9565" height="44.9478" filterUnits="userSpaceOnUse" color-interpolation-filters="sRGB">
<feFlood flood-opacity="0" result="BackgroundImageFix"/>
<feColorMatrix in="SourceAlpha" type="matrix" values="0 0 0 0 0 0 0 0 0 0 0 0 0 0 0 0 0 0 127 0" result="hardAlpha"/>
<feOffset dy="2"/>
<feGaussianBlur stdDeviation="3"/>
<feColorMatrix type="matrix" values="0 0 0 0 0 0 0 0 0 0 0 0 0 0 0 0 0 0 0.102 0"/>
<feBlend mode="normal" in2="BackgroundImageFix" result="effect1_dropShadow_1014_3105"/>
<feBlend mode="normal" in="SourceGraphic" in2="effect1_dropShadow_1014_3105" result="shape"/>
</filter>
</defs>
</svg>
