<svg width="44" height="45" viewBox="0 0 44 45" fill="none" xmlns="http://www.w3.org/2000/svg">
<circle cx="21.9428" cy="22.5969" r="20.8976" stroke="#242424" stroke-width="1.5"/>
<path d="M25.6574 13.8174H17.8001C16.5707 13.8189 15.392 14.3081 14.5227 15.1775C13.6534 16.0469 13.1645 17.2256 13.1631 18.4551V26.3124C13.1645 27.5419 13.6535 28.7207 14.523 29.5902C15.3924 30.4596 16.5712 30.9486 17.8008 30.95H25.6574C26.887 30.9486 28.0658 30.4596 28.9352 29.5902C29.8046 28.7207 30.2937 27.5419 30.2951 26.3124V18.4551C30.2937 17.2255 29.8046 16.0467 28.9352 15.1773C28.0658 14.3078 26.887 13.8188 25.6574 13.8174V13.8174ZM21.7291 27.0683C20.8025 27.0683 19.8967 26.7935 19.1263 26.2787C18.3559 25.7639 17.7554 25.0323 17.4008 24.1762C17.0462 23.3202 16.9535 22.3782 17.1342 21.4694C17.315 20.5606 17.7612 19.7259 18.4164 19.0707C19.0716 18.4155 19.9063 17.9693 20.8151 17.7885C21.7239 17.6078 22.6659 17.7005 23.5219 18.0551C24.378 18.4097 25.1096 19.0102 25.6244 19.7806C26.1392 20.551 26.414 21.4568 26.414 22.3834C26.4126 23.6255 25.9185 24.8163 25.0403 25.6946C24.162 26.5728 22.9712 27.0669 21.7291 27.0683ZM26.5254 18.8038C26.2515 18.8038 25.9838 18.7226 25.7561 18.5704C25.5284 18.4183 25.3509 18.202 25.2461 17.9489C25.1414 17.6959 25.114 17.4175 25.1675 17.1489C25.2209 16.8802 25.3529 16.6335 25.5466 16.4399C25.7403 16.2463 25.9871 16.1145 26.2557 16.0611C26.5243 16.0078 26.8027 16.0353 27.0557 16.1402C27.3087 16.2451 27.5249 16.4227 27.677 16.6504C27.8291 16.8782 27.9102 17.146 27.91 17.4199C27.9095 17.7869 27.7634 18.1387 27.5039 18.3981C27.2443 18.6576 26.8924 18.8035 26.5254 18.8038Z" fill="#242424"/>
<path d="M21.7289 18.7041C21.0009 18.7041 20.2893 18.92 19.6841 19.3244C19.0788 19.7288 18.6071 20.3036 18.3285 20.9761C18.0499 21.6487 17.977 22.3887 18.1191 23.1026C18.2611 23.8166 18.6116 24.4724 19.1263 24.9871C19.6411 25.5018 20.2969 25.8524 21.0108 25.9944C21.7248 26.1364 22.4648 26.0635 23.1373 25.785C23.8098 25.5064 24.3847 25.0346 24.7891 24.4294C25.1935 23.8241 25.4094 23.1125 25.4094 22.3846C25.4083 21.4088 25.0202 20.4733 24.3302 19.7832C23.6402 19.0932 22.7047 18.7051 21.7289 18.7041Z" fill="#242424"/>
<path d="M26.5254 17.04C26.4504 17.0402 26.3771 17.0625 26.3147 17.1043C26.2524 17.1461 26.2038 17.2054 26.1752 17.2748C26.1466 17.3442 26.1391 17.4205 26.1539 17.4941C26.1686 17.5677 26.2048 17.6352 26.2579 17.6883C26.311 17.7413 26.3787 17.7774 26.4523 17.792C26.5259 17.8066 26.6022 17.799 26.6715 17.7703C26.7408 17.7415 26.8001 17.6929 26.8417 17.6304C26.8834 17.568 26.9057 17.4947 26.9057 17.4196C26.9055 17.3189 26.8654 17.2223 26.7941 17.1512C26.7228 17.08 26.6261 17.04 26.5254 17.04Z" fill="#242424"/>
</svg>
