<svg width="12" height="7" viewBox="0 0 12 7" fill="none" xmlns="http://www.w3.org/2000/svg">
<path d="M5.54179 4.43328L9.74179 0.233278C9.81521 0.159353 9.90254 0.100684 9.99873 0.060648C10.0949 0.020612 10.1981 0 10.3023 0C10.4065 0 10.5096 0.020612 10.6058 0.060648C10.702 0.100684 10.7894 0.159353 10.8628 0.233278C11.0106 0.382998 11.0934 0.584904 11.0934 0.795278C11.0934 1.00565 11.0106 1.20756 10.8628 1.35728L6.09979 6.11628C5.95542 6.26013 5.76116 6.3428 5.5574 6.34708C5.35364 6.35137 5.15607 6.27694 5.00579 6.13928L0.218788 1.35828C0.0761079 1.20833 -0.00237711 1.00859 5.48777e-05 0.801621C0.00248687 0.594652 0.0856434 0.396814 0.231807 0.250259C0.377971 0.103704 0.575587 0.0200187 0.782549 0.0170336C0.989511 0.0140484 1.18946 0.0919992 1.33979 0.234278L5.54179 4.43328Z" fill="white"/>
</svg>
