<svg width="36" height="36" viewBox="0 0 36 36" fill="none" xmlns="http://www.w3.org/2000/svg">
<circle cx="18" cy="18" r="18" fill="#0769AD"/>
<path d="M26.5591 14.6842C28.1752 14.6842 29.6549 14.1452 30.799 13.2512C29.6113 14.8162 27.6435 15.8394 25.4169 15.8394C21.7896 15.8394 18.8492 13.1241 18.8492 9.77457C18.8492 7.91739 19.7531 6.25519 21.177 5.1427C20.4298 6.12714 19.9914 7.32597 19.9914 8.61937C19.9914 11.9689 22.9319 14.6842 26.5591 14.6842Z" fill="#78CFF5"/>
<path d="M30.7365 18.8466C28.9941 20.2134 26.7385 21.0378 24.2747 21.0378C18.7549 21.0378 14.2803 16.9002 14.2803 11.7962C14.2803 9.81655 14.9534 7.98231 16.0996 6.47848C13.9385 8.17367 12.567 10.7032 12.567 13.529C12.567 18.633 17.0416 22.7706 22.5614 22.7706C25.9402 22.7706 28.9275 21.2201 30.7365 18.8466Z" fill="#78CFF5"/>
<path d="M30.8569 24.1328C28.374 26.5021 24.9345 27.969 21.1336 27.969C13.5637 27.969 7.42701 22.1505 7.42701 14.973C7.42701 12.6986 8.04318 10.5607 9.12589 8.70114C6.66386 11.0506 5.14258 14.2873 5.14258 17.861C5.14258 25.0385 11.2792 30.857 18.8492 30.857C24.0204 30.857 28.5227 28.1417 30.8569 24.1328Z" fill="#78CFF5"/>
</svg>
