<svg width="37" height="37" viewBox="0 0 37 37" fill="none" xmlns="http://www.w3.org/2000/svg">
<rect width="36.3334" height="36.3334" fill="#FFCA28"/>
<path d="M22.0602 30.2185L24.7353 28.4484C24.9449 29.107 26.2725 30.6713 27.9494 30.6713C29.6263 30.6713 30.4049 29.7554 30.4049 29.1482C30.4049 27.4935 28.6926 26.9101 27.8701 26.6299C27.736 26.5842 27.6256 26.5466 27.5501 26.5137C27.5114 26.4968 27.4529 26.4744 27.3777 26.4457C26.463 26.0962 23.0883 24.8069 23.0883 21.0696C23.0883 16.9531 27.061 16.4797 27.9594 16.4797C28.5471 16.4797 31.3731 16.5518 32.7805 19.1966L30.1853 21.0079C29.6163 19.8553 28.671 19.4745 28.0891 19.4745C26.6518 19.4745 26.3523 20.5282 26.3523 21.0079C26.3523 22.3538 27.914 22.957 29.2326 23.4664C29.5776 23.5997 29.9059 23.7265 30.1853 23.8585C31.6227 24.5378 33.7388 25.6492 33.7388 29.1482C33.7388 30.9008 32.2688 33.7381 28.5683 33.7381C23.5974 33.7381 22.2798 30.7536 22.0602 30.2185Z" fill="#3E3E3E"/>
<path d="M9.08398 30.57L11.8721 28.8008C12.0906 29.4591 12.9396 30.6729 14.1713 30.6729C15.4031 30.6729 16.0336 29.4077 16.0336 28.8008V16.869H19.4626V28.8008C19.5181 30.4466 18.6054 33.7381 14.5771 33.7381C10.8734 33.7381 9.33367 31.5369 9.08398 30.57Z" fill="#3E3E3E"/>
</svg>
