<svg width="16" height="16" viewBox="0 0 16 16" fill="none" xmlns="http://www.w3.org/2000/svg">
<path d="M13.5072 8.06803C13.8356 7.87851 14.0378 7.51227 13.9872 7.10802C13.9241 6.6028 13.4567 6.24907 12.9515 6.24907H9.79365C9.81886 6.18593 9.85679 6.09747 9.88211 6.02172C10.0716 5.54171 10.4253 4.65745 10.4253 3.74796C10.4253 2.72481 9.70529 2.10581 9.21256 2.06798C8.90927 2.05527 8.6819 2.2448 8.63139 2.58581C8.54293 3.23002 8.11345 4.17744 7.93663 4.54377C7.8861 4.65744 7.82296 4.75851 7.7345 4.84696C7.44401 5.17536 6.71135 5.98379 6.0166 6.4638C6.0166 6.48901 6.02921 6.52694 6.02921 6.55226V12.6028C6.02921 12.6533 6.0166 12.7038 6.0166 12.7544C7.20398 13.0954 8.27767 13.2596 9.45235 13.2596H12.1429C12.6102 13.2596 13.0524 12.9438 13.1408 12.4891C13.2165 12.1101 13.0777 11.7691 12.825 11.5416C13.2545 11.4406 13.5829 11.049 13.5829 10.5942C13.5829 10.3037 13.4566 10.0385 13.2419 9.86154C13.6714 9.76047 13.9998 9.36892 13.9998 8.91411C13.9999 8.56048 13.8103 8.24468 13.5072 8.06786L13.5072 8.06803Z" fill="#E84025"/>
<path d="M4.64001 6.02213H2.53055C2.24006 6.02213 2 6.26209 2 6.55269V12.6032C2 12.8937 2.23995 13.1337 2.53055 13.1337H4.64012C4.93062 13.1337 5.17067 12.8938 5.17067 12.6032L5.17057 6.56522C5.17057 6.26203 4.94322 6.02197 4.64002 6.02197L4.64001 6.02213ZM3.59163 12.2116C3.28844 12.2116 3.03587 11.9589 3.03587 11.6558C3.03587 11.3527 3.28854 11.1001 3.59163 11.1001C3.89482 11.1001 4.14739 11.3527 4.14739 11.6558C4.14739 11.959 3.89472 12.2116 3.59163 12.2116Z" fill="#E84025"/>
</svg>
