<svg width="44" height="45" viewBox="0 0 44 45" fill="none" xmlns="http://www.w3.org/2000/svg">
<circle cx="21.9428" cy="22.5969" r="20.8976" stroke="#242424" stroke-width="1.5"/>
<path d="M16.7531 19.0938H12.9063C12.8244 19.0937 12.7458 19.1263 12.6879 19.1842C12.63 19.2421 12.5974 19.3207 12.5974 19.4026V31.7633C12.5974 31.8452 12.63 31.9237 12.6879 31.9817C12.7458 32.0396 12.8244 32.0721 12.9063 32.0721H16.7531C16.835 32.0721 16.9136 32.0396 16.9715 31.9817C17.0294 31.9237 17.062 31.8452 17.062 31.7633V19.4026C17.062 19.3207 17.0294 19.2421 16.9715 19.1842C16.9136 19.1263 16.835 19.0938 16.7531 19.0938Z" fill="#242424"/>
<path d="M14.8315 12.9492C14.3299 12.9492 13.8395 13.098 13.4224 13.3767C13.0053 13.6554 12.6802 14.0515 12.4882 14.515C12.2963 14.9784 12.246 15.4884 12.3439 15.9804C12.4418 16.4724 12.6833 16.9244 13.0381 17.2791C13.3928 17.6338 13.8447 17.8754 14.3367 17.9732C14.8287 18.0711 15.3387 18.0209 15.8022 17.8289C16.2656 17.6369 16.6618 17.3118 16.9405 16.8947C17.2192 16.4776 17.3679 15.9872 17.3679 15.4856C17.3669 14.8132 17.0994 14.1687 16.6239 13.6932C16.1485 13.2178 15.5039 12.9502 14.8315 12.9492Z" fill="#242424"/>
<path d="M26.5404 18.7861C25.9091 18.7733 25.2821 18.8929 24.6999 19.1373C24.1177 19.3817 23.5932 19.7454 23.1602 20.2049V19.4028C23.1602 19.3209 23.1276 19.2424 23.0697 19.1844C23.0118 19.1265 22.9332 19.094 22.8513 19.094H19.165C19.0831 19.094 19.0046 19.1265 18.9467 19.1844C18.8887 19.2424 18.8562 19.3209 18.8562 19.4028V31.7635C18.8562 31.8454 18.8887 31.924 18.9467 31.9819C19.0046 32.0398 19.0831 32.0724 19.165 32.0724H23.0043C23.0862 32.0724 23.1648 32.0398 23.2227 31.9819C23.2806 31.924 23.3131 31.8454 23.3131 31.7635V25.6483C23.3131 23.587 23.8729 22.785 25.3088 22.785C26.873 22.785 26.9975 24.0717 26.9975 25.7547V31.7645C26.9975 31.805 27.0055 31.8452 27.021 31.8827C27.0365 31.9201 27.0593 31.9542 27.088 31.9829C27.1166 32.0115 27.1507 32.0343 27.1882 32.0498C27.2256 32.0653 27.2658 32.0733 27.3064 32.0733H31.1466C31.1871 32.0733 31.2273 32.0653 31.2647 32.0498C31.3022 32.0343 31.3363 32.0115 31.3649 31.9829C31.3936 31.9542 31.4164 31.9201 31.4319 31.8827C31.4474 31.8452 31.4554 31.805 31.4554 31.7645V24.9849C31.4583 21.9183 30.8738 18.7861 26.5404 18.7861Z" fill="#242424"/>
</svg>
