<svg xmlns="http://www.w3.org/2000/svg" width="180.184" height="62.925" viewBox="0 0 180.184 62.925">
  <g id="Group_1188" data-name="Group 1188" transform="translate(-157.336 -185.098)">
    <path id="Path_218" data-name="Path 218" d="M228.029,325.953a4.255,4.255,0,1,1-8.487,0c0-3.539,3.048-4.686,4.244-8.323,1.2,3.637,4.243,4.785,4.243,8.323" transform="translate(-38.724 -82.503)" fill="#378441" fill-rule="evenodd"/>
    <path id="Path_219" data-name="Path 219" d="M235.027,325.953a4.418,4.418,0,0,1-4.243,4.573v-12.9c1.2,3.636,4.243,4.785,4.243,8.323" transform="translate(-45.723 -82.503)" fill="#1f7545" fill-rule="evenodd"/>
    <path id="Path_220" data-name="Path 220" d="M223.65,234.535a72.782,72.782,0,0,1,0-49.437,72.782,72.782,0,0,1,0,49.437" transform="translate(-38.588 0)" fill="#006c11" fill-rule="evenodd"/>
    <path id="Path_221" data-name="Path 221" d="M221.968,201.4l-5.346-6.319a29.045,29.045,0,0,1,5.346-9.981h0l.948,9.385Z" transform="translate(-36.906 0)" fill="#b2d62f" fill-rule="evenodd"/>
    <path id="Path_222" data-name="Path 222" d="M221.229,209.88l-4.607-5.446a35.6,35.6,0,0,1,1.714-4.308,6.8,6.8,0,0,0-.094,3.859c.448,1.35,3.726,5.015,3.726,5.015a4.838,4.838,0,0,1-.739.88" transform="translate(-36.906 -9.355)" fill="#7cb237" fill-rule="evenodd"/>
    <path id="Path_223" data-name="Path 223" d="M230.784,201.4l5.346-6.319a29.045,29.045,0,0,0-5.346-9.981h0v16.3Z" transform="translate(-45.723 0)" fill="#93c234" fill-rule="evenodd"/>
    <path id="Path_224" data-name="Path 224" d="M231.523,209.88l4.607-5.446a35.6,35.6,0,0,0-1.714-4.308,6.8,6.8,0,0,1,.094,3.859c-.448,1.35-3.726,5.015-3.726,5.015a4.821,4.821,0,0,0,.739.88" transform="translate(-45.723 -9.355)" fill="#55993d" fill-rule="evenodd"/>
    <path id="Path_225" data-name="Path 225" d="M228.226,230.745l7.535-9.327a54.459,54.459,0,0,0-1.636-11.621l-5.9,5.224-1.551,6.586Z" transform="translate(-43.165 -15.375)" fill="#65a33a" fill-rule="evenodd"/>
    <path id="Path_226" data-name="Path 226" d="M231.56,238.643l6.759-8.366a57.313,57.313,0,0,0-.561-6.249,11.327,11.327,0,0,1-1.024,5.308c-.773,1.327-5.951,7.283-5.951,7.283a6.464,6.464,0,0,0,.776,2.024" transform="translate(-45.723 -24.235)" fill="#277a44" fill-rule="evenodd"/>
    <path id="Path_227" data-name="Path 227" d="M228.084,260.43l6.647-8.017a65.327,65.327,0,0,0,1.743-14.711l-8.39,7.429-1.637,6.931Z" transform="translate(-43.023 -32.747)" fill="#378441" fill-rule="evenodd"/>
    <path id="Path_228" data-name="Path 228" d="M232,267.9l5.435-6.556a62.659,62.659,0,0,0,1.49-9.294c-.347,1.953-1.461,6.007-2.851,8s-5.286,6.755-5.286,6.755A15.883,15.883,0,0,0,232,267.9" transform="translate(-45.723 -41.68)" fill="#106b47" fill-rule="evenodd"/>
    <path id="Path_229" data-name="Path 229" d="M237.628,272.412l-7.98,7.066-.689,4.019.689,5.391c3.808-3.807,6.683-9.627,7.98-16.477" transform="translate(-44.586 -54.354)" fill="#1f7545" fill-rule="evenodd"/>
    <path id="Path_230" data-name="Path 230" d="M218.357,230.745l-7.535-9.327a54.432,54.432,0,0,1,1.636-11.621l5.9,5.224v15.725Z" transform="translate(-33.296 -15.375)" fill="#93c234" fill-rule="evenodd"/>
    <path id="Path_231" data-name="Path 231" d="M217.58,238.643l-6.758-8.366a57.305,57.305,0,0,1,.561-6.249,11.323,11.323,0,0,0,1.024,5.308c.772,1.327,5.951,7.283,5.951,7.283a6.463,6.463,0,0,1-.777,2.024" transform="translate(-33.296 -24.235)" fill="#55993d" fill-rule="evenodd"/>
    <path id="Path_232" data-name="Path 232" d="M216.949,260.431l-6.647-8.017a65.324,65.324,0,0,1-1.743-14.71l8.39,7.429v15.3Z" transform="translate(-31.887 -32.748)" fill="#65a33a" fill-rule="evenodd"/>
    <path id="Path_233" data-name="Path 233" d="M216.154,267.9l-5.435-6.556a62.6,62.6,0,0,1-1.49-9.294c.347,1.953,1.461,6.007,2.851,8s5.286,6.755,5.286,6.755a15.959,15.959,0,0,1-1.211,1.1" transform="translate(-32.304 -41.68)" fill="#277a44" fill-rule="evenodd"/>
    <path id="Path_234" data-name="Path 234" d="M209.643,272.412l7.98,7.066v9.41c-3.808-3.807-6.683-9.627-7.98-16.477" transform="translate(-32.562 -54.354)" fill="#378441" fill-rule="evenodd"/>
    <path id="Path_235" data-name="Path 235" d="M241.47,291.318a47.572,47.572,0,0,1,23.692-21.972,47.568,47.568,0,0,1-23.692,21.972" transform="translate(-52.375 -52.446)" fill="#006c11" fill-rule="evenodd"/>
    <path id="Path_236" data-name="Path 236" d="M283.538,276.591l.652-5.371a18.984,18.984,0,0,1,7.159-1.874h0l-4.084,5.736Z" transform="translate(-78.563 -52.446)" fill="#b2d62f" fill-rule="evenodd"/>
    <path id="Path_237" data-name="Path 237" d="M283.777,277.136l.562-4.628a23.3,23.3,0,0,1,2.827-1.093,4.442,4.442,0,0,0-1.891,1.67,18.635,18.635,0,0,0-.747,4.015,3.135,3.135,0,0,1-.75.037" transform="translate(-78.711 -53.734)" fill="#7cb237" fill-rule="evenodd"/>
    <path id="Path_238" data-name="Path 238" d="M283.538,276.592l5.4-.247a18.987,18.987,0,0,0,2.407-7h0L287,273.384Z" transform="translate(-78.563 -52.446)" fill="#93c234" fill-rule="evenodd"/>
    <path id="Path_239" data-name="Path 239" d="M285.517,283.585l4.657-.213a23.264,23.264,0,0,0,1.3-2.736,4.44,4.44,0,0,1-1.807,1.761,18.638,18.638,0,0,1-4.059.443,3.147,3.147,0,0,0-.093.745" transform="translate(-79.795 -59.474)" fill="#55993d" fill-rule="evenodd"/>
    <path id="Path_240" data-name="Path 240" d="M265.8,293.463l7.819-.534a35.584,35.584,0,0,0,4.842-5.949l-5.125-.505-4,2.027Z" transform="translate(-67.521 -63.108)" fill="#65a33a" fill-rule="evenodd"/>
    <path id="Path_241" data-name="Path 241" d="M267.935,299.029l7.013-.479a37.593,37.593,0,0,0,2.746-3.046,7.4,7.4,0,0,1-3,1.868c-.979.22-6.135.385-6.135.385a4.228,4.228,0,0,0-.625,1.271" transform="translate(-68.85 -68.729)" fill="#277a44" fill-rule="evenodd"/>
    <path id="Path_242" data-name="Path 242" d="M250.169,308.273l6.8-.378a42.691,42.691,0,0,0,7.824-5.7l-7.289-.719-4.09,1.941Z" transform="translate(-57.79 -72.446)" fill="#378441" fill-rule="evenodd"/>
    <path id="Path_243" data-name="Path 243" d="M253.416,313.159l5.557-.309a40.942,40.942,0,0,0,5.116-3.417,16.285,16.285,0,0,1-5.1,2.188c-1.572.218-5.587.469-5.587.469a10.265,10.265,0,0,0,.012,1.068" transform="translate(-59.798 -77.401)" fill="#106b47" fill-rule="evenodd"/>
    <path id="Path_244" data-name="Path 244" d="M252.913,317.157l-6.934-.684-2.145,1.283-2.365,2.9a20.716,20.716,0,0,0,11.443-3.5" transform="translate(-52.375 -81.783)" fill="#1f7545" fill-rule="evenodd"/>
    <path id="Path_245" data-name="Path 245" d="M265.8,284.972l1.121-7.757a35.6,35.6,0,0,1,6.3-4.381l.119,5.149-3.487,3.234Z" transform="translate(-67.521 -54.617)" fill="#93c234" fill-rule="evenodd"/>
    <path id="Path_246" data-name="Path 246" d="M266.107,287.26l1.005-6.957a37.458,37.458,0,0,1,3.244-2.509,7.4,7.4,0,0,0-2.089,2.85c-.293.96-.846,6.089-.846,6.089a4.216,4.216,0,0,1-1.315.527" transform="translate(-67.712 -57.705)" fill="#55993d" fill-rule="evenodd"/>
    <path id="Path_247" data-name="Path 247" d="M250.169,296.2l.887-6.748a42.7,42.7,0,0,1,6.275-7.373l.168,7.322-3.487,3.234Z" transform="translate(-57.79 -60.37)" fill="#65a33a" fill-rule="evenodd"/>
    <path id="Path_248" data-name="Path 248" d="M250.6,299.137l.726-5.519a41,41,0,0,1,3.792-4.845,16.3,16.3,0,0,0-2.565,4.92c-.336,1.551-.888,5.536-.888,5.536a10.382,10.382,0,0,1-1.065-.092" transform="translate(-58.056 -64.539)" fill="#277a44" fill-rule="evenodd"/>
    <path id="Path_249" data-name="Path 249" d="M245.819,298.021l.16,6.965-4.51,4.182a20.717,20.717,0,0,1,4.349-11.147" transform="translate(-52.375 -70.296)" fill="#378441" fill-rule="evenodd"/>
    <path id="Path_250" data-name="Path 250" d="M181.028,291.318a47.572,47.572,0,0,0-23.692-21.972,47.564,47.564,0,0,0,23.692,21.972" transform="translate(0 -52.446)" fill="#006c11" fill-rule="evenodd"/>
    <path id="Path_251" data-name="Path 251" d="M165.148,276.591l-.652-5.371a18.984,18.984,0,0,0-7.159-1.874h0l3.233,4.554Z" transform="translate(0 -52.446)" fill="#b2d62f" fill-rule="evenodd"/>
    <path id="Path_252" data-name="Path 252" d="M172.2,277.136l-.562-4.628a23.252,23.252,0,0,0-2.827-1.093,4.441,4.441,0,0,1,1.892,1.67,18.637,18.637,0,0,1,.747,4.015,3.136,3.136,0,0,0,.75.037" transform="translate(-7.145 -53.734)" fill="#7cb237" fill-rule="evenodd"/>
    <path id="Path_253" data-name="Path 253" d="M165.148,276.592l-5.4-.247a18.981,18.981,0,0,1-2.407-7h0l4.353,4.037Z" transform="translate(0 -52.446)" fill="#93c234" fill-rule="evenodd"/>
    <path id="Path_254" data-name="Path 254" d="M166.222,283.585l-4.657-.213a23.259,23.259,0,0,1-1.3-2.736,4.441,4.441,0,0,0,1.807,1.761,18.641,18.641,0,0,0,4.06.443,3.144,3.144,0,0,1,.093.745" transform="translate(-1.821 -59.474)" fill="#55993d" fill-rule="evenodd"/>
    <path id="Path_255" data-name="Path 255" d="M174.887,293.463l-7.819-.534a35.6,35.6,0,0,1-4.842-5.949l5.125-.505,4.262,2.286Z" transform="translate(-3.044 -63.108)" fill="#65a33a" fill-rule="evenodd"/>
    <path id="Path_256" data-name="Path 256" d="M177.539,299.029l-7.013-.479a37.594,37.594,0,0,1-2.746-3.046,7.4,7.4,0,0,0,3,1.868c.979.22,6.135.385,6.135.385a4.213,4.213,0,0,1,.625,1.271" transform="translate(-6.502 -68.729)" fill="#277a44" fill-rule="evenodd"/>
    <path id="Path_257" data-name="Path 257" d="M187.288,308.273l-6.8-.378a42.693,42.693,0,0,1-7.824-5.7l7.289-.719,3.918,1.768Z" transform="translate(-9.544 -72.446)" fill="#378441" fill-rule="evenodd"/>
    <path id="Path_258" data-name="Path 258" d="M190.516,313.159l-5.557-.309a40.943,40.943,0,0,1-5.116-3.417,16.286,16.286,0,0,0,5.1,2.188c1.571.218,5.587.469,5.587.469a10.388,10.388,0,0,1-.012,1.068" transform="translate(-14.01 -77.401)" fill="#106b47" fill-rule="evenodd"/>
    <path id="Path_259" data-name="Path 259" d="M189.783,317.157l6.934-.684,2.769,1.04,1.741,3.142a20.716,20.716,0,0,1-11.443-3.5" transform="translate(-20.199 -81.783)" fill="#1f7545" fill-rule="evenodd"/>
    <path id="Path_260" data-name="Path 260" d="M183.34,284.972l-1.121-7.757a35.6,35.6,0,0,0-6.3-4.381l-.119,5.149,3.487,3.234Z" transform="translate(-11.497 -54.617)" fill="#93c234" fill-rule="evenodd"/>
    <path id="Path_261" data-name="Path 261" d="M188.453,287.26l-1.005-6.957a37.468,37.468,0,0,0-3.244-2.509,7.4,7.4,0,0,1,2.089,2.85c.293.96.846,6.089.846,6.089a4.221,4.221,0,0,0,1.315.527" transform="translate(-16.726 -57.705)" fill="#55993d" fill-rule="evenodd"/>
    <path id="Path_262" data-name="Path 262" d="M199.309,296.2l-.887-6.748a42.7,42.7,0,0,0-6.275-7.373l-.169,7.322,3.487,3.234Z" transform="translate(-21.565 -60.37)" fill="#65a33a" fill-rule="evenodd"/>
    <path id="Path_263" data-name="Path 263" d="M203.52,299.137l-.726-5.519A40.965,40.965,0,0,0,199,288.773a16.294,16.294,0,0,1,2.566,4.92c.336,1.551.888,5.536.888,5.536a10.383,10.383,0,0,0,1.064-.092" transform="translate(-25.938 -64.539)" fill="#277a44" fill-rule="evenodd"/>
    <path id="Path_264" data-name="Path 264" d="M208.311,298.021l-.16,6.965,4.51,4.182a20.72,20.72,0,0,0-4.349-11.147" transform="translate(-31.633 -70.296)" fill="#378441" fill-rule="evenodd"/>
    <path id="Path_265" data-name="Path 265" d="M466.495,257.413c-.169-5.882,3.555-10.621,9.86-10.621,6.812.127,9.648,5.627,9.563,10.579-.085,4.866-2.708,10.112-9.69,10.112s-9.605-5.2-9.733-10.07m9.86-15.7c-8.59,0-15.36,6.262-15.36,15.614,0,7.786,4.824,15.275,15.233,15.275s15.106-7.658,15.191-15.317C491.5,249.585,486.467,241.8,476.354,241.715Z" transform="translate(-189.032 -35.245)" fill="#fff"/>
    <path id="Path_266" data-name="Path 266" d="M396.332,248.472h8.378c7.109,0,7.152,10.494,0,10.494h-8.378Zm8.378,15.613c14.6-.127,14.557-20.945,0-20.945-4.612-.043-9.351,0-13.963,0V272.8h5.585v-8.717Z" transform="translate(-145.302 -36.121)" fill="#fff"/>
    <path id="Path_267" data-name="Path 267" d="M339.1,272.973V243.4h-5.543v12.483H319V243.4h-5.585v29.577H319V261.04h14.557v11.933Z" transform="translate(-97.16 -36.291)" fill="#fff"/>
    <path id="Path_268" data-name="Path 268" d="M385.376,335.236a1.682,1.682,0,1,0,1.682-1.762,1.6,1.6,0,0,0-1.682,1.762m-29.31-1.694v3.365h1.019a1.6,1.6,0,0,0,1.652-1.734,1.582,1.582,0,0,0-1.652-1.631Zm-6.312,1.694a1.682,1.682,0,1,0,1.682-1.762A1.6,1.6,0,0,0,349.754,335.236Zm-5.114-1.694v1.774h1.406a.889.889,0,1,0,.025-1.774Zm-5.212,0v1.928h1.425a.964.964,0,0,0,0-1.928Zm-8.259,0v1.928h1.425a.964.964,0,0,0,0-1.928Zm79.122,0v1.412h2.482v.536h-2.482V336.9h2.654v.542h-3.221V333h3.166v.542Zm-3.208,2.821-.022-1.228V333h.567v4.444h-.359l-2.68-3.336.01,1.077v2.259h-.567V333h.371Zm-5.146,1.08h-.567V333h.567Zm-4.56-.542h2.39v.542h-2.957V333h.567Zm-3.208-.538-.021-1.228V333h.567v4.444h-.359l-2.68-3.336.01,1.077v2.259h-.566V333h.371Zm-7.112-3.431a2.3,2.3,0,1,1-2.25,2.3A2.166,2.166,0,0,1,387.058,332.932Zm-7.063.847-.483.271-.034-.055a1.373,1.373,0,0,0-1.178-.515c-.468,0-1.141.122-1.141.718,0,.526.78.621,1.166.689.786.137,1.768.323,1.764,1.321s-.949,1.3-1.789,1.3a1.95,1.95,0,0,1-1.855-.991l-.028-.058.493-.267.033.061a1.475,1.475,0,0,0,1.358.706c.5,0,1.213-.125,1.216-.761,0-.594-.817-.7-1.258-.78-.728-.127-1.66-.3-1.666-1.222s.916-1.261,1.7-1.261a1.853,1.853,0,0,1,1.661.781Zm-6.894-.238h-1.517V333h3.6v.542h-1.518v3.9H373.1Zm-3.092,2.876.373.374-.048.048a2.254,2.254,0,0,1-1.615.671,2.149,2.149,0,0,1-2.305-2.262,2.184,2.184,0,0,1,2.305-2.3,2.042,2.042,0,0,1,1.576.669l.041.048-.356.357-.049-.048a1.712,1.712,0,0,0-1.211-.5,1.668,1.668,0,0,0-1.738,1.769,1.613,1.613,0,0,0,1.738,1.731,1.786,1.786,0,0,0,1.242-.508ZM364.072,333h.566v2.7a1.657,1.657,0,0,1-1.764,1.791,1.676,1.676,0,0,1-1.789-1.791V333h.567v2.7a1.177,1.177,0,0,0,1.222,1.255,1.158,1.158,0,0,0,1.2-1.255Zm-8.573,0h1.586a2.222,2.222,0,1,1,0,4.444H355.5Zm-4.062-.067a2.3,2.3,0,1,1-2.25,2.3A2.167,2.167,0,0,1,351.437,332.932Zm-5.093,2.884,1.479,1.627h-.744l-1.425-1.584H344.64v1.584h-.567V333h2a1.386,1.386,0,0,1,1.494,1.435A1.3,1.3,0,0,1,346.344,335.816Zm-6.916.2v1.431h-.567V333h1.992a1.506,1.506,0,1,1,0,3.013Zm-8.259,0v1.431H330.6V333h1.991a1.506,1.506,0,1,1,0,3.013Zm-3.229-2.087-1.5,2.208h-.2l-1.5-2.237v3.548h-.567V333h.633l1.536,2.319L327.862,333h.645v4.444h-.567Zm-8.263-.383v1.412h2.482v.536h-2.482V336.9h2.654v.542H319.11V333h3.166v.542Zm-3.229,2H313.98v1.9h-.567V333h.567v2h2.469v-2h.567v4.444h-.567Z" transform="translate(-97.16 -92.029)" fill="#fff"/>
    <path id="Path_269" data-name="Path 269" d="M554.831,248.472h8.378c7.109,0,7.151,10.494,0,10.494h-8.378Zm25.79,15.865-12.288,17.309-6-.105,12.289-17.2Zm-17.411-.251c14.6-.127,14.556-20.945,0-20.945-4.612-.043-9.351,0-13.964,0V272.8h5.585v-8.717Z" transform="translate(-243.97 -36.121)" fill="#e84025"/>
    <path id="Path_270" data-name="Path 270" d="M577.738,288.538l12.288,17.309,5.995-.105-12.288-17.2Z" transform="translate(-261.707 -64.393)" fill="#e84025"/>
    <path id="Path_271" data-name="Path 271" d="M586.23,300.426l12.288,17.309,6-.105-12.288-17.2Z" transform="translate(-266.993 -71.793)" fill="#e84025"/>
  </g>
</svg>
