<svg xmlns="http://www.w3.org/2000/svg" width="175.486" height="61.284" viewBox="0 0 175.486 61.284">
  <g id="Group_716" data-name="Group 716" transform="translate(-157.336 -185.098)">
    <path id="Path_218" data-name="Path 218" d="M227.808,325.736a4.144,4.144,0,1,1-8.266,0c0-3.446,2.969-4.564,4.133-8.106,1.164,3.542,4.133,4.66,4.133,8.106" transform="translate(-39.336 -83.808)" fill="#378441" fill-rule="evenodd"/>
    <path id="Path_219" data-name="Path 219" d="M234.917,325.736a4.3,4.3,0,0,1-4.133,4.454V317.63c1.164,3.541,4.133,4.66,4.133,8.106" transform="translate(-46.445 -83.808)" fill="#1f7545" fill-rule="evenodd"/>
    <path id="Path_220" data-name="Path 220" d="M223.537,233.245a70.884,70.884,0,0,1,0-48.147,70.884,70.884,0,0,1,0,48.147" transform="translate(-39.199 0)" fill="#006c11" fill-rule="evenodd"/>
    <path id="Path_221" data-name="Path 221" d="M221.829,200.973l-5.207-6.155a28.288,28.288,0,0,1,5.206-9.72h0l.923,9.14Z" transform="translate(-37.49 0)" fill="#b2d62f" fill-rule="evenodd"/>
    <path id="Path_222" data-name="Path 222" d="M221.109,209.625l-4.487-5.3a34.67,34.67,0,0,1,1.669-4.2,6.618,6.618,0,0,0-.092,3.758c.436,1.315,3.629,4.884,3.629,4.884a4.711,4.711,0,0,1-.72.857" transform="translate(-37.49 -9.503)" fill="#7cb237" fill-rule="evenodd"/>
    <path id="Path_223" data-name="Path 223" d="M230.784,200.973l5.207-6.155a28.287,28.287,0,0,0-5.207-9.72h0v15.876Z" transform="translate(-46.445 0)" fill="#93c234" fill-rule="evenodd"/>
    <path id="Path_224" data-name="Path 224" d="M231.5,209.625l4.487-5.3a34.672,34.672,0,0,0-1.669-4.2,6.618,6.618,0,0,1,.092,3.758c-.436,1.315-3.629,4.884-3.629,4.884a4.7,4.7,0,0,0,.72.857" transform="translate(-46.445 -9.503)" fill="#55993d" fill-rule="evenodd"/>
    <path id="Path_225" data-name="Path 225" d="M228.186,230.2l7.339-9.084a53.039,53.039,0,0,0-1.593-11.318l-5.745,5.087-1.511,6.415Z" transform="translate(-43.847 -15.619)" fill="#65a33a" fill-rule="evenodd"/>
    <path id="Path_226" data-name="Path 226" d="M231.54,238.262l6.583-8.148a55.814,55.814,0,0,0-.546-6.086,11.032,11.032,0,0,1-1,5.17c-.753,1.292-5.8,7.093-5.8,7.093a6.3,6.3,0,0,0,.756,1.971" transform="translate(-46.445 -24.618)" fill="#277a44" fill-rule="evenodd"/>
    <path id="Path_227" data-name="Path 227" d="M228.041,259.838l6.473-7.808a63.623,63.623,0,0,0,1.7-14.327l-8.171,7.236-1.594,6.75Z" transform="translate(-43.703 -33.265)" fill="#378441" fill-rule="evenodd"/>
    <path id="Path_228" data-name="Path 228" d="M231.964,267.489l5.294-6.385a61.022,61.022,0,0,0,1.451-9.052c-.338,1.9-1.423,5.85-2.776,7.788s-5.148,6.579-5.148,6.579a15.473,15.473,0,0,0,1.18,1.069" transform="translate(-46.445 -42.339)" fill="#106b47" fill-rule="evenodd"/>
    <path id="Path_229" data-name="Path 229" d="M237.4,272.412l-7.772,6.882-.671,3.914.671,5.251c3.709-3.708,6.508-9.376,7.772-16.047" transform="translate(-45.291 -55.214)" fill="#1f7545" fill-rule="evenodd"/>
    <path id="Path_230" data-name="Path 230" d="M218.161,230.2l-7.339-9.084a53.012,53.012,0,0,1,1.593-11.318l5.745,5.087V230.2Z" transform="translate(-33.822 -15.619)" fill="#93c234" fill-rule="evenodd"/>
    <path id="Path_231" data-name="Path 231" d="M217.4,238.262l-6.582-8.148a55.814,55.814,0,0,1,.546-6.086,11.028,11.028,0,0,0,1,5.17c.752,1.292,5.8,7.093,5.8,7.093a6.3,6.3,0,0,1-.757,1.971" transform="translate(-33.822 -24.618)" fill="#55993d" fill-rule="evenodd"/>
    <path id="Path_232" data-name="Path 232" d="M216.73,259.838l-6.473-7.808a63.62,63.62,0,0,1-1.7-14.327l8.171,7.235v14.9Z" transform="translate(-32.391 -33.266)" fill="#65a33a" fill-rule="evenodd"/>
    <path id="Path_233" data-name="Path 233" d="M215.973,267.489l-5.294-6.385a60.97,60.97,0,0,1-1.451-9.052c.338,1.9,1.423,5.85,2.776,7.788s5.148,6.579,5.148,6.579a15.542,15.542,0,0,1-1.18,1.069" transform="translate(-32.814 -42.339)" fill="#277a44" fill-rule="evenodd"/>
    <path id="Path_234" data-name="Path 234" d="M209.643,272.412l7.772,6.882v9.165c-3.709-3.708-6.508-9.376-7.772-16.047" transform="translate(-33.077 -55.214)" fill="#378441" fill-rule="evenodd"/>
    <path id="Path_235" data-name="Path 235" d="M241.47,290.745a46.332,46.332,0,0,1,23.074-21.4,46.328,46.328,0,0,1-23.074,21.4" transform="translate(-53.203 -53.275)" fill="#006c11" fill-rule="evenodd"/>
    <path id="Path_236" data-name="Path 236" d="M283.538,276.4l.635-5.231a18.49,18.49,0,0,1,6.973-1.825h0l-3.978,5.586Z" transform="translate(-79.805 -53.275)" fill="#b2d62f" fill-rule="evenodd"/>
    <path id="Path_237" data-name="Path 237" d="M283.777,276.987l.547-4.507a22.692,22.692,0,0,1,2.753-1.065,4.326,4.326,0,0,0-1.842,1.626,18.151,18.151,0,0,0-.728,3.91,3.053,3.053,0,0,1-.73.036" transform="translate(-79.956 -54.583)" fill="#7cb237" fill-rule="evenodd"/>
    <path id="Path_238" data-name="Path 238" d="M283.538,276.4l5.264-.24a18.493,18.493,0,0,0,2.344-6.815h0l-4.24,3.932Z" transform="translate(-79.805 -53.276)" fill="#93c234" fill-rule="evenodd"/>
    <path id="Path_239" data-name="Path 239" d="M285.517,283.508l4.536-.207a22.656,22.656,0,0,0,1.269-2.665,4.324,4.324,0,0,1-1.76,1.715,18.151,18.151,0,0,1-3.954.432,3.064,3.064,0,0,0-.091.726" transform="translate(-81.056 -60.414)" fill="#55993d" fill-rule="evenodd"/>
    <path id="Path_240" data-name="Path 240" d="M265.8,293.28l7.615-.52a34.655,34.655,0,0,0,4.716-5.794l-4.991-.492-3.9,1.975Z" transform="translate(-68.589 -64.106)" fill="#65a33a" fill-rule="evenodd"/>
    <path id="Path_241" data-name="Path 241" d="M267.935,298.937l6.83-.467a36.608,36.608,0,0,0,2.674-2.967,7.208,7.208,0,0,1-2.921,1.819c-.954.214-5.975.375-5.975.375a4.119,4.119,0,0,0-.608,1.238" transform="translate(-69.938 -69.816)" fill="#277a44" fill-rule="evenodd"/>
    <path id="Path_242" data-name="Path 242" d="M250.169,308.1l6.619-.368a41.577,41.577,0,0,0,7.62-5.554l-7.1-.7-3.983,1.89Z" transform="translate(-58.704 -73.591)" fill="#378441" fill-rule="evenodd"/>
    <path id="Path_243" data-name="Path 243" d="M253.415,313.062l5.412-.3a39.882,39.882,0,0,0,4.983-3.328,15.861,15.861,0,0,1-4.966,2.131c-1.531.212-5.441.457-5.441.457a10,10,0,0,0,.012,1.04" transform="translate(-60.744 -78.625)" fill="#106b47" fill-rule="evenodd"/>
    <path id="Path_244" data-name="Path 244" d="M252.615,317.139l-6.753-.666-2.089,1.249-2.3,2.824a20.175,20.175,0,0,0,11.145-3.407" transform="translate(-53.203 -83.076)" fill="#1f7545" fill-rule="evenodd"/>
    <path id="Path_245" data-name="Path 245" d="M265.8,284.655l1.092-7.554a34.678,34.678,0,0,1,6.132-4.267l.115,5.015-3.4,3.15Z" transform="translate(-68.589 -55.481)" fill="#93c234" fill-rule="evenodd"/>
    <path id="Path_246" data-name="Path 246" d="M266.107,287.013l.979-6.776a36.488,36.488,0,0,1,3.159-2.443,7.206,7.206,0,0,0-2.035,2.776c-.285.935-.824,5.93-.824,5.93a4.106,4.106,0,0,1-1.28.513" transform="translate(-68.782 -58.617)" fill="#55993d" fill-rule="evenodd"/>
    <path id="Path_247" data-name="Path 247" d="M250.169,295.829l.864-6.572a41.586,41.586,0,0,1,6.112-7.181l.164,7.132-3.4,3.149Z" transform="translate(-58.704 -61.325)" fill="#65a33a" fill-rule="evenodd"/>
    <path id="Path_248" data-name="Path 248" d="M250.6,298.867l.707-5.375A39.935,39.935,0,0,1,255,288.773a15.876,15.876,0,0,0-2.5,4.792c-.327,1.511-.865,5.391-.865,5.391a10.113,10.113,0,0,1-1.037-.09" transform="translate(-58.974 -65.56)" fill="#277a44" fill-rule="evenodd"/>
    <path id="Path_249" data-name="Path 249" d="M245.706,298.021l.156,6.784-4.392,4.073a20.177,20.177,0,0,1,4.236-10.857" transform="translate(-53.203 -71.408)" fill="#378441" fill-rule="evenodd"/>
    <path id="Path_250" data-name="Path 250" d="M180.41,290.745a46.332,46.332,0,0,0-23.074-21.4,46.324,46.324,0,0,0,23.074,21.4" transform="translate(0 -53.275)" fill="#006c11" fill-rule="evenodd"/>
    <path id="Path_251" data-name="Path 251" d="M164.944,276.4l-.635-5.231a18.49,18.49,0,0,0-6.973-1.825h0l3.148,4.435Z" transform="translate(0 -53.275)" fill="#b2d62f" fill-rule="evenodd"/>
    <path id="Path_252" data-name="Path 252" d="M172.114,276.987l-.548-4.507a22.643,22.643,0,0,0-2.753-1.065,4.325,4.325,0,0,1,1.842,1.626,18.151,18.151,0,0,1,.728,3.91,3.053,3.053,0,0,0,.73.036" transform="translate(-7.258 -54.583)" fill="#7cb237" fill-rule="evenodd"/>
    <path id="Path_253" data-name="Path 253" d="M164.944,276.4l-5.264-.24a18.486,18.486,0,0,1-2.344-6.815h0l4.239,3.932Z" transform="translate(0 -53.276)" fill="#93c234" fill-rule="evenodd"/>
    <path id="Path_254" data-name="Path 254" d="M166.066,283.508l-4.536-.207a22.651,22.651,0,0,1-1.269-2.665,4.325,4.325,0,0,0,1.76,1.715,18.154,18.154,0,0,0,3.954.432,3.062,3.062,0,0,1,.09.726" transform="translate(-1.85 -60.414)" fill="#55993d" fill-rule="evenodd"/>
    <path id="Path_255" data-name="Path 255" d="M174.557,293.28l-7.615-.52a34.673,34.673,0,0,1-4.716-5.794l4.992-.492,4.151,2.226Z" transform="translate(-3.092 -64.106)" fill="#65a33a" fill-rule="evenodd"/>
    <path id="Path_256" data-name="Path 256" d="M177.284,298.937l-6.83-.467a36.6,36.6,0,0,1-2.674-2.967,7.205,7.205,0,0,0,2.921,1.819c.954.214,5.975.375,5.975.375a4.1,4.1,0,0,1,.608,1.238" transform="translate(-6.604 -69.816)" fill="#277a44" fill-rule="evenodd"/>
    <path id="Path_257" data-name="Path 257" d="M186.907,308.1l-6.619-.368a41.579,41.579,0,0,1-7.62-5.554l7.1-.7,3.816,1.722Z" transform="translate(-9.695 -73.591)" fill="#378441" fill-rule="evenodd"/>
    <path id="Path_258" data-name="Path 258" d="M190.237,313.062l-5.412-.3a39.88,39.88,0,0,1-4.983-3.328,15.861,15.861,0,0,0,4.966,2.131c1.53.212,5.441.457,5.441.457a10.115,10.115,0,0,1-.012,1.04" transform="translate(-14.232 -78.625)" fill="#106b47" fill-rule="evenodd"/>
    <path id="Path_259" data-name="Path 259" d="M189.783,317.139l6.753-.666,2.7,1.013,1.7,3.06a20.175,20.175,0,0,1-11.145-3.407" transform="translate(-20.518 -83.076)" fill="#1f7545" fill-rule="evenodd"/>
    <path id="Path_260" data-name="Path 260" d="M183.143,284.655l-1.092-7.554a34.678,34.678,0,0,0-6.132-4.267l-.115,5.015,3.4,3.15Z" transform="translate(-11.678 -55.481)" fill="#93c234" fill-rule="evenodd"/>
    <path id="Path_261" data-name="Path 261" d="M188.343,287.013l-.979-6.776a36.488,36.488,0,0,0-3.16-2.443,7.2,7.2,0,0,1,2.034,2.776c.285.935.824,5.93.824,5.93a4.111,4.111,0,0,0,1.281.513" transform="translate(-16.99 -58.617)" fill="#55993d" fill-rule="evenodd"/>
    <path id="Path_262" data-name="Path 262" d="M199.117,295.829l-.864-6.572a41.584,41.584,0,0,0-6.112-7.181l-.164,7.132,3.4,3.149Z" transform="translate(-21.906 -61.325)" fill="#65a33a" fill-rule="evenodd"/>
    <path id="Path_263" data-name="Path 263" d="M203.4,298.867l-.707-5.375A39.9,39.9,0,0,0,199,288.773a15.869,15.869,0,0,1,2.5,4.792c.327,1.511.865,5.391.865,5.391a10.113,10.113,0,0,0,1.037-.09" transform="translate(-26.348 -65.56)" fill="#277a44" fill-rule="evenodd"/>
    <path id="Path_264" data-name="Path 264" d="M208.307,298.021l-.156,6.784,4.392,4.073a20.18,20.18,0,0,0-4.236-10.857" transform="translate(-32.133 -71.408)" fill="#378441" fill-rule="evenodd"/>
    <path id="Path_265" data-name="Path 265" d="M466.351,257c-.165-5.729,3.462-10.344,9.6-10.344,6.634.124,9.4,5.48,9.314,10.3-.082,4.739-2.638,9.849-9.437,9.849s-9.355-5.069-9.479-9.808m9.6-15.289c-8.366,0-14.96,6.1-14.96,15.206,0,7.583,4.7,14.877,14.836,14.877s14.712-7.459,14.795-14.918C490.707,249.38,485.8,241.8,475.954,241.715Z" transform="translate(-192.021 -35.802)" fill="#fff"/>
    <path id="Path_266" data-name="Path 266" d="M396.187,248.333h8.159c6.924,0,6.965,10.22,0,10.22h-8.159Zm8.159,15.206c14.218-.124,14.177-20.4,0-20.4-4.491-.042-9.107,0-13.6,0v28.888h5.44v-8.489Z" transform="translate(-147.599 -36.692)" fill="#fff"/>
    <path id="Path_267" data-name="Path 267" d="M338.427,272.2V243.4h-5.4v12.157H318.852V243.4h-5.439V272.2h5.439V260.58h14.177V272.2Z" transform="translate(-98.696 -36.865)" fill="#fff"/>
    <path id="Path_268" data-name="Path 268" d="M383.5,335.176a1.638,1.638,0,1,0,1.638-1.716,1.562,1.562,0,0,0-1.638,1.716m-28.546-1.65V336.8h.993a1.56,1.56,0,0,0,1.609-1.689,1.54,1.54,0,0,0-1.609-1.589Zm-6.147,1.65a1.638,1.638,0,1,0,1.639-1.716A1.562,1.562,0,0,0,348.807,335.176Zm-4.98-1.65v1.728h1.37a.865.865,0,1,0,.024-1.728Zm-5.076,0V335.4h1.388a.939.939,0,0,0,0-1.878Zm-8.044,0V335.4h1.387a.939.939,0,0,0,0-1.878Zm77.059,0V334.9h2.417v.522h-2.417V336.8h2.585v.528h-3.137V333H410.3v.528Zm-3.124,2.748-.021-1.2V333h.553v4.328h-.35l-2.61-3.249.01,1.049v2.2h-.552V333h.362Zm-5.011,1.052h-.552V333h.552Zm-4.441-.528h2.328v.528h-2.88V333h.552Zm-3.124-.524-.021-1.2V333h.552v4.328h-.35l-2.61-3.249.01,1.049v2.2h-.552V333h.362Zm-6.926-3.341a2.236,2.236,0,1,1-2.192,2.239A2.11,2.11,0,0,1,385.138,332.932Zm-6.879.825-.471.264-.033-.054a1.337,1.337,0,0,0-1.147-.5c-.456,0-1.111.119-1.111.7,0,.512.759.6,1.136.671.765.133,1.722.314,1.718,1.286s-.924,1.269-1.743,1.269a1.9,1.9,0,0,1-1.807-.965l-.028-.057.48-.26.032.06a1.437,1.437,0,0,0,1.323.688c.485,0,1.181-.122,1.185-.741,0-.578-.8-.685-1.225-.76-.709-.124-1.617-.289-1.623-1.19s.893-1.228,1.658-1.228a1.8,1.8,0,0,1,1.618.761Zm-6.715-.232h-1.478V333h3.508v.528H372.1v3.8h-.551Zm-3.011,2.8.363.364-.047.047a2.195,2.195,0,0,1-1.573.653,2.093,2.093,0,0,1-2.245-2.2,2.127,2.127,0,0,1,2.245-2.245,1.989,1.989,0,0,1,1.535.652l.04.047-.347.347-.047-.046a1.667,1.667,0,0,0-1.18-.483,1.624,1.624,0,0,0-1.693,1.723,1.571,1.571,0,0,0,1.693,1.686,1.739,1.739,0,0,0,1.21-.495ZM362.751,333h.551v2.626a1.614,1.614,0,0,1-1.718,1.744,1.632,1.632,0,0,1-1.742-1.744V333h.552v2.626a1.146,1.146,0,0,0,1.19,1.222,1.128,1.128,0,0,0,1.167-1.222Zm-8.35,0h1.544a2.048,2.048,0,0,1,2.167,2.122,2.068,2.068,0,0,1-2.167,2.205H354.4Zm-3.956-.065a2.236,2.236,0,1,1-2.191,2.239A2.11,2.11,0,0,1,350.446,332.932Zm-4.96,2.808,1.441,1.585H346.2l-1.388-1.543h-.987v1.543h-.552V333h1.946a1.35,1.35,0,0,1,1.455,1.4A1.266,1.266,0,0,1,345.486,335.74Zm-6.735.191v1.394H338.2V333h1.94a1.467,1.467,0,1,1,0,2.934Zm-8.044,0v1.394h-.552V333h1.939a1.467,1.467,0,1,1,0,2.934Zm-3.144-2.033-1.46,2.15h-.191l-1.466-2.179v3.455h-.552V333h.617l1.5,2.258L327.485,333h.629v4.328h-.552Zm-8.048-.373V334.9h2.417v.522h-2.417V336.8H322.1v.528h-3.137V333h3.083v.528Zm-3.145,1.945h-2.4v1.855h-.552V333h.552v1.945h2.4V333h.552v4.328h-.552Z" transform="translate(-98.697 -93.484)" fill="#fff"/>
    <path id="Path_269" data-name="Path 269" d="M554.686,248.333h8.16c6.924,0,6.965,10.22,0,10.22h-8.16ZM579.8,263.784l-11.968,16.858-5.839-.1,11.968-16.755Zm-16.957-.245c14.218-.124,14.177-20.4,0-20.4-4.492-.042-9.108,0-13.6,0v28.888h5.44v-8.489Z" transform="translate(-247.828 -36.692)" fill="#e84025"/>
    <path id="Path_270" data-name="Path 270" d="M577.738,288.538,589.706,305.4l5.839-.1-11.968-16.755Z" transform="translate(-265.845 -65.411)" fill="#e84025"/>
    <path id="Path_271" data-name="Path 271" d="M586.23,300.426,598.2,317.283l5.839-.1-11.968-16.755Z" transform="translate(-271.214 -72.928)" fill="#e84025"/>
  </g>
</svg>
