<svg width="40" height="30" viewBox="0 0 40 30" fill="none" xmlns="http://www.w3.org/2000/svg">
<path d="M25.9932 1.05134C25.8938 0.746591 25.6765 0.493703 25.3898 0.348253C25.1026 0.202641 24.7696 0.176708 24.4631 0.275769L19.3833 1.91809C18.7456 2.12426 18.3963 2.80577 18.6037 3.44024L18.8576 4.21791L5.93615 13.6609L0.839025 15.3085C0.532709 15.4076 0.278525 15.6236 0.132329 15.909C-0.0138676 16.1945 -0.0400956 16.5261 0.0594734 16.8309L3.15647 26.312C3.32323 26.8225 3.79922 27.1471 4.31099 27.1471C4.43549 27.1471 4.56193 27.1279 4.6866 27.0876L9.78291 25.44L12.4013 25.4537C12.9272 27.9239 15.1355 29.7834 17.7725 29.7834C20.3895 29.7834 22.5833 27.9518 23.1306 25.5099L25.8161 25.5239L26.07 26.3017C26.1694 26.6065 26.3865 26.8594 26.6735 27.0048C26.8458 27.0921 27.0349 27.1364 27.2248 27.1364C27.3511 27.1364 27.4778 27.1168 27.5999 27.0773L32.6799 25.4352C33.3176 25.229 33.6668 24.5475 33.4596 23.913L25.9932 1.05134ZM5.0907 24.4164L2.74443 17.2329L5.71758 16.2718L8.06352 23.4552L5.0907 24.4164ZM17.7724 27.3672C16.4914 27.3672 15.3934 26.5801 14.937 25.467L20.5967 25.4967C20.1332 26.5944 19.0422 27.3672 17.7724 27.3672ZM10.4771 23.0274L9.20006 19.117L7.92299 15.2066L19.6477 6.63838L23.2433 17.6477L25.0252 23.1038L10.4771 23.0274ZM28.0042 24.4062L27.8551 23.9499C27.8549 23.9491 27.8547 23.9481 27.8544 23.9471L24.6464 14.1243L21.2885 3.84245L24.0588 2.94671L30.7745 23.5103L28.0042 24.4062Z" fill="#E84025"/>
<path d="M30.0829 6.92396C30.2597 7.01352 30.4479 7.05588 30.6334 7.05588C31.0754 7.05588 31.5017 6.81491 31.7162 6.39612L33.8955 2.14213C34.2002 1.54777 33.9627 0.820193 33.3653 0.517212C32.7679 0.214391 32.0366 0.450366 31.732 1.04489L29.5527 5.29888C29.248 5.8934 29.4855 6.62098 30.0829 6.92396Z" fill="#E84025"/>
<path d="M39.2082 18.4116L34.9317 16.2443C34.3341 15.9417 33.603 16.178 33.2986 16.7725C32.9941 17.367 33.2319 18.0944 33.8293 18.3973L38.1058 20.5645C38.2824 20.6539 38.4705 20.6963 38.6559 20.6963C39.0979 20.6963 39.5244 20.4551 39.7389 20.0363C40.0434 19.442 39.8057 18.7146 39.2082 18.4116Z" fill="#E84025"/>
<path d="M33.0666 11.4035C33.2334 11.9139 33.7093 12.2385 34.2211 12.2385C34.3456 12.2385 34.4721 12.2193 34.5967 12.1791L39.1604 10.7036C39.7979 10.4974 40.1472 9.81593 39.9398 9.18129C39.7325 8.54666 39.0475 8.20003 38.4096 8.40572L33.846 9.88116C33.2084 10.0875 32.8594 10.769 33.0666 11.4035Z" fill="#E84025"/>
</svg>
