<svg width="44" height="45" viewBox="0 0 44 45" fill="none" xmlns="http://www.w3.org/2000/svg">
<circle cx="21.9428" cy="22.5969" r="20.8976" stroke="#242424" stroke-width="1.5"/>
<path d="M21.794 11.9492C15.9968 11.9492 11.2952 16.3017 11.2952 21.6721C11.309 23.1523 11.6703 24.6086 12.3499 25.9237C13.0295 27.2388 14.0085 28.3759 15.2079 29.2434V32.9515L18.7836 30.9894C19.7649 31.2603 20.7783 31.3972 21.7963 31.3965C27.5958 31.3965 32.2952 27.044 32.2952 21.6736C32.2952 16.3032 27.5958 11.9492 21.794 11.9492ZM22.8378 25.0431L20.1659 22.1909L14.9469 25.0431L20.6886 18.9485L23.4274 21.8006L28.5802 18.9485L22.8378 25.0431Z" fill="#242424"/>
</svg>
