<svg width="95" height="90" viewBox="0 0 95 90" fill="none" xmlns="http://www.w3.org/2000/svg">
<g filter="url(#filter0_d_1238_2057)">
<rect x="14" y="14" width="67" height="62" rx="13" fill="white"/>
</g>
<path d="M40.1599 58.71C39.3718 59.0043 38.5159 59.0666 37.6935 58.8893C36.8712 58.7121 36.1168 58.3028 35.5199 57.71C35.1086 57.3037 34.7826 56.8193 34.5611 56.2852C34.3395 55.7511 34.227 55.1782 34.2299 54.6C34.2344 54.1936 34.2949 53.7898 34.4099 53.4C33.9764 52.5893 33.6407 51.7299 33.4099 50.84C32.4909 52.1076 32.0685 53.6681 32.2225 55.2261C32.3765 56.7842 33.0962 58.2318 34.2456 59.2949C35.395 60.3581 36.8942 60.963 38.4595 60.9953C40.0249 61.0275 41.5477 60.4849 42.7399 59.47C41.8533 59.318 40.9874 59.0629 40.1599 58.71Z" fill="#E84025"/>
<path d="M48.41 54.68C46.9652 55.4853 45.2974 55.7979 43.659 55.5706C42.0206 55.3432 40.5009 54.5883 39.33 53.42C38.1603 52.2543 37.4033 50.7386 37.1741 49.1032C36.9448 47.4678 37.2559 45.8023 38.06 44.36C37.841 43.4249 37.717 42.47 37.69 41.51C35.9884 43.3254 35.0599 45.7317 35.1009 48.2195C35.142 50.7074 36.1494 53.0817 37.91 54.84C39.6754 56.595 42.0517 57.5982 44.5407 57.6392C47.0296 57.6802 49.4378 56.7559 51.26 55.06C50.2997 55.0283 49.345 54.901 48.41 54.68Z" fill="#E84025"/>
<path d="M51.6601 53.21C48.8613 53.2058 46.1504 52.2315 43.9893 50.453C41.8281 48.6745 40.3504 46.2017 39.8077 43.456C39.2651 40.7102 39.6911 37.8612 41.0132 35.3943C42.3353 32.9274 44.4717 30.9951 47.0586 29.9265C49.6455 28.858 52.5228 28.7193 55.2004 29.534C57.8781 30.3488 60.1905 32.0666 61.7438 34.3949C63.2971 36.7232 63.9952 39.518 63.7192 42.3032C63.4432 45.0884 62.2102 47.6918 60.2301 49.67C59.1042 50.7941 57.7678 51.6853 56.2974 52.2927C54.8269 52.9001 53.2511 53.2118 51.6601 53.21ZM51.6601 31C50.3316 30.9987 49.0159 31.2592 47.7881 31.7667C46.5604 32.2742 45.4447 33.0187 44.5048 33.9576C43.565 34.8965 42.8194 36.0115 42.3107 37.2388C41.802 38.466 41.5401 39.7815 41.5401 41.11C41.5403 42.4398 41.8058 43.7562 42.3209 44.9822C42.836 46.2082 43.5905 47.3191 44.5401 48.25C46.4379 50.1473 49.0116 51.2132 51.6951 51.2132C54.3787 51.2132 56.9523 50.1473 58.8501 48.25C60.2635 46.8332 61.2246 45.0287 61.6116 43.0652C61.9987 41.1017 61.7943 39.0676 61.0243 37.2203C60.2544 35.3731 58.9535 33.7959 57.2865 32.6886C55.6195 31.5813 53.6614 30.9936 51.6601 31Z" fill="#E84025"/>
<defs>
<filter id="filter0_d_1238_2057" x="0" y="0" width="95" height="90" filterUnits="userSpaceOnUse" color-interpolation-filters="sRGB">
<feFlood flood-opacity="0" result="BackgroundImageFix"/>
<feColorMatrix in="SourceAlpha" type="matrix" values="0 0 0 0 0 0 0 0 0 0 0 0 0 0 0 0 0 0 127 0" result="hardAlpha"/>
<feOffset/>
<feGaussianBlur stdDeviation="7"/>
<feComposite in2="hardAlpha" operator="out"/>
<feColorMatrix type="matrix" values="0 0 0 0 0 0 0 0 0 0 0 0 0 0 0 0 0 0 0.09 0"/>
<feBlend mode="normal" in2="BackgroundImageFix" result="effect1_dropShadow_1238_2057"/>
<feBlend mode="normal" in="SourceGraphic" in2="effect1_dropShadow_1238_2057" result="shape"/>
</filter>
</defs>
</svg>
