<svg width="20" height="20" viewBox="0 0 20 20" fill="none" xmlns="http://www.w3.org/2000/svg">
<path fill-rule="evenodd" clip-rule="evenodd" d="M17.0223 2.99606C13.1411 -0.885191 6.85235 -0.891441 2.9786 2.98231C-0.897653 6.85981 -0.893903 13.1461 2.98985 17.0273C6.8711 20.9086 13.1611 20.9136 17.0336 17.0398C20.9086 13.1661 20.9048 6.87731 17.0223 2.99606ZM12.0186 14.1886L9.9086 12.0786L7.7986 14.1886C6.93735 15.0498 6.28985 15.7998 5.26235 14.7736C4.23735 13.7473 4.9836 13.0998 5.8486 12.2373L7.9586 10.1286L5.8486 8.01856C4.9861 7.15731 4.23735 6.50981 5.26235 5.48231C6.28985 4.45731 6.93735 5.20606 7.7986 6.06856L9.9086 8.17606L12.0186 6.06856C12.8811 5.20731 13.5248 4.45606 14.5523 5.48231C15.5798 6.50981 14.8311 7.15731 13.9686 8.01856L11.8586 10.1273L13.9686 12.2361C14.8298 13.0998 15.5798 13.7473 14.5523 14.7736C13.5273 15.7998 12.8811 15.0498 12.0186 14.1886Z" fill="#E84025"/>
</svg>
