<svg width="43" height="43" viewBox="0 0 43 43" fill="none" xmlns="http://www.w3.org/2000/svg">
<circle cx="21.053" cy="21.0534" r="17.9466" fill="#8892BF"/>
<path d="M19.0522 13.3617H21.2059L20.5972 16.5975H22.5324C23.5936 16.6202 24.3842 16.8573 24.9045 17.309C25.4351 17.7607 25.5912 18.6192 25.3727 19.8841L24.3271 25.5255H22.1422L23.141 20.1382C23.245 19.5734 23.2138 19.1725 23.0474 18.9354C22.881 18.6982 22.5221 18.5796 21.9706 18.5796L20.2383 18.5627L18.9586 25.5255H16.8049L19.0522 13.3617Z" fill="white"/>
<path fill-rule="evenodd" clip-rule="evenodd" d="M9.18383 16.5975H13.3663C14.5939 16.6087 15.4834 16.9929 16.0349 17.7495C16.5864 18.5061 16.7684 19.5396 16.5811 20.8498C16.5084 21.4485 16.3471 22.0357 16.0974 22.6117C15.858 23.1877 15.5252 23.7071 15.0986 24.1703C14.5783 24.7575 14.0217 25.1302 13.4287 25.2884C12.8357 25.4466 12.2217 25.5256 11.5872 25.5256H9.71444L9.1214 28.7444H6.95215L9.18383 16.5975ZM10.0734 23.6112L11.0066 18.5458H11.3219C11.4364 18.5458 11.556 18.54 11.6808 18.5288C12.5132 18.5176 13.2049 18.6024 13.7564 18.783C14.3183 18.9636 14.5055 19.647 14.3183 20.8329C14.0895 22.2447 13.6419 23.0691 12.9761 23.3063C12.3104 23.5323 11.4779 23.6394 10.4791 23.6282H10.2607C10.1982 23.6282 10.1358 23.6224 10.0734 23.6112Z" fill="white"/>
<path fill-rule="evenodd" clip-rule="evenodd" d="M31.8678 16.5975H27.6854L25.4537 28.7444H27.6229L28.216 25.5256H30.0887C30.7233 25.5256 31.3372 25.4466 31.9302 25.2884C32.5233 25.1302 33.0798 24.7575 33.6001 24.1703C34.0268 23.7071 34.3595 23.1877 34.5989 22.6117C34.8486 22.0357 35.0099 21.4485 35.0827 20.8498C35.2699 19.5396 35.088 18.5061 34.5365 17.7495C33.9849 16.9929 33.0954 16.6087 31.8678 16.5975ZM29.5082 18.5458L28.5749 23.6112C28.6373 23.6224 28.6998 23.6282 28.7622 23.6282H28.9807C29.9795 23.6394 30.8119 23.5323 31.4777 23.3063C32.1434 23.0691 32.591 22.2447 32.8198 20.8329C33.0071 19.647 32.8198 18.9636 32.258 18.783C31.7064 18.6024 31.0148 18.5176 30.1823 18.5288C30.0575 18.54 29.9379 18.5458 29.8234 18.5458H29.5082Z" fill="white"/>
</svg>
