<svg width="27" height="27" viewBox="0 0 27 27" fill="none" xmlns="http://www.w3.org/2000/svg">
<path d="M13.9999 14.9614C11.4133 14.9614 9.31006 12.858 9.31006 10.2716C9.31006 7.68495 11.4133 5.58154 13.9999 5.58154C16.5864 5.58154 18.6897 7.68495 18.6897 10.2714C18.6897 12.858 16.5864 14.9614 13.9999 14.9614ZM13.9999 6.71849C12.0386 6.71849 10.4469 8.31017 10.4469 10.2715C10.4469 12.2328 12.0386 13.8244 13.9999 13.8244C15.9612 13.8244 17.5529 12.2328 17.5529 10.2715C17.5529 8.31038 15.9612 6.71849 13.9999 6.71849V6.71849Z" fill="white" stroke="white" stroke-width="0.4"/>
<path d="M14 24C7.94574 24 3 19.0827 3 13C3 6.91726 7.94563 2 14 2C20.0544 2 25 6.94564 25 13C25 19.0544 20.0544 24 14 24ZM14 3.13695C8.57106 3.13695 4.13695 7.57101 4.13695 13C4.13695 18.429 8.57101 22.863 14 22.863C19.429 22.863 23.863 18.429 23.863 13C23.863 7.57101 19.429 3.13695 14 3.13695V3.13695Z" fill="white" stroke="white" stroke-width="0.4"/>
<path d="M7.09301 20.6745L6.15503 20.0492C7.88888 17.4058 10.8449 15.814 14 15.814C17.1267 15.814 20.0543 17.3773 21.7881 19.9639L20.8501 20.5893C19.3153 18.3153 16.757 16.951 14 16.951C11.2145 16.951 8.6279 18.3438 7.09301 20.6745V20.6745Z" fill="white" stroke="white" stroke-width="0.4"/>
</svg>
