<svg width="95" height="90" viewBox="0 0 95 90" fill="none" xmlns="http://www.w3.org/2000/svg">
<g filter="url(#filter0_d_1238_3423)">
<rect x="14" y="14" width="67" height="62" rx="13" fill="white"/>
</g>
<path d="M66.758 44.9145L56.8046 34.961C56.4951 34.6515 55.9474 34.6515 55.6379 34.961L53.48 37.1189C53.1577 37.4412 53.1577 37.9637 53.48 38.286L60.6924 45.4976L53.4804 52.7104C53.1581 53.0327 53.1581 53.5552 53.4804 53.8775L55.6383 56.0354C55.7931 56.1902 56.0031 56.2776 56.2219 56.2776C56.4402 56.2776 56.6506 56.1902 56.8054 56.0354L66.758 46.0824C67.0803 45.7596 67.0803 45.2368 66.758 44.9145Z" fill="#E84025"/>
<path d="M41.5193 52.7104L34.3081 45.4983L41.5206 38.2867C41.6753 38.132 41.7624 37.9223 41.7624 37.7032C41.7624 37.4845 41.6757 37.2744 41.5206 37.1197L39.3627 34.9618C39.2079 34.807 38.9978 34.7199 38.7791 34.7199C38.5604 34.7199 38.3503 34.807 38.1956 34.9618L28.2417 44.9144C27.9194 45.2367 27.9194 45.7592 28.2417 46.0819L38.1952 56.0349C38.3499 56.1897 38.56 56.2772 38.7787 56.2772C38.9974 56.2772 39.2075 56.1897 39.3622 56.0349L41.5202 53.877C41.8425 53.5551 41.8425 53.0327 41.5193 52.7104Z" fill="#E84025"/>
<path d="M53.1607 31.6125C53.0558 31.4202 52.8792 31.2774 52.6696 31.2155L50.9202 30.6992C50.4836 30.5696 50.0239 30.8201 49.8951 31.2571L41.774 58.7594C41.7121 58.9695 41.736 59.1952 41.8404 59.3871C41.9448 59.5799 42.1219 59.7222 42.3315 59.7845L44.0809 60.3008C44.1589 60.3239 44.2377 60.3351 44.3148 60.3351C44.671 60.3351 44.9999 60.1023 45.106 59.7429L53.2271 32.2402C53.289 32.0301 53.2655 31.8044 53.1607 31.6125Z" fill="#E84025"/>
<defs>
<filter id="filter0_d_1238_3423" x="0" y="0" width="95" height="90" filterUnits="userSpaceOnUse" color-interpolation-filters="sRGB">
<feFlood flood-opacity="0" result="BackgroundImageFix"/>
<feColorMatrix in="SourceAlpha" type="matrix" values="0 0 0 0 0 0 0 0 0 0 0 0 0 0 0 0 0 0 127 0" result="hardAlpha"/>
<feOffset/>
<feGaussianBlur stdDeviation="7"/>
<feComposite in2="hardAlpha" operator="out"/>
<feColorMatrix type="matrix" values="0 0 0 0 0 0 0 0 0 0 0 0 0 0 0 0 0 0 0.09 0"/>
<feBlend mode="normal" in2="BackgroundImageFix" result="effect1_dropShadow_1238_3423"/>
<feBlend mode="normal" in="SourceGraphic" in2="effect1_dropShadow_1238_3423" result="shape"/>
</filter>
</defs>
</svg>
