<svg width="43" height="43" viewBox="0 0 43 43" fill="none" xmlns="http://www.w3.org/2000/svg">
<rect width="43" height="43" fill="#32CAFA"/>
<rect x="1.53516" y="1.53589" width="39.9286" height="39.9286" fill="#021D25"/>
<path d="M9.21484 11.0714C9.21484 10.9437 9.49034 10.8457 9.64972 10.8457C10.902 10.7819 12.7394 10.75 14.6678 10.75C20.0616 10.75 22.1631 13.7084 22.1631 17.4988C22.1631 22.4493 18.5771 24.5713 14.1783 24.5713C13.4406 24.5713 13.1833 24.5394 12.6688 24.5394V32.0244C12.6688 32.1862 12.605 32.25 12.4434 32.25H9.44025C9.2786 32.25 9.21484 32.1862 9.21484 32.0244V11.0714ZM12.6688 21.4214C13.1173 21.4533 13.4725 21.4533 14.2421 21.4533C16.5212 21.4533 18.6636 20.6487 18.6636 17.5649C18.6636 15.0897 17.1336 13.8361 14.5312 13.8361C13.7617 13.8361 13.0217 13.868 12.6688 13.8999V21.4214ZM29.4193 19.1057C27.8779 19.1057 27.3634 19.8783 27.3634 20.5211C27.3634 21.2276 27.7163 21.7108 29.7722 22.7707C32.8232 24.2499 33.7863 25.663 33.7863 27.7531C33.7863 30.8711 31.4093 32.25 28.199 32.25C26.4982 32.25 25.0478 31.9057 24.2145 31.4226C24.087 31.3587 24.0529 31.263 24.0529 31.1012V28.5235C24.0529 28.3297 24.1485 28.2659 24.2783 28.3616C25.4987 29.1662 26.9148 29.5195 28.199 29.5195C29.7404 29.5195 30.3824 28.8767 30.3824 28.0083C30.3824 27.3018 29.9339 26.6909 27.9736 25.663C25.2118 24.3456 24.0552 22.994 24.0552 20.7444C24.0552 18.2373 26.0132 16.3472 29.4171 16.3472C31.086 16.3472 32.2654 16.4048 32.9074 16.6942C33.0691 16.79 33.101 16.9518 33.101 17.0794V19.7484C33.101 19.908 33.0053 20.006 32.8118 19.9421C32.1926 19.5745 30.9607 19.1057 29.4193 19.1057Z" fill="#32CAFA"/>
</svg>
