<svg width="22" height="22" viewBox="0 0 22 22" fill="none" xmlns="http://www.w3.org/2000/svg">
<path d="M9.80618 16.8616C11.0753 16.8613 12.3148 16.5169 13.3957 15.8727C13.8298 15.614 14.394 15.6414 14.7513 15.9987L17.3793 18.6265C17.7236 18.9708 18.282 18.9708 18.6264 18.6265C18.9708 18.2821 18.9708 17.7237 18.6264 17.3793L15.9987 14.7518C15.6413 14.3944 15.614 13.83 15.8728 13.3959C16.5174 12.3149 16.8621 11.0752 16.8624 9.8058C16.8624 5.91541 13.6968 2.75 9.80618 2.75C5.91558 2.75 2.75 5.91541 2.75 9.8058C2.75 13.6962 5.91558 16.8616 9.80618 16.8616ZM9.80618 4.51395C12.7248 4.51395 15.0983 6.88735 15.0983 9.8058C15.0983 12.7243 12.7248 15.0977 9.80618 15.0977C6.88757 15.0977 4.51405 12.7243 4.51405 9.8058C4.51405 6.88735 6.88757 4.51395 9.80618 4.51395Z" fill="white"/>
<path d="M11.0515 8.5588C11.1721 8.67974 11.2732 8.81469 11.3532 8.95984C11.5884 9.38687 11.9653 9.80591 12.4529 9.80591C12.9398 9.80591 13.3458 9.40556 13.2255 8.93369C13.184 8.77092 13.1308 8.61099 13.0661 8.45515C12.8884 8.02703 12.6275 7.63839 12.2987 7.31168C11.1745 6.18906 9.35588 6.0115 8.01256 6.77899C7.58977 7.02055 7.59202 7.591 7.93585 7.93579C8.27994 8.28084 8.8456 8.25488 9.31543 8.12558C9.91557 7.96041 10.597 8.10556 11.0515 8.5588Z" fill="white"/>
</svg>
