<svg width="27" height="27" viewBox="0 0 27 27" fill="none" xmlns="http://www.w3.org/2000/svg">
<path d="M11.2372 20.529C11.2367 20.5297 11.2372 20.5307 11.2381 20.5307C13.0849 20.541 14.8835 19.989 16.3996 18.9592C16.828 18.6682 17.4103 18.6885 17.7768 19.0546L22.3608 23.6337C22.6864 23.9591 23.2141 23.9589 23.5396 23.6334V23.6334C23.8643 23.3087 23.8654 22.7827 23.5421 22.4567L18.9972 17.8739C18.6329 17.5066 18.6141 16.9251 18.9065 16.4983C19.9175 15.0222 20.4833 13.2787 20.5248 11.477C20.5734 9.36977 19.9018 7.30895 18.621 5.63485C17.3403 3.96076 15.5269 2.7735 13.4803 2.26912C11.4337 1.76475 9.27628 1.97342 7.36429 2.86067C5.45229 3.74792 3.90004 5.2607 2.96385 7.14922C2.02767 9.03774 1.76352 11.1891 2.21504 13.248C2.66655 15.3069 3.80672 17.1502 5.44728 18.4737C7.08728 19.7967 9.12928 20.521 11.2363 20.5272C11.2372 20.5272 11.2378 20.5282 11.2372 20.529V20.529ZM11.2359 3.7843C12.7287 3.7843 14.1879 4.22695 15.4291 5.05629C16.6703 5.88562 17.6376 7.06438 18.2089 8.44351C18.7802 9.82264 18.9296 11.3402 18.6384 12.8043C18.3472 14.2683 17.6283 15.6132 16.5728 16.6687C15.5173 17.7243 14.1724 18.4431 12.7083 18.7343C11.2443 19.0255 9.72672 18.8761 8.34759 18.3048C6.96846 17.7336 5.7897 16.7662 4.96036 15.525C4.13103 14.2838 3.68838 12.8246 3.68838 11.3318C3.68907 9.33031 4.48448 7.41097 5.89976 5.99568C7.31505 4.5804 9.23438 3.78499 11.2359 3.7843Z" fill="white"/>
</svg>
