<svg width="23" height="23" viewBox="0 0 23 23" fill="none" xmlns="http://www.w3.org/2000/svg">
<path d="M9.69293 19.0922C11.8468 19.1047 13.9352 18.3524 15.5864 16.9694L21.4074 22.7842L22.5838 21.6078L16.811 15.7869C18.1675 14.1735 18.9333 12.1458 18.9818 10.0386C19.0304 7.93129 18.3588 5.87047 17.0781 4.19638C15.7973 2.52228 13.9839 1.33502 11.9373 0.830648C9.89073 0.326273 7.73331 0.534939 5.82132 1.42219C3.90932 2.30944 2.35707 3.82222 1.42089 5.71074C0.484698 7.59926 0.220554 9.75058 0.672068 11.8095C1.12358 13.8684 2.26375 15.7118 3.90432 17.0352C5.54488 18.3586 7.58773 19.083 9.69555 19.0887L9.69293 19.0922ZM9.69293 2.34582C11.1857 2.34582 12.6449 2.78848 13.8861 3.61781C15.1273 4.44714 16.0947 5.6259 16.6659 7.00503C17.2372 8.38416 17.3866 9.90172 17.0954 11.3658C16.8042 12.8299 16.0854 14.1747 15.0298 15.2302C13.9743 16.2858 12.6295 17.0046 11.1654 17.2958C9.7013 17.5871 8.18375 17.4376 6.80462 16.8663C5.42549 16.2951 4.24673 15.3277 3.41739 14.0865C2.58806 12.8453 2.14541 11.3861 2.14541 9.89334C2.1461 7.89183 2.94151 5.97249 4.35679 4.55721C5.77208 3.14192 7.69141 2.34652 9.69293 2.34582Z" fill="#828282"/>
</svg>
