<svg width="44" height="45" viewBox="0 0 44 45" fill="none" xmlns="http://www.w3.org/2000/svg">
<circle cx="21.9428" cy="22.5969" r="20.8976" stroke="#242424" stroke-width="1.5"/>
<path d="M32.0379 27.6848C29.2797 27.2006 28.0369 24.1875 27.9869 24.0597C27.9834 24.0513 27.9794 24.043 27.9749 24.0351C27.9094 23.9234 27.8671 23.7996 27.8506 23.6712C27.834 23.5428 27.8435 23.4124 27.8785 23.2878C28.028 22.9141 28.6071 22.7154 28.989 22.5861C29.0996 22.5487 29.2042 22.5113 29.2879 22.4777C29.5959 22.3636 29.8761 22.1853 30.1099 21.9546C30.2679 21.7955 30.3577 21.581 30.3603 21.3568C30.3462 21.1687 30.2753 20.9893 30.1569 20.8425C30.0385 20.6957 29.8783 20.5884 29.6974 20.5348C29.5557 20.4745 29.4031 20.4437 29.2491 20.4443C29.1047 20.4422 28.9618 20.4731 28.8313 20.5348C28.5653 20.6793 28.2727 20.7683 27.9712 20.7963C27.8729 20.7933 27.7761 20.771 27.6865 20.7306C27.6939 20.5931 27.7022 20.4511 27.7111 20.3053L27.7149 20.2418C27.8038 18.7525 27.9136 16.9 27.4518 15.7992C27.1596 15.0815 26.731 14.4272 26.1897 13.8727C25.7534 13.4339 25.2431 13.0754 24.6824 12.8138C23.9447 12.4691 23.1411 12.2881 22.3269 12.2832H22.2746L21.9196 12.2877C21.1045 12.2928 20.3 12.4738 19.5612 12.8183C19.0008 13.0801 18.4913 13.4391 18.0562 13.8787C17.5176 14.4334 17.0911 15.0867 16.8 15.8029C16.3381 16.9022 16.448 18.7547 16.5354 20.2426C16.5444 20.4017 16.5549 20.5684 16.5638 20.7306C16.4576 20.7778 16.3422 20.8008 16.2261 20.7978C15.9037 20.781 15.5894 20.691 15.3069 20.5348C15.1976 20.4832 15.0779 20.4576 14.9572 20.46C14.738 20.4629 14.524 20.5268 14.3391 20.6446C14.2283 20.7078 14.132 20.7938 14.0567 20.8968C13.9813 20.9998 13.9286 21.1176 13.902 21.2424C13.8817 21.3853 13.8979 21.5311 13.9493 21.6659C14.0007 21.8008 14.0854 21.9205 14.1957 22.0136C14.4213 22.2152 14.6816 22.3742 14.9639 22.4829C15.0513 22.5203 15.1559 22.5577 15.2628 22.5913C15.6447 22.7206 16.2231 22.9156 16.374 23.293C16.4083 23.4178 16.4173 23.5482 16.4005 23.6765C16.3837 23.8049 16.3414 23.9285 16.2761 24.0403C16.2721 24.0483 16.2686 24.0565 16.2657 24.065C15.9988 24.6808 15.649 25.2573 15.2262 25.7785C14.8695 26.2288 14.4497 26.6252 13.9797 26.9555C13.4518 27.3233 12.8503 27.5721 12.2168 27.6848C12.0958 27.7097 11.988 27.778 11.9137 27.8768C11.8394 27.9756 11.8037 28.0981 11.8133 28.2214C11.8173 28.2984 11.8342 28.3742 11.8634 28.4456C12.0087 28.7372 12.2568 28.9648 12.5599 29.0845C13.2033 29.3634 13.8823 29.5518 14.5775 29.6442C14.6329 29.7979 14.6744 29.9562 14.7016 30.1172C14.7352 30.2824 14.7696 30.4528 14.8204 30.6329C14.8459 30.7588 14.9157 30.8714 15.0172 30.9501C15.1187 31.0288 15.2451 31.0685 15.3734 31.0618C15.5334 31.0535 15.6923 31.0299 15.8479 30.9916C16.2029 30.9093 16.5657 30.8654 16.93 30.8608C17.1894 30.8615 17.4482 30.885 17.7034 30.931C18.2415 31.0806 18.7373 31.3533 19.1517 31.7277C19.9333 32.4442 20.9418 32.8634 22.0011 32.9121C22.036 32.9121 22.0708 32.9106 22.1057 32.9076C22.1468 32.9076 22.1999 32.9121 22.2552 32.9121C23.3141 32.8633 24.3224 32.4447 25.1046 31.7291C25.5185 31.3561 26.0132 31.084 26.5498 30.934C26.8051 30.8879 27.0639 30.8644 27.3233 30.8638C27.6873 30.8659 28.0501 30.907 28.4054 30.9863C28.5611 31.0224 28.7201 31.0432 28.8799 31.0484H28.9031C29.0268 31.0512 29.1477 31.0105 29.2446 30.9334C29.3414 30.8562 29.408 30.7475 29.4329 30.6261C29.4822 30.449 29.5166 30.2839 29.5517 30.1143C29.5791 29.9544 29.6201 29.7971 29.6743 29.6442C30.3693 29.5511 31.0482 29.3628 31.6919 29.0845C31.9944 28.9655 32.2426 28.7394 32.3892 28.4493C32.4188 28.378 32.4362 28.3022 32.4407 28.2251C32.4518 28.1013 32.4169 27.9777 32.3426 27.878C32.2683 27.7783 32.1598 27.7095 32.0379 27.6848Z" fill="#242424"/>
</svg>
