<svg width="33" height="33" viewBox="0 0 33 33" fill="none" xmlns="http://www.w3.org/2000/svg">
<path d="M3.11326 29.0938V15.5312C3.11326 15.0809 3.48372 14.7125 3.9449 14.7125H7.87143C8.3326 14.7125 8.70306 15.0809 8.70306 15.5312V29.0938C8.70306 29.5441 8.3326 29.9125 7.87143 29.9125H3.9449C3.48372 29.9125 3.11326 29.5441 3.11326 29.0938ZM11.4324 9.87965L9.7858 13.1297C9.25896 12.7196 8.59387 12.475 7.87143 12.475H3.9449C2.23751 12.475 0.85 13.8415 0.85 15.5312V29.0938C0.85 30.7835 2.23751 32.15 3.9449 32.15H7.87143C8.90696 32.15 9.82423 31.6476 10.3861 30.8757C11.2814 31.6681 12.4646 32.15 13.7612 32.15H25.9139C28.5108 32.15 30.6881 30.2077 30.9469 27.6533L32.1249 16.0283C32.1416 15.8632 32.15 15.6973 32.15 15.5312C32.15 12.7714 29.8835 10.5375 27.0918 10.5375H20.6749L20.0396 4.26709C19.8428 2.32564 18.1882 0.85 16.2153 0.85C14.2368 0.85 12.6296 2.43333 12.6296 4.39062V4.875C12.6296 6.61222 12.2197 8.32566 11.4324 9.87965ZM10.9663 27.1562V15.7958L13.456 10.8817C14.4009 9.01678 14.8929 6.96025 14.8929 4.875V4.39062C14.8929 3.67279 15.4831 3.0875 16.2153 3.0875C17.0288 3.0875 17.7071 3.69548 17.7876 4.49012L18.525 11.7678C18.5831 12.3412 19.0713 12.775 19.651 12.775H27.0918C28.6373 12.775 29.8867 14.0109 29.8867 15.5312C29.8867 15.6228 29.8821 15.7142 29.8729 15.8053L28.6949 27.4303C28.5523 28.8378 27.3514 29.9125 25.9139 29.9125H13.7612C12.2158 29.9125 10.9663 28.6766 10.9663 27.1562Z" fill="#E84025" stroke="#E84025" stroke-width="0.3"/>
</svg>
