<svg width="28" height="37" viewBox="0 0 28 37" fill="none" xmlns="http://www.w3.org/2000/svg">
<path d="M3.42407 13.6547C3.42407 15.7197 4.05263 17.7385 5.23026 19.4555C6.40789 21.1726 8.08171 22.5109 10.04 23.3011C11.9984 24.0914 14.1533 24.2982 16.2322 23.8953C18.3112 23.4924 20.2208 22.498 21.7196 21.0378C23.2185 19.5775 24.2392 17.7171 24.6527 15.6916C25.0663 13.6662 24.854 11.5668 24.0429 9.65895C23.2317 7.75106 21.858 6.12035 20.0956 4.97305C18.3331 3.82575 16.2611 3.21338 14.1414 3.21338C11.2999 3.21646 8.57579 4.31751 6.56659 6.27496C4.55739 8.23241 3.42723 10.8864 3.42407 13.6547ZM14.1414 4.60619C15.9783 4.60619 17.774 5.13688 19.3013 6.13114C20.8287 7.1254 22.0191 8.53857 22.722 10.192C23.425 11.8454 23.6089 13.6647 23.2506 15.4199C22.8922 17.1752 22.0076 18.7874 20.7087 20.0529C19.4098 21.3183 17.7549 22.1801 15.9533 22.5293C14.1517 22.8784 12.2842 22.6992 10.5871 22.0143C8.89004 21.3295 7.43951 20.1697 6.41896 18.6817C5.39842 17.1937 4.85371 15.4443 4.85371 13.6547C4.85634 11.2556 5.83569 8.9555 7.57687 7.25903C9.31806 5.56257 11.6789 4.60829 14.1414 4.60555V4.60619Z" fill="#36A62F"/>
<path d="M7.52427 12.4134L10.294 15.0718L9.65712 18.8081C9.63545 18.9354 9.65052 19.0661 9.70064 19.1855C9.75077 19.3049 9.83398 19.4084 9.94098 19.4844C10.048 19.5604 10.1746 19.606 10.3066 19.616C10.4386 19.626 10.5709 19.6001 10.6887 19.541L14.1384 17.796L17.5881 19.541C17.7059 19.6007 17.8385 19.6272 17.9709 19.6176C18.1033 19.6079 18.2303 19.5625 18.3377 19.4865C18.4451 19.4105 18.5286 19.3068 18.5789 19.1871C18.6292 19.0673 18.6442 18.9363 18.6224 18.8088L17.9855 15.0724L20.7552 12.4141C20.8497 12.3232 20.9164 12.2084 20.9477 12.0826C20.9789 11.9568 20.9736 11.8251 20.9323 11.7021C20.8909 11.5791 20.8152 11.4698 20.7136 11.3864C20.612 11.303 20.4886 11.2489 20.3572 11.23L16.5141 10.6664L14.7753 7.27845C14.7159 7.16292 14.6247 7.06578 14.5119 6.99789C14.399 6.93 14.269 6.89404 14.1364 6.89404C14.0038 6.89404 13.8738 6.93 13.761 6.99789C13.6482 7.06578 13.5569 7.16292 13.4976 7.27845L11.7628 10.6684L7.91966 11.232C7.78824 11.2508 7.6648 11.3049 7.56322 11.3883C7.46163 11.4717 7.38591 11.581 7.34457 11.704C7.30323 11.827 7.29789 11.9588 7.32917 12.0845C7.36044 12.2103 7.42708 12.3251 7.52162 12.416L7.52427 12.4134ZM12.3426 11.9882C12.4555 11.9713 12.5627 11.9283 12.655 11.8627C12.7474 11.7971 12.8222 11.7109 12.8733 11.6114L14.1391 9.14501L15.4049 11.6114C15.4559 11.7109 15.5308 11.7971 15.6231 11.8627C15.7155 11.9283 15.8226 11.9713 15.9356 11.9882L18.7332 12.3986L16.7171 14.333C16.6355 14.4114 16.5744 14.5077 16.5389 14.6139C16.5035 14.7201 16.4947 14.833 16.5134 14.9431L16.9778 17.6622L14.4668 16.3922C14.3651 16.3408 14.2523 16.314 14.1377 16.314C14.0232 16.314 13.9104 16.3408 13.8087 16.3922L11.2977 17.6622L11.7621 14.9431C11.7809 14.833 11.7722 14.72 11.7367 14.6139C11.7013 14.5077 11.6401 14.4113 11.5584 14.333L9.54301 12.3986L12.3426 11.9882Z" fill="#36A62F"/>
<path d="M14.8557 1.12528C14.8557 1.26296 14.8138 1.39754 14.7353 1.51201C14.6568 1.62648 14.5452 1.7157 14.4147 1.76838C14.2841 1.82107 14.1404 1.83485 14.0019 1.80799C13.8633 1.78114 13.7359 1.71484 13.636 1.61749C13.5361 1.52014 13.4681 1.39611 13.4405 1.26108C13.4129 1.12606 13.4271 0.986097 13.4811 0.858904C13.5352 0.731711 13.6268 0.622998 13.7443 0.546511C13.8618 0.470024 13.9999 0.429199 14.1412 0.429199C14.3307 0.429199 14.5125 0.502537 14.6465 0.633078C14.7805 0.763619 14.8557 0.940671 14.8557 1.12528Z" fill="#36A62F"/>
<path d="M10.7737 0.839172C8.39701 1.43222 6.22967 2.64167 4.50214 4.33893C2.77462 6.03618 1.55148 8.15781 0.962781 10.4782C0.374078 12.7986 0.441815 15.2311 1.15879 17.517C1.87576 19.8029 3.21517 21.8568 5.03462 23.4603L0.730447 30.8516C0.662902 30.9678 0.631104 31.1005 0.638847 31.2339C0.646589 31.3672 0.693544 31.4956 0.77411 31.6037C0.854676 31.7117 0.965451 31.7949 1.09322 31.8433C1.22099 31.8917 1.36035 31.9033 1.49469 31.8767L6.38265 30.8878L8.10087 35.6059C8.14669 35.7316 8.22858 35.8418 8.33681 35.9234C8.44504 36.005 8.57506 36.0546 8.71139 36.0663C8.84773 36.078 8.98465 36.0513 9.10586 35.9894C9.22708 35.9275 9.3275 35.833 9.39517 35.7171L14.1385 27.5929L18.8819 35.7171C18.9443 35.8239 19.0346 35.9127 19.1437 35.9744C19.2528 36.0362 19.3767 36.0687 19.5028 36.0687C19.524 36.0687 19.5453 36.0687 19.5691 36.0687C19.7055 36.0569 19.8354 36.0071 19.9436 35.9254C20.0518 35.8438 20.1337 35.7335 20.1795 35.6079L21.897 30.8898L26.785 31.8786C26.9195 31.9059 27.0593 31.8948 27.1875 31.8466C27.3157 31.7985 27.4269 31.7153 27.5079 31.6071C27.5888 31.4989 27.636 31.3703 27.6438 31.2367C27.6516 31.103 27.6197 30.97 27.5519 30.8536L23.2471 23.461C25.0665 21.8575 26.4059 19.8037 27.1229 17.5178C27.84 15.2319 27.9078 12.7995 27.3191 10.4791C26.7305 8.15868 25.5074 6.03705 23.78 4.33975C22.0525 2.64246 19.8853 1.43295 17.5086 0.839819C17.4161 0.811883 17.3188 0.802552 17.2225 0.812391C17.1262 0.82223 17.033 0.851035 16.9484 0.897055C16.8639 0.943076 16.7899 1.00535 16.7308 1.0801C16.6718 1.15485 16.6289 1.24052 16.6049 1.3319C16.5809 1.42328 16.5761 1.51846 16.591 1.61167C16.6059 1.70488 16.6401 1.79417 16.6915 1.87411C16.7428 1.95406 16.8104 2.023 16.8899 2.07674C16.9695 2.13049 17.0595 2.16791 17.1544 2.18675C20.02 2.90189 22.5192 4.61135 24.183 6.99429C25.8468 9.37724 26.5607 12.2698 26.1908 15.1292C25.8208 17.9885 24.3925 20.6181 22.1738 22.5243C19.9551 24.4305 17.0987 25.4823 14.1405 25.4823C11.1823 25.4823 8.32586 24.4305 6.10718 22.5243C3.88851 20.6181 2.46017 17.9885 2.09024 15.1292C1.72031 12.2698 2.43423 9.37724 4.098 6.99429C5.76177 4.61135 8.26101 2.90189 11.1267 2.18675C11.2179 2.16439 11.3036 2.12471 11.379 2.06999C11.4545 2.01527 11.5181 1.94658 11.5662 1.86787C11.6143 1.78915 11.646 1.70195 11.6594 1.61128C11.6729 1.5206 11.6678 1.42823 11.6446 1.33946C11.6213 1.25069 11.5803 1.16727 11.5238 1.09398C11.4674 1.02069 11.3967 0.958981 11.3157 0.912382C11.2347 0.865783 11.1451 0.835215 11.052 0.82243C10.9589 0.809645 10.8641 0.814895 10.7731 0.83788L10.7737 0.839172ZM8.92482 33.7045L7.52371 29.8492C7.46604 29.6905 7.35134 29.5576 7.20083 29.4751C7.05032 29.3925 6.8742 29.3658 6.70507 29.4L2.75516 30.2008L6.16174 24.3516C8.15178 25.7592 10.4962 26.6149 12.9457 26.8276L8.92482 33.7045ZM21.5733 29.4006C21.4042 29.3665 21.228 29.3931 21.0775 29.4757C20.927 29.5583 20.8123 29.6912 20.7546 29.8498L19.3509 33.7045L15.3386 26.8276C17.7881 26.6148 20.1325 25.7591 22.1226 24.3516L25.5292 30.2008L21.5733 29.4006Z" fill="#36A62F"/>
</svg>
