<svg width="28" height="38" viewBox="0 0 28 38" fill="none" xmlns="http://www.w3.org/2000/svg">
<path d="M27.4477 36.0047H23.7808L20.5369 34.1616C20.476 34.1268 20.4089 34.1044 20.3394 34.0955C20.2699 34.0867 20.1993 34.0916 20.1316 34.1101C20.064 34.1285 20.0007 34.1601 19.9453 34.203C19.8899 34.2459 19.8434 34.2993 19.8087 34.3602C19.7739 34.4211 19.7514 34.4882 19.7426 34.5577C19.7338 34.6272 19.7387 34.6978 19.7572 34.7654C19.7756 34.8331 19.8072 34.8964 19.8501 34.9518C19.893 35.0072 19.9464 35.0536 20.0073 35.0884L21.618 36.0047H6.83513L11.5388 33.3294C12.3587 32.8629 13.2858 32.6176 14.2292 32.6176C15.1726 32.6176 16.0997 32.8629 16.9196 33.3294L17.8465 33.8591C17.9073 33.8938 17.9744 33.9163 18.044 33.9251C18.1135 33.934 18.1841 33.929 18.2517 33.9106C18.3193 33.8921 18.3826 33.8606 18.4381 33.8176C18.4935 33.7747 18.5399 33.7213 18.5747 33.6605C18.6094 33.5996 18.6319 33.5325 18.6407 33.463C18.6496 33.3934 18.6446 33.3228 18.6262 33.2552C18.6077 33.1876 18.5762 33.1243 18.5332 33.0688C18.4903 33.0134 18.4369 32.967 18.3761 32.9322L17.4492 32.4026C17.2042 32.2634 16.9503 32.1402 16.6892 32.0339C17.1286 31.8267 17.5299 31.547 17.8762 31.2064C18.754 30.2295 19.2217 28.9521 19.1824 27.6394C19.1755 27.5077 19.1201 27.3831 19.0268 27.2899C18.9336 27.1966 18.809 27.1412 18.6773 27.1343C17.3646 27.0949 16.0872 27.5627 15.1103 28.4405C14.9865 28.5651 14.871 28.6978 14.7648 28.8377V24.9808C15.5558 25.6362 16.5524 25.992 17.5797 25.9857C17.8067 25.9871 18.0335 25.9674 18.2569 25.9268C18.3952 25.9003 18.5173 25.8202 18.5968 25.704C18.6763 25.5878 18.7067 25.4449 18.6813 25.3065C18.531 24.6152 18.2647 23.9544 17.8935 23.3522C18.0762 23.3663 18.2584 23.3734 18.4403 23.3734C20.1159 23.3294 21.7472 22.8255 23.1558 21.9169C23.227 21.8679 23.2851 21.8023 23.3253 21.7258C23.3655 21.6492 23.3865 21.5641 23.3865 21.4777C23.3865 21.3913 23.3655 21.3062 23.3253 21.2296C23.2851 21.1531 23.227 21.0875 23.1558 21.0385C22.0379 20.3206 20.78 19.849 19.4657 19.6548C19.716 19.4492 19.9539 19.2336 20.1794 19.008C20.2827 18.9048 20.3866 18.7955 20.4879 18.6843C20.5378 18.633 20.5769 18.5723 20.6028 18.5056C20.6288 18.4389 20.641 18.3677 20.6389 18.2961C20.6367 18.2246 20.6202 18.1542 20.5903 18.0892C20.5604 18.0242 20.5178 17.9659 20.4649 17.9177C20.412 17.8695 20.3499 17.8324 20.2824 17.8087C20.2149 17.785 20.1433 17.7751 20.0719 17.7796C20.0005 17.7841 19.9307 17.803 19.8667 17.835C19.8027 17.867 19.7459 17.9116 19.6994 17.966C19.6087 18.0653 19.5167 18.1646 19.4247 18.254C18.8671 18.808 18.2416 19.2891 17.5631 19.686C17.4574 19.747 17.3758 19.8424 17.3319 19.9563C17.288 20.0702 17.2845 20.1958 17.322 20.312C17.3595 20.4281 17.4357 20.5279 17.5379 20.5947C17.6401 20.6615 17.7621 20.6913 17.8835 20.679C18.0682 20.6618 18.2556 20.6532 18.4403 20.6532C19.5956 20.6798 20.7307 20.9624 21.7636 21.4807C20.7307 21.9989 19.5956 22.2816 18.4403 22.3082C17.8502 22.3058 17.2633 22.2225 16.6959 22.0606C16.5794 22.0282 16.4555 22.0363 16.3443 22.0836C16.233 22.1308 16.1411 22.2144 16.0836 22.3207C16.0261 22.427 16.0064 22.5496 16.0276 22.6686C16.0489 22.7875 16.1099 22.8957 16.2007 22.9755C16.2669 23.0344 16.3331 23.092 16.3907 23.1529C16.8707 23.6552 17.2361 24.2555 17.4618 24.9126C16.9128 24.909 16.3744 24.7606 15.901 24.4823C15.4277 24.204 15.0362 23.8058 14.7661 23.3277V21.8905L15.9028 20.7538C15.9965 20.6525 16.0473 20.519 16.0446 20.381C16.0419 20.2431 15.986 20.1116 15.8884 20.0141C15.7909 19.9165 15.6594 19.8606 15.5215 19.8579C15.3836 19.8552 15.25 19.9061 15.1487 19.9997L14.7661 20.3824V18.8684C14.7612 18.7302 14.7029 18.5993 14.6034 18.5033C14.504 18.4072 14.3711 18.3536 14.2328 18.3536C14.0946 18.3536 13.9617 18.4072 13.8622 18.5033C13.7628 18.5993 13.7044 18.7302 13.6996 18.8684V20.3824L13.3169 19.9997C13.2157 19.9061 13.0821 19.8552 12.9442 19.8579C12.8063 19.8606 12.6748 19.9165 12.5772 20.0141C12.4797 20.1116 12.4237 20.2431 12.4211 20.381C12.4184 20.519 12.4692 20.6525 12.5629 20.7538L13.6996 21.8905V23.3257C13.4309 23.8059 13.0395 24.2061 12.5654 24.4852C12.0912 24.7644 11.5514 24.9126 11.0012 24.9146C11.2267 24.256 11.5931 23.6546 12.075 23.1523C12.1359 23.0914 12.1981 23.0331 12.265 22.9748C12.3558 22.8951 12.4168 22.7869 12.4381 22.6679C12.4593 22.549 12.4396 22.4263 12.3821 22.32C12.3245 22.2138 12.2326 22.1301 12.1214 22.0829C12.0102 22.0356 11.8862 22.0276 11.7698 22.0599C11.2024 22.2218 10.6154 22.3052 10.0254 22.3075C8.87004 22.2809 7.73499 21.9983 6.70207 21.48C7.73499 20.9618 8.87004 20.6791 10.0254 20.6525C10.2101 20.6525 10.3974 20.6611 10.5821 20.6783C10.7036 20.6906 10.8256 20.6609 10.9278 20.5941C11.03 20.5273 11.1062 20.4275 11.1437 20.3113C11.1812 20.1951 11.1777 20.0696 11.1338 19.9557C11.0899 19.8417 11.0083 19.7463 10.9026 19.6853C10.2241 19.2884 9.59864 18.8073 9.04097 18.2533C7.79148 16.9364 6.87175 15.3422 6.35716 13.6014C8.09834 14.116 9.69278 15.036 11.0098 16.2858C11.3335 16.6098 11.6318 16.9582 11.9022 17.3278C11.9741 17.4254 12.077 17.4955 12.194 17.5268C12.3111 17.558 12.4352 17.5485 12.5462 17.4999C12.6571 17.4512 12.7481 17.3662 12.8044 17.2589C12.8606 17.1516 12.8786 17.0284 12.8555 16.9095C12.7292 16.273 12.6649 15.6259 12.6635 14.977C12.7179 12.9558 13.2561 10.9771 14.2332 9.20689C15.2102 10.9771 15.7485 12.9558 15.8028 14.977C15.8014 15.6259 15.7371 16.273 15.6108 16.9095C15.5874 17.0285 15.6052 17.1521 15.6615 17.2596C15.7177 17.3672 15.8089 17.4524 15.9201 17.5011C16.0312 17.5499 16.1557 17.5593 16.2729 17.5278C16.3901 17.4963 16.4931 17.4258 16.5648 17.3278C16.8353 16.9579 17.1339 16.6093 17.4578 16.2852C18.7751 15.0353 20.3698 14.1153 22.1112 13.6007C21.8522 14.4486 21.5047 15.267 21.0744 16.0422C21.037 16.1035 21.0123 16.1717 21.0018 16.2427C20.9914 16.3138 20.9954 16.3862 21.0136 16.4557C21.0318 16.5252 21.0638 16.5902 21.1078 16.647C21.1517 16.7038 21.2067 16.7512 21.2694 16.7862C21.3321 16.8212 21.4012 16.8433 21.4726 16.851C21.544 16.8587 21.6162 16.8519 21.6849 16.831C21.7536 16.8101 21.8174 16.7756 21.8724 16.7294C21.9275 16.6833 21.9727 16.6266 22.0052 16.5626C22.6409 15.4346 23.1039 14.2178 23.3789 12.9526C23.3945 12.8676 23.3892 12.7802 23.3635 12.6977C23.3378 12.6152 23.2924 12.5402 23.2314 12.4792C23.1703 12.4181 23.0953 12.3728 23.0128 12.3471C22.9304 12.3213 22.8429 12.3161 22.758 12.3316C20.5596 12.8089 18.5268 13.8596 16.866 15.3769C16.8709 15.2445 16.8733 15.1121 16.8733 14.9797C16.8074 12.4502 16.0473 9.98755 14.6761 7.86101C14.627 7.78987 14.5614 7.73171 14.4849 7.69154C14.4084 7.65136 14.3232 7.63037 14.2368 7.63037C14.1504 7.63037 14.0653 7.65136 13.9887 7.69154C13.9122 7.73171 13.8466 7.78987 13.7976 7.86101C12.4264 9.98758 11.6663 12.4502 11.6003 14.9797C11.6003 15.1121 11.6028 15.2445 11.6076 15.3769C9.94581 13.8592 7.91181 12.8085 5.71236 12.3316C5.62739 12.3161 5.53992 12.3213 5.45746 12.3471C5.375 12.3728 5.30002 12.4181 5.23894 12.4792C5.17787 12.5402 5.13253 12.6152 5.10683 12.6977C5.08113 12.7802 5.07582 12.8676 5.09138 12.9526C5.58258 15.2257 6.68918 17.32 8.29025 19.0067C8.51533 19.2318 8.75322 19.4474 9.0039 19.6535C7.68963 19.8476 6.43173 20.3193 5.31382 21.0371C5.24268 21.0862 5.18452 21.1518 5.14434 21.2283C5.10417 21.3048 5.08318 21.39 5.08318 21.4764C5.08318 21.5628 5.10417 21.6479 5.14434 21.7244C5.18452 21.8009 5.24268 21.8666 5.31382 21.9156C6.72243 22.8242 8.35372 23.328 10.0294 23.3721C10.2108 23.3721 10.393 23.365 10.5762 23.3509C10.205 23.9531 9.93858 24.6139 9.78839 25.3051C9.76299 25.4436 9.79334 25.5865 9.87282 25.7027C9.95231 25.8189 10.0745 25.8989 10.2127 25.9255C10.8275 26.0248 11.4564 25.992 12.0574 25.8291C12.6584 25.6662 13.2178 25.377 13.6983 24.9808V28.8357C13.592 28.6958 13.4765 28.5631 13.3527 28.4385C12.3762 27.5606 11.099 27.0925 9.7864 27.1316C9.65466 27.1385 9.53013 27.1939 9.43684 27.2872C9.34356 27.3805 9.28815 27.505 9.28129 27.6368C9.27188 28.0252 9.30518 28.4135 9.38059 28.7946C9.39165 28.8653 9.4168 28.933 9.45454 28.9937C9.49228 29.0544 9.54185 29.107 9.60029 29.1482C9.65873 29.1894 9.72486 29.2184 9.79474 29.2336C9.86463 29.2487 9.93685 29.2497 10.0071 29.2363C10.0774 29.223 10.1442 29.1957 10.2037 29.1561C10.2632 29.1164 10.3141 29.0652 10.3535 29.0055C10.3928 28.9457 10.4197 28.8787 10.4326 28.8084C10.4455 28.738 10.4441 28.6658 10.4286 28.596C10.4034 28.4636 10.3855 28.3372 10.373 28.2253C11.2015 28.2932 11.9842 28.6338 12.5987 29.1938C13.1729 29.8354 13.5366 30.6376 13.6407 31.4923C12.8108 31.3887 12.0296 31.0434 11.3944 30.4993C11.3441 30.4488 11.2841 30.4088 11.2181 30.3818C11.152 30.3549 11.0812 30.3414 11.0099 30.3423C10.9385 30.3431 10.8681 30.3583 10.8027 30.3869C10.7373 30.4154 10.6783 30.4568 10.6292 30.5086C10.5801 30.5604 10.5419 30.6214 10.5168 30.6882C10.4917 30.755 10.4803 30.8262 10.4832 30.8975C10.4861 30.9688 10.5032 31.0387 10.5337 31.1033C10.5641 31.1678 10.6071 31.2256 10.6603 31.2732C10.9902 31.5818 11.3661 31.8373 11.7744 32.0306C11.5134 32.1372 11.2596 32.2606 11.0144 32.4L4.68027 36.0027H1.01138C0.8732 36.0075 0.742309 36.0658 0.64628 36.1653C0.550251 36.2648 0.496582 36.3977 0.496582 36.5359C0.496582 36.6742 0.550251 36.8071 0.64628 36.9065C0.742309 37.006 0.8732 37.0643 1.01138 37.0692H27.4477C27.5193 37.0717 27.5907 37.0598 27.6576 37.0341C27.7245 37.0084 27.7855 36.9696 27.8371 36.9198C27.8886 36.87 27.9296 36.8104 27.9576 36.7444C27.9856 36.6785 28.0001 36.6076 28.0001 36.5359C28.0001 36.4643 27.9856 36.3933 27.9576 36.3274C27.9296 36.2614 27.8886 36.2018 27.8371 36.152C27.7855 36.1023 27.7245 36.0634 27.6576 36.0377C27.5907 36.0121 27.5193 36.0001 27.4477 36.0027V36.0047ZM15.8624 29.1938C16.4766 28.6338 17.259 28.2929 18.0874 28.2246C18.0194 29.0529 17.6791 29.8353 17.1196 30.4497C16.4778 31.0241 15.6753 31.3878 14.8204 31.4917C14.9246 30.6372 15.2883 29.8352 15.8624 29.1938Z" fill="#36A62F"/>
<path d="M14.2344 6.3963C14.8287 6.39559 15.3985 6.1592 15.8187 5.73898C16.2389 5.31875 16.4753 4.749 16.476 4.15471C16.476 2.7327 14.8031 1.00947 14.6125 0.817483C14.5629 0.767623 14.5039 0.728055 14.439 0.701055C14.3741 0.674056 14.3044 0.660156 14.2341 0.660156C14.1638 0.660156 14.0942 0.674056 14.0292 0.701055C13.9643 0.728055 13.9054 0.767623 13.8558 0.817483C13.6651 1.00947 11.9922 2.7327 11.9922 4.15471C11.9929 4.74911 12.2294 5.31896 12.6497 5.73921C13.0701 6.15946 13.64 6.39577 14.2344 6.3963ZM14.2344 1.98329C14.7892 2.63472 15.4095 3.55558 15.4095 4.15471C15.4095 4.46636 15.2857 4.76524 15.0653 4.98561C14.845 5.20598 14.5461 5.32979 14.2344 5.32979C13.9228 5.32979 13.6239 5.20598 13.4035 4.98561C13.1832 4.76524 13.0594 4.46636 13.0594 4.15471C13.0594 3.55558 13.6797 2.63472 14.2344 1.98396V1.98329Z" fill="#36A62F"/>
<path d="M20.1761 11.7845C20.7704 11.7838 21.3401 11.5474 21.7604 11.1272C22.1806 10.7069 22.417 10.1372 22.4177 9.54289C22.4177 8.12088 20.7448 6.39765 20.5541 6.20567C20.5045 6.15581 20.4456 6.11624 20.3806 6.08924C20.3157 6.06224 20.2461 6.04834 20.1758 6.04834C20.1054 6.04834 20.0358 6.06224 19.9709 6.08924C19.906 6.11624 19.847 6.15581 19.7974 6.20567C19.6068 6.39765 17.9338 8.12088 17.9338 9.54289C17.9345 10.1373 18.171 10.7071 18.5914 11.1274C19.0118 11.5476 19.5817 11.784 20.1761 11.7845ZM20.1761 7.3728C20.6733 7.95869 21.3525 8.90074 21.3525 9.54289C21.3525 9.85454 21.2287 10.1534 21.0083 10.3738C20.7879 10.5942 20.4891 10.718 20.1774 10.718C19.8658 10.718 19.5669 10.5942 19.3465 10.3738C19.1261 10.1534 19.0023 9.85454 19.0023 9.54289C19.001 8.94377 19.62 8.02423 20.1748 7.3728H20.1761Z" fill="#36A62F"/>
<path d="M8.28228 11.7845C8.87658 11.7838 9.44633 11.5474 9.86655 11.1272C10.2868 10.7069 10.5232 10.1372 10.5239 9.54289C10.5239 8.12088 8.85096 6.39765 8.6603 6.20567C8.61071 6.15581 8.55176 6.11624 8.48683 6.08924C8.4219 6.06224 8.35227 6.04834 8.28195 6.04834C8.21163 6.04834 8.14201 6.06224 8.07708 6.08924C8.01215 6.11624 7.9532 6.15581 7.90362 6.20567C7.71296 6.39765 6.04004 8.12088 6.04004 9.54289C6.04074 10.1373 6.27722 10.7071 6.69759 11.1274C7.11796 11.5476 7.68788 11.784 8.28228 11.7845ZM8.28228 7.37148C8.83705 8.0229 9.45737 8.94377 9.45737 9.54289C9.45737 9.85454 9.33356 10.1534 9.11319 10.3738C8.89282 10.5942 8.59393 10.718 8.28228 10.718C7.97063 10.718 7.67175 10.5942 7.45138 10.3738C7.23101 10.1534 7.10721 9.85454 7.10721 9.54289C7.10721 8.94377 7.72553 8.0229 8.28228 7.37082V7.37148Z" fill="#36A62F"/>
</svg>
