<svg width="39" height="38" viewBox="0 0 39 38" fill="none" xmlns="http://www.w3.org/2000/svg">
<path d="M12.1362 37.0689H4.08951C3.98361 37.0689 3.87875 37.0491 3.78093 37.0106C3.68312 36.9721 3.59427 36.9157 3.51949 36.8446C3.4447 36.7735 3.38544 36.6891 3.3451 36.5963C3.30477 36.5034 3.28415 36.4039 3.28443 36.3035V28.6731C3.28443 28.4706 3.36925 28.2764 3.52023 28.1333C3.67121 27.9901 3.87599 27.9097 4.08951 27.9097H12.1362C12.3497 27.9097 12.5545 27.9901 12.7055 28.1333C12.8565 28.2764 12.9413 28.4706 12.9413 28.6731V36.3035C12.9415 36.4039 12.9209 36.5034 12.8806 36.5963C12.8403 36.6891 12.781 36.7735 12.7062 36.8446C12.6314 36.9157 12.5426 36.9721 12.4448 37.0106C12.3469 37.0491 12.2421 37.0689 12.1362 37.0689ZM4.8939 35.5421H11.3332V29.4359H4.8939V35.5421Z" fill="#36A62F"/>
<path d="M25.0148 37.0675H16.9682C16.8623 37.0676 16.7574 37.0478 16.6596 37.0093C16.5619 36.9707 16.4731 36.9142 16.3984 36.843C16.2472 36.6985 16.1626 36.503 16.1631 36.2994L16.2593 21.034C16.2608 20.8324 16.3463 20.6396 16.4971 20.4976C16.6479 20.3556 16.8519 20.2759 17.0644 20.2759H25.0148C25.1206 20.2759 25.2253 20.2956 25.3229 20.334C25.4206 20.3724 25.5094 20.4286 25.5841 20.4995C25.6589 20.5704 25.7182 20.6545 25.7586 20.7472C25.7991 20.8398 25.8199 20.9391 25.8199 21.0393V36.3041C25.8199 36.5066 25.7351 36.7007 25.5841 36.8439C25.4331 36.9871 25.2284 37.0675 25.0148 37.0675ZM17.7789 35.5413H24.2133V21.8021H17.8646L17.7789 35.5413Z" fill="#36A62F"/>
<path d="M37.8937 37.0676H29.8471C29.6337 37.0676 29.429 36.9872 29.278 36.8442C29.1271 36.7012 29.0422 36.5072 29.042 36.3048V13.407C29.042 13.3067 29.0628 13.2075 29.1033 13.1148C29.1437 13.0222 29.203 12.9381 29.2778 12.8672C29.3526 12.7963 29.4413 12.74 29.539 12.7017C29.6367 12.6633 29.7414 12.6436 29.8471 12.6436H37.8937C37.9995 12.6436 38.1042 12.6633 38.2018 12.7017C38.2995 12.74 38.3883 12.7963 38.463 12.8672C38.5378 12.9381 38.5971 13.0222 38.6376 13.1148C38.678 13.2075 38.6988 13.3067 38.6988 13.407V36.3048C38.6987 36.5072 38.6137 36.7012 38.4628 36.8442C38.3118 36.9872 38.1072 37.0676 37.8937 37.0676ZM30.6515 35.5414H37.0908V14.1698H30.6515V35.5414Z" fill="#36A62F"/>
<path d="M11.7493 18.5021C11.5357 18.502 11.3309 18.4218 11.1795 18.279L5.39287 12.7883C5.2471 12.65 5.16286 12.464 5.1575 12.2685C5.15214 12.073 5.22608 11.8831 5.36406 11.7378L10.1068 6.74145C13.4719 3.05549 18.818 0.512699 23.3928 0.429427C23.5014 0.424834 23.6098 0.442378 23.7106 0.480877C23.8115 0.519375 23.9024 0.577931 23.9773 0.652596C24.0535 0.7255 24.1135 0.812071 24.1539 0.907242C24.1943 1.00241 24.2143 1.10427 24.2127 1.20685C24.1277 5.545 21.4455 10.6133 17.5387 13.8176L12.2846 18.3056C12.1375 18.4322 11.9458 18.5018 11.7472 18.5008L11.7493 18.5021ZM7.06978 12.2207L11.7767 16.6841L16.4737 12.6711C19.8156 9.92777 22.1754 5.73752 22.5491 2.00094C18.6087 2.35534 14.1891 4.59303 11.3088 7.75137L7.06978 12.2207Z" fill="#36A62F"/>
<path d="M13.9157 22.1231C13.8415 22.1232 13.7677 22.1133 13.6965 22.0938C13.5593 22.0562 13.4351 21.9849 13.3364 21.8871C13.2377 21.7893 13.168 21.6685 13.1345 21.5369L11.9936 17.0369C11.9438 16.8399 11.9787 16.6322 12.0904 16.4595C12.2021 16.2869 12.3816 16.1634 12.5893 16.1162C12.7971 16.069 13.0161 16.1021 13.1981 16.208C13.3802 16.3139 13.5105 16.4841 13.5602 16.6811L14.3154 19.6716C15.7141 17.5971 15.993 14.9417 16.0218 13.3902C16.0305 13.1911 16.1209 13.0031 16.2738 12.8663C16.4266 12.7296 16.6298 12.6549 16.8399 12.6583C17.0501 12.6617 17.2505 12.7429 17.3983 12.8845C17.5462 13.0261 17.6298 13.2169 17.6313 13.4162C17.5611 17.0282 16.4462 20.0413 14.484 21.902C14.3334 22.0452 14.129 22.1259 13.9157 22.1265V22.1231Z" fill="#36A62F"/>
<path d="M6.89404 12.0378C6.83059 12.0382 6.76733 12.0311 6.70577 12.0165L1.95673 10.9373C1.81738 10.9061 1.68932 10.8403 1.58577 10.7465C1.48223 10.6527 1.40695 10.5345 1.36771 10.4039C1.32847 10.2733 1.3267 10.1352 1.36257 10.0038C1.39843 9.87233 1.47065 9.75235 1.57175 9.65622C3.53389 7.79559 6.71209 6.73637 10.5226 6.67175C10.6285 6.66863 10.7341 6.68569 10.833 6.72192C10.9319 6.75816 11.0221 6.81282 11.0984 6.88269C11.1746 6.95256 11.2353 7.03622 11.2768 7.12871C11.3184 7.2212 11.34 7.32066 11.3403 7.4212C11.3422 7.52168 11.3233 7.62154 11.2844 7.71504C11.2456 7.80855 11.1877 7.89386 11.114 7.96609C11.0403 8.03832 10.9523 8.09604 10.855 8.13595C10.7577 8.17585 10.6531 8.19715 10.5471 8.19862C8.90817 8.22594 6.11073 8.49041 3.92309 9.81677L7.07881 10.5322C7.27119 10.5748 7.4403 10.6831 7.55393 10.8363C7.66755 10.9896 7.71772 11.1771 7.69488 11.3632C7.67205 11.5493 7.5778 11.7209 7.4301 11.8453C7.28241 11.9697 7.0916 12.0382 6.89404 12.0378Z" fill="#36A62F"/>
<path d="M0.870097 23.3291C0.656693 23.3283 0.452127 23.2482 0.300353 23.106C0.197671 23.0085 0.124762 22.8865 0.0893832 22.7529C0.054004 22.6193 0.0574767 22.4791 0.099432 22.3472C0.364985 21.5045 1.74614 17.2516 2.82802 16.2257C3.45517 15.631 4.30578 15.2969 5.1927 15.2969C6.07963 15.2969 6.93024 15.631 7.55739 16.2257C8.18454 16.8204 8.53687 17.627 8.53687 18.468C8.53687 19.3091 8.18454 20.1157 7.55739 20.7104C6.47691 21.7363 1.99062 23.042 1.10193 23.2965C1.02665 23.3175 0.948585 23.3283 0.870097 23.3285V23.3291ZM5.19341 16.8246C4.96563 16.8242 4.74001 16.8665 4.52951 16.9491C4.31902 17.0316 4.12779 17.1527 3.96681 17.3056C3.50947 17.7392 2.72405 19.6505 2.10934 21.3919C3.94643 20.809 5.96337 20.0635 6.4186 19.6318C6.6609 19.4019 6.82589 19.109 6.89274 18.7901C6.95959 18.4713 6.9253 18.1408 6.79421 17.8404C6.66311 17.54 6.44108 17.2832 6.15617 17.1024C5.87125 16.9216 5.53623 16.8249 5.19341 16.8246Z" fill="#36A62F"/>
</svg>
