<svg width="37" height="37" viewBox="0 0 37 37" fill="none" xmlns="http://www.w3.org/2000/svg">
<path d="M18.2227 7.69831C15.845 7.68965 13.535 8.48928 11.6716 9.96605C11.6161 10.0097 11.5699 10.0639 11.5354 10.1255C11.5009 10.187 11.4788 10.2548 11.4705 10.3249C11.4622 10.395 11.4678 10.466 11.4869 10.5339C11.506 10.6019 11.5384 10.6653 11.582 10.7208C11.6257 10.7762 11.6799 10.8225 11.7415 10.857C11.803 10.8915 11.8708 10.9135 11.9409 10.9219C12.0109 10.9302 12.082 10.9246 12.1499 10.9055C12.2178 10.8863 12.2813 10.854 12.3368 10.8103C14.011 9.48345 16.0864 8.76497 18.2227 8.77271C20.1054 8.77322 21.9456 9.33197 23.5108 10.3783C25.0759 11.4246 26.2957 12.9116 27.0158 14.6511C27.7359 16.3906 27.9241 18.3046 27.5565 20.1511C27.1889 21.9975 26.282 23.6935 24.9506 25.0246C23.6191 26.3557 21.9229 27.2621 20.0763 27.6292C18.2298 27.9963 16.3158 27.8076 14.5765 27.087C12.8372 26.3664 11.3506 25.1463 10.3047 23.5809C9.25874 22.0154 8.70049 20.175 8.70049 18.2923C8.69214 16.129 9.42903 14.0288 10.7872 12.345C10.8314 12.2898 10.8642 12.2265 10.8839 12.1586C10.9036 12.0907 10.9097 12.0196 10.9019 11.9494C10.8941 11.8792 10.8725 11.8112 10.8384 11.7493C10.8043 11.6874 10.7584 11.6328 10.7032 11.5886C10.648 11.5445 10.5847 11.5117 10.5168 11.492C10.4489 11.4723 10.3778 11.4662 10.3076 11.474C10.2374 11.4818 10.1694 11.5034 10.1075 11.5375C10.0456 11.5716 9.99099 11.6175 9.94685 11.6727C8.4464 13.5469 7.62705 15.8752 7.62306 18.276C7.61907 20.6768 8.43067 23.0078 9.92488 24.887C11.4191 26.7662 13.5073 28.0821 15.8473 28.6192C18.1873 29.1562 20.6403 28.8825 22.8044 27.8429C24.9685 26.8033 26.7152 25.0595 27.7585 22.8972C28.8018 20.7349 29.0797 18.2824 28.5466 15.9415C28.0136 13.6005 26.7012 11.5101 24.8246 10.0127C22.948 8.51529 20.6183 7.69971 18.2175 7.6996L18.2227 7.69831Z" fill="#36A62F" stroke="#36A62F" stroke-width="0.4"/>
<path d="M18.2227 0.514648C18.0803 0.514648 17.9436 0.571246 17.8429 0.67199C17.7421 0.772735 17.6855 0.909373 17.6855 1.05185V3.92531C17.6855 4.06779 17.7421 4.20443 17.8429 4.30517C17.9436 4.40591 18.0803 4.46251 18.2227 4.46251C18.3652 4.46251 18.5019 4.40591 18.6026 4.30517C18.7033 4.20443 18.7599 4.06779 18.7599 3.92531V1.05185C18.7599 0.909373 18.7033 0.772735 18.6026 0.67199C18.5019 0.571246 18.3652 0.514648 18.2227 0.514648V0.514648Z" fill="#36A62F" stroke="#36A62F" stroke-width="0.4"/>
<path d="M11.5013 5.58119L10.0648 3.09301C10.0296 3.03188 9.9826 2.97831 9.92662 2.93533C9.87064 2.89236 9.80675 2.86084 9.73859 2.84256C9.60093 2.80564 9.45424 2.82493 9.3308 2.89616C9.20736 2.9674 9.11727 3.08476 9.08035 3.22242C9.04344 3.36007 9.06272 3.50676 9.13395 3.6302L10.5704 6.11839C10.6416 6.24183 10.759 6.33192 10.8966 6.36883C11.0343 6.40575 11.181 6.38647 11.3044 6.31523C11.4278 6.24399 11.5179 6.12664 11.5549 5.98898C11.5918 5.85132 11.5725 5.70463 11.5013 5.58119Z" fill="#36A62F" stroke="#36A62F" stroke-width="0.4"/>
<path d="M6.04954 10.6421L3.56136 9.20573C3.43792 9.13449 3.29123 9.11521 3.15357 9.15213C3.01591 9.18905 2.89855 9.27913 2.82731 9.40258C2.75608 9.52602 2.7368 9.67271 2.77371 9.81037C2.81063 9.94803 2.90072 10.0654 3.02416 10.1366L5.51234 11.573C5.63578 11.6443 5.78247 11.6635 5.92013 11.6266C6.05779 11.5897 6.17515 11.4996 6.24638 11.3762C6.31762 11.2527 6.3369 11.1061 6.29999 10.9684C6.26307 10.8307 6.17298 10.7134 6.04954 10.6421Z" fill="#36A62F" stroke="#36A62F" stroke-width="0.4"/>
<path d="M3.85598 17.7544H0.982512C0.840037 17.7544 0.703399 17.811 0.602654 17.9117C0.50191 18.0125 0.445313 18.1491 0.445312 18.2916C0.445312 18.4341 0.50191 18.5707 0.602654 18.6715C0.703399 18.7722 0.840037 18.8288 0.982512 18.8288H3.85598C3.99845 18.8288 4.13509 18.7722 4.23583 18.6715C4.33658 18.5707 4.39318 18.4341 4.39318 18.2916C4.39318 18.1491 4.33658 18.0125 4.23583 17.9117C4.13509 17.811 3.99845 17.7544 3.85598 17.7544Z" fill="#36A62F" stroke="#36A62F" stroke-width="0.4"/>
<path d="M6.24606 25.207C6.17437 25.0841 6.05686 24.9946 5.9193 24.9583C5.78175 24.9219 5.63539 24.9416 5.51234 25.013L3.02416 26.4495C2.96303 26.4847 2.90946 26.5317 2.86648 26.5877C2.82351 26.6436 2.79199 26.7075 2.77371 26.7757C2.75543 26.8439 2.75076 26.915 2.75995 26.9849C2.76915 27.0549 2.79204 27.1224 2.82731 27.1835C2.86259 27.2446 2.90955 27.2982 2.96553 27.3412C3.02151 27.3841 3.0854 27.4157 3.15357 27.4339C3.22173 27.4522 3.29282 27.4569 3.36279 27.4477C3.43276 27.4385 3.50023 27.4156 3.56135 27.3803L6.04954 25.9439C6.11104 25.9086 6.16495 25.8615 6.20815 25.8053C6.25136 25.7491 6.28301 25.6849 6.30128 25.6164C6.31955 25.5479 6.32407 25.4764 6.31459 25.4062C6.30512 25.3359 6.28182 25.2682 6.24606 25.207Z" fill="#36A62F" stroke="#36A62F" stroke-width="0.4"/>
<path d="M11.3075 30.2684C11.1845 30.197 11.0381 30.1773 10.9006 30.2136C10.763 30.25 10.6455 30.3394 10.5738 30.4623L9.13739 32.9505C9.10055 33.0117 9.07625 33.0795 9.06594 33.1502C9.05562 33.2208 9.0595 33.2928 9.07732 33.3619C9.09515 33.4311 9.12657 33.4959 9.16976 33.5528C9.21295 33.6096 9.26703 33.6573 9.32885 33.693C9.39068 33.7287 9.45899 33.7517 9.52981 33.7607C9.60064 33.7697 9.67254 33.7645 9.74132 33.7454C9.81011 33.7263 9.87439 33.6936 9.93042 33.6494C9.98645 33.6052 10.0331 33.5502 10.0676 33.4877L11.504 30.9995C11.5744 30.8764 11.5933 30.7304 11.5565 30.5935C11.5197 30.4565 11.4302 30.3396 11.3075 30.2684Z" fill="#36A62F" stroke="#36A62F" stroke-width="0.4"/>
<path d="M18.2227 32.1216C18.0803 32.1216 17.9436 32.1782 17.8429 32.2789C17.7421 32.3797 17.6855 32.5163 17.6855 32.6588V35.5322C17.6855 35.6747 17.7421 35.8113 17.8429 35.9121C17.9436 36.0128 18.0803 36.0694 18.2227 36.0694C18.3652 36.0694 18.5019 36.0128 18.6026 35.9121C18.7033 35.8113 18.7599 35.6747 18.7599 35.5322V32.6588C18.7599 32.5163 18.7033 32.3797 18.6026 32.2789C18.5019 32.1782 18.3652 32.1216 18.2227 32.1216Z" fill="#36A62F" stroke="#36A62F" stroke-width="0.4"/>
<path d="M27.3084 32.9552L25.872 30.467C25.8007 30.3436 25.6834 30.2535 25.5457 30.2166C25.4081 30.1797 25.2614 30.1989 25.1379 30.2702C25.0145 30.3414 24.9244 30.4588 24.8875 30.5964C24.8506 30.7341 24.8698 30.8808 24.9411 31.0042L26.3775 33.4924C26.4487 33.6158 26.5661 33.7059 26.7038 33.7429C26.8414 33.7798 26.9881 33.7605 27.1115 33.6893C27.235 33.618 27.3251 33.5007 27.362 33.363C27.3989 33.2253 27.3796 33.0787 27.3084 32.9552Z" fill="#36A62F" stroke="#36A62F" stroke-width="0.4"/>
<path d="M33.4214 26.4473L30.9332 25.0109C30.8097 24.9397 30.663 24.9204 30.5254 24.9573C30.3877 24.9942 30.2704 25.0843 30.1991 25.2078C30.1279 25.3312 30.1086 25.4779 30.1455 25.6156C30.1825 25.7532 30.2725 25.8706 30.396 25.9418L32.8842 27.3782C32.9453 27.4135 33.0128 27.4364 33.0827 27.4456C33.1527 27.4548 33.2238 27.4501 33.2919 27.4318C33.3601 27.4135 33.424 27.382 33.48 27.339C33.536 27.2961 33.5829 27.2425 33.6182 27.1814C33.6535 27.1202 33.6764 27.0528 33.6856 26.9828C33.6948 26.9128 33.6901 26.8417 33.6718 26.7736C33.6535 26.7054 33.622 26.6415 33.579 26.5855C33.5361 26.5296 33.4825 26.4826 33.4214 26.4473Z" fill="#36A62F" stroke="#36A62F" stroke-width="0.4"/>
<path d="M35.4627 17.7544H32.5892C32.4467 17.7544 32.3101 17.811 32.2094 17.9117C32.1086 18.0125 32.052 18.1491 32.052 18.2916C32.052 18.4341 32.1086 18.5707 32.2094 18.6715C32.3101 18.7722 32.4467 18.8288 32.5892 18.8288H35.4627C35.6051 18.8288 35.7418 18.7722 35.8425 18.6715C35.9433 18.5707 35.9999 18.4341 35.9999 18.2916C35.9999 18.1491 35.9433 18.0125 35.8425 17.9117C35.7418 17.811 35.6051 17.7544 35.4627 17.7544Z" fill="#36A62F" stroke="#36A62F" stroke-width="0.4"/>
<path d="M33.6183 9.40374C33.5466 9.28084 33.4291 9.1914 33.2916 9.15504C33.154 9.11869 33.0077 9.13838 32.8846 9.20981L30.3964 10.6462C30.3339 10.6808 30.279 10.7274 30.2347 10.7834C30.1905 10.8395 30.1579 10.9037 30.1388 10.9725C30.1196 11.0413 30.1144 11.1132 30.1234 11.184C30.1324 11.2549 30.1554 11.3232 30.1911 11.385C30.2268 11.4468 30.2745 11.5009 30.3314 11.5441C30.3882 11.5873 30.4531 11.6187 30.5222 11.6365C30.5913 11.6544 30.6633 11.6582 30.734 11.6479C30.8046 11.6376 30.8725 11.6133 30.9336 11.5765L33.4218 10.14C33.4832 10.1048 33.537 10.0577 33.5802 10.0015C33.6233 9.94535 33.655 9.88121 33.6732 9.81278C33.6915 9.74435 33.696 9.67298 33.6866 9.60278C33.6772 9.53258 33.654 9.46493 33.6183 9.40374Z" fill="#36A62F" stroke="#36A62F" stroke-width="0.4"/>
<path d="M27.1115 2.89585C26.9884 2.82442 26.8421 2.80472 26.7045 2.84108C26.567 2.87744 26.4495 2.96688 26.3778 3.08978L24.9413 5.57796C24.9045 5.63911 24.8802 5.70698 24.8699 5.77762C24.8596 5.84827 24.8635 5.92025 24.8813 5.98938C24.8991 6.05851 24.9305 6.12339 24.9737 6.18023C25.0169 6.23708 25.071 6.28474 25.1328 6.32044C25.1946 6.35615 25.263 6.37917 25.3338 6.38816C25.4046 6.39716 25.4765 6.39195 25.5453 6.37283C25.6141 6.35372 25.6783 6.32109 25.7344 6.27685C25.7904 6.2326 25.837 6.17764 25.8716 6.11516L27.308 3.62698C27.3784 3.50385 27.3972 3.35788 27.3604 3.22091C27.3236 3.08394 27.2341 2.96709 27.1115 2.89585Z" fill="#36A62F" stroke="#36A62F" stroke-width="0.4"/>
</svg>
