<svg width="95" height="90" viewBox="0 0 95 90" fill="none" xmlns="http://www.w3.org/2000/svg">
<g filter="url(#filter0_d_1308_1829)">
<rect x="14" y="14" width="67" height="62" rx="13" fill="white"/>
</g>
<g clip-path="url(#clip0_1308_1829)">
<path d="M63.5021 52.4183H55.5366C55.3616 52.4183 55.1808 52.469 55.0411 52.5676C54.8996 52.6674 54.7965 52.8199 54.7965 53.0161V55.292C54.7965 55.4825 54.8939 55.6666 55.028 55.8007C55.1621 55.9347 55.3461 56.0321 55.5366 56.0321H63.5021C63.6982 56.0321 63.8507 55.9291 63.9505 55.7876C64.0491 55.6479 64.0999 55.4671 64.0999 55.292V53.0161C64.0999 52.8396 64.048 52.687 63.9395 52.5786C63.8311 52.4702 63.6785 52.4183 63.5021 52.4183ZM62.762 54.6941H56.1344V53.7562H62.762V54.6941Z" fill="#E84025" stroke="#E84025" stroke-width="0.2"/>
<path d="M62.3681 32.5045H32.7741C31.7907 32.5045 30.9 33.2347 30.9 34.2431V34.8065C30.9 35.5723 31.4623 36.2122 32.0379 36.4774V53.0151C32.0379 54.0119 32.9188 54.8942 33.9146 54.8942H46.2621V58.683C44.9755 58.9874 44.0218 60.1582 44.0218 61.5507C44.0218 63.1752 45.3614 64.4955 46.9844 64.4955C48.6094 64.4955 49.9025 63.1732 49.9025 61.5507C49.9025 60.1575 49.024 58.9831 47.6 58.6812V54.8942H52.1228C52.4922 54.8942 52.7918 54.595 52.7918 54.2252C52.7918 53.8554 52.4922 53.5562 52.1228 53.5562H33.9146C33.7915 53.5562 33.656 53.4906 33.5487 53.3829C33.4414 53.2753 33.3759 53.139 33.3759 53.015V36.6872H61.6242V47.3265C61.6242 47.6962 61.9237 47.9955 62.2932 47.9955C62.6626 47.9955 62.9621 47.6963 62.9621 47.3265V36.4828C63.6752 36.2163 64.1 35.5662 64.1 34.8065V34.243C64.1 33.2453 63.3627 32.5045 62.3681 32.5045ZM48.6091 61.5507C48.6091 62.4366 47.8882 63.1576 47.0022 63.1576C46.1161 63.1576 45.3953 62.4367 45.3953 61.5507C45.3953 60.6646 46.1161 59.9437 47.0022 59.9437C47.8881 59.9437 48.6091 60.6646 48.6091 61.5507ZM62.7621 34.8065C62.7621 34.9464 62.7213 35.0865 62.6499 35.1889C62.5797 35.2896 62.4843 35.3493 62.3681 35.3493H62.3642H32.778H32.7741C32.6521 35.3493 32.5172 35.2838 32.4102 35.1757C32.3033 35.0677 32.2379 34.9309 32.2379 34.8065V34.243C32.2379 34.1241 32.2978 34.027 32.3972 33.9559C32.4984 33.8837 32.6365 33.8424 32.7741 33.8424H62.3681C62.5041 33.8424 62.5994 33.8825 62.6608 33.9448C62.7224 34.0073 62.7621 34.1046 62.7621 34.243V34.8065Z" fill="#E84025" stroke="#E84025" stroke-width="0.2"/>
<path d="M55.5366 49.0045H39.6345V38.792C39.6345 38.4223 39.3349 38.123 38.9655 38.123C38.5961 38.123 38.2965 38.4222 38.2965 38.792V49.0045H37.3297C36.9603 49.0045 36.6607 49.3037 36.6607 49.6735C36.6607 50.0433 36.9603 50.3425 37.3297 50.3425H38.2966V51.3093C38.2966 51.6791 38.5961 51.9783 38.9656 51.9783C39.335 51.9783 39.6345 51.6791 39.6345 51.3093V50.3425H55.5366C55.906 50.3425 56.2056 50.0433 56.2056 49.6735C56.2056 49.3037 55.906 49.0045 55.5366 49.0045Z" fill="#E84025" stroke="#E84025" stroke-width="0.2"/>
<path d="M44.1578 43.3148H41.3129C41.138 43.3148 40.9572 43.3655 40.8174 43.4641C40.6759 43.5639 40.5729 43.7164 40.5729 43.9126V47.8954C40.5729 48.0859 40.6703 48.27 40.8044 48.4041C40.9384 48.5381 41.1225 48.6355 41.3129 48.6355H44.1578C44.3539 48.6355 44.5064 48.5325 44.6062 48.391C44.7048 48.2513 44.7556 48.0705 44.7556 47.8954V43.9126C44.7556 43.736 44.7037 43.5835 44.5952 43.4751C44.4867 43.3666 44.3342 43.3148 44.1578 43.3148ZM43.4177 47.2976H41.9108V44.6528H43.4177V47.2976Z" fill="#E84025" stroke="#E84025" stroke-width="0.2"/>
<path d="M49.8472 40.4701H47.0024C46.8275 40.4701 46.6467 40.5208 46.5069 40.6193C46.3654 40.7191 46.2623 40.8717 46.2623 41.0679V47.8955C46.2623 48.086 46.3597 48.2701 46.4938 48.4042C46.6279 48.5382 46.812 48.6356 47.0024 48.6356H49.8472C50.0433 48.6356 50.1958 48.5326 50.2957 48.3911C50.3943 48.2514 50.4451 48.0706 50.4451 47.8955V41.0679C50.4451 40.8913 50.3931 40.7387 50.2847 40.6303C50.1762 40.5219 50.0237 40.4701 49.8472 40.4701ZM49.1071 47.2977H47.6002V41.808H49.1071V47.2977Z" fill="#E84025" stroke="#E84025" stroke-width="0.2"/>
<path d="M55.5367 38.1942H52.6918C52.5169 38.1942 52.3361 38.2449 52.1963 38.3435C52.0548 38.4432 51.9518 38.5958 51.9518 38.792V47.8954C51.9518 48.086 52.0492 48.2701 52.1833 48.4041C52.3173 48.5382 52.5014 48.6355 52.6918 48.6355H55.5367C55.7328 48.6355 55.8853 48.5325 55.9851 48.3911C56.0837 48.2513 56.1345 48.0705 56.1345 47.8954V38.792C56.1345 38.6154 56.0826 38.4629 55.9741 38.3545C55.8657 38.246 55.7131 38.1942 55.5367 38.1942ZM54.7966 47.2977H53.2897V39.5321H54.7966V47.2977Z" fill="#E84025" stroke="#E84025" stroke-width="0.2"/>
</g>
<defs>
<filter id="filter0_d_1308_1829" x="0" y="0" width="95" height="90" filterUnits="userSpaceOnUse" color-interpolation-filters="sRGB">
<feFlood flood-opacity="0" result="BackgroundImageFix"/>
<feColorMatrix in="SourceAlpha" type="matrix" values="0 0 0 0 0 0 0 0 0 0 0 0 0 0 0 0 0 0 127 0" result="hardAlpha"/>
<feOffset/>
<feGaussianBlur stdDeviation="7"/>
<feComposite in2="hardAlpha" operator="out"/>
<feColorMatrix type="matrix" values="0 0 0 0 0 0 0 0 0 0 0 0 0 0 0 0 0 0 0.09 0"/>
<feBlend mode="normal" in2="BackgroundImageFix" result="effect1_dropShadow_1308_1829"/>
<feBlend mode="normal" in="SourceGraphic" in2="effect1_dropShadow_1308_1829" result="shape"/>
</filter>
<clipPath id="clip0_1308_1829">
<rect width="33" height="33" fill="white" transform="translate(31 32)"/>
</clipPath>
</defs>
</svg>
