<svg width="34" height="34" viewBox="0 0 34 34" fill="none" xmlns="http://www.w3.org/2000/svg">
<g clip-path="url(#clip0_1207_1408)">
<path d="M34 6.96742C34 6.7878 33.9286 6.61554 33.8017 6.4885L27.5117 0.198566C27.2472 -0.0658633 26.8183 -0.0658633 26.5538 0.198566L20.4829 6.26949L19.2463 5.03294C18.9818 4.76851 18.553 4.76851 18.2884 5.03294L0.198372 23.1231C-0.066124 23.3876 -0.066124 23.8164 0.198372 24.081L2.34515 26.2278L0.848755 27.7242C0.584259 27.9887 0.584259 28.4175 0.848755 28.6821L5.3181 33.1514C5.44506 33.2784 5.61739 33.3498 5.79702 33.3498C5.97665 33.3498 6.1489 33.2784 6.27594 33.1514L7.75726 31.6701L9.92264 33.8051C10.0545 33.9351 10.2263 34.0001 10.3982 34.0001C10.5716 34.0001 10.7449 33.9339 10.8771 33.8017L28.9673 15.7115C29.2318 15.447 29.2318 15.0182 28.9673 14.7536L27.7307 13.5171L33.8017 7.44608C33.9286 7.31924 34 7.14699 34 6.96742ZM27.0327 1.63527L28.778 3.38049L27.0737 5.08481C26.9467 5.21184 26.8754 5.3841 26.8754 5.56373V7.05056L24.0698 9.8561L21.4409 7.22714L27.0327 1.63527ZM5.79702 31.7147L2.28552 28.2031L12.5677 17.9209C13.0366 17.4519 13.6602 17.1937 14.3234 17.1937C14.9866 17.1937 15.6101 17.4519 16.0791 17.9209C16.5481 18.3899 16.8063 19.0134 16.8063 19.6767C16.8063 20.3399 16.5481 20.9635 16.079 21.4324L5.79702 31.7147ZM10.3947 32.3684L8.71511 30.7122L17.0371 22.3903C17.7619 21.6655 18.1611 20.7016 18.1611 19.6767C18.1611 18.6516 17.7619 17.688 17.037 16.9632V16.9631C15.5407 15.4668 13.1062 15.4669 11.6098 16.9632L3.303 25.2699L1.63507 23.602L18.7675 6.46971L27.5305 15.2327L10.3947 32.3684ZM26.7728 12.5594L25.0276 10.8141L28.0316 7.81019C28.1585 7.68315 28.2299 7.51089 28.2299 7.33126V5.84443L29.7359 4.3384L32.3649 6.96736L26.7728 12.5594Z" fill="#E84025"/>
<path d="M15.4776 18.5225C14.8122 17.8572 13.7296 17.857 13.0643 18.5225C12.742 18.8448 12.5645 19.2733 12.5645 19.7292C12.5645 20.1849 12.742 20.6135 13.0642 20.9358C13.0642 20.9358 13.0642 20.9358 13.0642 20.9358C13.3969 21.2685 13.8339 21.4349 14.2709 21.4349C14.708 21.4349 15.1449 21.2685 15.4776 20.9358C15.7999 20.6135 15.9774 20.1849 15.9774 19.7292C15.9774 19.2733 15.7998 18.8447 15.4776 18.5225ZM14.5198 19.978C14.3827 20.1152 14.1593 20.1152 14.0221 19.978C13.9557 19.9115 13.9191 19.8231 13.9191 19.7292C13.9191 19.6351 13.9557 19.5468 14.0221 19.4803C14.1593 19.3431 14.3825 19.3432 14.5199 19.4803C14.5863 19.5468 14.6228 19.6352 14.6228 19.7292C14.6228 19.8231 14.5863 19.9116 14.5198 19.978Z" fill="#E84025"/>
<path d="M8.89417 23.6349C8.62974 23.3704 8.20088 23.3704 7.93632 23.6349L3.81947 27.7518C3.55497 28.0162 3.55497 28.4451 3.81947 28.7097C3.95175 28.8419 4.12507 28.908 4.29839 28.908C4.47171 28.908 4.64509 28.8419 4.77731 28.7097L8.89417 24.5928C9.15866 24.3283 9.15866 23.8995 8.89417 23.6349Z" fill="#E84025"/>
<path d="M10.7782 21.7511C10.5138 21.4866 10.0849 21.4866 9.82038 21.7511L9.50794 22.0635C9.24345 22.328 9.24345 22.7568 9.50794 23.0214C9.64022 23.1536 9.81354 23.2198 9.98686 23.2198C10.1602 23.2198 10.3336 23.1536 10.4658 23.0214L10.7782 22.709C11.0427 22.4445 11.0427 22.0156 10.7782 21.7511Z" fill="#E84025"/>
</g>
<defs>
<clipPath id="clip0_1207_1408">
<rect width="34" height="34" fill="white"/>
</clipPath>
</defs>
</svg>
