<svg width="17" height="17" viewBox="0 0 17 17" fill="none" xmlns="http://www.w3.org/2000/svg">
<path d="M8.5 0C6.81886 0 5.17547 0.498516 3.77766 1.43251C2.37984 2.3665 1.29037 3.69402 0.647028 5.24719C0.00368289 6.80036 -0.164645 8.50943 0.163329 10.1583C0.491303 11.8071 1.30085 13.3217 2.4896 14.5104C3.67834 15.6992 5.1929 16.5087 6.84174 16.8367C8.49057 17.1646 10.1996 16.9963 11.7528 16.353C13.306 15.7096 14.6335 14.6202 15.5675 13.2223C16.5015 11.8245 17 10.1811 17 8.5C17 6.24566 16.1045 4.08365 14.5104 2.48959C12.9164 0.895533 10.7543 0 8.5 0ZM14.0516 5.64719L7.07094 12.6225L2.94844 8.5C2.80755 8.3591 2.72839 8.16801 2.72839 7.96875C2.72839 7.76949 2.80755 7.5784 2.94844 7.4375C3.08934 7.2966 3.28043 7.21745 3.47969 7.21745C3.67895 7.21745 3.87005 7.2966 4.01094 7.4375L7.08157 10.5081L12.9997 4.59531C13.0695 4.52555 13.1523 4.47021 13.2434 4.43245C13.3346 4.39469 13.4323 4.37526 13.5309 4.37526C13.6296 4.37526 13.7273 4.39469 13.8185 4.43245C13.9096 4.47021 13.9924 4.52555 14.0622 4.59531C14.132 4.66508 14.1873 4.7479 14.2251 4.83905C14.2628 4.9302 14.2822 5.0279 14.2822 5.12656C14.2822 5.22522 14.2628 5.32292 14.2251 5.41407C14.1873 5.50523 14.132 5.58805 14.0622 5.65781L14.0516 5.64719Z" fill="#E84025"/>
</svg>
