
<svg version="1.0" xmlns="http://www.w3.org/2000/svg"
 width="512.000000pt" height="512.000000pt" viewBox="0 0 512.000000 512.000000"
 preserveAspectRatio="xMidYMid meet">

<g transform="translate(0.000000,512.000000) scale(0.100000,-0.100000)"
fill="#000000" stroke="none">
<circle cx="21.9428" cy="22.5969" r="20.8976" stroke="#242424" stroke-width="1.5"/>
<path d="M2480 3039 c0 -599 -4 -1017 -11 -1092 -17 -203 -52 -290 -151 -382
-68 -64 -142 -100 -229 -114 -212 -35 -447 113 -510 321 -31 101 -24 251 15
326 38 75 100 139 166 172 53 26 183 71 302 104 35 10 62 24 68 36 6 11 10
113 10 254 l0 236 -50 0 c-83 0 -265 -29 -345 -55 -404 -132 -675 -504 -675
-925 1 -211 75 -447 192 -605 177 -239 446 -374 745 -375 87 0 119 5 225 35
196 57 335 141 468 281 136 145 219 307 267 524 13 63 17 164 20 638 3 350 8
562 14 562 5 0 38 -14 72 -31 134 -68 221 -99 345 -123 161 -31 235 -40 267
-32 l25 6 0 240 0 239 -47 6 c-187 23 -354 104 -469 227 -92 97 -161 238 -183
373 -6 39 -14 82 -17 98 l-6 27 -254 0 -254 0 0 -971z"/>
</g>
</svg>
