
<svg version="1.0" xmlns="http://www.w3.org/2000/svg"
 width="121.000000pt" height="121.000000pt" viewBox="0 0 121.000000 121.000000"
 preserveAspectRatio="xMidYMid meet">

<g transform="translate(0.000000,121.000000) scale(0.100000,-0.100000)"
fill="#000000" stroke="none">
<path d="M485 1195 c-217 -47 -382 -193 -450 -397 -64 -194 -33 -391 88 -555
106 -142 303 -242 480 -243 149 0 318 71 428 181 107 106 179 277 179 424 0
122 -57 280 -138 382 -134 168 -377 254 -587 208z m260 -60 c183 -48 342 -207
390 -390 19 -76 19 -204 0 -280 -48 -183 -207 -342 -390 -390 -76 -19 -204
-19 -280 0 -183 48 -342 207 -390 390 -19 76 -19 204 0 280 47 181 206 341
386 389 72 19 211 20 284 1z"/>
<path d="M630 685 c0 -239 -5 -271 -49 -295 -48 -25 -88 -5 -111 54 -15 39 13
96 58 115 30 14 32 18 32 62 0 53 -13 62 -65 46 -91 -29 -139 -108 -133 -218
3 -62 7 -72 37 -103 47 -49 123 -80 179 -73 58 6 119 50 149 106 21 40 23 57
23 173 0 70 2 128 3 128 2 0 18 -7 36 -16 18 -9 49 -18 69 -21 l37 -5 -4 48
c-3 48 -28 84 -56 84 -27 0 -65 43 -78 88 l-14 47 -57 3 -56 3 0 -226z"/>
</g>
</svg>
