<svg width="44" height="45" viewBox="0 0 44 45" fill="none" xmlns="http://www.w3.org/2000/svg">
<circle cx="21.6476" cy="22.5969" r="20.8976" stroke="#242424" stroke-width="1.5"/>
<g clip-path="url(#clip0_976_846)">
<path d="M18.2896 31.0753C25.8368 31.0753 29.9648 24.8225 29.9648 19.4001C29.9648 19.2225 29.9648 19.0457 29.9528 18.8697C30.7559 18.2888 31.4491 17.5696 32 16.7457C31.2512 17.0777 30.4567 17.2953 29.6432 17.3913C30.4998 16.8785 31.141 16.0719 31.4472 15.1217C30.6417 15.5997 29.7605 15.9365 28.8416 16.1177C28.2229 15.4598 27.4047 15.0242 26.5135 14.8782C25.6223 14.7323 24.7078 14.8841 23.9116 15.3102C23.1154 15.7363 22.4819 16.413 22.109 17.2354C21.7361 18.0579 21.6446 18.9804 21.8488 19.8601C20.2174 19.7782 18.6215 19.3543 17.1645 18.6157C15.7076 17.8771 14.4223 16.8404 13.392 15.5729C12.8673 16.4762 12.7066 17.5455 12.9426 18.5632C13.1786 19.5809 13.7936 20.4703 14.6624 21.0505C14.0094 21.0313 13.3705 20.8552 12.8 20.5369V20.5889C12.8003 21.5362 13.1282 22.4544 13.7282 23.1875C14.3282 23.9206 15.1634 24.4237 16.092 24.6113C15.4879 24.776 14.8541 24.8001 14.2392 24.6817C14.5015 25.4969 15.012 26.2099 15.6994 26.7208C16.3867 27.2317 17.2165 27.5151 18.0728 27.5313C17.222 28.2 16.2478 28.6944 15.2057 28.9863C14.1637 29.2781 13.0743 29.3616 12 29.2321C13.8765 30.4362 16.0599 31.075 18.2896 31.0721" fill="#242424"/>
</g>
<defs>
<clipPath id="clip0_976_846">
<rect width="20" height="19" fill="white" transform="translate(12 12.9492)"/>
</clipPath>
</defs>
</svg>
