<svg width="95" height="90" viewBox="0 0 95 90" fill="none" xmlns="http://www.w3.org/2000/svg">
<g filter="url(#filter0_d_1403_1696)">
<rect x="14" y="14" width="67" height="62" rx="13" fill="white"/>
</g>
<path fill-rule="evenodd" clip-rule="evenodd" d="M51.667 33.3607C47.429 32.9155 43.1581 32.8823 38.9138 33.2618L36.0798 33.5152C33.7378 33.7246 31.8456 35.5138 31.5054 37.8403C30.8315 42.4498 30.8315 47.1328 31.5054 51.7423C31.8456 54.0687 33.7378 55.8579 36.0798 56.0674L38.9138 56.3207C43.1581 56.7002 47.429 56.6672 51.667 56.2218L52.7558 56.1075C54.9849 55.8733 56.7883 54.2141 57.2225 52.0361L62.6815 54.9363C63.0796 55.1477 63.5571 55.1455 63.9532 54.9305C64.3494 54.7154 64.6111 54.316 64.6505 53.867L64.6951 53.3583C65.1948 47.658 65.1948 41.9246 64.6951 36.2242L64.6505 35.7156C64.6111 35.2666 64.3494 34.8672 63.9532 34.6521C63.5571 34.437 63.0796 34.4348 62.6815 34.6463L57.2225 37.5466C56.7883 35.3685 54.9849 33.7093 52.7558 33.4751L51.667 33.3607ZM39.1532 35.9386C43.2243 35.5746 47.3212 35.6064 51.3861 36.0335L52.4749 36.1479C53.5707 36.263 54.449 37.1064 54.6084 38.1967C55.2477 42.5698 55.2477 47.0128 54.6084 51.3859C54.449 52.4761 53.5707 53.3195 52.4749 53.4347L51.3861 53.549C47.3212 53.9761 43.2243 54.008 39.1532 53.6439L36.3191 53.3906C35.2161 53.2919 34.3248 52.4493 34.1647 51.3535C33.5284 47.0019 33.5284 42.5808 34.1647 38.2291C34.3248 37.1333 35.2161 36.2906 36.3191 36.192L39.1532 35.9386ZM57.5754 40.4023C57.842 43.3221 57.842 46.2603 57.5754 49.1804L62.1388 51.6047C62.4636 47.0682 62.4636 42.5143 62.1388 37.9778L57.5754 40.4023Z" fill="#E84025"/>
<defs>
<filter id="filter0_d_1403_1696" x="0" y="0" width="95" height="90" filterUnits="userSpaceOnUse" color-interpolation-filters="sRGB">
<feFlood flood-opacity="0" result="BackgroundImageFix"/>
<feColorMatrix in="SourceAlpha" type="matrix" values="0 0 0 0 0 0 0 0 0 0 0 0 0 0 0 0 0 0 127 0" result="hardAlpha"/>
<feOffset/>
<feGaussianBlur stdDeviation="7"/>
<feComposite in2="hardAlpha" operator="out"/>
<feColorMatrix type="matrix" values="0 0 0 0 0 0 0 0 0 0 0 0 0 0 0 0 0 0 0.09 0"/>
<feBlend mode="normal" in2="BackgroundImageFix" result="effect1_dropShadow_1403_1696"/>
<feBlend mode="normal" in="SourceGraphic" in2="effect1_dropShadow_1403_1696" result="shape"/>
</filter>
</defs>
</svg>
