<svg width="40" height="40" viewBox="0 0 40 40" fill="none" xmlns="http://www.w3.org/2000/svg">
<g clip-path="url(#clip0_1207_1471)">
<path d="M34.0539 20.7838L34.0539 20.7837C33.2121 19.9427 31.8433 19.9427 31.0015 20.7837L31.0015 20.7838L20.387 31.3983L20.3682 31.417L20.3612 31.4427L18.9055 36.7819L18.5663 37.121C18.2734 37.4139 18.2598 37.8784 18.5229 38.1884L18.4914 38.3142L18.6153 38.2816C18.7616 38.4062 18.9427 38.4697 19.1246 38.4697C19.3267 38.4697 19.529 38.3922 19.6829 38.2383L20.0227 37.8985L25.3613 36.4427L25.3869 36.4357L25.4057 36.4169L36.0195 25.8024C36.8613 24.9606 36.8613 23.5911 36.0195 22.7493L34.0539 20.7838ZM34.9024 24.685L34.9022 24.6851L33.0149 26.5724L30.2302 23.7883L32.1174 21.9011C32.3438 21.6746 32.7116 21.6752 32.9374 21.9005L34.9029 23.8659C35.1287 24.0917 35.1285 24.46 34.9024 24.685ZM22.1915 31.8276L29.1143 24.9049L31.899 27.6897L24.9763 34.6124L22.1915 31.8276ZM20.7368 36.0664L21.4785 33.3477L23.4555 35.3247L20.7368 36.0664Z" fill="#E84025" stroke="#E84025" stroke-width="0.2"/>
<path d="M25.2518 16.8268L25.2517 16.8267L17.6654 11.9991L17.6653 11.999C17.4222 11.8451 17.1144 11.8349 16.8611 11.973L16.8611 11.973L16.8607 11.9732C16.6089 12.1121 16.4518 12.3774 16.4518 12.6656V22.3208C16.4518 22.609 16.6089 22.8743 16.8615 23.0132L16.8617 23.0133C16.9801 23.078 17.1111 23.1104 17.2414 23.1104C17.3892 23.1104 17.5367 23.0686 17.6652 22.9874L17.6654 22.9872L25.2517 18.1596L25.2518 18.1595C25.4791 18.0143 25.6173 17.7633 25.6173 17.4932C25.6173 17.223 25.4791 16.972 25.2518 16.8268ZM18.0311 20.8827V14.1043L23.3565 17.4938L18.0311 20.8827Z" fill="#E84025" stroke="#E84025" stroke-width="0.2"/>
<path d="M39.3103 1.5311H32.4138H7.58621H0.689655C0.253802 1.5311 -0.1 1.88409 -0.1 2.32076V9.90697V17.4932V25.0794V32.6656C-0.1 33.1023 0.253802 33.4552 0.689655 33.4552H7.58621H15.8621C16.2979 33.4552 16.6517 33.1023 16.6517 32.6656C16.6517 32.2289 16.2979 31.8759 15.8621 31.8759H8.37586V25.0794V17.4932V9.90697V3.11041H31.6241V9.90697V17.4932C31.6241 17.9298 31.9779 18.2828 32.4138 18.2828H38.5207V23.7001C38.5207 24.1367 38.8745 24.4897 39.3103 24.4897C39.7462 24.4897 40.1 24.1367 40.1 23.7001V17.4932V9.90697V2.32076C40.1 1.88484 39.7463 1.5311 39.3103 1.5311ZM1.47931 18.2828H6.79655V24.2897H1.47931V18.2828ZM6.79655 16.7035H1.47931V10.6966H6.79655V16.7035ZM1.47931 31.8759V25.869H6.79655V31.8759H1.47931ZM6.79655 9.11731H1.47931V3.11041H6.79655V9.11731ZM38.5207 3.11041V9.11731H33.2034V3.11041H38.5207ZM33.2034 16.7035V10.6966H38.5207V16.7035H33.2034Z" fill="#E84025" stroke="#E84025" stroke-width="0.2"/>
</g>
<defs>
<clipPath id="clip0_1207_1471">
<rect width="40" height="40" fill="white"/>
</clipPath>
</defs>
</svg>
