<svg width="27" height="27" viewBox="0 0 27 27" fill="none" xmlns="http://www.w3.org/2000/svg">
<path d="M15.0422 8.92561C15.8946 8.07328 15.8946 6.69137 15.0422 5.83904C14.1899 4.9867 12.808 4.9867 11.9556 5.83904C11.1033 6.69137 11.1033 8.07328 11.9556 8.92561C12.808 9.77795 14.1899 9.77795 15.0422 8.92561Z" fill="white"/>
<path d="M19.8966 9.84153C15.6666 10.6233 11.3291 10.6233 7.09902 9.84153C7.01452 9.82494 6.92755 9.82538 6.84321 9.84284C6.75888 9.86031 6.67889 9.89443 6.60792 9.94322C6.53695 9.99201 6.47644 10.0545 6.42994 10.127C6.38344 10.1995 6.35188 10.2805 6.33712 10.3653C6.32107 10.4498 6.32192 10.5366 6.33961 10.6207C6.35731 10.7049 6.39149 10.7846 6.4402 10.8555C6.4889 10.9263 6.55116 10.9868 6.62337 11.0335C6.69558 11.0801 6.77632 11.112 6.86093 11.1272C8.29347 11.3908 9.7405 11.5683 11.1943 11.659C11.335 11.6687 11.4723 11.707 11.5978 11.7715C11.7232 11.836 11.8343 11.9253 11.9241 12.0341C12.0139 12.1429 12.0807 12.2688 12.1203 12.4042C12.16 12.5396 12.1716 12.6816 12.1546 12.8217L12.0276 13.913C11.8345 15.6307 11.4348 17.3188 10.8371 18.9407L10.0435 21.0638C9.98242 21.2264 9.98848 21.4065 10.0603 21.5647C10.1321 21.7228 10.2638 21.846 10.4264 21.907C10.589 21.968 10.7692 21.962 10.9273 21.8902C11.0855 21.8184 11.2086 21.6867 11.2697 21.5241V21.5241L11.4641 21.1272C12.099 19.7741 12.6903 18.3892 13.23 16.9884C13.2514 16.9331 13.289 16.8857 13.3378 16.8522C13.3867 16.8187 13.4446 16.8008 13.5038 16.8008C13.563 16.8008 13.6209 16.8187 13.6697 16.8522C13.7186 16.8857 13.7562 16.9331 13.7776 16.9884C14.3173 18.3892 14.9085 19.7661 15.5435 21.1312L15.7458 21.5638C15.7949 21.6796 15.8765 21.7787 15.9807 21.8491C16.085 21.9196 16.2074 21.9583 16.3331 21.9606C16.4106 21.9599 16.4872 21.9451 16.5593 21.9169C16.6412 21.8885 16.7165 21.8441 16.781 21.7862C16.8454 21.7283 16.8977 21.6581 16.9346 21.5797C16.9716 21.5014 16.9925 21.4164 16.9962 21.3299C16.9999 21.2433 16.9863 21.1569 16.9562 21.0757L16.1625 18.9526C15.5668 17.3301 15.1672 15.6422 14.972 13.9249L14.849 12.8257C14.8326 12.6861 14.8447 12.5447 14.8846 12.41C14.9245 12.2753 14.9914 12.1501 15.0813 12.0421C15.1711 11.9341 15.282 11.8455 15.4071 11.7817C15.5323 11.7178 15.6691 11.6802 15.8093 11.6709C17.2509 11.581 18.686 11.4061 20.107 11.1471C20.2644 11.1203 20.4076 11.0395 20.5119 10.9186C20.6162 10.7976 20.6751 10.6441 20.6784 10.4844C20.6785 10.3876 20.6571 10.292 20.6158 10.2044C20.5745 10.1169 20.5143 10.0396 20.4395 9.97814C20.3647 9.91666 20.2773 9.87252 20.1834 9.8489C20.0895 9.82528 19.9916 9.82276 19.8966 9.84153Z" fill="white"/>
<path opacity="0.85" d="M13.5 1C11.0277 1 8.61099 1.73311 6.55538 3.10663C4.49976 4.48015 2.89761 6.43238 1.95151 8.71646C1.00542 11.0005 0.757874 13.5139 1.24019 15.9386C1.7225 18.3634 2.91301 20.5907 4.66117 22.3388C6.40933 24.087 8.63661 25.2775 11.0614 25.7598C13.4861 26.2421 15.9995 25.9946 18.2835 25.0485C20.5676 24.1024 22.5199 22.5002 23.8934 20.4446C25.2669 18.389 26 15.9723 26 13.5C25.9969 10.1858 24.6789 7.00817 22.3354 4.66465C19.9918 2.32112 16.8142 1.00315 13.5 1V1ZM13.5 24.8095C11.2632 24.8095 9.07661 24.1462 7.21677 22.9035C5.35693 21.6608 3.90736 19.8945 3.05137 17.828C2.19538 15.7614 1.97141 13.4875 2.40779 11.2936C2.84417 9.09979 3.9213 7.08462 5.50296 5.50296C7.08463 3.92129 9.09979 2.84417 11.2936 2.40779C13.4875 1.9714 15.7614 2.19537 17.828 3.05136C19.8945 3.90735 21.6608 5.35692 22.9035 7.21676C24.1462 9.07661 24.8095 11.2632 24.8095 13.5C24.8053 16.4982 23.6124 19.3724 21.4924 21.4924C19.3724 23.6124 16.4982 24.8053 13.5 24.8095V24.8095Z" fill="white"/>
</svg>
