<svg width="39" height="39" viewBox="0 0 39 39" fill="none" xmlns="http://www.w3.org/2000/svg">
<path d="M38.7951 26.9184C33.0173 20.097 28.6749 10.5787 27.0192 0.687037C26.9714 0.401786 26.5591 -0.316197 25.7062 0.157762L11.2735 10.8681C11.0231 11.0536 10.8983 11.3641 10.9493 11.6712C11.1796 13.0461 11.7509 15.7175 11.7388 15.6993L0.297435 24.9604C-0.19093 25.3826 0.0373346 25.9597 0.176697 26.1307C5.2267 32.3169 13.5323 36.8807 23.5625 38.9821C23.6193 38.9943 23.6768 39 23.7328 39C23.9155 39 24.0919 38.9392 24.2354 38.8302L38.6598 28.126C38.9303 27.9692 39.1945 27.3899 38.7951 26.9184ZM2.00027 25.7174L12.2078 17.4548C12.2543 17.628 12.3004 17.8012 12.3483 17.9736C12.3515 17.9689 12.3551 17.9644 12.3584 17.9596C14.3219 24.9884 17.5277 31.5507 21.5608 36.8102C13.3904 34.6996 6.39373 30.7414 2.00027 25.7174ZM23.8644 37.0384C19.2348 31.4443 15.6118 24.0842 13.6029 16.1852C13.6023 16.1856 13.6017 16.1859 13.601 16.1862C13.2385 14.7693 12.9268 13.3372 12.6724 11.8966L25.6195 2.28847C27.4244 11.7888 31.4151 20.6 36.9619 27.3196L23.8644 37.0384Z" fill="#E84025"/>
</svg>
