<svg width="43" height="43" viewBox="0 0 43 43" fill="none" xmlns="http://www.w3.org/2000/svg">
<circle cx="21.0278" cy="21.0278" r="18.0278" fill="#028CB0"/>
<path d="M8.73836 21.0277C8.73836 25.8982 11.5713 30.0931 15.6682 32.0871L9.80616 16.0265C9.10225 17.5999 8.73839 19.3041 8.73836 21.0277ZM21.029 33.3183C22.4563 33.3183 23.8292 33.0677 25.1149 32.621L25.0278 32.4576L21.2469 22.1064L17.564 32.8171C18.6536 33.144 19.8195 33.3183 21.029 33.3183ZM22.7178 15.2638L27.1634 28.4805L28.3946 24.3837C28.9176 22.6839 29.3207 21.4636 29.3207 20.4067C29.3207 18.8812 28.776 17.8352 28.3183 17.0289C27.6864 16.0047 27.1089 15.1439 27.1089 14.1415C27.1089 13.0083 27.9588 11.9623 29.1791 11.9623H29.3316C27.067 9.88329 24.1032 8.73201 21.029 8.73713C18.9934 8.73676 16.9897 9.24241 15.198 10.2086C13.4064 11.1748 11.883 12.5712 10.765 14.2723L11.5495 14.2941C12.8352 14.2941 14.8183 14.1306 14.8183 14.1306C15.4938 14.0979 15.5701 15.0677 14.9054 15.1439C14.9054 15.1439 14.2408 15.2311 13.489 15.2638L17.9781 28.5786L20.6694 20.5156L18.7517 15.2638C18.3222 15.2401 17.8934 15.2038 17.466 15.1548C16.8013 15.1112 16.8776 14.0979 17.5423 14.1306C17.5423 14.1306 19.5689 14.2941 20.7783 14.2941C22.0641 14.2941 24.0471 14.1306 24.0471 14.1306C24.7118 14.0979 24.7989 15.0677 24.1343 15.1439C24.1343 15.1439 23.4696 15.2202 22.7178 15.2638ZM27.2069 31.6513C29.0663 30.5701 30.6093 29.02 31.682 27.1558C32.7546 25.2916 33.3193 23.1785 33.3195 21.0277C33.3195 18.8921 32.7748 16.8873 31.8159 15.133C32.0106 17.063 31.7184 19.011 30.966 20.7989L27.2069 31.6513ZM21.029 35.1924C17.2722 35.1924 13.6694 33.7001 11.013 31.0437C8.35661 28.3873 6.86426 24.7844 6.86426 21.0277C6.86426 17.271 8.35661 13.6682 11.013 11.0118C13.6694 8.35538 17.2722 6.86304 21.029 6.86304C24.7857 6.86304 28.3885 8.35538 31.0449 11.0118C33.7013 13.6682 35.1936 17.271 35.1936 21.0277C35.1936 24.7844 33.7013 28.3873 31.0449 31.0437C28.3885 33.7001 24.7857 35.1924 21.029 35.1924Z" fill="white"/>
</svg>
