<svg width="44" height="45" viewBox="0 0 44 45" fill="none" xmlns="http://www.w3.org/2000/svg">
<circle cx="21.9428" cy="22.5969" r="20.8976" stroke="#242424" stroke-width="1.5"/>
<path d="M30.5786 29.4914C30.155 28.239 29.5675 27.0481 28.8314 25.9499C27.3582 23.5528 27.557 23.9421 29.3303 19.7972C30.4135 17.2726 30.843 15.7313 30.7079 15.0724C30.5805 14.4441 29.7846 14.6098 29.7846 14.6098L27.1416 14.6366C27.0802 14.6249 27.017 14.6285 26.9573 14.6469C26.8977 14.6653 26.8435 14.6981 26.7994 14.7423C26.6909 14.8917 26.6117 15.0604 26.5662 15.2393C26.5662 15.2393 26.1475 17.1936 25.5887 18.8541C24.4112 22.3587 23.9397 22.5441 23.7472 22.3268C23.3012 21.8171 23.4121 20.2878 23.4121 19.2014C23.4121 15.8039 23.7058 14.388 22.8386 14.0217C22.4495 13.8542 22.0266 13.7803 21.6037 13.8057C20.66 13.7885 19.861 13.8114 19.4092 14.1988C19.1078 14.4569 18.8759 15.0329 19.018 15.066C19.194 15.1093 19.3569 15.1944 19.4928 15.3143C19.6287 15.4341 19.7336 15.585 19.7986 15.7542C19.9851 16.4376 20.0733 17.1442 20.0604 17.8525C20.0604 17.8525 20.2166 21.8508 19.6966 22.3479C19.3391 22.6888 18.8498 21.9936 17.7997 18.8121C17.2619 17.1841 16.8554 15.3821 16.8554 15.3821C16.8129 15.1994 16.7391 15.0254 16.6375 14.8679C16.5321 14.7352 16.3911 14.6355 16.2309 14.5805L13.7185 14.6072C13.6142 14.6129 13.5128 14.6438 13.4231 14.6971C13.3333 14.7505 13.2578 14.8248 13.203 14.9137C13.1358 15.1702 13.132 15.4392 13.1922 15.6975C13.1922 15.6975 15.1604 23.7656 17.3881 27.8334C19.4322 31.5623 21.7522 31.3176 21.7522 31.3176H22.8036C22.9046 31.2928 22.9994 31.2473 23.0819 31.1839C23.1644 31.1205 23.2328 31.0406 23.2827 30.9493C23.3824 30.6914 23.4313 30.4166 23.4267 30.1401C23.4267 30.1401 23.4057 27.6678 24.0639 27.3033C24.7094 26.9446 25.5384 29.6928 26.4171 30.7505C27.081 31.5502 27.5857 31.375 27.5857 31.375L29.935 31.317C29.935 31.317 31.1616 31.1851 30.5786 29.4914Z" fill="#242424"/>
</svg>
