<svg width="43" height="43" viewBox="0 0 43 43" fill="none" xmlns="http://www.w3.org/2000/svg">
<rect width="43" height="43" fill="#FF26BE"/>
<rect x="1.53613" y="1.53589" width="39.9286" height="39.9286" fill="#2E001F"/>
<path d="M22.3796 31.953L17.1483 21.4957L22.1444 11.0271C22.2385 10.8687 22.182 10.75 22.0314 10.75H19.0007C18.8192 10.75 18.7418 10.8727 18.6618 11.0073L15.1981 18.923L11.6402 10.9875C11.5649 10.8094 11.4896 10.7698 11.3014 10.7698H8.06354C7.95059 10.7698 7.83764 10.8885 7.95059 11.0468L12.9391 21.4957L7.73398 31.9728C7.63986 32.0915 7.65869 32.2499 7.84693 32.2499H10.953C11.1036 32.2499 11.1977 32.1905 11.2918 32.0322L14.9534 23.8308L18.5958 32.0124C18.6899 32.2103 18.7841 32.2499 18.9911 32.2499H22.2666C22.4172 32.2499 22.4737 32.1113 22.3796 31.953Z" fill="#FF26BE"/>
<path fill-rule="evenodd" clip-rule="evenodd" d="M30.8978 16.1718C26.2669 16.1718 23.3491 19.7735 23.3491 24.3845C23.3491 29.7672 26.2304 32.2697 30.3154 32.2499C31.8966 32.2499 33.5897 32.043 35.171 31.2514C35.2839 31.1921 35.3216 31.1525 35.3216 31.0337C35.2274 30.3015 35.2274 29.6287 35.2274 29.0944V10.9276C35.2274 10.8287 35.1898 10.7693 35.0392 10.7693H32.0649C31.9708 10.7693 31.8767 10.8485 31.8767 10.9672V16.2114C31.5002 16.1718 31.2931 16.1718 30.8978 16.1718ZM30.7848 19.1205C31.2366 19.1205 31.6131 19.1996 31.8767 19.3184V29.1142C31.519 29.2725 31.0296 29.3319 30.5778 29.3319C28.4506 29.3319 26.7564 27.8674 26.7564 24.2262C26.7564 21.0401 28.4129 19.1205 30.7848 19.1205Z" fill="#FF26BE"/>
</svg>
