<svg xmlns="http://www.w3.org/2000/svg" width="112" height="112" viewBox="0 0 112 112">
  <g id="Group_490" data-name="Group 490" transform="translate(-193 -5659)">
    <g id="Group_485" data-name="Group 485" transform="translate(66.555 5656.781)">
      <circle id="Ellipse_50" data-name="Ellipse 50" cx="56" cy="56" r="56" transform="translate(126.445 2.218)" fill="#3874cb"/>
    </g>
    <g id="Group_489" data-name="Group 489" transform="translate(220.344 5683.344)">
      <path id="Path_125" data-name="Path 125" d="M0,5H12.817V44.4H0Zm47.727.462c-.136-.043-.265-.09-.408-.129q-.258-.058-.519-.1A11.487,11.487,0,0,0,44.5,5c-7.472,0-12.211,5.434-13.773,7.533V5H17.91V44.4H30.727V22.91S40.412,9.42,44.5,19.328V44.4H57.313V17.813A12.781,12.781,0,0,0,47.727,5.462Z" transform="translate(0 12.91)" fill="#fff"/>
      <circle id="Ellipse_56" data-name="Ellipse 56" cx="6.269" cy="6.269" r="6.269" fill="#fff"/>
    </g>
  </g>
</svg>
