<svg xmlns="http://www.w3.org/2000/svg" width="112" height="112" viewBox="0 0 112 112">
  <g id="Group_485" data-name="Group 485" transform="translate(-126.445 -2.218)">
    <circle id="Ellipse_50" data-name="Ellipse 50" cx="56" cy="56" r="56" transform="translate(126.445 2.218)" fill="#3c5a9a"/>
    <path id="Path_126" data-name="Path 126" d="M24.03,12.275a11.115,11.115,0,0,0-10.26,6.84c-1.575,3.779-3.7,13.149-4.661,17.622A10.989,10.989,0,0,0,8.817,40c.286,3.2,1.278,4.73,2.2,5.515a6.925,6.925,0,0,0,4.61,1.321,6.894,6.894,0,0,0,5.846-3.24l5.983-9.572,7.954-13.257-1.855-3.091h0A11.115,11.115,0,0,0,24.03,12.275ZM39.658,13.7a18.391,18.391,0,0,0-32.6,2.621C5.162,20.859,2.9,31.006,2,35.21a18.146,18.146,0,0,0-.425,5.433c.4,4.509,1.961,8.055,4.746,10.417a14.091,14.091,0,0,0,9.315,3.047,14.17,14.17,0,0,0,12.016-6.66l6-9.6.035-.056,5.975-9.958,5.975,9.958.035.056,6,9.6a14.169,14.169,0,0,0,12.016,6.66,13.523,13.523,0,0,0,10.081-3.949c2.767-2.906,4.088-7.13,4.088-12.42,0-3.356-1.273-8.243-2.453-12.155-1.23-4.077-2.557-7.711-2.965-8.809-.095-.256-.209-.548-.347-.859A18.39,18.39,0,0,0,39.658,13.7ZM43.9,20.763,51.854,34.02l5.983,9.572a6.894,6.894,0,0,0,5.846,3.24A6.314,6.314,0,0,0,68.5,45.141c1.045-1.1,2.081-3.238,2.081-7.4,0-2.125-.926-6.021-2.143-10.054-1.167-3.868-2.435-7.342-2.819-8.377-.068-.182-.122-.319-.174-.436a11.115,11.115,0,0,0-19.686-1.2Z" transform="translate(142.762 28.666)" fill="#fff" fill-rule="evenodd"/>
  </g>
</svg>
