<svg xmlns="http://www.w3.org/2000/svg" width="112" height="112" viewBox="0 0 112 112">
  <g id="Group_485" data-name="Group 485" transform="translate(-126.445 -2.218)">
    <circle id="Ellipse_50" data-name="Ellipse 50" cx="56" cy="56" r="56" transform="translate(126.445 2.218)"/>
    <path id="Path_127" data-name="Path 127" d="M13.194,44.623a9.27,9.27,0,0,0,9.27,9.273A9.5,9.5,0,0,0,32.1,44.739L32.2,3h8.562A15.943,15.943,0,0,0,55.451,17.242v9.947q-.734.071-1.471.073a15.943,15.943,0,0,1-13.352-7.214V44.627A18.165,18.165,0,1,1,22.463,26.462c.379,0,.751.033,1.123.056v8.968a9.662,9.662,0,0,0-1.123-.113,9.27,9.27,0,0,0-9.27,9.25Z" transform="translate(152.949 24.88)" fill="#fff"/>
  </g>
</svg>
