<svg xmlns="http://www.w3.org/2000/svg" width="112" height="112" viewBox="0 0 112 112">
  <g id="Group_486" data-name="Group 486" transform="translate(-126.444 -2.718)">
    <circle id="Ellipse_51" data-name="Ellipse 51" cx="56" cy="56" r="56" transform="translate(126.444 2.718)" fill="#2daae1"/>
    <path id="Path_122" data-name="Path 122" d="M304.208,150.255a29.528,29.528,0,0,1-8.494,2.33,14.832,14.832,0,0,0,6.5-8.182,29.547,29.547,0,0,1-9.394,3.589,14.8,14.8,0,0,0-25.582,10.121,14.959,14.959,0,0,0,.381,3.371,41.993,41.993,0,0,1-30.483-15.452,14.8,14.8,0,0,0,4.576,19.744,14.722,14.722,0,0,1-6.7-1.849v.187a14.8,14.8,0,0,0,11.863,14.5,14.714,14.714,0,0,1-3.9.518,15.01,15.01,0,0,1-2.784-.26,14.808,14.808,0,0,0,13.814,10.27,29.78,29.78,0,0,1-21.9,6.122,41.854,41.854,0,0,0,22.671,6.648c27.2,0,42.079-22.536,42.079-42.079q0-.962-.045-1.913A30.135,30.135,0,0,0,304.208,150.255Z" transform="translate(-85.499 -114.118)" fill="#fff"/>
  </g>
</svg>
