<svg xmlns="http://www.w3.org/2000/svg" width="136.073" height="131.985" viewBox="0 0 136.073 131.985">
  <path id="_002-layers" data-name="002-layers" d="M112.163,53.124l23.91-13.661L68.038.825,0,39.463,23.91,53.124,0,66.7,23.91,80.362,0,93.939,68.038,132.81l68.035-38.871-23.91-13.577L136.073,66.7ZM68.038,6.52l58.029,32.955L68.038,72.632,10.006,39.476ZM28.909,55.979,68.038,78.334l39.129-22.355,18.9,10.734L68.038,99.869,10.006,66.714Zm97.158,37.972L68.038,127.107,10.006,93.951l18.9-10.734,39.129,22.355,39.129-22.355Z" transform="translate(0 -0.825)" fill="#24D29F"/>
</svg>
