<svg id="_003-film-editing" data-name="003-film-editing" xmlns="http://www.w3.org/2000/svg" width="123.154" height="114.812" viewBox="0 0 123.154 114.812">
  <path id="Path_63" data-name="Path 63" d="M95.868,59.012H16.352l4.664-4.184a2.019,2.019,0,0,0,.785-.7l5.686-5.1a2.029,2.029,0,0,0,.837-.751l5.643-5.046a2.023,2.023,0,0,0,.887-.8l5.582-5.009a2.019,2.019,0,0,0,.942-.842l5.529-4.962a2.023,2.023,0,0,0,.992-.888l5.48-4.918a2.008,2.008,0,0,0,1.043-.934L59.848,20a2.009,2.009,0,0,0,1.085-.98l8.1-7.266a1.8,1.8,0,0,0,0-2.741l-7.67-6.885A7.246,7.246,0,0,0,54.5.833a2.247,2.247,0,0,0-.394.016,2.142,2.142,0,0,0-1.127.675,5.845,5.845,0,0,0-.837.608L7.792,41.92a2.352,2.352,0,0,0-.2.182L1.9,47.207a5.4,5.4,0,0,0,0,8.22l7.162,6.424V109.47c0,3.216,2.915,5.822,6.511,5.822H91.527c3.6,0,6.511-2.606,6.511-5.822V60.953a2.065,2.065,0,0,0-2.17-1.941ZM79.629,72.6l4.65-9.7h3.959l-4.651,9.7Zm-8.68,0,4.65-9.7h3.959l-4.651,9.7Zm-8.681,0,4.651-9.7h3.958l-4.65,9.7Zm-8.68,0,4.651-9.7H62.2l-4.651,9.7Zm-26.041,0,4.65-9.7h3.959L31.5,72.6Zm-8.68,0,4.65-9.7h3.959l-4.651,9.7Zm-5.463,0v-9.7h5.391l-4.651,9.7Zm1-31.111L17.484,52.5l-2.93,2.631-3.08-11.017Zm6.51-5.836,3.08,11.012-2.93,2.628L17.982,38.278Zm6.511-5.838,3.08,11.013-2.931,2.628L24.5,32.44Zm6.51-5.838,3.08,11.013-2.93,2.628L31,26.6Zm6.511-5.836,3.08,11.011L40.6,31.778,37.519,20.767ZM46.958,12.3l3.079,11.013-2.93,2.628L44,14.929ZM40.876,62.893h3.957l-4.648,9.7H36.226Zm8.681,0h3.96l-4.65,9.7H44.9Zm43.4,0H93.7v9.7H88.309ZM64.434,10.38l-4.34,3.881L57.337,4.4a2.2,2.2,0,0,1,.951.466ZM53.444,6.466l3.078,11.015-2.93,2.628L50.512,9.094ZM4.974,49.947,7.9,47.323l2.98,10.66-5.9-5.3a1.8,1.8,0,0,1,0-2.741Zm86.553,61.465H15.573A2.065,2.065,0,0,1,13.4,109.47V76.479H93.7V109.47a2.065,2.065,0,0,1-2.171,1.941Zm0,0" transform="translate(-0.001 -0.481)" fill="#24D29F"/>
  <path id="Path_64" data-name="Path 64" d="M102.311,369.353l-21.529-8.971a1.794,1.794,0,0,0-2.484,1.656v17.94a1.794,1.794,0,0,0,2.484,1.656l21.529-8.971a1.794,1.794,0,0,0,0-3.311Zm-20.426,7.935V364.73l15.07,6.279Zm0,0" transform="translate(-58.386 -275.932)" fill="#24D29F"/>
  <path id="Path_65" data-name="Path 65" d="M241.739,351.711H216.622a1.794,1.794,0,1,0,0,3.588h25.117a1.794,1.794,0,1,0,0-3.588Zm0,0" transform="translate(-159.756 -271.621)" fill="#24D29F"/>
  <path id="Path_66" data-name="Path 66" d="M241.739,385.844H216.622a1.794,1.794,0,1,0,0,3.588h25.117a1.794,1.794,0,1,0,0-3.588Zm0,0" transform="translate(-159.756 -297.971)" fill="#24D29F"/>
  <path id="Path_67" data-name="Path 67" d="M241.739,419.977H216.622a1.794,1.794,0,1,0,0,3.588h25.117a1.794,1.794,0,1,0,0-3.588Zm0,0" transform="translate(-159.756 -323.106)" fill="#24D29F"/>
  <path id="Path_68" data-name="Path 68" d="M241.739,454.109H216.622a1.794,1.794,0,0,0,0,3.589h25.117a1.794,1.794,0,0,0,0-3.589Zm0,0" transform="translate(-159.756 -350.062)" fill="#24D29F"/>
  <path id="Path_69" data-name="Path 69" d="M148.357,18.91a1.794,1.794,0,0,0-1.794,1.794V22.5a1.794,1.794,0,1,0,3.588,0,1.794,1.794,0,1,0,0-3.588Zm0,0" transform="translate(-110.555 -15.036)" fill="#24D29F"/>
  <path id="Path_70" data-name="Path 70" d="M321.209,18.91H276.357a1.794,1.794,0,1,0,0,3.588h43.057v57.41H303.268a1.794,1.794,0,1,0,0,3.588h17.94A1.794,1.794,0,0,0,323,81.7v-61a1.794,1.794,0,0,0-1.795-1.794Zm0,0" transform="translate(-199.849 -15.035)" fill="#24D29F"/>
  <path id="Path_71" data-name="Path 71" d="M146.563,182.837v8.971a1.794,1.794,0,0,0,3.588,0v-8.971a1.794,1.794,0,1,0-3.588,0Zm0,0" transform="translate(-110.646 -139.562)" fill="#24D29F"/>
  <path id="Path_72" data-name="Path 72" d="M209.4,54.837a1.794,1.794,0,0,0-1.795-1.794h-5.382a1.794,1.794,0,1,0,0,3.588h3.588V72.778H182.489a1.794,1.794,0,1,0,0,3.588h25.117a1.794,1.794,0,0,0,1.794-1.794Zm0,0" transform="translate(-134.373 -41.992)" fill="#24D29F"/>
  <path id="Path_73" data-name="Path 73" d="M336.09,76.366h25.117A1.794,1.794,0,0,0,363,74.573V54.838a1.794,1.794,0,0,0-1.794-1.794H336.09a1.794,1.794,0,0,0-1.794,1.794V74.573A1.794,1.794,0,0,0,336.09,76.366Zm1.794-19.735h21.528V72.778H337.885Zm0,0" transform="translate(-247.025 -41.993)" fill="#24D29F"/>
  <path id="Path_74" data-name="Path 74" d="M207.606,193.6a1.794,1.794,0,0,0,1.794-1.794v-8.971a1.794,1.794,0,0,0-1.794-1.794H182.489a1.794,1.794,0,0,0-1.794,1.794v8.971a1.794,1.794,0,0,0,3.588,0v-7.177h21.529v7.177a1.794,1.794,0,0,0,1.794,1.794Zm0,0" transform="translate(-134.373 -139.562)" fill="#24D29F"/>
  <path id="Path_75" data-name="Path 75" d="M334.3,191.808a1.794,1.794,0,0,0,3.588,0v-7.177h21.528v16.147h-8.97a1.794,1.794,0,1,0,0,3.588h10.764A1.794,1.794,0,0,0,363,202.572V182.837a1.794,1.794,0,0,0-1.794-1.794H336.09a1.794,1.794,0,0,0-1.794,1.794Zm0,0" transform="translate(-247.024 -139.105)" fill="#24D29F"/>
</svg>
