<svg id="_006-film" data-name="006-film" xmlns="http://www.w3.org/2000/svg" width="143.434" height="121.607" viewBox="0 0 143.434 121.607">
  <g id="Group_22" data-name="Group 22" transform="translate(0 0)">
    <path id="Path_62" data-name="Path 62" d="M0,76.557v36.327c0,8.506,7.829,14.734,16.333,14.734H90.788c8.506,0,14.518-6.229,14.518-14.734V112.4l27.416,13.619a2.75,2.75,0,0,0,1.411.39c5.343,0,9.3-4.35,9.3-9.9V69.494c0-5.552-3.731-9.9-9.075-9.9a2.756,2.756,0,0,0-1.4.387l-27.134,13.7a15.373,15.373,0,0,0-14.367-12.51A30.522,30.522,0,1,0,44.22,27.7,23.111,23.111,0,0,0,4.7,43.994a22.682,22.682,0,0,0,7.66,17.555C5.547,63.149,0,69.262,0,76.557Zm134.576-9.6a2.523,2.523,0,0,1,1.6,2.54V116.5a2.528,2.528,0,0,1-1.592,2.544l-29.273-14.786v-22.6ZM48.553,53.517a28.427,28.427,0,0,0,6.809,6.923H43.312A21.681,21.681,0,0,0,48.553,53.517Zm1.612-16.945a23.415,23.415,0,1,1,.7,5.563,22.912,22.912,0,0,0-.6-3.677C50.211,37.833,50.166,37.207,50.166,36.572ZM27.834,28.131A15.885,15.885,0,0,1,43.056,39.562a30.349,30.349,0,0,0,.6,3.678c.011.252.038.5.038.755A15.866,15.866,0,1,1,27.834,28.131Zm70.21,84.062a8.163,8.163,0,0,1-8.163,8.163H15.426a8.163,8.163,0,0,1-8.163-8.163V75.865A8.163,8.163,0,0,1,15.426,67.7H89.881a8.163,8.163,0,0,1,8.163,8.163v36.327Z" transform="translate(0 -6.011)" fill="#24D29F"/>
  </g>
</svg>
