<svg id="_007-feature" data-name="007-feature" xmlns="http://www.w3.org/2000/svg" width="140.764" height="131.38" viewBox="0 0 140.764 131.38">
  <path id="Path_48" data-name="Path 48" d="M9.384,112.862h4.692v-4.692H9.384a4.692,4.692,0,0,1-4.692-4.692V9.634A4.692,4.692,0,0,1,9.384,4.942H112.612A4.692,4.692,0,0,1,117.3,9.634v4.692H122V9.634A9.385,9.385,0,0,0,112.612.25H9.384A9.385,9.385,0,0,0,0,9.634v93.843A9.385,9.385,0,0,0,9.384,112.862Zm0,0" transform="translate(0 -0.25)" fill="#24D29F"/>
  <path id="Path_49" data-name="Path 49" d="M62.5,62.75h4.692v4.692H62.5Zm0,0" transform="translate(-53.116 -53.366)" fill="#24D29F"/>
  <path id="Path_50" data-name="Path 50" d="M125,62.75h4.692v4.692H125Zm0,0" transform="translate(-106.231 -53.366)" fill="#24D29F"/>
  <path id="Path_51" data-name="Path 51" d="M187.5,62.75h4.692v4.692H187.5Zm0,0" transform="translate(-159.347 -53.366)" fill="#24D29F"/>
  <path id="Path_52" data-name="Path 52" d="M125,228.477a9.385,9.385,0,0,0,9.384,9.384H237.612A9.385,9.385,0,0,0,247,228.477V134.634a9.385,9.385,0,0,0-9.384-9.384H134.384A9.385,9.385,0,0,0,125,134.634Zm4.692-93.843a4.692,4.692,0,0,1,4.692-4.692H237.612a4.692,4.692,0,0,1,4.692,4.692v93.843a4.692,4.692,0,0,1-4.692,4.692H134.384a4.692,4.692,0,0,1-4.692-4.692Zm0,0" transform="translate(-106.231 -106.481)" fill="#24D29F"/>
  <path id="Path_53" data-name="Path 53" d="M187.5,187.75h4.692v4.692H187.5Zm0,0" transform="translate(-159.347 -159.597)" fill="#24D29F"/>
  <path id="Path_54" data-name="Path 54" d="M250,187.75h4.692v4.692H250Zm0,0" transform="translate(-212.463 -159.597)" fill="#24D29F"/>
  <path id="Path_55" data-name="Path 55" d="M312.5,187.75h4.692v4.692H312.5Zm0,0" transform="translate(-265.579 -159.597)" fill="#24D29F"/>
  <path id="Path_56" data-name="Path 56" d="M187.5,250.25H290.727v4.692H187.5Zm0,0" transform="translate(-159.347 -212.713)" fill="#24D29F"/>
  <path id="Path_57" data-name="Path 57" d="M187.5,328.375h18.769v4.692H187.5Zm0,0" transform="translate(-159.347 -279.107)" fill="#24D29F"/>
  <path id="Path_58" data-name="Path 58" d="M187.5,390.875h14.076v4.692H187.5Zm0,0" transform="translate(-159.347 -332.223)" fill="#24D29F"/>
  <path id="Path_59" data-name="Path 59" d="M438.3,453.375A16.423,16.423,0,1,0,454.72,469.8,16.422,16.422,0,0,0,438.3,453.375Zm0,28.153a11.73,11.73,0,1,1,11.73-11.73A11.731,11.731,0,0,1,438.3,481.528Zm0,0" transform="translate(-358.531 -385.339)" fill="#24D29F"/>
  <path id="Path_60" data-name="Path 60" d="M356.324,343.249a2.346,2.346,0,0,0-2.346-2.346h-6.2a29.815,29.815,0,0,0-1.856-4.481l4.385-4.382a2.348,2.348,0,0,0,0-3.318l-9.954-9.955a2.348,2.348,0,0,0-3.318,0l-4.382,4.383a30.334,30.334,0,0,0-4.481-1.854v-6.2a2.345,2.345,0,0,0-2.346-2.346H311.749A2.345,2.345,0,0,0,309.4,315.1v6.2a30.333,30.333,0,0,0-4.481,1.854l-4.382-4.383a2.349,2.349,0,0,0-3.318,0l-9.954,9.955a2.348,2.348,0,0,0,0,3.318l4.382,4.382c-.2.384-.385.77-.563,1.159a30.361,30.361,0,0,0-1.29,3.322h-6.2a2.345,2.345,0,0,0-2.346,2.346v14.076a2.346,2.346,0,0,0,2.346,2.346h6.2a29.858,29.858,0,0,0,1.856,4.481l-4.385,4.382a2.348,2.348,0,0,0,0,3.318l9.954,9.954a2.349,2.349,0,0,0,3.318,0l4.382-4.383a30.362,30.362,0,0,0,4.481,1.853v6.2a2.345,2.345,0,0,0,2.346,2.346h14.076a2.345,2.345,0,0,0,2.346-2.346v-6.2a30.363,30.363,0,0,0,4.481-1.853l4.382,4.383a2.348,2.348,0,0,0,3.318,0l9.954-9.954a2.348,2.348,0,0,0,0-3.318l-4.385-4.382a29.82,29.82,0,0,0,1.856-4.481h6.2a2.346,2.346,0,0,0,2.346-2.346Zm-4.692,11.73h-5.616a2.346,2.346,0,0,0-2.271,1.76A25.653,25.653,0,0,1,341,363.374a2.347,2.347,0,0,0,.361,2.851l3.967,3.969-6.635,6.638-3.969-3.969a2.347,2.347,0,0,0-2.852-.361,25.625,25.625,0,0,1-6.633,2.745,2.346,2.346,0,0,0-1.76,2.271v5.617H314.1v-5.617a2.346,2.346,0,0,0-1.759-2.271A25.624,25.624,0,0,1,305.7,372.5a2.347,2.347,0,0,0-2.852.361l-3.969,3.969-6.635-6.638,3.967-3.969a2.347,2.347,0,0,0,.361-2.851,25.649,25.649,0,0,1-2.745-6.634,2.346,2.346,0,0,0-2.271-1.76h-5.616V345.6h5.616a2.346,2.346,0,0,0,2.271-1.76,25.473,25.473,0,0,1,1.525-4.3,25.927,25.927,0,0,1,1.219-2.346,2.348,2.348,0,0,0-.361-2.849l-3.967-3.969,6.635-6.638,3.969,3.971a2.346,2.346,0,0,0,2.852.36,25.654,25.654,0,0,1,6.633-2.745,2.346,2.346,0,0,0,1.759-2.27v-5.608h9.384v5.617a2.346,2.346,0,0,0,1.76,2.271,25.628,25.628,0,0,1,6.633,2.745,2.346,2.346,0,0,0,2.852-.361l3.969-3.969,6.635,6.638-3.967,3.969A2.347,2.347,0,0,0,341,337.2a25.656,25.656,0,0,1,2.745,6.635,2.346,2.346,0,0,0,2.271,1.76h5.616Zm0,0" transform="translate(-239.021 -265.829)" fill="#24D29F"/>
  <path id="Path_61" data-name="Path 61" d="M781.25,781.5h14.076v4.692H781.25Zm0,0" transform="translate(-663.946 -664.196)" fill="#24D29F"/>
</svg>
