<svg id="_008-digital-marketing" data-name="008-digital-marketing" xmlns="http://www.w3.org/2000/svg" width="129.28" height="129.28" viewBox="0 0 129.28 129.28">
  <g id="Group_3" data-name="Group 3" transform="translate(59.161 108.539)">
    <g id="Group_2" data-name="Group 2">
      <path id="Path_38" data-name="Path 38" d="M238.611,430.6a2.524,2.524,0,1,0,.74,1.785A2.545,2.545,0,0,0,238.611,430.6Z" transform="translate(-234.301 -429.859)" fill="#24D29F"/>
    </g>
  </g>
  <g id="Group_5" data-name="Group 5" transform="translate(0 64.882)">
    <g id="Group_4" data-name="Group 4">
      <path id="Path_39" data-name="Path 39" d="M75.494,278.062V259.483a2.525,2.525,0,0,0-3.468-2.342L28.517,274.663H14.5a14.5,14.5,0,0,0,0,29h1.669v15.163a2.525,2.525,0,0,0,2.525,2.525H29.005a2.525,2.525,0,0,0,2.525-2.525V304.886l40.5,16.288a2.525,2.525,0,0,0,3.467-2.342V300.252a11.378,11.378,0,0,0,0-22.19ZM26.48,316.306H21.222V303.667H26.48v12.638Zm0-17.688H14.5a9.452,9.452,0,1,1,0-18.9H26.481Zm43.964,16.476h0L31.531,299.443v-20.55l27.63-11.128v25.058a2.525,2.525,0,0,0,5.05,0V265.731l6.232-2.51Zm5.05-20.133V283.353a6.328,6.328,0,0,1,0,11.607Z" transform="translate(-0.001 -256.958)" fill="#24D29F"/>
    </g>
  </g>
  <g id="Group_7" data-name="Group 7" transform="translate(91.615 94.63)">
    <g id="Group_6" data-name="Group 6">
      <path id="Path_40" data-name="Path 40" d="M379.656,374.775h-14.3a2.525,2.525,0,1,0,0,5.05h14.3a2.525,2.525,0,0,0,0-5.05Z" transform="translate(-362.835 -374.775)" fill="#24D29F"/>
    </g>
  </g>
  <g id="Group_9" data-name="Group 9" transform="translate(87.47 75.389)">
    <g id="Group_8" data-name="Group 8">
      <path id="Path_41" data-name="Path 41" d="M355.66,299.309a2.526,2.526,0,0,0-3.571,0l-4.931,4.931a2.525,2.525,0,1,0,3.571,3.571l4.931-4.931A2.525,2.525,0,0,0,355.66,299.309Z" transform="translate(-346.418 -298.57)" fill="#24D29F"/>
    </g>
  </g>
  <g id="Group_11" data-name="Group 11" transform="translate(87.491 108.54)">
    <g id="Group_10" data-name="Group 10">
      <path id="Path_42" data-name="Path 42" d="M355.906,435.7l-5.1-5.1a2.525,2.525,0,0,0-3.571,3.571l5.1,5.1a2.525,2.525,0,0,0,3.571-3.571Z" transform="translate(-346.499 -429.864)" fill="#24D29F"/>
    </g>
  </g>
  <g id="Group_13" data-name="Group 13" transform="translate(13.635)">
    <g id="Group_12" data-name="Group 12">
      <path id="Path_43" data-name="Path 43" d="M159.546,0H112.581a10.111,10.111,0,0,0-10.1,10.1v1.01H60.061A6.067,6.067,0,0,0,54,17.17V57.065a6.067,6.067,0,0,0,6.06,6.06H62.67v7.743a2.525,2.525,0,0,0,4.31,1.785l9.529-9.529h50.156a6.067,6.067,0,0,0,6.06-6.06V49.49h26.82a10.111,10.111,0,0,0,10.1-10.1V10.1A10.112,10.112,0,0,0,159.546,0Zm-31.87,57.065a1.011,1.011,0,0,1-1.01,1.01h-51.2a2.525,2.525,0,0,0-1.785.74L67.72,64.772V60.6A2.525,2.525,0,0,0,65.2,58.075H60.061a1.011,1.011,0,0,1-1.01-1.01V17.17a1.011,1.011,0,0,1,1.01-1.01h42.42V39.39a10.111,10.111,0,0,0,10.1,10.1h15.094ZM164.6,39.39a5.056,5.056,0,0,1-5.05,5.05H112.581a5.056,5.056,0,0,1-5.05-5.05V10.1a5.056,5.056,0,0,1,5.05-5.05h46.965a5.056,5.056,0,0,1,5.05,5.05Z" transform="translate(-54.001)" fill="#24D29F"/>
    </g>
  </g>
  <g id="Group_15" data-name="Group 15" transform="translate(84.773 12.243)">
    <g id="Group_14" data-name="Group 14">
      <path id="Path_44" data-name="Path 44" d="M356.8,58.8l-17.281-9.977a2.525,2.525,0,0,0-3.787,2.187V70.965a2.525,2.525,0,0,0,3.787,2.187L356.8,63.174a2.525,2.525,0,0,0,0-4.373Zm-16.018,7.79V55.384l9.706,5.6Z" transform="translate(-335.736 -48.486)" fill="#24D29F"/>
    </g>
  </g>
  <g id="Group_17" data-name="Group 17" transform="translate(26.389 26.512)">
    <g id="Group_16" data-name="Group 16">
      <path id="Path_45" data-name="Path 45" d="M132.287,105h-25.25a2.525,2.525,0,1,0,0,5.05h25.25a2.525,2.525,0,1,0,0-5.05Z" transform="translate(-104.512 -105)" fill="#24D29F"/>
    </g>
  </g>
  <g id="Group_19" data-name="Group 19" transform="translate(51.639 40.652)">
    <g id="Group_18" data-name="Group 18">
      <path id="Path_46" data-name="Path 46" d="M208.821,161.74a2.523,2.523,0,1,0,.74,1.785A2.543,2.543,0,0,0,208.821,161.74Z" transform="translate(-204.511 -161)" fill="#24D29F"/>
    </g>
  </g>
  <g id="Group_21" data-name="Group 21" transform="translate(26.389 40.652)">
    <g id="Group_20" data-name="Group 20">
      <path id="Path_47" data-name="Path 47" d="M122.815,161H107.037a2.525,2.525,0,1,0,0,5.05h15.778a2.525,2.525,0,0,0,0-5.05Z" transform="translate(-104.512 -161)" fill="#24D29F"/>
    </g>
  </g>
</svg>
