<svg width="192" height="57" viewBox="0 0 192 57" fill="none" xmlns="http://www.w3.org/2000/svg">
<path d="M184.889 56.8945H7.11111C3.20178 56.8945 0 53.7428 0 49.8945V7.89453C0 4.04628 3.20178 0.894532 7.11111 0.894532H184.889C188.798 0.894532 192 4.04628 192 7.89453V49.8945C192 53.7428 188.798 56.8945 184.889 56.8945Z" fill="black"/>
<path d="M184.889 2.01628C188.181 2.01628 190.86 4.65353 190.86 7.89453V49.8945C190.86 53.1355 188.181 55.7728 184.889 55.7728H7.11111C3.81867 55.7728 1.13956 53.1355 1.13956 49.8945V7.89453C1.13956 4.65353 3.81867 2.01628 7.11111 2.01628H184.889ZM184.889 0.894532H7.11111C3.20178 0.894532 0 4.04628 0 7.89453V49.8945C0 53.7428 3.20178 56.8945 7.11111 56.8945H184.889C188.798 56.8945 192 53.7428 192 49.8945V7.89453C192 4.04628 188.798 0.894532 184.889 0.894532Z" fill="#A6A6A6"/>
<path d="M14.841 11.4494C14.4232 11.8799 14.1814 12.5501 14.1814 13.4181V44.3791C14.1814 45.2471 14.4232 45.9174 14.841 46.3479L14.9441 46.4424L32.5689 29.0999V28.6904L14.9441 11.3479L14.841 11.4494Z" fill="url(#paint0_linear_1023_34)"/>
<path d="M38.4373 34.8828L32.5688 29.0991V28.6896L38.4444 22.9058L38.576 22.9811L45.5342 26.8783C47.52 27.9843 47.52 29.8043 45.5342 30.9173L38.576 34.8076L38.4373 34.8828Z" fill="url(#paint1_linear_1023_34)"/>
<path d="M38.5759 34.808L32.5688 28.8947L14.8408 46.3475C15.5004 47.03 16.5759 47.1122 17.799 46.4297L38.5759 34.808Z" fill="url(#paint2_linear_1023_34)"/>
<path d="M38.5759 22.9813L17.799 11.3595C16.5759 10.684 15.5004 10.7663 14.8408 11.4488L32.5688 28.8945L38.5759 22.9813Z" fill="url(#paint3_linear_1023_34)"/>
<path d="M67.4383 15.2351C67.4383 16.4041 67.0827 17.3404 66.3823 18.0386C65.5769 18.8664 64.5281 19.2829 63.2427 19.2829C62.0143 19.2829 60.9654 18.8594 60.1049 18.0246C59.2427 17.1776 58.8125 16.1381 58.8125 14.8939C58.8125 13.6496 59.2427 12.6101 60.1049 11.7701C60.9654 10.9284 62.0143 10.5049 63.2427 10.5049C63.8543 10.5049 64.4374 10.6291 64.9938 10.8601C65.5485 11.0929 66.0001 11.4079 66.3272 11.7964L65.5841 12.5349C65.0134 11.8716 64.2365 11.5444 63.2427 11.5444C62.3467 11.5444 61.5698 11.8524 60.9103 12.4736C60.2578 13.0966 59.9307 13.9034 59.9307 14.8939C59.9307 15.8844 60.2578 16.6981 60.9103 17.3211C61.5698 17.9354 62.3467 18.2504 63.2427 18.2504C64.1938 18.2504 64.9938 17.9354 65.6249 17.3141C66.0409 16.9029 66.2774 16.3359 66.3396 15.6114H63.2427V14.5999H67.3743C67.4241 14.8186 67.4383 15.0304 67.4383 15.2351Z" fill="white" stroke="white" stroke-width="0.16" stroke-miterlimit="10"/>
<path d="M73.993 11.728H70.1121V14.388H73.6108V15.3995H70.1121V18.0595H73.993V19.0903H69.0134V10.6973H73.993V11.728Z" fill="white" stroke="white" stroke-width="0.16" stroke-miterlimit="10"/>
<path d="M78.6188 19.0903H77.5201V11.728H75.1396V10.6973H81.001V11.728H78.6188V19.0903Z" fill="white" stroke="white" stroke-width="0.16" stroke-miterlimit="10"/>
<path d="M85.2427 19.0903V10.6973H86.3396V19.0903H85.2427Z" fill="white" stroke="white" stroke-width="0.16" stroke-miterlimit="10"/>
<path d="M91.2018 19.0903H90.112V11.728H87.7227V10.6973H93.5911V11.728H91.2018V19.0903Z" fill="white" stroke="white" stroke-width="0.16" stroke-miterlimit="10"/>
<path d="M104.688 18.0106C103.847 18.8594 102.805 19.2829 101.563 19.2829C100.313 19.2829 99.2711 18.8594 98.4302 18.0106C97.5911 17.1636 97.1733 16.1241 97.1733 14.8939C97.1733 13.6636 97.5911 12.6241 98.4302 11.7771C99.2711 10.9284 100.313 10.5049 101.563 10.5049C102.798 10.5049 103.84 10.9284 104.681 11.7841C105.527 12.6381 105.945 13.6706 105.945 14.8939C105.945 16.1241 105.527 17.1636 104.688 18.0106ZM99.2427 17.3071C99.8756 17.9354 100.645 18.2504 101.563 18.2504C102.473 18.2504 103.25 17.9354 103.876 17.3071C104.507 16.6789 104.827 15.8721 104.827 14.8939C104.827 13.9156 104.507 13.1089 103.876 12.4806C103.25 11.8524 102.473 11.5374 101.563 11.5374C100.645 11.5374 99.8756 11.8524 99.2427 12.4806C98.6116 13.1089 98.2916 13.9156 98.2916 14.8939C98.2916 15.8721 98.6116 16.6789 99.2427 17.3071Z" fill="white" stroke="white" stroke-width="0.16" stroke-miterlimit="10"/>
<path d="M107.486 19.0903V10.6973H108.82L112.965 17.2248H113.013L112.965 15.6113V10.6973H114.062V19.0903H112.917L108.576 12.2408H108.528L108.576 13.8613V19.0903H107.486Z" fill="white" stroke="white" stroke-width="0.16" stroke-miterlimit="10"/>
<path d="M96.903 31.3485C93.5626 31.3485 90.8337 33.851 90.8337 37.3038C90.8337 40.7285 93.5626 43.2573 96.903 43.2573C100.251 43.2573 102.979 40.7285 102.979 37.3038C102.979 33.851 100.251 31.3485 96.903 31.3485ZM96.903 40.9123C95.0701 40.9123 93.4932 39.423 93.4932 37.3038C93.4932 35.1565 95.0701 33.6935 96.903 33.6935C98.7359 33.6935 100.32 35.1565 100.32 37.3038C100.32 39.423 98.7359 40.9123 96.903 40.9123ZM83.6603 31.3485C80.3128 31.3485 77.591 33.851 77.591 37.3038C77.591 40.7285 80.3128 43.2573 83.6603 43.2573C87.0061 43.2573 89.7297 40.7285 89.7297 37.3038C89.7297 33.851 87.0061 31.3485 83.6603 31.3485ZM83.6603 40.9123C81.8257 40.9123 80.2435 39.423 80.2435 37.3038C80.2435 35.1565 81.8257 33.6935 83.6603 33.6935C85.4932 33.6935 87.0701 35.1565 87.0701 37.3038C87.0701 39.423 85.4932 40.9123 83.6603 40.9123ZM67.9021 33.1738V35.7043H74.0408C73.8612 37.1183 73.3812 38.1578 72.6452 38.8823C71.7492 39.7573 70.3537 40.7285 67.9021 40.7285C64.1244 40.7285 61.1661 37.7273 61.1661 34.0085C61.1661 30.2898 64.1244 27.2885 67.9021 27.2885C69.9448 27.2885 71.431 28.0743 72.5279 29.0928L74.3395 27.3095C72.8052 25.8675 70.7644 24.7598 67.9021 24.7598C62.7217 24.7598 58.3679 28.909 58.3679 34.0085C58.3679 39.108 62.7217 43.2573 67.9021 43.2573C70.7021 43.2573 72.8052 42.3543 74.4586 40.6603C76.1528 38.9925 76.6808 36.6475 76.6808 34.754C76.6808 34.166 76.631 33.6253 76.5421 33.1738H67.9021ZM132.339 35.1355C131.84 33.8038 130.299 31.3485 127.159 31.3485C124.048 31.3485 121.458 33.7618 121.458 37.3038C121.458 40.6393 124.021 43.2573 127.458 43.2573C130.236 43.2573 131.84 41.5895 132.499 40.6183L130.437 39.2655C129.749 40.256 128.812 40.9123 127.458 40.9123C126.112 40.9123 125.147 40.305 124.528 39.108L132.619 35.8128L132.339 35.1355ZM124.091 37.1183C124.021 34.8223 125.902 33.6463 127.25 33.6463C128.306 33.6463 129.202 34.166 129.5 34.9098L124.091 37.1183ZM117.515 42.895H120.174V25.395H117.515V42.895ZM113.159 32.675H113.07C112.473 31.9785 111.333 31.3485 109.89 31.3485C106.86 31.3485 104.091 33.9665 104.091 37.323C104.091 40.6603 106.86 43.2573 109.89 43.2573C111.333 43.2573 112.473 42.622 113.07 41.9045H113.159V42.7585C113.159 45.0353 111.923 46.2585 109.931 46.2585C108.306 46.2585 107.298 45.1035 106.882 44.1323L104.569 45.0825C105.235 46.661 107.001 48.6035 109.931 48.6035C113.049 48.6035 115.68 46.7975 115.68 42.4033V31.7108H113.159V32.675ZM110.117 40.9123C108.284 40.9123 106.75 39.402 106.75 37.323C106.75 35.2248 108.284 33.6935 110.117 33.6935C111.923 33.6935 113.347 35.2248 113.347 37.323C113.347 39.402 111.923 40.9123 110.117 40.9123ZM144.791 25.395H138.43V42.895H141.083V36.2643H144.791C147.737 36.2643 150.626 34.166 150.626 30.8288C150.626 27.4933 147.73 25.395 144.791 25.395ZM144.86 33.83H141.083V27.8293H144.86C146.841 27.8293 147.971 29.448 147.971 30.8288C147.971 32.1833 146.841 33.83 144.86 33.83ZM161.257 31.3153C159.34 31.3153 157.347 32.1483 156.528 33.9945L158.882 34.9658C159.388 33.9945 160.32 33.6795 161.305 33.6795C162.681 33.6795 164.076 34.4933 164.098 35.93V36.1138C163.618 35.8408 162.59 35.4365 161.326 35.4365C158.791 35.4365 156.208 36.8103 156.208 39.374C156.208 41.719 158.284 43.2293 160.619 43.2293C162.403 43.2293 163.388 42.4365 164.007 41.5143H164.098V42.867H166.659V36.154C166.659 33.0513 164.306 31.3153 161.257 31.3153ZM160.937 40.9053C160.069 40.9053 158.86 40.4818 158.86 39.423C158.86 38.0685 160.368 37.5488 161.673 37.5488C162.841 37.5488 163.388 37.8025 164.098 38.1368C163.89 39.7573 162.473 40.9053 160.937 40.9053ZM175.993 31.6985L172.944 39.2848H172.853L169.701 31.6985H166.841L171.577 42.3L168.875 48.1993H171.646L178.944 31.6985H175.993ZM152.083 42.895H154.743V25.395H152.083V42.895Z" fill="white"/>
<defs>
<linearGradient id="paint0_linear_1023_34" x1="31.0041" y1="44.7016" x2="7.51162" y2="20.8362" gradientUnits="userSpaceOnUse">
<stop stop-color="#00A0FF"/>
<stop offset="0.0066" stop-color="#00A1FF"/>
<stop offset="0.2601" stop-color="#00BEFF"/>
<stop offset="0.5122" stop-color="#00D2FF"/>
<stop offset="0.7604" stop-color="#00DFFF"/>
<stop offset="1" stop-color="#00E3FF"/>
</linearGradient>
<linearGradient id="paint1_linear_1023_34" x1="48.12" y1="28.8924" x2="13.7066" y2="28.8924" gradientUnits="userSpaceOnUse">
<stop stop-color="#FFE000"/>
<stop offset="0.4087" stop-color="#FFBD00"/>
<stop offset="0.7754" stop-color="#FFA500"/>
<stop offset="1" stop-color="#FF9C00"/>
</linearGradient>
<linearGradient id="paint2_linear_1023_34" x1="35.3094" y1="25.6802" x2="3.45178" y2="-6.68314" gradientUnits="userSpaceOnUse">
<stop stop-color="#FF3A44"/>
<stop offset="1" stop-color="#C31162"/>
</linearGradient>
<linearGradient id="paint3_linear_1023_34" x1="10.3783" y1="56.6479" x2="24.6042" y2="42.1963" gradientUnits="userSpaceOnUse">
<stop stop-color="#32A071"/>
<stop offset="0.0685" stop-color="#2DA771"/>
<stop offset="0.4762" stop-color="#15CF74"/>
<stop offset="0.8009" stop-color="#06E775"/>
<stop offset="1" stop-color="#00F076"/>
</linearGradient>
</defs>
</svg>
