<svg xmlns="http://www.w3.org/2000/svg" xmlns:xlink="http://www.w3.org/1999/xlink" width="108" height="108" viewBox="0 0 108 108">
  <defs>
    <linearGradient id="linear-gradient" x1="0.5" x2="0.5" y2="1.289" gradientUnits="objectBoundingBox">
      <stop offset="0" stop-color="#4da676"/>
      <stop offset="1" stop-color="#f3fbf2"/>
    </linearGradient>
    <linearGradient id="linear-gradient-2" x1="0.5" x2="0.5" y2="1.34" gradientUnits="objectBoundingBox">
      <stop offset="0" stop-color="#85c284"/>
      <stop offset="1" stop-color="#85c284" stop-opacity="0"/>
    </linearGradient>
    <linearGradient id="linear-gradient-9" x1="0.5" x2="0.5" y2="1" gradientUnits="objectBoundingBox">
      <stop offset="0" stop-color="#e84025"/>
      <stop offset="1" stop-color="#b46154"/>
    </linearGradient>
    <linearGradient id="linear-gradient-10" x1="0.5" x2="0.5" y2="1" gradientUnits="objectBoundingBox">
      <stop offset="0" stop-color="#ffd18c"/>
      <stop offset="1" stop-color="#f4b75b"/>
    </linearGradient>
    <linearGradient id="linear-gradient-11" x1="0.5" x2="0.5" y2="1" gradientUnits="objectBoundingBox">
      <stop offset="0" stop-color="#e84025"/>
      <stop offset="1" stop-color="#c7351d"/>
    </linearGradient>
    <linearGradient id="linear-gradient-12" x1="0.5" x2="0.5" y2="1" gradientUnits="objectBoundingBox">
      <stop offset="0" stop-color="#e84025"/>
      <stop offset="1" stop-color="#dd442c"/>
    </linearGradient>
  </defs>
  <g id="illustration" transform="translate(-113 -214)">
    <path id="Vector" d="M108,54A54,54,0,1,1,54,0,54,54,0,0,1,108,54Z" transform="translate(113 214)" opacity="0.2" fill="url(#linear-gradient)"/>
    <path id="Vector-2" data-name="Vector" d="M5.927,2.634A2.813,2.813,0,0,1,2.963,5.268,2.813,2.813,0,0,1,0,2.634,2.813,2.813,0,0,1,2.963,0,2.813,2.813,0,0,1,5.927,2.634Z" transform="translate(122.423 262.564)" opacity="0.2" fill="url(#linear-gradient-2)"/>
    <path id="Vector-3" data-name="Vector" d="M7.9,3.951A3.951,3.951,0,1,1,3.951,0,3.951,3.951,0,0,1,7.9,3.951Z" transform="translate(195.631 232.121)" opacity="0.2" fill="url(#linear-gradient-2)"/>
    <path id="Vector-4" data-name="Vector" d="M6.585,3.293A3.293,3.293,0,1,1,3.293,0,3.293,3.293,0,0,1,6.585,3.293Z" transform="translate(142.718 295.181)" opacity="0.2" fill="url(#linear-gradient-2)"/>
    <path id="Vector-5" data-name="Vector" d="M3.951,1.976A1.976,1.976,0,1,1,1.976,0,1.976,1.976,0,0,1,3.951,1.976Z" transform="translate(177.537 298.293)" opacity="0.2" fill="url(#linear-gradient-2)"/>
    <path id="Vector-6" data-name="Vector" d="M74.314,17.139l.046-.211a1.967,1.967,0,0,0-.244-1.5,2,2,0,0,0-1.241-.887L10.89.055a2.013,2.013,0,0,0-1.514.24,1.985,1.985,0,0,0-.9,1.233l-.053.229L.1,36.869l-.046.215a1.967,1.967,0,0,0,.244,1.5,2,2,0,0,0,1.241.887l.21.049H1.77L63.287,53.9l.217.046a2.01,2.01,0,0,0,1.51-.242,1.981,1.981,0,0,0,.894-1.231l.053-.229L74.3,17.132Z" transform="translate(128.146 239.024)" fill="#4da676"/>
    <path id="Vector-7" data-name="Vector" d="M66.458,16.92l-.05.208a2.163,2.163,0,0,0-.415-1.842L29,27,1.217.265a2.25,2.25,0,0,0-.78.609A2.2,2.2,0,0,0,0,1.755l.054-.229A1.988,1.988,0,0,1,.959.295,2.048,2.048,0,0,1,2.485.054L64.958,14.536a2.028,2.028,0,0,1,.716.32,1.993,1.993,0,0,1,.537.566,1.952,1.952,0,0,1,.247,1.5Z" transform="translate(137.366 239.024)" fill="#42946c"/>
    <path id="Vector-8" data-name="Vector" d="M73.946,15.084a2.2,2.2,0,0,1,.412,1.851v.021l-8.344,35.28-.053.23a2,2,0,0,1-2.409,1.48l-.213-.046-.009,0-.009,0L1.77,39.443l-.227-.053a1.988,1.988,0,0,1-1.489-2.4l.05-.216L8.448,1.5A2.232,2.232,0,0,1,9.656,0" transform="translate(129.463 239.683)" fill="#42946c"/>
    <path id="Vector-9" data-name="Vector" d="M36.878,26.552.465,38.2a2.175,2.175,0,0,1-.409-1.837L8.332,1.48A2.208,2.208,0,0,1,9.53,0Z" transform="translate(129.463 239.683)" fill="#4da676"/>
    <path id="Vector-10" data-name="Vector" d="M37.479,1.862v.021L29.057,37.355a2.228,2.228,0,0,1-1.22,1.5L0,11.838,37.063,0a2.2,2.2,0,0,1,.416,1.862Z" transform="translate(166.341 254.171)" fill="#4da676"/>
    <path id="Vector-11" data-name="Vector" d="M36.857,0,0,11.736a2.211,2.211,0,0,0,1.266.8l61.779,14.4a2.238,2.238,0,0,0,1.491-.162Z" transform="translate(129.463 266.024)" fill="#42946c"/>
    <path id="Vector-12" data-name="Vector" d="M0,0,25.79,27.777a2.766,2.766,0,0,0,1.4.8,2.829,2.829,0,0,0,1.619-.107L64.537,15.077" transform="translate(138.683 239.354)" fill="#42946c"/>
    <path id="Vector-13" data-name="Vector" d="M17.122,8.232a8.4,8.4,0,0,1-8.561,8.232A8.4,8.4,0,0,1,0,8.232,8.4,8.4,0,0,1,8.561,0,8.4,8.4,0,0,1,17.122,8.232Z" transform="translate(157.78 258.122)" fill="#c6e9c6"/>
    <path id="Vector-14" data-name="Vector" d="M17.122,7.9c0,4.364-3.833,7.9-8.561,7.9S0,12.267,0,7.9,3.833,0,8.561,0,17.122,3.538,17.122,7.9Z" transform="translate(158.439 258.78)" fill="#fff"/>
    <path id="Vector-15" data-name="Vector" d="M5.855,14.95a7.58,7.58,0,1,1,5.711-.944,7.573,7.573,0,0,1-5.711.944Zm3.4-14.5A7.343,7.343,0,1,0,13.8,3.723,7.321,7.321,0,0,0,9.253.449Z" transform="translate(159.098 258.78)" fill="#4da676"/>
    <path id="Union" d="M2.613,5.92a.845.845,0,0,1-.281-.01v.014a.8.8,0,0,1-.307-.138.748.748,0,0,1-.217-.245L.084,2.375A.7.7,0,0,1,0,2.1.683.683,0,0,1,.04,1.818.7.7,0,0,1,.191,1.57a.778.778,0,0,1,.242-.175.834.834,0,0,1,.3-.076.846.846,0,0,1,.305.035.808.808,0,0,1,.267.14.75.75,0,0,1,.189.224l1.342,2.46L8.756.111A.723.723,0,0,1,9.3.018a.739.739,0,0,1,.455.32.775.775,0,0,1,.112.555.763.763,0,0,1-.294.48L3.11,5.807a.736.736,0,0,1-.273.109.715.715,0,0,1-.123.011A.706.706,0,0,1,2.613,5.92Z" transform="translate(162.39 264.049)" fill="#42946c"/>
    <path id="Vector-16" data-name="Vector" d="M7.9,3.951A3.951,3.951,0,1,1,3.951,0,3.951,3.951,0,0,1,7.9,3.951Z" transform="translate(141.317 225.518)" opacity="0.2" fill="url(#linear-gradient-2)"/>
    <path id="Vector-17" data-name="Vector" d="M5.927,2.963A2.963,2.963,0,1,1,2.963,0,2.963,2.963,0,0,1,5.927,2.963Z" transform="translate(207.175 273.927)" opacity="0.2" fill="url(#linear-gradient-2)"/>
    <path id="Vector-18" data-name="Vector" d="M6.585,3.293A3.293,3.293,0,1,1,3.293,0,3.293,3.293,0,0,1,6.585,3.293Z" transform="translate(171.711 234.295)" opacity="0.2" fill="url(#linear-gradient-2)"/>
    <path id="Vector-19" data-name="Vector" d="M25.767,2.763A24.773,24.773,0,0,1,14.238.172,1.744,1.744,0,0,0,12.47.324,24.74,24.74,0,0,1,1.532,4.818a1.735,1.735,0,0,0-1.148.629A1.714,1.714,0,0,0,.008,6.695c.434,4.5,2.731,16.485,14.9,23.37a1.744,1.744,0,0,0,1.965-.167C27.7,21.06,27.918,8.88,27.575,4.354A1.721,1.721,0,0,0,27,3.195,1.742,1.742,0,0,0,25.767,2.763Z" transform="translate(176.878 274.585)" fill="#791e10"/>
    <path id="Vector-20" data-name="Vector" d="M25.158,2.766A23.807,23.807,0,0,1,13.9.175a1.658,1.658,0,0,0-1.726.149A23.853,23.853,0,0,1,1.5,4.821a1.686,1.686,0,0,0-1.121.627A1.746,1.746,0,0,0,.007,6.694c.424,4.5,2.666,16.484,14.545,23.372a1.68,1.68,0,0,0,1.922-.167C27.037,21.062,27.251,8.861,26.92,4.357A1.733,1.733,0,0,0,26.356,3.2a1.672,1.672,0,0,0-1.2-.432Z" transform="translate(177.537 273.927)" fill="url(#linear-gradient-9)"/>
    <path id="Vector-21" data-name="Vector" d="M22.075,2.4A20.956,20.956,0,0,1,12.193.151a1.473,1.473,0,0,0-1.519.133A21.116,21.116,0,0,1,1.312,4.191a1.48,1.48,0,0,0-.984.547A1.5,1.5,0,0,0,.007,5.823c.357,3.91,2.339,14.334,12.77,20.321A1.484,1.484,0,0,0,14.464,26c9.269-7.688,9.465-18.294,9.173-22.212a1.5,1.5,0,0,0-.5-1.013A1.479,1.479,0,0,0,22.075,2.4Z" transform="translate(179.512 275.902)" fill="url(#linear-gradient-10)"/>
    <path id="Vector-22" data-name="Vector" d="M13.171,6.585A6.585,6.585,0,1,1,6.585,0,6.585,6.585,0,0,1,13.171,6.585Z" transform="translate(185.439 281.171)" fill="#ffd18c"/>
    <path id="Vector-23" data-name="Vector" d="M7.49,14.463a6.656,6.656,0,0,1-3.924-.881,7.1,7.1,0,0,1-2.8-3.016A7.542,7.542,0,0,1,.044,6.43,7.42,7.42,0,0,1,1.632,2.57,6.893,6.893,0,0,1,5,.283,6.615,6.615,0,0,1,9.014.342,6.918,6.918,0,0,1,12.32,2.725a7.5,7.5,0,0,1-.125,9.19A6.829,6.829,0,0,1,7.49,14.463ZM6.4,1.015a5.818,5.818,0,0,0-3.212,1.35,6.264,6.264,0,0,0-1.956,2.99A6.532,6.532,0,0,0,1.187,8.98a6.282,6.282,0,0,0,1.887,3.039,5.831,5.831,0,0,0,3.18,1.43,5.732,5.732,0,0,0,3.4-.66,6.1,6.1,0,0,0,2.48-2.528,6.51,6.51,0,0,0,.077-5.892A6.207,6.207,0,0,0,10.756,2.46,5.891,5.891,0,0,0,8.713,1.282,5.709,5.709,0,0,0,6.4,1.015Z" transform="translate(185.439 280.512)" fill="url(#linear-gradient-11)"/>
    <path id="Vector-24" data-name="Vector" d="M0,0V4.61" transform="translate(192.024 286.439)" fill="#6d6d6d"/>
    <path id="Union-2" data-name="Union" d="M1.932,7.053a.8.8,0,0,1-.378-.56L1.192,3.158A1.669,1.669,0,0,1,0,1.646,1.834,1.834,0,0,1,1.976,0,1.834,1.834,0,0,1,3.951,1.646a1.541,1.541,0,0,1-.665,1.232l.36,3.458a.725.725,0,0,1-.239.6,1.168,1.168,0,0,1-.708.3q-.047,0-.094,0A1.237,1.237,0,0,1,1.932,7.053Z" transform="translate(190.049 284.464)" fill="url(#linear-gradient-12)"/>
  </g>
</svg>
