<svg xmlns="http://www.w3.org/2000/svg" width="54.25" height="54.25" viewBox="0 0 54.25 54.25">
  <g id="Employee" transform="translate(-0.875 -0.875)">
    <path id="Vector" d="M11.375,0A11.375,11.375,0,0,0,0,11.375v1.75H7.148A9.013,9.013,0,0,0,14.875,8.75,9.013,9.013,0,0,0,22.6,13.125h.148v-1.75A11.375,11.375,0,0,0,11.375,0Z" transform="translate(16.625 6.125)" fill="#f4b2b0"/>
    <path id="Vector-2" data-name="Vector" d="M4.375,4.375A4.38,4.38,0,0,0,7.467,3.092,4.38,4.38,0,0,0,8.75,0H7a2.625,2.625,0,0,1-.769,1.856,2.625,2.625,0,0,1-1.856.769,2.625,2.625,0,0,1-1.856-.769A2.625,2.625,0,0,1,1.75,0H0A4.38,4.38,0,0,0,1.283,3.092,4.38,4.38,0,0,0,4.375,4.375Z" transform="translate(23.625 27.125)" fill="#e2434e"/>
    <path id="Vector-3" data-name="Vector" d="M27.125,0A27.156,27.156,0,1,0,46.3,7.954,27.125,27.125,0,0,0,27.125,0Zm12.25,21.875v-2.58a2.181,2.181,0,0,1-.135,4.3,12.241,12.241,0,0,0,.135-1.719Zm-1.75-4.423a8.173,8.173,0,0,1-6.25-3.9.91.91,0,0,0-1.5,0A8.178,8.178,0,0,1,22.9,17.5H16.625v-.875a10.5,10.5,0,0,1,21,0ZM15.01,23.594a2.181,2.181,0,0,1-.135-4.3v2.58A12.241,12.241,0,0,0,15.01,23.594Zm1.615-4.344H22.9a9.949,9.949,0,0,0,7.727-3.721,9.958,9.958,0,0,0,7,3.694v2.652a10.5,10.5,0,1,1-21,0ZM42.875,47a25.4,25.4,0,0,1-3.5,2.34V43.75h-1.75v6.466A25.2,25.2,0,0,1,28,52.478V39.916l3.984,2a.875.875,0,0,0,1.225-.507l2.381-7.144a8.758,8.758,0,0,1,7.285,8.613ZM29.632,34.125l-2.507,3.008-2.507-3.008Zm2.232,5.766L28.5,38.211l3.406-4.086h1.875ZM22.34,34.125l3.406,4.086-3.359,1.68-1.921-5.766Zm-3.675.132L21.046,41.4a.875.875,0,0,0,1.225.507l3.98-1.992V52.478a25.2,25.2,0,0,1-9.625-2.262V43.75h-1.75v5.588a25.4,25.4,0,0,1-3.5-2.34V42.875a8.758,8.758,0,0,1,7.289-8.618Zm25.96,11.217v-2.6a10.511,10.511,0,0,0-10.5-10.5H33.4a12.289,12.289,0,0,0,5.456-7h.079a3.927,3.927,0,0,0,.438-7.83v-.92a12.25,12.25,0,0,0-24.5,0v.92a3.927,3.927,0,0,0,.438,7.83h.079a12.289,12.289,0,0,0,5.457,7h-.723a10.511,10.511,0,0,0-10.5,10.5v2.6a25.375,25.375,0,1,1,35,0Z" transform="translate(0.875 0.875)" fill="#e2434e"/>
  </g>
</svg>
