<svg width="23" height="15" viewBox="0 0 23 15" fill="none" xmlns="http://www.w3.org/2000/svg">
<path fill-rule="evenodd" clip-rule="evenodd" d="M22.7321 14.0672V0.00488281H0.268066V14.0672H22.7321Z" fill="#224B8C"/>
<path fill-rule="evenodd" clip-rule="evenodd" d="M11.9024 1.75977L12.0248 2.14106H12.3982L12.1007 2.38674L12.2091 2.76959L11.8993 2.54174L11.5895 2.76959L11.6979 2.38751L11.3997 2.14184H11.7738L11.9024 1.75977ZM7.87438 4.27464L7.99677 4.65594H8.37013L8.07191 4.90161L8.18035 5.28447L7.8705 5.05661L7.56066 5.28447L7.6691 4.90161L7.3794 4.65284H7.75276L7.87438 4.27464ZM7.98825 8.83396L8.11064 9.21526H8.484L8.18655 9.46016L8.295 9.84224L7.98515 9.61439L7.6753 9.84224L7.78375 9.46016L7.48552 9.21526H7.85889L7.98825 8.83396ZM9.5189 2.41541L9.64129 2.79671H10.0154L9.7172 3.04239L9.82565 3.42524L9.5158 3.19739L9.20595 3.42524L9.3144 3.04239L9.01617 2.79671H9.38954L9.5189 2.41541ZM9.5189 10.5963L9.64129 10.9776H10.0154L9.7172 11.2233L9.82565 11.6061L9.5158 11.3783L9.20595 11.6061L9.3144 11.2233L9.01617 10.9776H9.38954L9.5189 10.5963ZM15.9049 4.27464L15.7825 4.65594H15.4122L15.7104 4.90161L15.602 5.28447L15.9118 5.05661L16.2217 5.28447L16.1132 4.90161L16.4115 4.65594H16.0319L15.9049 4.27464ZM15.9049 8.82544L15.7825 9.20674H15.4122L15.7104 9.45241L15.602 9.83449L15.9118 9.60664L16.2217 9.83526L16.1132 9.45241L16.4115 9.20674H16.0319L15.9049 8.82544ZM14.2603 2.41541L14.138 2.79671H13.7646L14.062 3.04239L13.9536 3.42524L14.2634 3.19739L14.5733 3.42524L14.4648 3.04239L14.7631 2.79671H14.3897L14.2603 2.41541ZM14.2603 10.5219L14.138 10.9032H13.7646L14.062 11.1489L13.9536 11.5317L14.2634 11.3031L14.5733 11.5317L14.4648 11.1489L14.7631 10.9032H14.3897L14.2603 10.5219ZM11.9009 11.3031L12.0232 11.6844H12.3966L12.0992 11.9301L12.2076 12.3122L11.8978 12.0843L11.5879 12.3122L11.6964 11.9301L11.3981 11.6844H11.7723L11.9009 11.3031ZM16.3418 6.48416L16.4641 6.86546H16.8375L16.5401 7.11037L16.6485 7.49322L16.3387 7.26537L16.0288 7.49322L16.1373 7.11037L15.8398 6.86469H16.2132L16.3418 6.48416ZM7.44292 6.48416L7.56531 6.86546H7.93945L7.64122 7.11037L7.74967 7.49322L7.43982 7.26537L7.12997 7.49322L7.23842 7.11037L6.94019 6.86469H7.31433L7.44292 6.48416Z" fill="#F2CA30"/>
</svg>
