<svg xmlns="http://www.w3.org/2000/svg" width="54.25" height="54.25" viewBox="0 0 54.25 54.25">
  <g id="Graphic_Designer" data-name="Graphic Designer" transform="translate(-0.875 -0.875)">
    <path id="Vector" d="M0,3.5A3.5,3.5,0,0,0,3.5,7H40.25a3.5,3.5,0,0,0,3.5-3.5V0H0Z" transform="translate(1.75 35)" fill="#db3c23"/>
    <path id="Vector-2" data-name="Vector" d="M0,0H10.5V7H0Z" transform="translate(18.375 42)" fill="#db3c23"/>
    <path id="Vector-3" data-name="Vector" d="M3.5,0H19.25a3.5,3.5,0,0,1,3.5,3.5V5.25H0V3.5A3.5,3.5,0,0,1,3.5,0Z" transform="translate(12.25 49)" fill="#db3c23"/>
    <path id="Vector-4" data-name="Vector" d="M49.875,0H16.625A4.38,4.38,0,0,0,12.25,4.375V7H4.375A4.38,4.38,0,0,0,0,11.375v26.25A4.38,4.38,0,0,0,4.375,42h12.25v5.25h-1.75A4.38,4.38,0,0,0,10.5,51.625v1.75a.875.875,0,0,0,.875.875h22.75A.875.875,0,0,0,35,53.375v-1.75a4.38,4.38,0,0,0-4.375-4.375h-1.75V42h12.25A4.38,4.38,0,0,0,45.5,37.625V31.5h4.375a4.38,4.38,0,0,0,4.375-4.375V4.375A4.38,4.38,0,0,0,49.875,0ZM16.625,1.75h33.25A2.625,2.625,0,0,1,52.5,4.375V5.25H14V4.375A2.625,2.625,0,0,1,16.625,1.75ZM33.25,51.625V52.5h-21v-.875A2.625,2.625,0,0,1,14.875,49h15.75a2.625,2.625,0,0,1,2.625,2.625ZM27.125,47.25h-8.75V42h8.75Zm14-7H4.375A2.625,2.625,0,0,1,1.75,37.625V35h42v2.625a2.625,2.625,0,0,1-2.625,2.625Zm2.625-7h-42V11.375A2.625,2.625,0,0,1,4.375,8.75H12.25V27.125A4.38,4.38,0,0,0,16.625,31.5H43.75Zm6.125-3.5H16.625A2.625,2.625,0,0,1,14,27.125V7H52.5V27.125a2.625,2.625,0,0,1-2.625,2.625Z" transform="translate(0.875 0.875)" fill="#db3c23"/>
    <path id="Vector-5" data-name="Vector" d="M0,0H1.75V1.75H0Z" transform="translate(41.125 37.625)" fill="#db3c23"/>
    <path id="Vector-6" data-name="Vector" d="M0,0H1.75V1.75H0Z" transform="translate(37.625 37.625)" fill="#db3c23"/>
    <path id="Vector-7" data-name="Vector" d="M0,0H1.75V1.75H0Z" transform="translate(34.125 37.625)" fill="#db3c23"/>
    <path id="Vector-8" data-name="Vector" d="M34.125,0H.875A.875.875,0,0,0,0,.875v17.5a.875.875,0,0,0,.875.875h33.25A.875.875,0,0,0,35,18.375V.875A.875.875,0,0,0,34.125,0ZM7,15.75h3.5V14H7V12.25H8.75V10.5H7V8.75H8.75V7H7V5.25h5.25V17.5H7Zm13.212-5.4a1.417,1.417,0,0,1-.633.15h-.669a1.417,1.417,0,0,1-.633-.15h0A1.406,1.406,0,0,1,17.5,9.084a1.075,1.075,0,0,1,.6-.968,2.075,2.075,0,0,0,1.138-1.641L20.4,7.638A2.032,2.032,0,0,1,21,9.084a1.407,1.407,0,0,1-.783,1.266Zm-1.837,1.838a3.133,3.133,0,0,0,.541.063h.668a3.133,3.133,0,0,0,.541-.064V17.5h-1.75ZM26.25,10.5H28v7H26.25Zm.339-1.75.536-1.608.536,1.608ZM33.25,17.5h-3.5V9.625a.875.875,0,0,0-.045-.276L27.955,4.1a.875.875,0,0,0-1.663,0l-1.75,5.25a.875.875,0,0,0-.043.276V17.5H21.875V11.262a3.143,3.143,0,0,0,.875-2.178A3.773,3.773,0,0,0,21.639,6.4L18.994,3.756a.875.875,0,0,0-1.494.619V6.253a.332.332,0,0,1-.186.3A2.817,2.817,0,0,0,15.75,9.082a3.15,3.15,0,0,0,.875,2.18V17.5H14V4.375a.875.875,0,0,0-.875-.875h-7a.875.875,0,0,0-.875.875V17.5H1.75V1.75h31.5Z" transform="translate(16.625 9.625)" fill="#db3c23"/>
  </g>
</svg>
