<svg xmlns="http://www.w3.org/2000/svg" xmlns:xlink="http://www.w3.org/1999/xlink" width="36.29" height="29.032" viewBox="0 0 36.29 29.032">
  <defs>
    <linearGradient id="linear-gradient" x1="0.5" x2="0.5" y2="1" gradientUnits="objectBoundingBox">
      <stop offset="0" stop-color="#4da676"/>
      <stop offset="1" stop-color="#42946c"/>
    </linearGradient>
    <filter id="Icon_material-email" x="0" y="0" width="36.29" height="29.032" filterUnits="userSpaceOnUse">
      <feOffset input="SourceAlpha"/>
      <feGaussianBlur stdDeviation="3" result="blur"/>
      <feFlood flood-opacity="0.161" result="color"/>
      <feComposite operator="out" in="SourceGraphic" in2="blur"/>
      <feComposite operator="in" in="color"/>
      <feComposite operator="in" in2="SourceGraphic"/>
    </filter>
  </defs>
  <g data-type="innerShadowGroup">
    <path id="Icon_material-email-2" data-name="Icon material-email" d="M35.661,6H6.629A3.624,3.624,0,0,0,3.018,9.629L3,31.4a3.64,3.64,0,0,0,3.629,3.629H35.661A3.64,3.64,0,0,0,39.29,31.4V9.629A3.64,3.64,0,0,0,35.661,6Zm0,7.258L21.145,22.33,6.629,13.258V9.629L21.145,18.7,35.661,9.629Z" transform="translate(-3 -6)" fill="url(#linear-gradient)"/>
    <g transform="matrix(1, 0, 0, 1, 0, 0)" filter="url(#Icon_material-email)">
      <path id="Icon_material-email-3" data-name="Icon material-email" d="M35.661,6H6.629A3.624,3.624,0,0,0,3.018,9.629L3,31.4a3.64,3.64,0,0,0,3.629,3.629H35.661A3.64,3.64,0,0,0,39.29,31.4V9.629A3.64,3.64,0,0,0,35.661,6Zm0,7.258L21.145,22.33,6.629,13.258V9.629L21.145,18.7,35.661,9.629Z" transform="translate(-3 -6)" fill="#fff"/>
    </g>
  </g>
</svg>
