<svg xmlns="http://www.w3.org/2000/svg" width="54.25" height="54.25" viewBox="0 0 54.25 54.25">
  <g id="Marketer_People" data-name="Marketer People" transform="translate(-0.875 -0.875)">
    <path id="Vector" d="M14,7A7,7,0,1,1,7,0,7,7,0,0,1,14,7Z" transform="translate(40.25 40.25)" fill="#f4b2b0"/>
    <path id="Vector-2" data-name="Vector" d="M14,7A7,7,0,1,1,7,0,7,7,0,0,1,14,7Z" transform="translate(40.25 22.75)" fill="#f4b2b0"/>
    <path id="Vector-3" data-name="Vector" d="M43.183,11.32a.875.875,0,0,0,.311-1.439L41.469,7.857a3.95,3.95,0,0,0-5.576-5.575L33.869.257A.875.875,0,0,0,32.43.568l-2.625,7,.01,0L27.568,9.82A4.478,4.478,0,0,0,31.5,17.426V19.25h-.875a.875.875,0,0,0-.875.875V28H21V26.234a8.8,8.8,0,0,0,2.764-3.483h1.173a3.055,3.055,0,0,0,.438-6.08V14.876a9.625,9.625,0,0,0-19.25,0V16.67a3.055,3.055,0,0,0,.438,6.08H7.736A8.8,8.8,0,0,0,10.5,26.234V28H8.75A8.76,8.76,0,0,0,0,36.75V49a.875.875,0,0,0,.875.875H28A.875.875,0,0,0,28.875,49V36.75h3.5a4.38,4.38,0,0,0,4.375-4.375V13.732ZM40.069,3.682a2.215,2.215,0,0,1,.163,2.938l-3.1-3.1a2.215,2.215,0,0,1,2.938.163ZM33.594,2.457l7.7,7.7-5.108,1.919L31.675,7.565ZM28.8,14.946a2.753,2.753,0,0,1,0-3.889L30.75,9.113,34.638,13l-1.944,1.945a2.753,2.753,0,0,1-3.888,0Zm4.445,1.793a4.471,4.471,0,0,0,.681-.556L35,15.113V19.25H33.25ZM10.965,29.75l3.406,4.086-3.359,1.68L9.089,29.75Zm9.571,0h1.876l-1.925,5.766-3.359-1.68ZM26.25,19.688A1.313,1.313,0,0,1,24.938,21h-.613a8.735,8.735,0,0,0,.175-1.75v-.875h.438a1.313,1.313,0,0,1,1.313,1.313ZM6.563,21a1.313,1.313,0,0,1,0-2.625H7v.875A8.735,8.735,0,0,0,7.175,21Zm1.313-6.125a7.875,7.875,0,0,1,15.75,0v1.75h-5.25a4.4,4.4,0,0,1-3.5-1.75l-1.05-1.4a.908.908,0,0,0-1.4,0l-1.05,1.4a4.4,4.4,0,0,1-3.5,1.75ZM8.75,19.25v-.939a6.161,6.161,0,0,0,4.025-2.386l.35-.467.35.466a6.154,6.154,0,0,0,4.9,2.451H22.75v.875a7,7,0,1,1-14,0Zm7,8.75a8.688,8.688,0,0,0,3.5-.736v1.294l-3.5,4.2-3.5-4.2V27.265a8.688,8.688,0,0,0,3.5.736ZM35,32.375A2.625,2.625,0,0,1,32.375,35h-3.5V33.25h-1.75V48.125H7V40.25H5.25v7.875H1.75V36.75A7.011,7.011,0,0,1,7.3,29.9L9.67,37.027a.875.875,0,0,0,1.221.507L15.75,35.1l4.859,2.434a.875.875,0,0,0,1.221-.507l2.425-7.281h6.37a.875.875,0,0,0,.875-.875V21H35Z" transform="translate(0.875 5.249)" fill="#db3c23"/>
    <path id="Vector-4" data-name="Vector" d="M0,0H3.713V1.75H0Z" transform="translate(44.006 4.631) rotate(-45)" fill="#e2434e"/>
    <path id="Vector-5" data-name="Vector" d="M0,0H1.75V3.5H0Z" transform="translate(41.125 0.875)" fill="#e2434e"/>
    <path id="Vector-6" data-name="Vector" d="M0,0H3.5V1.75H0Z" transform="translate(45.5 7)" fill="#e2434e"/>
    <path id="Vector-7" data-name="Vector" d="M3.5,0H1.75V1.75H.875A.875.875,0,0,0,.256,3.244L2.263,5.25H0V7H1.75V8.75H3.5V7h.875a.875.875,0,0,0,.619-1.494L2.987,3.5H5.25V1.75H3.5Z" transform="translate(44.625 42.875)" fill="#e2434e"/>
    <path id="Vector-8" data-name="Vector" d="M7.875,14a7.884,7.884,0,1,0,5.566,2.309A7.875,7.875,0,0,0,7.875,14Zm0,14A6.133,6.133,0,1,1,12.2,26.2,6.125,6.125,0,0,1,7.875,28ZM7,0V1.75H6.125a.875.875,0,0,0-.619,1.494L7.513,5.25H5.25V7H7V8.75H8.75V7h.875a.875.875,0,0,0,.619-1.494L8.237,3.5H10.5V1.75H8.75V0Z" transform="translate(39.375 25.375)" fill="#e2434e"/>
    <path id="Vector-9" data-name="Vector" d="M0,7.875A7.884,7.884,0,1,0,2.309,2.309,7.875,7.875,0,0,0,0,7.875Zm14,0a6.133,6.133,0,1,1-1.8-4.329A6.125,6.125,0,0,1,14,7.875Z" transform="translate(39.375 21.875)" fill="#e2434e"/>
  </g>
</svg>
