<svg xmlns="http://www.w3.org/2000/svg" width="54.254" height="54.284" viewBox="0 0 54.254 54.284">
  <g id="Online_Working_Salary" data-name="Online Working Salary" transform="translate(-0.871 -0.841)">
    <path id="Vector" d="M24.5,12.25A12.25,12.25,0,1,1,12.25,0,12.25,12.25,0,0,1,24.5,12.25Z" transform="translate(1.75 1.75)" fill="#f4b2b0"/>
    <path id="Vector-2" data-name="Vector" d="M50.754,42.547V29.053A13.1,13.1,0,0,0,32.236,10.534H25.992A13.125,13.125,0,1,0,3.5,22.053V42.547L.261,45.791A.875.875,0,0,0,0,46.409v3.5a4.38,4.38,0,0,0,4.375,4.375h45.5a4.38,4.38,0,0,0,4.375-4.375v-3.5A.875.875,0,0,0,54,45.791ZM7,24.758V39.409a.875.875,0,0,0,.875.875h38.5a.875.875,0,0,0,.875-.875V31.758A13.141,13.141,0,0,0,49,30.635v11.4H5.254v-18.4A13.141,13.141,0,0,0,7,24.758Zm35.875-1.974a1.75,1.75,0,1,1-3.5,0Zm1.75-5.25a3.5,3.5,0,0,1-7,0v-1.75a3.5,3.5,0,0,1,7,0Zm-6.991,5.337a3.492,3.492,0,0,0,6.983,0,4.382,4.382,0,0,1,3.509,4.288v1.948a11.308,11.308,0,0,1-14,0V27.159a4.382,4.382,0,0,1,3.509-4.288Zm3.491,10.413a13.048,13.048,0,0,0,4.375-.766v6.016H8.754V25.519a13.083,13.083,0,0,0,17.238-9.734h2.78a13.089,13.089,0,0,0,12.358,17.5Zm8.388,10.5,1.75,1.75H2.992l1.75-1.75Zm-8.388-35a11.367,11.367,0,0,1,8.75,18.637v-.262a6.134,6.134,0,0,0-4.952-6.01,5.226,5.226,0,0,0,1.452-3.615v-1.75a5.25,5.25,0,0,0-10.5,0v1.75a5.226,5.226,0,0,0,1.452,3.615,6.134,6.134,0,0,0-4.952,6.01v.262a11.367,11.367,0,0,1,8.75-18.637Zm-10.476,3.5a13.141,13.141,0,0,0-1.124,1.75H26.21c.019-.29.045-.579.045-.875s-.025-.585-.045-.875ZM13.129,1.784A11.388,11.388,0,1,1,5.09,5.12a11.375,11.375,0,0,1,8.04-3.335Zm36.75,50.75H4.379a2.625,2.625,0,0,1-2.625-2.625V47.284H52.5v2.625a2.625,2.625,0,0,1-2.625,2.625Z" transform="translate(0.871 0.841)" fill="#db3c23"/>
    <path id="Vector-3" data-name="Vector" d="M23.7,1.42A14.16,14.16,0,0,0,21.962.7L21.4,2.367a12.219,12.219,0,0,1,1.514.625ZM20.152.228A14.115,14.115,0,0,0,18.295,0l-.1,1.75a12.6,12.6,0,0,1,1.627.2Zm-3.6,1.535L16.424.018A14.206,14.206,0,0,0,14.57.281l.364,1.712a12.373,12.373,0,0,1,1.623-.23ZM26.8,3.508a14.108,14.108,0,0,0-1.479-1.146l-.978,1.451a12.192,12.192,0,0,1,1.3,1ZM11.3,26.534a14.16,14.16,0,0,0,1.731.716l.558-1.662a12.219,12.219,0,0,1-1.514-.625Zm7.14-.343.133,1.745a14.206,14.206,0,0,0,1.854-.262l-.364-1.712A12.373,12.373,0,0,1,18.443,26.191Zm-3.6,1.535a14.115,14.115,0,0,0,1.858.228l.1-1.75a12.6,12.6,0,0,1-1.628-.2ZM8.2,24.447a14.108,14.108,0,0,0,1.479,1.146l.978-1.451a12.192,12.192,0,0,1-1.3-1ZM3.5,14.852A1.75,1.75,0,0,1,1.75,13.1H0a3.5,3.5,0,0,0,2.625,3.376v1.874h1.75V16.478A3.493,3.493,0,0,0,3.5,9.6a1.75,1.75,0,1,1,1.75-1.75H7A3.5,3.5,0,0,0,4.375,4.477V2.6H2.625V4.477A3.493,3.493,0,0,0,3.5,11.352a1.75,1.75,0,1,1,0,3.5Z" transform="translate(10.5 3.523)" fill="#db3c23"/>
  </g>
</svg>
