<svg xmlns="http://www.w3.org/2000/svg" xmlns:xlink="http://www.w3.org/1999/xlink" width="36.29" height="29.032" viewBox="0 0 34.531 38.773">
  <defs>
    <linearGradient id="linear-gradient" x1="0.5" x2="0.5" y2="1" gradientUnits="objectBoundingBox">
      <stop offset="0" stop-color="#4da676"/>
      <stop offset="1" stop-color="#42946c"/>
    </linearGradient>
    <filter id="Icon_metro-lock" x="0" y="0" width="36.29" height="29.032" filterUnits="userSpaceOnUse">
      <feOffset input="SourceAlpha"/>
      <feGaussianBlur stdDeviation="3" result="blur"/>
      <feFlood flood-opacity="0.161" result="color"/>
      <feComposite operator="out" in="SourceGraphic" in2="blur"/>
      <feComposite operator="in" in="color"/>
      <feComposite operator="in" in2="SourceGraphic"/>
    </filter>
  </defs>
  <g data-type="innerShadowGroup">
    <path id="Icon_metro-lock-2" data-name="Icon metro-lock" d="M6.427,42.629V21.237h4.5V14.552c0-5.907,5.376-10.7,12.011-10.7h1.5c6.633,0,12.011,4.789,12.011,10.7v6.685h4.5V42.629H6.427Zm16.13-10.981-1.117,6.97h4.5l-1.118-6.97a2.694,2.694,0,0,0,1.869-2.473,2.854,2.854,0,0,0-3-2.674,2.853,2.853,0,0,0-3,2.674A2.693,2.693,0,0,0,22.557,31.648Zm9.392-16.428c0-4.062-3.7-7.353-8.257-7.353s-8.257,3.292-8.257,7.353v6.016H31.949Z" transform="translate(-6.427 -3.856)" fill="url(#linear-gradient)"/>
    <g transform="matrix(1, 0, 0, 1, 0, 0)" filter="url(#Icon_metro-lock)">
      <path id="Icon_metro-lock-3" data-name="Icon metro-lock" d="M6.427,42.629V21.237h4.5V14.552c0-5.907,5.376-10.7,12.011-10.7h1.5c6.633,0,12.011,4.789,12.011,10.7v6.685h4.5V42.629H6.427Zm16.13-10.981-1.117,6.97h4.5l-1.118-6.97a2.694,2.694,0,0,0,1.869-2.473,2.854,2.854,0,0,0-3-2.674,2.853,2.853,0,0,0-3,2.674A2.693,2.693,0,0,0,22.557,31.648Zm9.392-16.428c0-4.062-3.7-7.353-8.257-7.353s-8.257,3.292-8.257,7.353v6.016H31.949Z" transform="translate(-6.43 -3.86)" fill="#fff"/>
    </g>
  </g>
</svg>
