<svg id="subject" xmlns="http://www.w3.org/2000/svg" width="128.157" height="128.158" viewBox="0 0 128.157 128.158">
  <g id="Group_24" data-name="Group 24" transform="translate(62.476 24.838)">
    <g id="Group_23" data-name="Group 23">
      <path id="Path_76" data-name="Path 76" d="M308.4,141.225H289.808V105.056a1.877,1.877,0,0,0-1.877-1.877H264.574v-1.067a2.878,2.878,0,0,0-4.557-2.338l-9.219,6.615a2.879,2.879,0,0,0,0,4.678l9.219,6.615a2.878,2.878,0,0,0,4.557-2.338v-.9h13.97v26.783H260.837a6.891,6.891,0,0,0-6.883,6.883v38.422a1.877,1.877,0,0,0,3.755,0V148.109a3.132,3.132,0,0,1,3.129-3.129H308.4a3.132,3.132,0,0,1,3.129,3.129v47.558A3.132,3.132,0,0,1,308.4,198.8H260.837a3.132,3.132,0,0,1-3.129-3.129v-1.126a1.877,1.877,0,0,0-3.755,0v1.126a6.891,6.891,0,0,0,6.883,6.883H308.4a6.891,6.891,0,0,0,6.883-6.883V148.109A6.891,6.891,0,0,0,308.4,141.225Zm-47.576-27.59-6.84-4.908,6.84-4.908Zm25.234,27.59H282.3v-28.66a1.877,1.877,0,0,0-1.877-1.877H264.574v-3.755h21.48Z" transform="translate(-249.598 -99.231)" fill="#24D29F"/>
    </g>
  </g>
  <g id="Group_26" data-name="Group 26" transform="translate(17.258 8.63)">
    <g id="Group_25" data-name="Group 25">
      <path id="Path_77" data-name="Path 77" d="M95.263,51.355,84.737,35.745a2.879,2.879,0,0,0-4.773,0L69.438,51.355a2.878,2.878,0,0,0,2.386,4.488H92.876a2.879,2.879,0,0,0,2.387-4.488Zm-21.791.733L82.35,38.921l8.878,13.167Z" transform="translate(-68.945 -34.476)" fill="#24D29F"/>
    </g>
  </g>
  <g id="Group_28" data-name="Group 28" transform="translate(84.828 73.539)">
    <g id="Group_27" data-name="Group 27">
      <path id="Path_78" data-name="Path 78" d="M362.8,303l-7.769-7.768a4.9,4.9,0,0,0-6.927,0L340.331,303a4.9,4.9,0,0,0,0,6.927l7.769,7.769h0a4.9,4.9,0,0,0,6.927,0l7.768-7.769a4.9,4.9,0,0,0,0-6.927Zm-2.655,4.272-7.769,7.769a1.143,1.143,0,0,1-1.616,0h0l-7.769-7.769a1.143,1.143,0,0,1,0-1.617l7.769-7.769a1.143,1.143,0,0,1,1.616,0l7.769,7.769a1.143,1.143,0,0,1,0,1.617Z" transform="translate(-338.897 -293.796)" fill="#24D29F"/>
    </g>
  </g>
  <g id="Group_30" data-name="Group 30">
    <g id="Group_29" data-name="Group 29">
      <path id="Path_79" data-name="Path 79" d="M64.04,91.485,54.821,84.87a2.879,2.879,0,0,0-4.557,2.338v.9H36.295V61.325H54.442a6.891,6.891,0,0,0,6.883-6.883V15.957a1.877,1.877,0,1,0-3.755,0V54.442a3.132,3.132,0,0,1-3.129,3.129H6.883a3.132,3.132,0,0,1-3.129-3.129V6.883A3.132,3.132,0,0,1,6.883,3.755H54.442a3.132,3.132,0,0,1,3.129,3.129V8.072a1.877,1.877,0,1,0,3.755,0V6.883A6.891,6.891,0,0,0,54.442,0H6.883A6.891,6.891,0,0,0,0,6.883V54.442a6.891,6.891,0,0,0,6.883,6.883H25.031V97.495a1.877,1.877,0,0,0,1.877,1.877h5.131a1.877,1.877,0,1,0,0-3.755H28.785V61.325H32.54v28.66a1.877,1.877,0,0,0,1.877,1.877H50.265v3.755H39.987a1.877,1.877,0,1,0,0,3.755H50.265v1.067a2.877,2.877,0,0,0,4.557,2.338l9.219-6.615a2.878,2.878,0,0,0,0-4.677ZM54.019,98.732V88.915l6.84,4.908Z" fill="#24D29F"/>
    </g>
  </g>
  <g id="Group_32" data-name="Group 32" transform="translate(12.515 34.397)">
    <g id="Group_31" data-name="Group 31">
      <path id="Path_80" data-name="Path 80" d="M84.417,137.42H51.877a1.877,1.877,0,1,0,0,3.755h32.54a1.877,1.877,0,1,0,0-3.755Z" transform="translate(-50 -137.42)" fill="#24D29F"/>
    </g>
  </g>
  <g id="Group_34" data-name="Group 34" transform="translate(12.515 41.906)">
    <g id="Group_33" data-name="Group 33">
      <path id="Path_81" data-name="Path 81" d="M84.417,167.42H51.877a1.877,1.877,0,0,0,0,3.755h32.54a1.877,1.877,0,1,0,0-3.755Z" transform="translate(-50 -167.42)" fill="#24D29F"/>
    </g>
  </g>
  <g id="Group_36" data-name="Group 36" transform="translate(12.515 49.416)">
    <g id="Group_35" data-name="Group 35">
      <path id="Path_82" data-name="Path 82" d="M84.417,197.42H51.877a1.877,1.877,0,1,0,0,3.755h32.54a1.877,1.877,0,1,0,0-3.755Z" transform="translate(-50 -197.42)" fill="#24D29F"/>
    </g>
  </g>
  <g id="Group_38" data-name="Group 38" transform="translate(79.347 101.375)">
    <g id="Group_37" data-name="Group 37">
      <path id="Path_83" data-name="Path 83" d="M351.417,405h-32.54a1.877,1.877,0,1,0,0,3.755h32.54a1.877,1.877,0,1,0,0-3.755Z" transform="translate(-317 -405)" fill="#24D29F"/>
    </g>
  </g>
  <g id="Group_40" data-name="Group 40" transform="translate(79.347 108.884)">
    <g id="Group_39" data-name="Group 39">
      <path id="Path_84" data-name="Path 84" d="M351.417,435h-32.54a1.877,1.877,0,1,0,0,3.755h32.54a1.877,1.877,0,1,0,0-3.755Z" transform="translate(-317 -435)" fill="#24D29F"/>
    </g>
  </g>
  <g id="Group_42" data-name="Group 42" transform="translate(79.347 116.393)">
    <g id="Group_41" data-name="Group 41">
      <path id="Path_85" data-name="Path 85" d="M351.417,465h-32.54a1.877,1.877,0,0,0,0,3.755h32.54a1.877,1.877,0,0,0,0-3.755Z" transform="translate(-317 -465)" fill="#24D29F"/>
    </g>
  </g>
</svg>
