<svg xmlns="http://www.w3.org/2000/svg" width="54.253" height="54.251" viewBox="0 0 54.253 54.251">
  <g id="Website" transform="translate(-0.873 -0.874)">
    <path id="Vector" d="M26.25,13.125A13.125,13.125,0,1,1,13.125,0,13.125,13.125,0,0,1,26.25,13.125Z" transform="translate(14.875 1.75)" fill="#f4b2b0"/>
    <path id="Vector-2" data-name="Vector" d="M50.75,42.513V16.625a4.38,4.38,0,0,0-4.375-4.375H41A14.01,14.01,0,0,0,27.212,0h-.087A14.011,14.011,0,0,0,13.247,12.25H7.875A4.38,4.38,0,0,0,3.5,16.625V42.513L.256,45.756A.875.875,0,0,0,0,46.375v3.5A4.38,4.38,0,0,0,4.375,54.25h45.5a4.38,4.38,0,0,0,4.375-4.375v-3.5a.875.875,0,0,0-.256-.619ZM49.513,43.75l1.75,1.75H2.987l1.75-1.75ZM17.893,5.973a13.514,13.514,0,0,0,3.214,2.235,17.72,17.72,0,0,0-.939,4.917h-5.25a12.189,12.189,0,0,1,2.975-7.152ZM39.33,13.125H34.08a17.72,17.72,0,0,0-.939-4.917,13.513,13.513,0,0,0,3.214-2.235,12.189,12.189,0,0,1,2.975,7.152Zm-19.163,1.75a17.72,17.72,0,0,0,.939,4.918,13.513,13.513,0,0,0-3.214,2.235,12.189,12.189,0,0,1-2.973-7.152ZM26.25,25a15.985,15.985,0,0,1-2.877-4.26,11.74,11.74,0,0,1,2.877-.576ZM28,20.168a11.731,11.731,0,0,1,2.876.575A15.984,15.984,0,0,1,28,24.98Zm0-1.75V14.875h4.332a15.959,15.959,0,0,1-.805,4.244,13.475,13.475,0,0,0-3.527-.7Zm0-5.293V9.582a13.475,13.475,0,0,0,3.527-.7,15.959,15.959,0,0,1,.805,4.244Zm0-5.293V3.02a15.984,15.984,0,0,1,2.876,4.238A11.731,11.731,0,0,1,28,7.832Zm-1.75,0a11.74,11.74,0,0,1-2.877-.576A15.985,15.985,0,0,1,26.25,3Zm0,1.75v3.543H21.916a15.957,15.957,0,0,1,.808-4.243,13.487,13.487,0,0,0,3.525.7Zm0,5.293v3.543a13.487,13.487,0,0,0-3.525.7,15.957,15.957,0,0,1-.808-4.243Zm-4.49,6.543a17.718,17.718,0,0,0,3.082,4.61,12.2,12.2,0,0,1-5.709-2.766,11.765,11.765,0,0,1,2.628-1.844Zm10.731,0a11.765,11.765,0,0,1,2.625,1.844,12.2,12.2,0,0,1-5.709,2.766,17.718,17.718,0,0,0,3.084-4.61Zm3.867.612A13.513,13.513,0,0,0,33.143,19.8a17.72,17.72,0,0,0,.939-4.921h5.25a12.189,12.189,0,0,1-2.975,7.152ZM32.491,6.582a17.718,17.718,0,0,0-3.082-4.61,12.2,12.2,0,0,1,5.709,2.766,11.765,11.765,0,0,1-2.628,1.845Zm-10.731,0a11.765,11.765,0,0,1-2.625-1.845,12.2,12.2,0,0,1,5.707-2.766,17.718,17.718,0,0,0-3.082,4.61ZM27.125,28A14.012,14.012,0,0,0,40.664,17.5H45.5v21H8.75v-21h4.836A14.012,14.012,0,0,0,27.125,28ZM7.875,14h5.25a13.912,13.912,0,0,0,.122,1.75H7.875A.875.875,0,0,0,7,16.625v22.75a.875.875,0,0,0,.875.875h38.5a.875.875,0,0,0,.875-.875V16.625a.875.875,0,0,0-.875-.875H41A13.913,13.913,0,0,0,41.125,14h5.25A2.625,2.625,0,0,1,49,16.625V42H5.25V16.625A2.625,2.625,0,0,1,7.875,14Zm42,38.5H4.375A2.625,2.625,0,0,1,1.75,49.875V47.25H52.5v2.625A2.625,2.625,0,0,1,49.875,52.5Z" transform="translate(0.875 0.875)" fill="#db3c23"/>
    <path id="Vector-3" data-name="Vector" d="M.621,6.087a.875.875,0,0,0,.982-.35L2.625,4.2,3.647,5.733a.875.875,0,0,0,1.6-.483V0H3.5V2.362l-.147-.22a.909.909,0,0,0-1.456,0l-.147.22V0H0V5.25a.875.875,0,0,0,.621.837Zm7,0a.875.875,0,0,0,.982-.35L9.625,4.2l1.022,1.533a.875.875,0,0,0,1.6-.483V0H10.5V2.362l-.147-.22a.909.909,0,0,0-1.456,0l-.147.22V0H7V5.25a.875.875,0,0,0,.621.837Zm7,0a.875.875,0,0,0,.982-.35L16.625,4.2l1.022,1.533a.875.875,0,0,0,1.6-.483V0H17.5V2.362l-.147-.22a.909.909,0,0,0-1.456,0l-.147.22V0H14V5.25a.875.875,0,0,0,.621.837Z" transform="translate(16.625 31.5)" fill="#e2434e"/>
    <path id="Vector-4" data-name="Vector" d="M0,0H1.75V1.75H0Z" transform="translate(37.625 35.875)" fill="#e2434e"/>
    <path id="Vector-5" data-name="Vector" d="M42.877,7.876h4.375v1.75a.875.875,0,0,0,.5.787.863.863,0,0,0,.371.088.881.881,0,0,0,.561-.2l5.25-4.375a.875.875,0,0,0,0-1.346L48.687.2a.875.875,0,0,0-1.436.673v1.75H42.877A.875.875,0,0,0,42,3.5V7a.875.875,0,0,0,.875.875Zm.875-3.5h4.375A.875.875,0,0,0,49,3.5V2.744l3.007,2.507L49,7.758V7a.875.875,0,0,0-.875-.875H43.752ZM5.566,10.3a.881.881,0,0,0,.561.2.865.865,0,0,0,.371-.088A.875.875,0,0,0,7,9.626V7.876h4.375A.875.875,0,0,0,12.252,7V3.5a.875.875,0,0,0-.875-.875H7V.876A.875.875,0,0,0,5.566.2L.316,4.578a.875.875,0,0,0,0,1.346ZM5.252,2.744V3.5a.875.875,0,0,0,.875.875H10.5v1.75H6.127A.875.875,0,0,0,5.252,7v.757L2.243,5.251Z" transform="translate(0.873 0.874)" fill="#e2434e"/>
  </g>
</svg>
