<svg xmlns="http://www.w3.org/2000/svg" width="18.712" height="22.863" viewBox="0 0 18.712 22.863">
  <g id="bell" transform="translate(0)">
    <path id="Path_28" data-name="Path 28" d="M184.9,465.044a3.614,3.614,0,0,0,6.529,0Z" transform="translate(-178.812 -444.243)" fill="#fff8e5"/>
    <path id="Path_29" data-name="Path 29" d="M199.016,2.184a8.257,8.257,0,0,1,2.739.465v-.1A2.592,2.592,0,0,0,199.125,0h-.218a2.592,2.592,0,0,0-2.63,2.547v.1A8.273,8.273,0,0,1,199.016,2.184Z" transform="translate(-189.66 0)" fill="#fff8e5"/>
    <path id="Path_30" data-name="Path 30" d="M71.014,94.769H53.725a.7.7,0,0,1-.695-.523.645.645,0,0,1,.37-.741,3.575,3.575,0,0,0,1.117-1.47,16.5,16.5,0,0,0,1.164-6.721,6.693,6.693,0,0,1,13.378-.026q0,.013,0,.026a16.5,16.5,0,0,0,1.164,6.721,3.574,3.574,0,0,0,1.117,1.47.645.645,0,0,1,.37.741A.7.7,0,0,1,71.014,94.769Zm.333-1.259h0Z" transform="translate(-53.013 -75.31)" fill="#fff8e5"/>
  </g>
</svg>
