<svg id="expense_icn" xmlns="http://www.w3.org/2000/svg" width="79.123" height="75.953" viewBox="0 0 79.123 75.953">
  <path id="expense_icn-2" data-name="expense_icn" d="M17.36,75.953a1.652,1.652,0,0,1-1.67-1.636V56.969a1.671,1.671,0,0,1,3.341,0v6.319a11.271,11.271,0,0,1,9.586,9.392H66.361a10.87,10.87,0,0,1,9.42-9.442V49.921a10.739,10.739,0,0,1-8.607-6.44,1.624,1.624,0,0,1,.875-2.15,1.685,1.685,0,0,1,2.192.859,7.4,7.4,0,0,0,5.54,4.369v-6.57h-.933a1.638,1.638,0,1,1,0-3.275h2.6a1.654,1.654,0,0,1,1.672,1.638V74.317a1.653,1.653,0,0,1-1.672,1.636ZM69.7,72.679h6.076V66.515A7.6,7.6,0,0,0,69.7,72.679Zm-50.674,0h6.237a8.027,8.027,0,0,0-6.237-6.109ZM41.247,60.541H40.153a1.637,1.637,0,1,1,0-3.274H40.7c0-.119-.03-.23-.03-.349,0-.215.042-.416.052-.629h-.574a1.637,1.637,0,1,1,0-3.274h1.165c1.248-3.638,4.186-6.2,7.605-6.2a7.785,7.785,0,0,1,6.616,4.056,1.616,1.616,0,0,1-.581,2.244,1.692,1.692,0,0,1-2.29-.568,4.532,4.532,0,0,0-3.745-2.458,4.752,4.752,0,0,0-3.987,2.927H49.82a1.637,1.637,0,1,1,0,3.274H44.063c-.014.211-.046.415-.046.629,0,.119.021.23.025.349H49.82a1.637,1.637,0,1,1,0,3.274H44.8c.881,1.905,2.412,3.2,4.121,3.2A4.661,4.661,0,0,0,52.8,61.063a1.683,1.683,0,0,1,2.268-.649,1.617,1.617,0,0,1,.663,2.22,7.935,7.935,0,0,1-6.809,4.387C45.421,67.02,42.44,64.32,41.247,60.541Zm-30.9-7.683L2.835,27.975h0L.069,18.812A1.613,1.613,0,0,1,.2,17.564a1.668,1.668,0,0,1,1-.787l9.35-2.712h.006L49.662,2.723h0L58.822.066A1.713,1.713,0,0,1,60.091.2a1.643,1.643,0,0,1,.805.975l10.28,34.048a1.613,1.613,0,0,1-.134,1.248,1.664,1.664,0,0,1-.994.787l-48.269,14h0l-.006,0-9.349,2.71a1.684,1.684,0,0,1-2.074-1.106ZM11.31,44.5l1.769,5.856,5.978-1.733a7.946,7.946,0,0,0-3.247-3.193,8.161,8.161,0,0,0-3.839-.957Q11.641,44.478,11.31,44.5Zm6.1-1.945a11.146,11.146,0,0,1,4.87,5.136L57.819,37.389a11.654,11.654,0,0,1,1.456-7.528A11.448,11.448,0,0,1,64.64,25.11L60.849,12.554a10.353,10.353,0,0,1-2.054.235,10.381,10.381,0,0,1-4.871-1.226A11.025,11.025,0,0,1,49.108,6.3L12.945,16.783a10.88,10.88,0,0,1-1.236,6.907,11.208,11.208,0,0,1-5.243,4.772l3.892,12.884a12.063,12.063,0,0,1,1.681-.118A11.358,11.358,0,0,1,17.406,42.559ZM62.173,31.488a8.5,8.5,0,0,0-1.14,4.969L67.5,34.582l-1.911-6.329A8.256,8.256,0,0,0,62.173,31.488ZM3.745,19.451l1.77,5.858a7.954,7.954,0,0,0,3.26-3.182,7.721,7.721,0,0,0,.95-4.41ZM52.3,5.371A7.581,7.581,0,0,0,55.52,8.685,6.883,6.883,0,0,0,59.9,9.4l-1.73-5.726Zm-15,31.666-.232-.734c-.217.015-.4.082-.62.082a11.5,11.5,0,0,1-4.431-.892,1.622,1.622,0,0,1-.852-2.159,1.687,1.687,0,0,1,2.2-.834,7.472,7.472,0,0,0,4.391.455,3.2,3.2,0,0,0,1.8-1.318,1.992,1.992,0,0,0,.268-1.673c-.114-.358-.5-1.334-3.9-1.254-1.828-.006-6.026-.022-7.142-3.561a5.6,5.6,0,0,1,2.749-6.385l-.217-.691a1.628,1.628,0,0,1,1.1-2.046,1.679,1.679,0,0,1,2.088,1.083l.212.673A6.293,6.293,0,0,1,38.985,19.1a1.615,1.615,0,0,1,.226,2.3,1.7,1.7,0,0,1-2.353.217,3.1,3.1,0,0,0-2.81-.431l0,0h0c-1.511.462-2.436,1.8-2.064,2.992.2.643.822,1.241,3.932,1.253,1.471-.015,5.955-.089,7.109,3.559a5.162,5.162,0,0,1-.617,4.363,6.287,6.287,0,0,1-2.13,2.024l.217.687a1.629,1.629,0,0,1-1.1,2.049,1.712,1.712,0,0,1-.492.073A1.666,1.666,0,0,1,37.3,37.037Z" transform="translate(0 0)" fill="#3e46af"/>
</svg>
