<svg xmlns="http://www.w3.org/2000/svg" xmlns:xlink="http://www.w3.org/1999/xlink" width="344" height="448" viewBox="0 0 344 448">
  <defs>
    <clipPath id="clip-path">
      <rect id="help_bg" width="344" height="448" rx="50" transform="translate(0 -0.115)" fill="#32e3b9"/>
    </clipPath>
    <linearGradient id="linear-gradient" x1="-8.171" y1="1" x2="-8.171" gradientUnits="objectBoundingBox">
      <stop offset="0" stop-color="gray" stop-opacity="0.251"/>
      <stop offset="0.54" stop-color="gray" stop-opacity="0.122"/>
      <stop offset="1" stop-color="gray" stop-opacity="0.102"/>
    </linearGradient>
  </defs>
  <g id="help" transform="translate(0 0.115)">
    <rect id="help_bg-2" data-name="help_bg" width="344" height="408" rx="50" transform="translate(0 39.885)" fill="#24d29f"/>
    <g id="illustration">
      <g id="mask" clip-path="url(#clip-path)">
        <path id="Path_1380" data-name="Path 1380" d="M475.8,258.493a51.537,51.537,0,0,1-9.473,16.838c-.56.665-1.133,1.306-1.713,1.934q-1.174,1.22-2.405,2.4a68.366,68.366,0,0,1-21.146,13.086q-2.982,1.22-5.985,2.294-2.533.909-5.07,1.7c-.643.207-1.285.4-1.928.61s-1.38.409-2.059.61l-.976.275c-18.872,5.155-37.991,6.137-57.25,4.844l-.914-.067-1.462-.11q-5.865-.451-11.742-1.153l-1.483-.177-.655-.079q-3.295-.409-6.59-.9-4.341-.61-8.695-1.348l-.375-.061-.3-.055h0c-10.359-1.727-20.742-3.8-31.138-5.93l-1.47-.3-2.64-.543-2.224-.458h0l-.659-.134q-5.264-1.092-10.527-2.16l-.568-.116c-6.59-1.336-13.217-2.623-19.823-3.795l-.861-.153h0q-4.057-.714-8.11-1.36l-2.059-.323-2.739-.409c-7.591-1.116-15.177-2.007-22.748-2.562q-5.461-.4-10.948-.61-4.531-.153-9.061-.177-6.145-.043-12.315.1h-.931c-5.8.14-11.6.384-17.414.677l-1.046.049h-.346c-12.356.647-24.712,1.507-37.036,2.123l-3.011.146h-.437q-6.425.305-12.838.47h-2.545l-1.911.037q-2.978.043-5.943.049H111.8c-7.257-.031-14.486-.268-21.669-.824l-.8-.067a190.539,190.539,0,0,1-41.315-7.614q-2.1-.653-4.2-1.367A150.619,150.619,0,0,1,16.3,261.488c-4.218-2.44-8.46-5.259-11.668-10.029-8.139-12.2-5.083-36.1,5.507-43.046,8.283-5.436,17.986-1.013,26.9-3.465a10.311,10.311,0,0,0,1.619-.61,19.321,19.321,0,0,0,3.295-2.013c.362-.268.725-.555,1.091-.854a28.624,28.624,0,0,0,2.438-2.208,43.493,43.493,0,0,0,3.707-4.167q.783-.988,1.524-2.05a43.68,43.68,0,0,0,4.5-7.974,34.432,34.432,0,0,0,1.236-3.441c.194-.61.367-1.269.511-1.9a24.912,24.912,0,0,0,.49-2.819A16.821,16.821,0,0,0,54.2,164.232a10,10,0,0,0-.824-.921,12.589,12.589,0,0,0-1.788-1.531c-.251-.177-.511-.348-.774-.512-3.765-2.349-8.62-3.252-12.714-4.881h0a18.191,18.191,0,0,1-3.641-1.873c-.745-.512-1.487-1.049-2.216-1.611h0l-.194-.159h0a60.2,60.2,0,0,1-16.063-19.522,70.548,70.548,0,0,1-2.99-6.43c-.276-.671-.544-1.36-.8-2.05C4.957,105.4,4.211,80.622,11.74,61.607a66.57,66.57,0,0,1,3.048-6.625q.544-1.043,1.124-2.05c7.167-12.525,17.463-21.011,27.859-27.294A148.988,148.988,0,0,1,87.224,8.372Q91.755,7.3,96.285,6.457a345.738,345.738,0,0,1,38.139-4.624Q152.246.5,170.224.106q6.092-.122,12.2-.1,13.752,0,27.5.787,4.531.256,9.061.61,11.619.891,23.192,2.44,5.56.744,11.1,1.641a329.067,329.067,0,0,1,82.547,24.268q4.551,2.038,9.061,4.27a293.416,293.416,0,0,1,33.11,18.955q1.532,1.019,3.056,2.05,10.128,6.882,19.968,14.831a231.783,231.783,0,0,1,24.959,23.182q4.662,5.064,9.061,10.566A176.162,176.162,0,0,1,449.5,124.736q.593,1.019,1.174,2.05,3.015,5.362,5.725,11.109c8.814,18.766,14.729,40.228,19.094,62.153C479.343,219.18,481.9,240.661,475.8,258.493Z" transform="matrix(0.999, 0.035, -0.035, 0.999, -57.161, 166.413)" fill="#70e0bb" opacity="0.8"/>
        <path id="Path_1464" data-name="Path 1464" d="M751.7,664.14l-4.713-.654V593.91l.963.294,2.941.9v6.7l.037,3.022.066,6.22v8.485l.353,31.328v.838l.125,11.029v.169Z" transform="translate(-648.554 -220.037)" fill="#eaecf0"/>
        <path id="Path_1465" data-name="Path 1465" d="M755.846,664.934l-2.625-.368V663.14l-.125-11.029v-.838l-.353-31.328V611.46l-.066-6.22-.037-3.022v-6.7h2.831v8.992l.059,6.72v7.11h0l.272,32.88v.846L755.89,663v.176Z" transform="translate(-650.05 -220.464)" fill="#d3dae1"/>
        <path id="Path_1466" data-name="Path 1466" d="M757,695.27Z" transform="translate(-651.205 -246.874)" fill="#d3dae1"/>
        <path id="Path_1467" data-name="Path 1467" d="M1144.433,582.18v60.054q-2.1,1.471-4.294,2.889l-.059-50v-5.308Z" transform="translate(-752.631 -216.932)" fill="#eaecf0"/>
        <path id="Path_1468" data-name="Path 1468" d="M1149.059,581v58.6c-1,.8-2.022,1.573-3.059,2.331V581.868Z" transform="translate(-754.198 -216.619)" fill="#d3dae1"/>
        <path id="Path_1469" data-name="Path 1469" d="M1055.317,675.918c-1.809.368-3.625.735-5.441,1.051l-.066-54.341v-2.353l5.242-2.206v4.985Z" transform="translate(-728.73 -226.434)" fill="#eaecf0"/>
        <path id="Path_1470" data-name="Path 1470" d="M1060.674,615.73v58.819c-1.147.25-2.294.485-3.441.735l-.243-52.841v-4.985l.346-.162h0Z" transform="translate(-730.631 -225.815)" fill="#d3dae1"/>
        <path id="Path_1471" data-name="Path 1471" d="M636.164,666.8l-4.889-.61-.625-75.943V586.63h4.8v4.128Z" transform="translate(-617.752 -218.11)" fill="#eaecf0"/>
        <path id="Path_1472" data-name="Path 1472" d="M641.511,666.8l-3.676-.48-.735-75.588v-4.1h3.713v4.5Z" transform="translate(-619.459 -218.11)" fill="#d3dae1"/>
        <path id="Path_1473" data-name="Path 1473" d="M1039.45,445.271l3.36-1.581v7.419l-3.272,1.1Z" transform="translate(-712.783 -53.782)" opacity="0.1"/>
        <path id="Path_1474" data-name="Path 1474" d="M1129.519,408.95V420.3l-3.051,1.022-4.36,1.448-.007-5.308,4.367-7.639Z" transform="translate(-734.665 -44.584)" opacity="0.1"/>
        <path id="Path_1475" data-name="Path 1475" d="M1107.509,379.27V410.7l-68.1,22.7-.441-33.615Z" transform="translate(-712.656 -36.726)" fill="#d48a9b"/>
        <path id="Path_1476" data-name="Path 1476" d="M611.46,370.168l89.493-17.028,293.366,19.212-68.539,20.513Z" transform="translate(-599.466 -29.807)" fill="#efc6cd"/>
        <path id="Path_1477" data-name="Path 1477" d="M621.164,414.6l.029,3.647-3.706-.324-4.816-.412-.022-2.912Z" transform="translate(-599.781 -46.08)" opacity="0.1"/>
        <path id="Path_1478" data-name="Path 1478" d="M735.831,427.38,733,427.13l-3.97-.338V421.88l3.926,1.191h2.838Z" transform="translate(-630.594 -48.007)" opacity="0.1"/>
        <path id="Path_1479" data-name="Path 1479" d="M611.46,376.3v29.248l314.762,27.064L925.781,399Z" transform="translate(-599.466 -35.939)" fill="#d48a9b"/>
        <path id="Path_1480" data-name="Path 1480" d="M936.094,418.228H894.98V403.31l41.114,2.9Z" transform="translate(-674.532 -43.091)" fill="#d48a9b"/>
        <path id="Path_1481" data-name="Path 1481" d="M936.094,418.228H894.98V403.31l41.114,2.9Z" transform="translate(-674.532 -43.091)" opacity="0.1"/>
        <path id="Path_1482" data-name="Path 1482" d="M819.87,398.86v23.572l157.818,12.006v-25.1l-61.554-3.492-6.117,5.455-25.1-1.742-8.948-6.551Z" transform="translate(-654.646 -41.912)" opacity="0.1"/>
        <path id="Path_1483" data-name="Path 1483" d="M818.68,397.67v23.579l157.818,12v-25.1l-61.554-3.492-6.11,5.463-25.108-1.75-8.948-6.551Z" transform="translate(-654.331 -41.597)" fill="#fff"/>
        <path id="Path_1484" data-name="Path 1484" d="M684.909,389.06l37.328,2.625-.434,11.859H697.43l-16.3-6.4Z" transform="translate(-617.912 -39.318)" fill="#d48a9b"/>
        <path id="Path_1485" data-name="Path 1485" d="M684.909,389.06l37.328,2.625-.434,11.859H697.43l-16.3-6.4Z" transform="translate(-617.912 -39.318)" opacity="0.1"/>
        <path id="Path_1486" data-name="Path 1486" d="M618.59,384.61v21.175l143.187,11.352V394.653l-55.224-3.279-5.9,4.367-22.263-1.309-9.168-5.676Z" transform="translate(-601.354 -38.14)" opacity="0.1"/>
        <path id="Path_1487" data-name="Path 1487" d="M617.4,383.42v21.175l143.187,11.352V393.463l-55.224-3.272-5.889,4.36-22.27-1.309-9.168-5.676Z" transform="translate(-601.039 -37.825)" fill="#fff"/>
        <path id="Path_1488" data-name="Path 1488" d="M1023.693,383.53l20.072,1.316L1010.51,394.8l-16.94-1.22Z" transform="translate(-700.635 -37.854)" opacity="0.1"/>
        <path id="Path_1489" data-name="Path 1489" d="M1023.693,382.35l20.072,1.309-33.255,9.955-16.94-1.22Z" transform="translate(-700.635 -37.541)" fill="#fff"/>
        <path id="Path_1490" data-name="Path 1490" d="M1049.24,557.414c.794-.346,1.64.294,2.485.456.478.1.978,0,1.47.1.985.132,1.956.787,2.9.456Z" transform="translate(-728.579 -210.348)" fill="#d3dae1"/>
        <path id="Path_1491" data-name="Path 1491" d="M1047.83,558.225c.787-.338,1.632.3,2.478.463.485.088.985,0,1.471.088.978.132,1.956.794,2.9.463Z" transform="translate(-728.206 -210.564)" fill="#d3dae1"/>
        <path id="Path_1492" data-name="Path 1492" d="M1044.59,559.865c.787-.338,1.632.294,2.478.456.485.1.978,0,1.47.1.985.132,1.963.794,2.9.456Z" transform="translate(-727.348 -210.997)" fill="#d3dae1"/>
        <path id="Path_1493" data-name="Path 1493" d="M845.314,368.55l44.754,2.934-9.536,13.7-49.2-5.257Z" transform="translate(-657.68 -33.888)" opacity="0.1"/>
        <path id="Path_1494" data-name="Path 1494" d="M844.121,367.36l44.754,2.926-9.536,13.7-49.209-5.257Z" transform="translate(-657.362 -33.572)" fill="#3a3768"/>
        <path id="Path_1495" data-name="Path 1495" d="M847.448,368.73l39.034,2.389-8.316,11.161-42.916-4.286Z" transform="translate(-658.718 -33.935)" fill="#d5e1f4"/>
        <path id="Path_1496" data-name="Path 1496" d="M757,695.27Z" transform="translate(-651.205 -246.874)" fill="#3a3768"/>
        <path id="Path_1497" data-name="Path 1497" d="M757,695.27Z" transform="translate(-651.205 -246.874)" opacity="0.1"/>
        <path id="Path_1498" data-name="Path 1498" d="M756.54,695.27Z" transform="translate(-651.083 -246.874)" fill="#3a3768"/>
        <path id="Path_1499" data-name="Path 1499" d="M788.617,656.022a3.568,3.568,0,0,1-.037.625,4.218,4.218,0,0,1-.059.551,12.419,12.419,0,0,1-1.066,3.742v-4.1c-18.491-2.081-37.026-.485-55.584-3.051l-2.625-.368-4.713-.654-3.97-.551h0a95.634,95.634,0,0,1-12.97-1.213,67.083,67.083,0,0,1-8.014-1.691c-11.764-1.61-23.594-3.162-35.387-4.573l-1.537-.184c.279-1.25.515-2.007.515-2.007s2.529-9.94,4.632-21.05c.463-2.412.9-4.867,1.287-7.3.309-1.948.588-3.875.823-5.727.132-1.022.243-2.022.338-3,.051-.485.1-.97.132-1.47s.081-1.044.118-1.551.051-.956.073-1.419v-.691c0-.993,0-2.029-.037-3.1a91.16,91.16,0,0,0-2.5-15.741c-.206-.882-.419-1.765-.64-2.625-.066-.279-.14-.552-.213-.823-2.375-9.2-5.147-16.712-5.147-16.712a.838.838,0,0,1,0-.125.418.418,0,0,0,0-.088,1.741,1.741,0,0,0,0-.184V559.64a11.262,11.262,0,0,1,.4-2.279,8.234,8.234,0,0,1,.279-.779,4.845,4.845,0,0,1,3.309-3.059h0c2.081-.537,5.227,0,9.977,2.816a17.18,17.18,0,0,1,2.206,1.515,9.322,9.322,0,0,1,1.029.89c5.441,5.066,8.338,13.425,9.882,21.057.059.272.11.544.162.816.184.941.338,1.86.478,2.764.25,1.588.448,3.117.6,4.536,0,.382.081.735.118,1.125s.073.735.1,1.088c.1,1.147.162,2.206.206,3.1.125,2.382.1,3.845.1,3.845v.074a2.014,2.014,0,0,1-.037.316.14.14,0,0,0,0,.059c0,.088,0,.2,0,.324v.338q-.044.463-.11,1.081c-.066.632-.14,1.375-.228,2.206-.059.618-.132,1.287-.206,1.993-.162,1.47-.338,3.176-.529,4.97-.044.338-.081.676-.118,1.015-.169,1.537-.346,3.139-.529,4.757h0c-.2,1.838-.419,3.676-.632,5.492-.052.4-.1.794-.147,1.184-.544,4.411-1.088,8.418-1.529,10.911a10.369,10.369,0,0,0-.147,1.118,3.444,3.444,0,0,0,0,.382,7.529,7.529,0,0,0,0,1c.36,6.279,7.146,7.352,7.146,7.352l30.814-.61,4.573-.088,2.662-.052,24.02-.478h0l2.206-.044,11.948-.235a8.544,8.544,0,0,1,2.4.287,38.173,38.173,0,0,1,10.44,4.566,12.27,12.27,0,0,1,2.7,2.353.79.79,0,0,1,.1.118,12.719,12.719,0,0,1,2.89,6.882q0,.254,0,.507A6.61,6.61,0,0,1,788.617,656.022Z" transform="translate(-626.062 -209.295)" fill="#3a3768"/>
        <path id="Path_1500" data-name="Path 1500" d="M756.54,695.27Z" transform="translate(-651.083 -246.874)" opacity="0.1"/>
        <path id="Path_1501" data-name="Path 1501" d="M788.618,656a3.568,3.568,0,0,1-.037.625,4.219,4.219,0,0,1-.059.551c-.175,1.3.556-1.537,0-.353-18.491-2.081-38.129-.485-56.687-3.051l-2.625-.368-4.713-.654-3.97-.551h0a95.633,95.633,0,0,1-12.969-1.213,67.077,67.077,0,0,1-8.014-1.691c-11.764-1.61-23.594-3.161-35.387-4.573l-1.537-.184h0c.279-1.294.529-2.081.529-2.081s2.066-8.088,4.029-17.888h0c.14-.676.272-1.353.4-2.037l.2-1.037c.456-2.4.9-4.875,1.287-7.3.309-1.948.588-3.875.823-5.727.132-1.022.243-2.022.338-3,.051-.485.1-.971.132-1.47s.081-1.044.118-1.551.051-.956.073-1.419v-.691c0-.993,0-2.029-.037-3.1a90.439,90.439,0,0,0-2.478-15.741q-.309-1.338-.64-2.625c-.073-.279-.14-.551-.213-.823-2.382-9.227-5.147-16.785-5.147-16.785a.234.234,0,0,0,0-.052.426.426,0,0,0,0-.088,1.742,1.742,0,0,0,0-.184v-1.309a11.288,11.288,0,0,1,.375-2.279c.081-.257.169-.522.272-.779a4.86,4.86,0,0,1,3.485-3.169c2.081-.485,5.191.118,9.837,2.838a17.8,17.8,0,0,1,2.294,1.6h0c.346.287.676.573,1,.882,5.4,5.1,8.271,13.44,9.8,21.05.059.272.11.551.162.823.184.934.338,1.86.478,2.757.25,1.588.441,3.11.588,4.522.037.39.081.772.11,1.14s.074.735.1,1.088c.1,1.147.162,2.206.206,3.1.125,2.382.1,3.845.1,3.845v.39a.141.141,0,0,0,0,.059v.662q-.044.463-.11,1.081c-.066.632-.14,1.375-.228,2.206-.073.61-.14,1.279-.213,1.992-.162,1.471-.338,3.176-.529,4.97-.044.338-.081.676-.118,1.015-.169,1.537-.353,3.154-.529,4.772h0c-.213,1.838-.427,3.676-.647,5.485-.051.4-.1.794-.147,1.184-.537,4.411-1.073,8.36-1.515,10.837a10.245,10.245,0,0,0-.147,1.2,3.429,3.429,0,0,0,0,.382,7.539,7.539,0,0,0,0,1c.419,6.205,7.146,7.242,7.146,7.242l30.814-.6,4.566-.1,2.669-.051,24.064-.471,2.25-.044,11.9-.235a8.041,8.041,0,0,1,2.4.287A37.738,37.738,0,0,1,783,644.839a12.117,12.117,0,0,1,2.735,2.4.79.79,0,0,1,.1.118,12.6,12.6,0,0,1,2.853,6.911q0,.254,0,.507A8.533,8.533,0,0,0,788.618,656Z" transform="translate(-626.063 -209.273)" opacity="0.1"/>
        <path id="Path_1502" data-name="Path 1502" d="M756.54,695.27Z" transform="translate(-651.083 -246.874)" fill="#3a3768"/>
        <path id="Path_1503" data-name="Path 1503" d="M789.925,656.518h-2.178c-42.916,0-36.828,2.566-55.385,0H721.179c-4.346-.109-8.611.7-12.9,0-2.7-.4-4.9.726-7.534,0-11.764-1.61-24.393,1.412-36.186,0,.192-1.032.687-14.184.985-15.19,0,0,6.985-27.505,7.419-42.129.154-5.228-.882-11.7-2.287-17.866h0c-.206-.89-.412-1.772-.632-2.64l-.2-.823c-2.492-9.668-5.455-17.756-5.455-17.756a11.948,11.948,0,0,1,.169-2.992,8.005,8.005,0,0,1,.177-.787,6,6,0,0,1,1.9-3.176h0a.968.968,0,0,1,.14-.1c1.934-1.47,5.4-1.573,11.58,2.044a18.107,18.107,0,0,1,3.448,2.64c.294.279.588.573.868.875,4.963,5.375,7.6,13.609,8.977,20.976l.154.816c.162.919.3,1.823.434,2.7v.073h0c.169,1.162.309,2.272.426,3.331h0a87.717,87.717,0,0,1,.529,9.389s-.287,2.9-.735,7.088c-.169,1.64-.368,3.478-.581,5.419v.294l-.11,1.029c-.375,3.389-.787,7.007-1.206,10.359-.044.412-.1.816-.147,1.213-.471,3.772-.941,7.124-1.331,9.308-1.529,8.514,6.985,9.823,6.985,9.823l29.071-.574,4.558-.088,2.669-.059h1.478l23.057-.456H759.1l13.234-.265a8.26,8.26,0,0,1,2.4.294A37.924,37.924,0,0,1,785.27,643.8a12.5,12.5,0,0,1,2.478,2.1,1.2,1.2,0,0,1,.125.147C791.415,650.142,792.622,651.823,789.925,656.518Z" transform="translate(-626.677 -208.967)" fill="#3a3768"/>
        <path id="Path_1504" data-name="Path 1504" d="M956.569,347.05l8.992,19.263h-1.507L953.51,347.278Z" transform="translate(-690.029 -28.195)" fill="#4c4c56"/>
        <path id="Path_1505" data-name="Path 1505" d="M956.569,347.05l8.992,19.263h-1.507L953.51,347.278Z" transform="translate(-690.029 -28.195)" opacity="0.1"/>
        <path id="Path_1506" data-name="Path 1506" d="M957.67,373.25h8.992v2.015l-8.992.228Z" transform="translate(-691.13 -35.132)" fill="#4c4c56"/>
        <path id="Path_1507" data-name="Path 1507" d="M957.67,373.25h8.992v2.015l-8.992.228Z" transform="translate(-691.13 -35.132)" opacity="0.1"/>
        <path id="Path_1508" data-name="Path 1508" d="M880.5,420.872v67.267a4.992,4.992,0,0,0,4.992,4.992H997.616a4.963,4.963,0,0,0,4.963-5.058l-1.272-67.326a4.963,4.963,0,0,0-4.963-4.867H885.492A4.992,4.992,0,0,0,880.5,420.872Z" transform="translate(-683.903 -172.901)" fill="#4c4c56"/>
        <path id="Path_1509" data-name="Path 1509" d="M880.5,420.872v67.267a4.992,4.992,0,0,0,4.992,4.992H997.616a4.963,4.963,0,0,0,4.963-5.058l-1.272-67.326a4.963,4.963,0,0,0-4.963-4.867H885.492A4.992,4.992,0,0,0,880.5,420.872Z" transform="translate(-683.903 -172.901)" opacity="0.1"/>
        <path id="Path_1510" data-name="Path 1510" d="M875,420.872v67.267a4.992,4.992,0,0,0,4.992,4.992H992.116a4.955,4.955,0,0,0,4.955-5.058L995.8,420.747a4.963,4.963,0,0,0-4.956-4.867H880.022A4.992,4.992,0,0,0,875,420.872Z" transform="translate(-682.447 -172.901)" fill="#4c4c56"/>
        <path id="Path_1511" data-name="Path 1511" d="M881,426.592v59.223a4.992,4.992,0,0,0,4.992,4.992H989.815a4.963,4.963,0,0,0,4.963-4.963V426.555a4.963,4.963,0,0,0-4.963-4.955H885.992A4.992,4.992,0,0,0,881,426.592Z" transform="translate(-684.036 -174.416)" fill="#d5e1f4"/>
        <path id="Path_1512" data-name="Path 1512" d="M924.14,346.435,934,365.426h22.278L945.138,343.7Z" transform="translate(-682.253 -27.308)" fill="#4c4c56"/>
        <path id="Path_1513" data-name="Path 1513" d="M912.867,373.25l-1.647,2.015h34.152V373.25Z" transform="translate(-678.832 -35.132)" fill="#4c4c56"/>
        <path id="Path_1514" data-name="Path 1514" d="M723.109,432.734c-2.448-6.882-2.434-14.521-5.4-21.189a25.805,25.805,0,0,1-1.243-2.941,8.615,8.615,0,0,1-.338-1.919l-.184.044-.184.051-.184.074h0l-.169.1a6.44,6.44,0,0,0,.169.647,24.749,24.749,0,0,0,1.257,2.941c3.029,6.705,3.007,14.374,5.5,21.322a2,2,0,0,0,.463.816,1.1,1.1,0,0,0,.375.228C723.146,432.83,723.124,432.786,723.109,432.734Zm0,0c-2.448-6.882-2.434-14.521-5.4-21.189a25.805,25.805,0,0,1-1.243-2.941,8.615,8.615,0,0,1-.338-1.919l-.184.044-.184.051-.184.074h0l-.169.1a6.44,6.44,0,0,0,.169.647,24.749,24.749,0,0,0,1.257,2.941c3.029,6.705,3.007,14.374,5.5,21.322a2,2,0,0,0,.463.816,1.1,1.1,0,0,0,.375.228C723.146,432.83,723.124,432.786,723.109,432.734Zm0,0c-2.448-6.882-2.434-14.521-5.4-21.189a25.805,25.805,0,0,1-1.243-2.941,8.615,8.615,0,0,1-.338-1.919l-.184.044-.184.051-.184.074h0l-.169.1a6.44,6.44,0,0,0,.169.647,24.749,24.749,0,0,0,1.257,2.941c3.029,6.705,3.007,14.374,5.5,21.322a2,2,0,0,0,.463.816,1.1,1.1,0,0,0,.375.228C723.146,432.83,723.124,432.786,723.109,432.734Zm0,0c-2.448-6.882-2.434-14.521-5.4-21.189a25.805,25.805,0,0,1-1.243-2.941,8.615,8.615,0,0,1-.338-1.919l-.184.044-.184.051-.184.074h0l-.169.1a6.44,6.44,0,0,0,.169.647,24.749,24.749,0,0,0,1.257,2.941c3.029,6.705,3.007,14.374,5.5,21.322a2,2,0,0,0,.463.816,1.1,1.1,0,0,0,.375.228C723.146,432.83,723.124,432.786,723.109,432.734Zm0,0c-2.448-6.882-2.434-14.521-5.4-21.189a25.805,25.805,0,0,1-1.243-2.941,8.615,8.615,0,0,1-.338-1.919l-.184.044-.184.051-.184.074h0l-.169.1a6.44,6.44,0,0,0,.169.647,24.749,24.749,0,0,0,1.257,2.941c3.029,6.705,3.007,14.374,5.5,21.322a2,2,0,0,0,.463.816,1.1,1.1,0,0,0,.375.228C723.146,432.83,723.124,432.786,723.109,432.734Zm0,0c-2.448-6.882-2.434-14.521-5.4-21.189a25.805,25.805,0,0,1-1.243-2.941,8.615,8.615,0,0,1-.338-1.919l-.184.044-.184.051-.184.074h0l-.169.1a6.44,6.44,0,0,0,.169.647,24.749,24.749,0,0,0,1.257,2.941c3.029,6.705,3.007,14.374,5.5,21.322a2,2,0,0,0,.463.816,1.1,1.1,0,0,0,.375.228C723.146,432.83,723.124,432.786,723.109,432.734Zm0,0c-2.448-6.882-2.434-14.521-5.4-21.189a25.805,25.805,0,0,1-1.243-2.941,8.615,8.615,0,0,1-.338-1.919l-.184.044-.184.051-.184.074h0l-.169.1a6.44,6.44,0,0,0,.169.647,24.749,24.749,0,0,0,1.257,2.941c3.029,6.705,3.007,14.374,5.5,21.322a2,2,0,0,0,.463.816,1.1,1.1,0,0,0,.375.228C723.146,432.83,723.124,432.786,723.109,432.734Zm127.747,68.524h0l-.566-.1.735-.162h0a1.125,1.125,0,0,0,.213-.051h0c.816-.176,1.625-.375,2.419-.588h0l.831-.235h0l.118-.037c6.852-2.022-1.14-3.882-11.3-5.264h-.029c-10.97-1.47-24.424-2.434-24.424-2.434l-4.213.559H814.6c-5.147.676-13.271,1.794-14.565,2.206-1.573.522-14.925,1.162-19.579,1.368a2.03,2.03,0,0,0-.691-.735l-13.727-.632v1.89h0l-.1-.044a18.829,18.829,0,0,0-1.86-7.352l-.1-.206c-3.544-6.72-4.257-8.4-4.257-8.4h0a1.382,1.382,0,0,0-.1-.36c-1.191-4.132-5.58-11.315-13.021-21.623l-.257-.36-.934-4.573-.162-.8h-4.683a61.238,61.238,0,0,1,3.25-11.624c.1-.235.191-.471.294-.7l.059-.132c.1-.243.221-.485.331-.735h.816a22.373,22.373,0,0,0,21.5-20.807.14.14,0,0,0,0-.059q.044-.684.044-1.368a21.887,21.887,0,0,0-2.941-11.029c-.059-.1-.118-.206-.184-.309l-.118-.2-.265-.412c1.676-.4,3.676.368,5.147-.573a3.764,3.764,0,0,0,1.257-1.515,7.873,7.873,0,0,0,.735-2.206h0a.737.737,0,0,0,0-.125.1.1,0,0,0,0-.044,8.692,8.692,0,0,0,.11-1.515,8.162,8.162,0,0,0-.515-3.059,8.426,8.426,0,0,0-4.735-4.75,32.083,32.083,0,0,0-3.441-.934c-4.706-1.257-8.683-4.36-13.234-6.088a24.005,24.005,0,0,0-9.918-1.529,14.19,14.19,0,0,0-5.882,1.47,25.184,25.184,0,0,0-3.926,2.845c-3.272,2.581-6.985,4.786-9.83,7.867a17.6,17.6,0,0,0-1.426,1.765c-.25.36-.478.735-.735,1.1a1.97,1.97,0,0,0-1.772-.735h0a2.89,2.89,0,0,0-.36,0,7.128,7.128,0,0,0-.912.1c-.735.125-6.213,1.573-6.213,2.323a25.873,25.873,0,0,0-6.294,3.867c-4.411,4.036-5.4,10.433-5.955,16.33a151.331,151.331,0,0,0-.735,20.587c.1,2.5.3,5,.184,7.5a55.781,55.781,0,0,1-1.3,8.735q-.948,4.485-2.051,8.94c-.353,1.47-.919,3.11-2.36,3.573l.537.074a2.584,2.584,0,0,1-.537.257,16.063,16.063,0,0,0,1.867.184h.434a5.072,5.072,0,0,0,1.051-.125,3.926,3.926,0,0,0,1.331-.618c.059-.147.11-.294.162-.449a2.485,2.485,0,0,0,.882-1.368,9.732,9.732,0,0,1-.147,2.485,1.569,1.569,0,0,1-.074.36,10.146,10.146,0,0,1-2.529,4.794l.735-.559a10.823,10.823,0,0,1-.735.89q1.588-1.191,3.176-2.434h0a1.524,1.524,0,0,0,.184-.14h0l1.809-1.426v1.426h0v.331c-.147,5.073-.36,17.535.794,20.513.066.176.14.353.2.522,1.316,3.389,1.882,4.853,1.713,6.617-.118,1.228.8,4.742,1.309,7.536a9.353,9.353,0,0,1,.235,3.4,4.853,4.853,0,0,0,.132,2.029c.066.324.147.669.235,1.029a1.587,1.587,0,0,0,.1.39c.669,2.676,1.617,5.985.625,7.3a5.827,5.827,0,0,0-.735,1.47c-.816,2.206-.948,5.22-1.89,6.441-1.1,1.419-.735,3.941-.647,4.264a.13.13,0,0,1,0,.037s-.052.287-.154.735c-.125.618-.323,1.566-.573,2.617v.074a37.38,37.38,0,0,1-1.272,4.36h0c-.375,1-.735,1.72-1.154,1.86-1.47.537-2.206,7.441-2.206,7.441s-3.367,5.463-2.728,6.808a9.008,9.008,0,0,0,.478.9l-.323.5c-1.8,2.889-4.411,8.139-1.882,10.962a12.5,12.5,0,0,0,3.014,2.3c-.132.294-.272.61-.419.956-2.779,6.514-7.058,21.645,9.4,28.027a52.221,52.221,0,0,0,4.992,1.64,67.071,67.071,0,0,0,8.014,1.691,98.213,98.213,0,0,0,11.764,1.051c1.75.059,3.478.073,5.147.059s3.184-.051,4.7-.118q1.346-.052,2.625-.132a137.316,137.316,0,0,0,15.094-1.654l23.528-4.213s9.882.353,13.521,2.441l.11.066s.6-.346,1.6-1.022h0c.434-.294.948-.647,1.515-1.066a49.671,49.671,0,0,0,14.021-15.6l.081-.14.8-.1h.184l.573-.081,1.191-.169h.213c2.978-.434,5.794-.912,5.794-.912s.11,3.286.243,7.1c.044,1.162.081,2.375.125,3.551.14,4.029.265,7.691.265,7.816s3.029,8.088,6.419,16.116l2.647.213q10.484.838,20.962,1.39l2.61.132,1.632.081c-1.176-7.124-2.1-13.918-2.1-13.918l-4.367-20.344s-.456-4.213-3.728-22.939c-2.647-15.175-18.234-13.83-24.072-12.764-.6.11-1.081.213-1.47.294v-1.14s-11.2.941-21.322,1.4l-2.463.1c-2.345.088-4.573.14-6.529.14a47.784,47.784,0,0,1-5.147-.206c-7.816-.9-16.727,1.787-16.727,1.787s-11.389,1.845-12.911,1.169a3.919,3.919,0,0,0-1.287-.265h-.735a1.176,1.176,0,0,0,.735-1.309c-.456-1.882-.64-4.485.64-6.279.559-.794,1.47-2.044,2.287-3.184l1.985-2.728v-.213l.051-.8.478-7.146,1.147-6.617.073-.419.1-.588.073-.426.221.073h0c3.257,1.132,6.948,1.926,9.558,1.015h.052a4.381,4.381,0,0,0,.6-.257h.118v.493l.044.86,12.271-.669h.184s.478-2.367.993-5.632c.037-.265.081-.537.125-.816s.11-.735.162-1.073a4.461,4.461,0,0,1,.073-.522h.735c5.691-.206,13.631-.691,16.866-1.867h0a3.675,3.675,0,0,0,1.11-.6c1.375-1.191,6.308-2.9,11.154-4.367h0l1.934-.574c1.4-.412,2.757-.794,3.956-1.132,2.779-.735,4.764-1.279,4.764-1.279s19.116,1.772,33.394-2.353h0l.235-.066C860.583,503.912,857.245,502.471,850.856,501.258ZM715.212,405.677a3.974,3.974,0,0,0,.081.654h0a1.839,1.839,0,0,0,.044.279.505.505,0,0,0,.059.287,6.425,6.425,0,0,0,.169.647,24.751,24.751,0,0,0,1.257,2.941c3.029,6.705,3.007,14.374,5.5,21.322a2,2,0,0,0,.463.816,1.1,1.1,0,0,0,.375.228l.176.059h.206l-.081.14a.734.734,0,0,1-.059.1l-.051.081c-.985,1.662-2.037,3.294-3.1,4.735a6.911,6.911,0,0,0-2.551,1.044l-.412.272-.176.132c-.257-1.265-.61-2.515-.934-3.764a86.885,86.885,0,0,1-2.838-20.4v-1.39c0-1.779.044-3.551.154-5.33a4.412,4.412,0,0,1,.625-2.338h0a1.61,1.61,0,0,1,1.088-.529Zm7.9,27.064c-2.448-6.882-2.434-14.521-5.4-21.189a25.807,25.807,0,0,1-1.243-2.941,8.616,8.616,0,0,1-.338-1.919l-.184.044-.184.051-.184.074h0l-.169.1a6.442,6.442,0,0,0,.169.647,24.749,24.749,0,0,0,1.257,2.941c3.029,6.705,3.007,14.374,5.5,21.322a2,2,0,0,0,.463.816,1.1,1.1,0,0,0,.375.228c-.022-.088-.044-.132-.059-.184Zm0,0c-2.448-6.882-2.434-14.521-5.4-21.189a25.807,25.807,0,0,1-1.243-2.941,8.616,8.616,0,0,1-.338-1.919l-.184.044-.184.051-.184.074h0l-.169.1a6.442,6.442,0,0,0,.169.647,24.749,24.749,0,0,0,1.257,2.941c3.029,6.705,3.007,14.374,5.5,21.322a2,2,0,0,0,.463.816,1.1,1.1,0,0,0,.375.228c-.022-.088-.044-.132-.059-.184Zm0,0c-2.448-6.882-2.434-14.521-5.4-21.189a25.807,25.807,0,0,1-1.243-2.941,8.616,8.616,0,0,1-.338-1.919l-.184.044-.184.051-.184.074h0l-.169.1a6.442,6.442,0,0,0,.169.647,24.749,24.749,0,0,0,1.257,2.941c3.029,6.705,3.007,14.374,5.5,21.322a2,2,0,0,0,.463.816,1.1,1.1,0,0,0,.375.228c-.022-.088-.044-.132-.059-.184Zm0,0c-2.448-6.882-2.434-14.521-5.4-21.189a25.807,25.807,0,0,1-1.243-2.941,8.616,8.616,0,0,1-.338-1.919l-.184.044-.184.051-.184.074h0l-.169.1a6.442,6.442,0,0,0,.169.647,24.749,24.749,0,0,0,1.257,2.941c3.029,6.705,3.007,14.374,5.5,21.322a2,2,0,0,0,.463.816,1.1,1.1,0,0,0,.375.228c-.022-.088-.044-.132-.059-.184Zm0,0c-2.448-6.882-2.434-14.521-5.4-21.189a25.807,25.807,0,0,1-1.243-2.941,8.616,8.616,0,0,1-.338-1.919l-.184.044-.184.051-.184.074h0l-.169.1a6.442,6.442,0,0,0,.169.647,24.749,24.749,0,0,0,1.257,2.941c3.029,6.705,3.007,14.374,5.5,21.322a2,2,0,0,0,.463.816,1.1,1.1,0,0,0,.375.228c-.022-.088-.044-.132-.059-.184Zm0,0c-2.448-6.882-2.434-14.521-5.4-21.189a25.807,25.807,0,0,1-1.243-2.941,8.616,8.616,0,0,1-.338-1.919l-.184.044-.184.051-.184.074h0l-.169.1a6.442,6.442,0,0,0,.169.647,24.749,24.749,0,0,0,1.257,2.941c3.029,6.705,3.007,14.374,5.5,21.322a2,2,0,0,0,.463.816,1.1,1.1,0,0,0,.375.228c-.022-.088-.044-.132-.059-.184Z" transform="translate(-633.077 -164.346)" fill="url(#linear-gradient)"/>
        <path id="Path_1515" data-name="Path 1515" d="M757.959,450.812a17.144,17.144,0,0,0-2.823,4.367c-.11.243-.221.478-.324.735-3.25,7.352-4.353,17.756-4.353,17.756s-2.015-.9-4.867-2.316c-5.316-2.632-13.521-7.014-16.837-10.507-1.47-1.581-2-2.978-.779-3.956a9.06,9.06,0,0,0,.809-.735,23.377,23.377,0,0,0,2.566-3.044c1.059-1.47,2.1-3.11,3.088-4.794.581-.985,1.132-1.978,1.647-2.941l.206-.382c2.206-4.184,3.816-7.757,3.816-7.757s.735.235,1.926.654C747.526,439.857,762.65,445.82,757.959,450.812Z" transform="translate(-643.341 -178.557)" fill="#efb7b9"/>
        <path id="Path_1516" data-name="Path 1516" d="M890.407,667.094s.9,6.661,2.037,13.69l-2.61-.132q-10.47-.544-20.962-1.39c-3.97-9.2-8.088-20.116-8.088-20.285s-.125-3.764-.265-7.779c-.044-1.412-.1-2.867-.14-4.235h0c-.073-2.073-.14-3.941-.176-5.1,0-.794-.044-1.265-.044-1.265s-3.779.662-7.176,1.125l-1.507.2c-.779.1-1.47.169-2.1.213a5.393,5.393,0,0,1-1.625,0c-1.162-.448,1.25-11.764,1.25-11.764l6-14.521,1.676-4.044.735-.184c.36-.088.846-.191,1.426-.3,5.727-1.051,21.028-2.39,23.623,12.712,3.213,18.653,3.676,22.844,3.676,22.844Z" transform="translate(-675.15 -224.492)" fill="#efb7b9"/>
        <path id="Path_1518" data-name="Path 1518" d="M890.407,667.094s.9,6.661,2.037,13.69l-2.61-.132q-10.47-.544-20.962-1.39c-3.97-9.2-8.088-20.116-8.088-20.285s-.125-3.764-.265-7.779c-.044-1.412-.1-2.867-.14-4.235h0c-.073-2.073-.14-3.941-.176-5.1,0-.794-.044-1.265-.044-1.265s-3.779.662-7.176,1.125l-1.507.2c-.779.1-1.47.169-2.1.213a5.393,5.393,0,0,1-1.625,0c-1.162-.448,1.25-11.764,1.25-11.764l6-14.521,1.676-4.044.735-.184c.36-.088.846-.191,1.426-.3,5.727-1.051,21.028-2.39,23.623,12.712,3.213,18.653,3.676,22.844,3.676,22.844Z" transform="translate(-675.15 -224.492)" opacity="0.05"/>
        <path id="Path_1520" data-name="Path 1520" d="M889.127,682.116q-10.47-.544-20.962-1.39l-2.647-.213-1.169-.1c-3.294-7.948-6.22-15.719-6.22-15.859s-.125-3.764-.265-7.779c-.169-5.014-.36-10.6-.36-10.6l-.493.081-.206.037h-.265l-1.184.2-.647.1c-1.169.191-2.581.4-3.963.6l-.309.044-.809.1-.735.088h0c-.566.073-1.1.132-1.588.176l-.6.051a5.146,5.146,0,0,1-1.625,0c-1.162-.448,1.25-11.764,1.25-11.764l7.676-18.565.265-.073c.4-.1,1.257-.3,2.412-.5.434-.074.912-.147,1.426-.213,6.661-.853,19.337-.61,21.682,13.014,3.213,18.653,3.676,22.844,3.676,22.844l4.286,20.278S888.318,676.874,889.127,682.116Z" transform="translate(-674.443 -225.956)" fill="#efb7b9"/>
        <path id="Path_1521" data-name="Path 1521" d="M858.569,666.5c-.169-5.014-.36-10.609-.36-10.609s-7.352,1.287-10.779,1.537l.691-2.338s12.587-3.478,12.852-1.515C861.164,654.949,859.547,662.257,858.569,666.5Z" transform="translate(-675.147 -235.675)" opacity="0.1"/>
        <path id="Path_1522" data-name="Path 1522" d="M858.134,611.48V616.8s-.625,9.558-5.536,24.182c-.1.316-.213.625-.331.934a33.352,33.352,0,0,1-1.823,4.1c-1.382.191-2.72.353-3.713.426a5.375,5.375,0,0,1-1.625,0c-1.162-.448,1.243-11.764,1.243-11.764l7.676-18.557.272-.074,1.669-4.051A19.393,19.393,0,0,1,858.134,611.48Z" transform="translate(-674.448 -224.689)" opacity="0.1"/>
        <path id="Path_1523" data-name="Path 1523" d="M816.2,610.34v6.154s-.625,9.558-5.536,24.189c-.125.382-.265.735-.4,1.125s-.323.853-.507,1.265c-.4.978-.86,1.926-1.338,2.838h0a49.107,49.107,0,0,1-13.425,15.366c-.544.419-1.051.787-1.47,1.1h-.037c-.735.5-1.265.86-1.6,1.073s-.368.228-.368.228c-3.485-2.14-13.389-2.5-13.389-2.5l-23.116,4.2a133.975,133.975,0,0,1-15.271,1.735l-2.625.125c-1.515.059-3.088.1-4.7.1-1.3,0-2.625,0-3.97-.051h0a95.633,95.633,0,0,1-12.969-1.213,64.758,64.758,0,0,1-7-1.551,49.261,49.261,0,0,1-4.845-1.618c-16.175-6.352-11.962-21.417-9.234-27.939.147-.346.287-.662.419-.956.6-1.331,1.051-2.11,1.051-2.11l1.073-2.6h0l1.757-4.257.39-.934.11-.272,1.3-3.154,18.381-2.382,13.506-1.75,4.11-.529,2.787-.36,5.316-.691,2-.257a24.88,24.88,0,0,1,3.728-.294,5.21,5.21,0,0,1,1.985.294c1.47.669,12.675-1.162,12.675-1.162s8.742-2.676,16.418-1.787a91.327,91.327,0,0,0,11.4.073h0l.941-.044,1.22-.051h.265C805.17,611.281,816.2,610.34,816.2,610.34Z" transform="translate(-633.939 -224.387)" fill="#444053"/>
        <path id="Path_1524" data-name="Path 1524" d="M767.643,635.171s-8.823,20.079-9.19,20.432-.353,6.617,0,6.25S771.04,634.37,771.04,634.37Z" transform="translate(-651.518 -230.75)" opacity="0.1"/>
        <path id="Path_1525" data-name="Path 1525" d="M818.619,612.328s-4.463,2.882-5.8,5.205-13.565,25.432-16.594,28.821a74.034,74.034,0,0,0-6.786,9.654c-.353.61-.353,4.448,1.787.787s1.61-4.279,5.8-8.823,8.823-14.815,10.617-16.866,4.286-8.213,7.411-11.874l5.985-6.992Z" transform="translate(-659.747 -224.891)" opacity="0.1"/>
        <path id="Path_1526" data-name="Path 1526" d="M828.253,666.066s-3.125-2.139-6.066,1.515S828.253,666.066,828.253,666.066Z" transform="translate(-668.308 -238.977)" opacity="0.1"/>
        <path id="Path_1527" data-name="Path 1527" d="M834.417,667.79s-2.588,4.514-3.838,4.875S834.417,667.79,834.417,667.79Z" transform="translate(-670.633 -239.598)" opacity="0.1"/>
        <path id="Path_1528" data-name="Path 1528" d="M829.268,669.32s-2.051,3.573-3.838,3.213Z" transform="translate(-669.323 -240.003)" opacity="0.1"/>
        <path id="Path_1529" data-name="Path 1529" d="M809.586,536.6s18.918-.8,20.792-1.426,18.469-2.764,18.469-2.764,49.173,3.478,35.166,7.676-33.019,2.4-33.019,2.4-18.565,4.823-21.417,7.352-23.917,2.588-23.917,2.588Z" transform="translate(-664.088 -203.754)" fill="#efb7b9"/>
        <path id="Path_1530" data-name="Path 1530" d="M809.586,536.6s18.918-.8,20.792-1.426,18.469-2.764,18.469-2.764,49.173,3.478,35.166,7.676-33.019,2.4-33.019,2.4-18.565,4.823-21.417,7.352-23.917,2.588-23.917,2.588Z" transform="translate(-664.088 -203.754)" opacity="0.05"/>
        <path id="Path_1531" data-name="Path 1531" d="M715.43,479.343s-17.315,5.882-8.926,20.881,19.19,22.057,19.19,22.057l27.843,19.278s11.69,6.691,17.043,3.926l8.742-.735,1.471-22.939s-7.352,5.713-15.352-2.206-17.852-13.3-18.653-17.579S725.51,475.682,715.43,479.343Z" transform="translate(-637.228 -189.596)" fill="#a36468"/>
        <path id="Path_1532" data-name="Path 1532" d="M793.87,543.044s9.014,3.213,8.661,3.389-8.661,3.3-8.661,3.3l.625,12.227,12.227-.669s4.463-22.263.625-24.5l-13.477-.625Z" transform="translate(-660.967 -204.75)" fill="#67647e"/>
        <path id="Path_1533" data-name="Path 1533" d="M793.87,543.044s9.014,3.213,8.661,3.389-8.661,3.3-8.661,3.3l.625,12.227,12.227-.669s4.463-22.263.625-24.5l-13.477-.625Z" transform="translate(-660.967 -204.75)" opacity="0.1"/>
        <path id="Path_1534" data-name="Path 1534" d="M761.123,450.82a17.147,17.147,0,0,0-2.823,4.367c-.11.243-.221.478-.324.735-6.566,0-11.286-5.1-15.315-9.668-.735-.846-2.6.434-3.206-.515-.066-.11-.132-.221-.206-.331l.206-.382c2.206-4.184,3.816-7.757,3.816-7.757s.735.235,1.926.654C750.69,439.865,765.814,445.828,761.123,450.82Z" transform="translate(-646.505 -178.565)" opacity="0.1"/>
        <path id="Path_1535" data-name="Path 1535" d="M779.056,423.571a22.131,22.131,0,0,1-21.925,22.123h-.213a22.094,22.094,0,0,1-16.6-7.5,22.548,22.548,0,0,1-2.029-2.684,22.138,22.138,0,1,1,40.769-11.94Z" transform="translate(-645.322 -169.072)" fill="#efb7b9"/>
        <path id="Path_1536" data-name="Path 1536" d="M746.079,618.22s-1.684,2.059-3.544,3.978a13.82,13.82,0,0,1-3.867,3.161c-2.206.809-12.315,8.477-12.315,8.477s-8.029,5.448-10.08,7.051-9.462.625-9.462.625-7.132-1.559-11.551-4.411a28.714,28.714,0,0,1,1.47-3.059l4.639-11.249,18.381-2.375Z" transform="translate(-634.858 -226.474)" opacity="0.1"/>
        <path id="Path_1537" data-name="Path 1537" d="M744.427,616.28s-1.676,2.059-3.536,3.978a14.356,14.356,0,0,1-3.867,3.161c-2.206.8-12.315,8.477-12.315,8.477s-8.036,5.448-10.087,7.051-9.455.625-9.455.625-10.176-2.206-13.749-6.25c-2.5-2.816.088-8.036,1.853-10.911a22.05,22.05,0,0,1,1.36-2.029Z" transform="translate(-633.566 -225.96)" fill="#67647e"/>
        <path id="Path_1538" data-name="Path 1538" d="M772.474,510.894c-6.073-.537-26.064-25-26.064-25l.456-.625,4.191-5.8h9.8l1.081,5.353c7.455,10.455,11.845,17.727,13.036,21.888C775.834,509.74,775.018,511.122,772.474,510.894Z" transform="translate(-648.401 -189.738)" fill="#67647e"/>
        <path id="Path_1539" data-name="Path 1539" d="M772.474,512.983c-6.073-.537-26.064-25-26.064-25l.456-.625a112.877,112.877,0,0,1,10.08,10.529c14.631,17.219,17.528,12.411,18.028,10.911C775.834,511.829,775.018,513.211,772.474,512.983Z" transform="translate(-648.401 -191.827)" opacity="0.1"/>
        <path id="Path_1540" data-name="Path 1540" d="M745.468,616.28s-1.676,2.059-3.536,3.978a10.029,10.029,0,0,1-3.066.662c-2.323-.088-7.676,3.573-7.676,3.573s-9.455-.537-11.242.441-8.661,1.162-8.661,1.162c-12.58,3.588-16.058-1.86-16.977-3.676a22.057,22.057,0,0,1,1.36-2.029Z" transform="translate(-634.607 -225.96)" opacity="0.1"/>
        <path id="Path_1541" data-name="Path 1541" d="M767.235,525.668a7.768,7.768,0,0,1-.11,1.022c-.044.331-.088.669-.14.985a16.175,16.175,0,0,1-1.61,5.213c-1.6,2.676-6.514,13.117-6.514,13.117l-.331,1.926-.169,1.007-.176.992-1.2,7.036-.537,8.124s-2.941,4.1-4.191,5.882-1.073,4.375-.625,6.25-4.1,2.14-4.1,2.14-6.426,3.125-8.749,3.036-7.676,3.559-7.676,3.559-9.455-.537-11.242.448-8.661,1.162-8.661,1.162c-13.47,3.831-16.506-2.684-17.131-4.022s2.676-6.779,2.676-6.779.735-6.874,2.14-7.411,3.125-9.632,3.125-9.632-.537-2.772.625-4.286,1.073-5.8,2.588-7.852-1.6-8.926-1.066-10.712-1.7-9.014-1.522-10.889-.441-3.389-1.875-7.139c-1.22-3.2-.875-17.41-.735-21.484,0-.691.037-1.088.037-1.088s1.25-4.022,4.551-12.051c2.5-6.08,8.124-8.382,10.705-9.132a13.434,13.434,0,0,1,1.345-.331,9.447,9.447,0,0,1,1.9.478c2.6.875,7.808,3.353,15.234,10.293a114.188,114.188,0,0,1,9.286,9.793c16.741,19.675,18.109,10.492,18.109,10.492s.735,1.676,4.183,8.367A21.29,21.29,0,0,1,767.235,525.668Z" transform="translate(-634.523 -188.491)" fill="#a36468"/>
        <path id="Path_1542" data-name="Path 1542" d="M746.994,473.176,730.2,459.78s-6.051.735-8.551,10.9l17.285,15.138Z" transform="translate(-641.845 -184.525)" opacity="0.1"/>
        <path id="Path_1543" data-name="Path 1543" d="M746.872,472.935l-2.941,4.11-2.985,4.213-2.25,3.3-13.8-11.624-2.375-2.059-1.331-1.132c1.346-5.492,3.735-8.235,5.639-9.558a7.007,7.007,0,0,1,2.941-1.316Z" transform="translate(-641.724 -184.284)" fill="#67647e"/>
        <path id="Path_1544" data-name="Path 1544" d="M884.987,547.366c-14.014,4.191-33.019,2.412-33.019,2.412s-18.565,4.816-21.417,7.352c-1.838,1.61-11.227,2.206-17.646,2.448-3.566.132-6.235.14-6.235.14l3.919-15.83,2.265-.1c5.08-.235,17.057-.838,18.528-1.331,1.875-.625,18.469-2.764,18.469-2.764S898.994,543.168,884.987,547.366Z" transform="translate(-664.356 -205.682)" fill="#efb7b9"/>
        <path id="Path_1545" data-name="Path 1545" d="M769.947,531.051a16.175,16.175,0,0,1-1.61,5.213c-1.6,2.676-6.514,13.117-6.514,13.117l-.676,3.963a48.369,48.369,0,0,1-6.617-3.044L726.663,531s-10.8-7.051-19.19-22.057,8.926-20.881,8.926-20.881c10.08-3.676,30.52,18.381,31.321,22.667s10.624,9.639,18.653,17.579A16.325,16.325,0,0,0,769.947,531.051Z" transform="translate(-637.484 -191.904)" opacity="0.1"/>
        <path id="Path_1546" data-name="Path 1546" d="M770.2,528.308c-.066.7-.147,1.368-.25,2.007a16.175,16.175,0,0,1-1.61,5.213c-1.6,2.676-6.514,13.117-6.514,13.117l-.331,1.926a47.691,47.691,0,0,1-6.985-3.176l-27.843-19.307s-10.8-7.051-19.19-22.057,8.926-20.888,8.926-20.888c10.08-3.676,30.52,18.381,31.321,22.667s10.624,9.639,18.653,17.587a16.1,16.1,0,0,0,3.823,2.912Z" transform="translate(-637.484 -191.131)" opacity="0.1"/>
        <path id="Path_1547" data-name="Path 1547" d="M781.725,529.1,780.3,552.031l-8.749.735a4.291,4.291,0,0,1-.6.257c-5.573,2.044-16.447-4.184-16.447-4.184l-27.843-19.3s-10.8-7.051-19.19-22.057S716.4,486.6,716.4,486.6c10.08-3.676,30.52,18.381,31.321,22.667s10.624,9.639,18.653,17.579a16.02,16.02,0,0,0,4.014,2.941A10.962,10.962,0,0,0,781.725,529.1Z" transform="translate(-637.484 -191.517)" fill="#a36468"/>
        <path id="Path_1548" data-name="Path 1548" d="M805.207,544.55l-1.426,22.932-8.749.735a4.283,4.283,0,0,1-.6.257l-.566-11.146s8.3-3.125,8.661-3.3-8.661-3.389-8.661-3.389v-5.33a10.962,10.962,0,0,0,11.337-.757Z" transform="translate(-660.967 -206.969)" opacity="0.1"/>
        <path id="Path_1549" data-name="Path 1549" d="M812.855,561.016c-3.566.132-6.235.14-6.235.14l3.956-15.793,2.265-.1C814.3,547.767,813.671,555.134,812.855,561.016Z" transform="translate(-664.342 -207.157)" opacity="0.1"/>
        <path id="Path_1550" data-name="Path 1550" d="M794.84,550.324s9.014,3.213,8.661,3.389-8.661,3.3-8.661,3.3l.625,12.227,12.227-.669s4.463-22.263.625-24.5l-13.477-.625Z" transform="translate(-661.223 -206.677)" fill="#67647e"/>
        <path id="Path_1551" data-name="Path 1551" d="M720.146,572.71s-3.036,2.853-5.536,3.61Z" transform="translate(-639.981 -214.424)" opacity="0.1"/>
        <path id="Path_1552" data-name="Path 1552" d="M712.31,583.453s7.4-.272,8.293-1.787S712.31,583.453,712.31,583.453Z" transform="translate(-639.372 -216.691)" opacity="0.1"/>
        <path id="Path_1553" data-name="Path 1553" d="M707.33,597.812c.448,0,9.367-1.25,9.727-2.412Z" transform="translate(-638.054 -220.432)" opacity="0.1"/>
        <path id="Path_1554" data-name="Path 1554" d="M703.57,606.623c3.213-.1,8.654-3.573,8.654-3.573Z" transform="translate(-637.058 -222.457)" opacity="0.1"/>
        <path id="Path_1555" data-name="Path 1555" d="M731.85,608.686s19.366,0,20.256-3.566S731.85,608.686,731.85,608.686Z" transform="translate(-644.546 -222.741)" opacity="0.1"/>
        <path id="Path_1556" data-name="Path 1556" d="M751.63,541.534c.36,0,15.264,0,16.69-2.051S751.63,541.534,751.63,541.534Z" transform="translate(-649.783 -205.475)" opacity="0.1"/>
        <path id="Path_1557" data-name="Path 1557" d="M722.127,462.38a14.246,14.246,0,0,1,.191,2.206,13.66,13.66,0,0,1-.221,2.448,21.2,21.2,0,0,1-1.382,4.463l-.154.36c-.221.515-.456,1.015-.7,1.515a41.649,41.649,0,0,1-3.853,6.353,69.469,69.469,0,0,1-11.558,12.021q-1.125.948-2.272,1.875c0-.691.037-1.088.037-1.088s1.25-4.022,4.551-12.051c2.5-6.08,8.124-8.382,10.705-9.132l-1.331-1.132c1.346-5.492,3.735-8.235,5.639-9.558C721.9,461.2,722.039,461.778,722.127,462.38Z" transform="translate(-636.69 -184.758)" opacity="0.1"/>
        <path id="Path_1558" data-name="Path 1558" d="M775.854,412.165a2.59,2.59,0,0,0-.647.257c-1.4.772-1.8,2.6-2.941,3.757-1.316,1.36-3.375,1.566-5.25,1.8s-3.97.7-4.963,2.309c-.735,1.2-.669,2.706-.934,4.088a1.3,1.3,0,0,1-.287.676,1.323,1.323,0,0,1-.9.294c-3.676.257-6.352-1.007-9.793-1.9a5.232,5.232,0,0,0-4.735.735,5.385,5.385,0,0,0-1.4,4.161v.132a28.428,28.428,0,0,1,.132,4.411,7.279,7.279,0,0,1-3.845,5.389,6.8,6.8,0,0,1-2.779.794,2.25,2.25,0,0,1-1.1-.162c.654-1.118,1.279-2.206,1.853-3.316a22.137,22.137,0,1,1,37.558-23.441Z" transform="translate(-645.355 -169.157)" opacity="0.1"/>
        <path id="Path_1559" data-name="Path 1559" d="M770.383,404.907a3.736,3.736,0,0,1-1.228,1.507c-1.676,1.088-4.081-.11-5.83.86-1.4.772-1.8,2.6-2.941,3.757-1.309,1.36-3.367,1.566-5.25,1.8s-3.963.7-4.963,2.309c-.735,1.2-.662,2.7-.934,4.088a1.243,1.243,0,0,1-.287.676,1.346,1.346,0,0,1-.9.294c-3.676.257-6.352-1.015-9.793-1.9a5.22,5.22,0,0,0-4.728.735,5.124,5.124,0,0,0-1.4,4.169,32.218,32.218,0,0,1,.14,4.529,7.352,7.352,0,0,1-6.617,6.183,1.808,1.808,0,0,1-1.36-.346,1.948,1.948,0,0,1-.448-.809c-2.448-6.882-2.426-14.521-5.4-21.2a23.956,23.956,0,0,1-1.243-2.941c-.059-.206-.118-.419-.162-.632a9.667,9.667,0,0,1-.176-1.287,1.838,1.838,0,0,0-.838.346,1.546,1.546,0,0,0-.235.25,4.36,4.36,0,0,0-.618,2.331,88.229,88.229,0,0,0,2.647,27.329,28.566,28.566,0,0,1,1.272,6.86,18.329,18.329,0,0,1-1.765,7.272c-4.61,10.632-13.874,18.418-23.086,25.454a10.242,10.242,0,0,0,2.735-7.6,3,3,0,0,1-2.331,2.088,8.985,8.985,0,0,1-3.286-.052c1.412-.463,1.963-2.125,2.316-3.566q1.081-4.411,2.007-8.9a56.062,56.062,0,0,0,1.294-8.69c.11-2.485-.081-4.978-.184-7.47a151.2,151.2,0,0,1,.735-20.476c.544-5.882,1.529-12.242,5.845-16.256a25.394,25.394,0,0,1,6.176-3.853c0-.735,5.389-2.206,6.1-2.309a5.79,5.79,0,0,1,.9-.1,1.845,1.845,0,0,1,1.919,1.007c.265-.478.559-.948.868-1.4a16.271,16.271,0,0,1,1.4-1.757c2.8-3.088,6.433-5.264,9.676-7.882a24.883,24.883,0,0,1,3.853-2.838,13.866,13.866,0,0,1,5.771-1.47,23.417,23.417,0,0,1,9.742,1.529c4.47,1.72,8.374,4.808,13,6.058a30.931,30.931,0,0,1,3.375.934,8.176,8.176,0,0,1,4.264,11.337Z" transform="translate(-633.826 -164.723)" fill="#444053"/>
        <g id="Group_2" data-name="Group 2" transform="translate(57.505 234.325)" opacity="0.1">
          <path id="Path_1560" data-name="Path 1560" d="M695.915,500.088a10.16,10.16,0,0,0,.669-4.338,3.014,3.014,0,0,1-2.338,2.088,4.773,4.773,0,0,1-.853.125,3.693,3.693,0,0,1-2.073,2.676,8.992,8.992,0,0,0,3.286.059,3.676,3.676,0,0,0,1.309-.61Z" transform="translate(-691.32 -428.373)"/>
          <path id="Path_1561" data-name="Path 1561" d="M779.3,404.11a8.221,8.221,0,0,1-.882,3.338,3.786,3.786,0,0,1-1.235,1.471c-1.669,1.088-4.081-.1-5.83.86-1.4.772-1.8,2.61-2.941,3.757-1.316,1.36-3.375,1.573-5.25,1.8s-3.97.735-4.963,2.309c-.735,1.2-.669,2.706-.934,4.088a1.029,1.029,0,0,1-1.184.978c-3.676.257-6.352-1.015-9.793-1.9a5.232,5.232,0,0,0-4.735.735,5.4,5.4,0,0,0-1.4,4.169,31,31,0,0,1,.132,4.522,7.308,7.308,0,0,1-6.617,6.191,1.831,1.831,0,0,1-1.36-.346,1.976,1.976,0,0,1-.448-.816c-2.448-6.882-2.434-14.521-5.4-21.19a25.742,25.742,0,0,1-1.235-2.941,8.632,8.632,0,0,1-.346-1.919,1.618,1.618,0,0,0-1.073.6,4.515,4.515,0,0,0-.618,2.331,88.735,88.735,0,0,0,.735,17.646,88.956,88.956,0,0,1-.36-14.808,4.359,4.359,0,0,1,.618-2.331,1.544,1.544,0,0,1,1.073-.6,8.688,8.688,0,0,0,.338,1.919,25.162,25.162,0,0,0,1.243,2.941c2.941,6.676,2.941,14.308,5.4,21.189a2.03,2.03,0,0,0,.456.816,1.779,1.779,0,0,0,1.353.4,7.352,7.352,0,0,0,6.617-6.183,32.228,32.228,0,0,0-.14-4.529,5.52,5.52,0,0,1,1.4-4.169,5.114,5.114,0,0,1,4.728-.735c3.441.882,6.1,2.154,9.793,1.9a1.345,1.345,0,0,0,.9-.294,1.272,1.272,0,0,0,.287-.684c.272-1.382.191-2.889.934-4.081,1-1.61,3.088-2.081,4.963-2.316s3.941-.434,5.257-1.794c1.11-1.154,1.507-2.985,2.941-3.764,1.742-.963,4.154.235,5.83-.853a3.736,3.736,0,0,0,1.228-1.507,8.338,8.338,0,0,0,.522-6.2Z" transform="translate(-699.717 -404.11)"/>
          <path id="Path_1562" data-name="Path 1562" d="M719.781,461.489a18.381,18.381,0,0,1-1.757,7.271c-4.125,9.507-11.977,16.741-20.175,23.189a10.292,10.292,0,0,1-2.559,5.147c9.205-7.029,18.484-14.815,23.086-25.447a18.33,18.33,0,0,0,1.765-7.271,16.106,16.106,0,0,0-.375-3.2C719.773,461.254,719.781,461.371,719.781,461.489Z" transform="translate(-692.371 -419.22)"/>
        </g>
        <path id="Path_1563" data-name="Path 1563" d="M728.674,404c-.662,3.044-1.573,7-2.257,9.036a11.031,11.031,0,0,1-.176-1.287,1.817,1.817,0,0,0-.831.346c0-2.14.257-5.323.478-7.705a1.853,1.853,0,0,1,1.926,1.007A12.76,12.76,0,0,1,728.674,404Z" transform="translate(-642.841 -169.756)" opacity="0.1"/>
        <path id="Path_1564" data-name="Path 1564" d="M728.192,404c-.662,3.044-1.573,7-2.257,9.036a9.658,9.658,0,0,1-.176-1.287,1.838,1.838,0,0,0-.838.346c0-2.14.257-5.323.485-7.705a1.845,1.845,0,0,1,1.919,1.007C727.589,404.926,727.92,404.456,728.192,404Z" transform="translate(-642.711 -169.756)" fill="#67647e"/>
      </g>
    </g>
  </g>
</svg>
