<svg xmlns="http://www.w3.org/2000/svg" width="26.294" height="30.295" viewBox="0 0 26.294 30.295">
  <g id="Icon_ionic-ios-notifications" data-name="Icon ionic-ios-notifications" transform="translate(-6.761 -3.93)">
    <path id="Path_1565" data-name="Path 1565" d="M18.566,32.692c2.556,0,3.954-1.808,3.954-4.356H14.6C14.6,30.884,16,32.692,18.566,32.692Z" transform="translate(1.325 1.533)" fill="#3d4a59"/>
    <path id="Path_1566" data-name="Path 1566" d="M32.722,25.944c-1.266-1.508-3.756-2.392-3.756-9.146,0-6.932-3.386-9.718-6.543-10.387-.3-.067-.51-.156-.51-.438V5.758a2.014,2.014,0,0,0-4.011,0v.215c0,.275-.214.371-.51.438C14.228,7.088,10.85,9.867,10.85,16.8c0,6.753-2.491,7.63-3.756,9.146A1.47,1.47,0,0,0,8.4,28.307H31.423A1.47,1.47,0,0,0,32.722,25.944Z" transform="translate(0 0)" fill="#3d4a59"/>
  </g>
</svg>
