<svg xmlns="http://www.w3.org/2000/svg" width="19.396" height="22.168" viewBox="0 0 19.396 22.168">
  <path id="Icon_simple-clockify" data-name="Icon simple-clockify" d="M14.412,7.619l5.023-5.093,1.438,1.457L15.85,9.075,14.411,7.619Zm-2.035,5.2a1.765,1.765,0,0,1-1.26-.533,1.835,1.835,0,0,1-.519-1.279,1.78,1.78,0,1,1,3.559,0,1.836,1.836,0,0,1-.52,1.279,1.767,1.767,0,0,1-1.26.533Zm8.518,5.26-1.437,1.458-5.023-5.094,1.439-1.457Zm-8.465.762a7.5,7.5,0,0,0,2.861-.568l2.453,2.489a10.754,10.754,0,0,1-5.314,1.4A11.008,11.008,0,0,1,1.5,11.084,11.009,11.009,0,0,1,12.431,0,10.755,10.755,0,0,1,17.7,1.373L15.287,3.82a7.507,7.507,0,0,0-2.856-.566,7.727,7.727,0,0,0-7.655,7.8A7.726,7.726,0,0,0,12.431,18.846Z" transform="translate(-1.5)" fill="#fff"/>
</svg>
