<svg id="piggybank_icn" xmlns="http://www.w3.org/2000/svg" width="78.911" height="75.945" viewBox="0 0 78.911 75.945">
  <path id="piggybank_icn-2" data-name="piggybank_icn" d="M26.79,75.933l-1.028-.012a5.068,5.068,0,0,1-5.094-5.032L21.8,64.047A16.715,16.715,0,0,1,8.618,58.592L4.147,57.386C1.138,56.568.915,54.651.511,51.166.386,50.123.24,48.836,0,47.241c-.019-1.013.284-2.9,3.085-3.7l2.7-1.071a16.2,16.2,0,0,1,10.151-9.158l-3.5-6.643a1.652,1.652,0,0,1-.189-.765A3.242,3.242,0,0,1,15.2,22.429c3.584-.458,10.431,4.128,13.159,8.307a23.167,23.167,0,0,1,3.4-2.165,1.688,1.688,0,0,1,2.26.692,1.642,1.642,0,0,1-.7,2.234,19.544,19.544,0,0,0-4.372,3.1,1.707,1.707,0,0,1-1.624.388,1.662,1.662,0,0,1-1.155-1.193c-.505-2.037-4.039-5.385-7.555-7.161A6.527,6.527,0,0,0,15.7,25.7l4.189,7.943a1.638,1.638,0,0,1,.016,1.494,1.66,1.66,0,0,1-1.208.9A12.929,12.929,0,0,0,8.67,44.279a1.664,1.664,0,0,1-.957.987L4.174,46.66a2.054,2.054,0,0,0-.869.388c.251,1.346.406,2.667.529,3.74.37,3.185.37,3.185,1.2,3.411l4.962,1.337a1.672,1.672,0,0,1,.845.536A13.363,13.363,0,0,0,23.5,60.531a1.686,1.686,0,0,1,1.477.446,1.641,1.641,0,0,1,.481,1.452L23.99,71.16a1.76,1.76,0,0,0,1.771,1.456l1.082.012c1.565.019,3.5.055,4.127-.559a1.625,1.625,0,0,0,.334-1.18l.464-4.211a1.659,1.659,0,0,1,.921-1.3,1.687,1.687,0,0,1,1.6.066c3.826,2.272,13.3,1.957,17.078.018a1.687,1.687,0,0,1,1.532,0A1.645,1.645,0,0,1,53.8,66.69l.585,3.96a1.827,1.827,0,0,0,1.769,1.966h2.317c1.382,0,3.219-1.184,3.219-1.727L60.227,57.7a1.632,1.632,0,0,1,.19-.96,18.217,18.217,0,0,0,1.99-5.935,19.144,19.144,0,0,0-8.5-18.376,1.638,1.638,0,0,1-.417-2.3,1.689,1.689,0,0,1,2.327-.413A22.548,22.548,0,0,1,64.6,41.031a20.4,20.4,0,0,0,2.5-1.673,8.775,8.775,0,0,1-2.229-3.605c-1.271-3.624-.5-5.515.376-6.461a3.712,3.712,0,0,1,3.717-.988,6.767,6.767,0,0,1,4.647,4.861,5.95,5.95,0,0,1-.5,4.2,5.639,5.639,0,0,0,2.654-2.271,1.682,1.682,0,0,1,2.268-.664,1.64,1.64,0,0,1,.673,2.241,8.637,8.637,0,0,1-7.846,4.354c-.169-.013-.354-.036-.548-.068a23.787,23.787,0,0,1-4.837,3.4,24.758,24.758,0,0,1,.248,6.865,21.432,21.432,0,0,1-2.115,6.623L65.024,70.71c.01,3.205-3.939,5.212-6.555,5.212H56.152a5.071,5.071,0,0,1-5.1-5.032L50.8,69.231a29.959,29.959,0,0,1-15.96.048l-.2,1.792a4.541,4.541,0,0,1-1.324,3.355c-1.379,1.345-3.464,1.519-5.467,1.519C27.494,75.945,27.137,75.939,26.79,75.933ZM67.724,31.519c-.158.172-.412,1.076.316,3.152A5.483,5.483,0,0,0,69.452,37a3.692,3.692,0,0,0,.929-3,3.471,3.471,0,0,0-2.21-2.489,1.217,1.217,0,0,0-.268-.034A.274.274,0,0,0,67.724,31.519ZM15.967,45.6a1.667,1.667,0,0,1,0-2.314,1.769,1.769,0,0,1,2.376-.034,1.721,1.721,0,0,1,.5,1.192,1.659,1.659,0,0,1-.5,1.156,1.713,1.713,0,0,1-1.17.5A1.74,1.74,0,0,1,15.967,45.6ZM29.166,14.8a14.977,14.977,0,0,1,29.951,0,14.977,14.977,0,0,1-29.951,0Zm3.346,0a11.63,11.63,0,0,0,23.258,0,11.63,11.63,0,0,0-23.258,0Zm9.869,6.984V21.61a8.485,8.485,0,0,1-3.124-1.645,1.64,1.64,0,0,1-.164-2.333,1.689,1.689,0,0,1,2.36-.162,4.866,4.866,0,0,0,2.6,1.119c.861,0,1.589-.535,1.589-1.167,0-.554-1.292-1.011-2.06-1.232-1.241-.383-4.463-1.381-4.463-4.4A4.516,4.516,0,0,1,42.381,7.6V7.426a1.673,1.673,0,0,1,3.347,0v.19A4.869,4.869,0,0,1,48.29,9.484a1.641,1.641,0,0,1-.487,2.288,1.686,1.686,0,0,1-2.315-.48c-.655-1-3.017-.579-3.021.493,0,.146,0,.594,2.088,1.241,2.932.847,4.436,2.33,4.436,4.4a4.518,4.518,0,0,1-3.262,4.189v.169a1.673,1.673,0,0,1-3.347,0Z" transform="translate(0 0)" fill="#3e46af"/>
</svg>
